<?xml version="1.0" standalone="no"?>
<!DOCTYPE svg PUBLIC "-//W3C//DTD SVG 1.1//EN" "http://www.w3.org/Graphics/SVG/1.1/DTD/svg11.dtd" >
<svg xmlns="http://www.w3.org/2000/svg">
<metadata></metadata>
<defs>
<font id="closeregular" horiz-adv-x="907" >
<font-face units-per-em="2048" ascent="1536" descent="-512" />
<missing-glyph horiz-adv-x="409" />
<glyph horiz-adv-x="0" />
<glyph horiz-adv-x="682" />
<glyph unicode=" "  horiz-adv-x="409" />
<glyph unicode="&#x09;" horiz-adv-x="409" />
<glyph unicode="&#xa0;" horiz-adv-x="409" />
<glyph unicode="'" horiz-adv-x="348" d="M47 1116q0 13 2 17q9 39 17 51q16 19 33 61t20 49q9 21 28 47q12 19 28 17t31.5 -10.5t37.5 0.5l22 6q-2 -5 1.5 -74t-1.5 -72q-19 -22 -33 -32q-1 -1 -3 -4.5t-3 -4.5q-6 -10 -18.5 -30.5t-18.5 -30.5q-12 -12 -20 -16q-17 -7 -29 -21q-2 0 -4 1t-3.5 1.5t-2.5 -0.5 q-8 0 -12 -8q-6 -14 -31 -10h-12q-12 6 -13 8q-11 34 -16 55z" />
<glyph unicode="0" horiz-adv-x="1120" d="M8 776q4 36 29 109q1 2 3 7t3 7q7 26 41 84q27 49 57 96q49 63 82 101q1 2 4.5 6.5t5.5 7.5q22 38 78 74q7 4 22.5 13t22.5 13q2 2 15 6q49 10 108 54q15 11 23 6q7 -3 10 0q15 4 20.5 4.5t20.5 -2.5l20 -4q16 -2 39 -10q9 -3 13 -7q9 -10 31.5 -22t27.5 -16 q19 -12 86 -58q9 -5 41 -28q11 -7 29 -21q56 -41 100 -131q54 -107 72 -174q4 -16 10 -47t10 -47l12 -54q24 -67 27 -143v-61q0 -9 2 -13q4 -9 4 -47q3 -31 -12 -49q-6 -8 -10 -29q-7 -32 -15 -53q-19 -43 -34 -65q-41 -57 -80 -99q-4 -5 -9.5 -10t-13.5 -11l-12 -9 q-16 -12 -25 -21q-21 -16 -30 -18q-7 0 -11 -4q-10 -13 -25 -22.5t-33.5 -18.5t-27.5 -15q-6 -3 -18.5 -6t-15.5 -4q-9 -2 -34.5 -10t-39.5 -10q-92 -15 -189 14q-26 8 -72 31.5t-69 31.5q-2 1 -6 4.5t-6 4.5q-3 1 -23 6q-12 6 -18 12q-9 5 -31 23q-105 92 -166 274 q-16 49 -35 127q-24 100 -8 223zM225 772q-26 -98 11 -176q6 -14 17 -40.5t17 -39.5q42 -86 97 -133q18 -17 52.5 -49t51.5 -49q0 -1 1 -3t1 -3q4 -13 27 -17q10 0 30 -4q31 -3 140 12q56 9 71 9q29 0 35 2q62 18 86 57q40 73 49 100q17 47 25 129q2 37 -14 107 q-17 74 -39 186q-7 30 -15 55q-5 14 -17.5 37t-16.5 33q-15 20 -15 27q-2 23 -24 45q-16 18 -38.5 36t-39.5 29.5t-45.5 29.5t-42.5 28q-2 0 -4 2q-11 8 -23 -4q3 -1 8 -4.5t8 -4.5q-14 -7 -39 -17t-32 -13q-8 -5 -23.5 -15t-21.5 -14q-4 -2 -14 -7.5t-15 -8.5 q-25 -14 -74 -68q-6 -6 -17 -18.5t-17 -18.5q-33 -37 -91 -119q-39 -60 -49 -98z" />
<glyph unicode="1" horiz-adv-x="1032" d="M2 831q4 51 18 84q23 44 37 64q1 2 5 5l4 3q1 1 6.5 4t6 4.5t3 6t-1.5 8.5q-3 6 12 16q19 19 56.5 53t44.5 41q153 142 200 191q71 69 207 217q51 51 74 80q7 10 18 14q21 7 39 10q22 0 27 -12q10 -16 22 -21q31 -13 33 -34q7 -5 10 -13t4 -20t2 -16q9 -25 2 -54 q-4 -43 -20 -125q-10 -53 -29.5 -152.5t-27.5 -144.5q-21 -132 -31 -221q-18 -164 -25 -274q-4 -82 -8 -246v-72v-20q3 -14 19 -14q10 1 29 2t28 2h27h20q10 7 33 2q44 -10 82 -21q11 -4 14 -8t8 -18q3 1 13 6q7 -5 28 -31q-12 6 -20 8q1 -5 4 -14.5t4 -14.5q0 -2 -2 -6.5 t-2 -7.5q1 -2 6 -7t8 -9q-8 2 -16 6q-1 -5 1.5 -8t7.5 -5.5t7 -5.5q-4 -36 -51 -79q0 -3 4 -15q-2 -1 -12.5 -6t-16.5 -6q-28 -4 -45 -4q-82 0 -123 -8q-4 -1 -12.5 -1t-13.5 -1q-11 -1 -35 -4.5t-37 -4.5l-117 -12q-33 -2 -104 -10l-18 -6q-29 -8 -39 -10q-56 -6 -113 -9 q-36 0 -43 4t-26.5 11.5t-28.5 13.5l-7 7t-7.5 7t-5.5 6.5t-4.5 9t-2.5 9.5q6 6 10 12q-8 0 -12 2q5 45 8 60q1 4 17 20q40 40 49 47q45 34 102 49q104 29 176 39q2 1 8 2t9 2q-2 8 -2 25q-32 148 -35 281q0 136 6 206q21 163 25 185q10 49 34 143q3 13 10.5 40t10.5 40 q1 3 2 10t2 10l-4 2q-12 -8 -15 -14q-54 -82 -79 -123q-9 -15 -41 -69t-50 -82q-11 -20 -51 -80q-1 -2 -3 -7t-3 -7q-17 -30 -47 -21q-3 0 -8 -1t-8 -1q-9 -3 -12 -2t-7 10q-30 0 -35 2q-8 5 -29 8t-30 9q-5 -1 -21 -1.5t-24 -2.5q-9 -2 -23 3t-20 3q-4 6 -14.5 21.5 t-14.5 23.5q-12 21 -10 32zM475 362q4 -3 6 -3t3 1.5t3 8.5q-2 -1 -6 -3.5t-6 -3.5z" />
<glyph unicode="2" horiz-adv-x="968" d="M4 139q-5 20 2 27q2 0 2 2t-2 4q-3 11 10 41q6 13 31 86q2 5 23 53q2 2 2 4q13 36 36.5 77.5t37.5 60.5t51 69q42 58 65 119q5 15 15.5 43.5t15.5 42.5q1 2 2 6.5t2 7.5q-4 2 -13 8.5t-16.5 10.5t-15.5 6q-39 7 -55 33q-17 26 -64 63q-11 8 -21 18.5t-23.5 27.5t-18.5 22 q-4 4 -4 10q1 16 -8.5 39.5t-10.5 30.5q-1 3 -10.5 43t-13.5 61q0 16 -3 31q-2 22 -1 31.5t6 30t6 30.5q1 6 22 43q4 4 8 6q27 19 41 31q20 15 23 18q46 30 57 35q38 20 101 27q2 1 7 1t7 1q29 13 72 6q-2 -2 -5 -5.5t-4 -4.5l2 -4q18 6 56 -7q56 -17 123 -57q34 -15 55 -59 q1 -2 12 -29l-24 -18q1 -10 16 -60l12 -24q2 -20 6.5 -55t6.5 -48v-10q4 -8 5.5 -17.5t1 -16t-2.5 -18t-2 -16.5q0 -4 -1 -12t-1 -12q-1 -18 -4.5 -38t-9.5 -45t-9 -38q-5 -30 -23.5 -82.5t-21.5 -64.5q0 -1 -2 -6t-4 -7q-10 -15 -27 -67q-1 -6 -5.5 -16t-6.5 -15l-12 6 q-24 -56 -51 -111q8 -4 10 -4v-4l-21 -35q-4 -12 -4 -16q-1 -2 -2.5 -7.5t-2.5 -8t-3 -7t-5 -7.5t-7 -5q-8 -8 -8 -12q-1 -2 -6 -11t-6.5 -13t-3.5 -11.5t-1 -13.5l-12 -12q0 -9 -2.5 -12t-16.5 -11q6 -12 -2 -20q-4 -5 -28 -43h24q43 12 129 12q8 1 26 1t32 1.5t26 5.5 q2 2 8 2q76 11 132 21q21 3 59.5 10t54.5 10q10 2 31 5t31 5q1 -5 -5 -14.5t1 -11.5q6 -4 26 -4q2 0 7 1t8 1q-12 -16 -17 -21q5 -4 14 -10.5t13 -9.5q-15 -6 -25 -11q4 -2 7 -13t12 -13q-13 -9 -15 -15q-1 -3 4 -22q-6 -2 -7.5 -3t-5.5 -3.5t-5.5 -6t-1.5 -8.5q0 -6 -10 -6 q-13 2 -31.5 -7.5t-28.5 -10.5q-6 0 -6 -4q-2 -15 -22 -19q-28 -12 -115 -30q-130 -32 -168 -43q-44 -11 -84 -37q-7 -6 -35 -15q-67 -16 -100 -20q-14 -4 -43 0q-65 7 -115 -4q-32 -7 -55 8q-1 1 -9 5t-10.5 8.5t0.5 11.5q1 2 0.5 4t-2.5 2q-13 6 -22 37q-2 7 -7.5 20.5 t-7.5 20.5q-3 13 -8 37t-8 36zM249 1186q-4 -10 3 -33q0 -1 1 -3t1 -3q1 -5 2 -16.5t2 -16.5l2 -4q1 0 2 0.5t3.5 1.5t4.5 2q1 -5 6 -19t3 -20q-3 -9 6 -35q1 -3 4.5 -17.5t7.5 -21.5t8.5 -21.5t10.5 -25t18 -14.5q2 -1 4 -4l2 -4q10 -17 20 0l7 14q20 82 28 123q11 51 8 88 q-2 31 -28.5 52t-55.5 14q-13 -3 -45 -17q-21 -10 -25 -20z" />
<glyph unicode="3" horiz-adv-x="831" d="M0 1241q2 7 7 12.5t9.5 7.5t12 5.5t10.5 5.5v24q-3 16 12 27q26 16 33 18q149 50 223 56q98 10 166 -23q18 -9 66 -47q19 -13 39 -37q23 -23 20 -49q-3 -3 0 -6q6 -17 7 -35t-2 -38t-6.5 -33t-10.5 -35q-2 -7 -6 -19l-6.5 -19.5t-4.5 -18.5t-2 -21q0 -36 -30 -94 q-7 -12 -18 -35.5t-13 -28.5q-2 -6 -10 -18t-9 -13q9 -9 19 -12q6 -3 19.5 -8t19.5 -8q76 -34 147 -111q50 -53 80 -137q0 -2 1 -7t1 -7q0 -26 8 -45q4 -4 4 -15q4 -98 2 -147q0 -22 3 -43q0 -7 -6 -21t-7 -18v-17t-4 -20q-18 -39 -49 -86q-5 -8 -43 -51q-6 -6 -12 -8 q-6 -3 -19 -9t-16 -8q-41 -27 -90 -39q-14 -3 -47 -13.5t-52 -12.5q-70 -7 -120 6q-6 2 -15 2q-12 2 -92 28q-6 2 -14.5 8.5t-11.5 8.5q-76 37 -97 49q-8 3 -21 12.5t-18 12.5q-6 0 -6 4q0 11 -10.5 25.5t-11.5 17.5q-9 19 -4 30q2 2 2 21q-4 9 4 29l6 18q5 17 16 43 q6 6 10 8q39 15 48 21q11 5 20 -4q32 -26 98 -37q26 -4 35 -11q82 -54 217 -47q25 0 35 2q12 2 17 5.5t8 15.5q15 49 26 80q17 50 -8 119q-43 106 -135 157q-67 38 -154 51q-12 3 -36 10.5t-37 10.5l-4 4q-3 6 -10.5 17.5t-11.5 21.5t-1 22q1 5 -0.5 15t-1.5 12q1 14 29 51 q26 40 77 78q65 56 105 131q18 38 4 74q-13 35 -33 80q-10 31 -41 28q-51 0 -78 -2q-8 0 -43 -10q-11 -3 -32.5 -9t-32.5 -9q-22 -11 -27 -13q-7 -5 -20 -8q8 19 0 25q-2 -1 -6.5 -2t-7.5 -2t-5.5 -4t-1.5 -9q0 -4 -8 -4q-12 3 -24 11q-12 10 -21 8q1 4 4.5 8.5t3.5 5.5 q-5 4 -6 8t0 7t4 8.5t4 7.5q-2 2 -6 5t-6 5z" />
<glyph unicode="4" horiz-adv-x="739" d="M2 827q16 125 16 285q0 47 13 162q5 40 4 47l6 18q3 5 9 15.5t9 15.5q4 -4 11 -4q11 -4 16 8l6 6q9 12 14.5 12t14.5 -12q7 -13 20 -16q5 0 19 -14q12 4 16 0q3 -3 9.5 -8.5t9.5 -8.5q-3 -25 -3.5 -33t2.5 -32.5t3 -32.5q2 -18 2 -55q0 -1 -0.5 -9t-3.5 -11.5t-11 -4.5 q-2 -14 -10 -37q-4 -32 -4 -47q-2 -8 -2 -24v-41q0 -15 2 -23q6 -17 2 -41q-2 -39 -6 -113q-4 -40 4 -122q2 -4 2 -9q4 -23 11 -28.5t30 -7.5q76 -8 182 14q17 2 49 14q42 17 45 66q3 95 9 196q6 74 18 152q2 28 37 63q2 2 6 6.5t6 6.5q13 16 25 -2q1 -1 1.5 -3t1 -5t1.5 -5 q5 1 16.5 3t16.5 3q0 -4 -1 -10.5t-1 -12t2 -9.5q11 -22 12 -27q2 -7 6 -22.5t6 -22.5q1 -3 3 -8t3 -8q1 -1 4 -5t3 -6q0 -3 6 -35t6 -49q0 -3 -6 -180v-102q-4 -100 -8 -146q-11 -119 2 -260q9 -80 20 -200q1 -9 4 -23.5t5 -27t3 -23.5q2 -15 -2 -53q-6 6 -14.5 9.5t-14 5 t-15 3t-13.5 2.5q-2 1 -16 10q0 -3 -3.5 -10t-3.5 -8q-17 2 -36 29q-4 -7 -10.5 -10.5t-16.5 -6t-14 -4.5q-2 -2 -8 0.5t-7 5.5q-8 19 -10 31q-15 76 -33 186q-10 53 -6 158q0 90 2 133v43q-18 -3 -33 -6q-14 -3 -41.5 -10t-40.5 -10q-15 -6 -30 -9q-12 -2 -37 -5t-37 -5 q-13 0 -37 -4h-20q-6 3 -22.5 10t-24.5 10.5t-20 11t-21 15.5q-4 6 -17 10q-37 12 -55 60q-14 34 -29 88q-4 14 -4 41q-8 75 -4 112z" />
<glyph unicode="5" horiz-adv-x="901" d="M4 94q-4 48 6 68q-2 7 6 16.5t7 16.5q0 1 10 6q3 3 10.5 7t9.5 5q31 22 56 -6q2 -2 6 -5t6 -5q6 -5 17.5 -15.5t17.5 -15.5q22 -22 82 -45q50 -17 106 4q90 31 141 59q64 35 95 66q8 8 16 24q45 97 8 197q-18 53 -35 90q-7 15 -28 41q-12 17 -43 14q-56 -7 -123 -47 q-61 -28 -109 -28q-9 0 -26.5 3.5l-22.5 4.5q-4 1 -13.5 4t-13.5 4l-12 6q-5 7 -15.5 21.5t-15.5 21.5q-8 8 -8 15q-4 40 -4 61q0 35 4 109v71q0 13 -2 36t-2 34l-6 117q-4 68 -8 104q0 6 1.5 22.5t0.5 24.5q-4 34 0 49q3 20 16 47q1 2 15 9q15 10 16 12q3 16 33 24 q174 34 217 41q75 14 160 27q37 6 114 14q40 5 45 7q16 7 43 -11q26 -19 52 -28q4 0 8 -4t4 -9q1 -6 1 -18.5t1 -18.5q0 -3 -1 -10.5t-0.5 -12t3.5 -10.5t10 -10q-7 -2 -14.5 -5.5t-9.5 -4.5q0 -1 -1 -4.5t-1 -5.5q0 -18 -19 -27q-41 -27 -102 -30q-6 0 -88 -11 q-13 0 -19 -2q-9 -6 -20.5 -8t-26 -2.5t-22.5 -1.5l-111 -18q-20 -4 -29 -4q-22 -3 -22 -25q-4 -130 -8 -191q0 -7 -17 -104v-6q15 0 21 2q8 1 24.5 3t24.5 3q57 8 123 -18q122 -48 190 -150q37 -53 58 -102q23 -57 32 -92q20 -67 17 -129q0 -20 -4 -56q0 -39 -23 -65 q-10 -11 -19 -24t-20 -30.5t-16 -25.5q-14 -20 -43 -72q-44 -64 -66 -80q-32 -22 -71 -41q-34 -18 -72 -18q-1 0 -19 -6q-16 -4 -26 -8q-1 -1 -5.5 -2t-7.5 -2t-4 -3q-3 -6 -7.5 -9t-7.5 -4t-10.5 -2t-8.5 -1q-49 -6 -97 0q-8 0 -25.5 1t-25.5 1q-5 0 -16.5 1t-16.5 1h-4 q-21 -1 -102 8q-16 3 -29 13q-26 26 -28 41q-1 0 -1.5 1t-1.5 1q-12 7 -19 17t-14.5 31t-9.5 25q-15 29 -16 37z" />
<glyph unicode="6" horiz-adv-x="798" d="M0 346q2 38 14 103q11 58 37 122q2 10 10 21q5 9 31 74q15 30 17 36q2 4 4 13t4 12q42 82 53 107q17 38 82 120q52 74 67 101q14 20 39.5 62.5t38.5 62.5q7 10 23.5 29.5t23.5 29.5q2 3 14 17.5t17 23.5q3 5 8 10.5t12.5 11.5t10.5 9q28 28 39 32q1 1 3 4.5t3 4.5 q24 34 47 63q6 8 23 17q19 7 32 20q8 -4 13 -4q12 4 14 8q8 14 35 10q10 0 16 -2q11 -5 12 -8q14 -46 15 -59q0 -13 -2 -19q-14 -42 -23 -51q-18 -21 -39 -64.5t-26 -52.5q-1 -2 -35 -47q-20 -26 -90 -139q-13 -25 -70 -104q-79 -109 -115 -156q-1 -2 -3 -5t-3 -5 q-3 -6 -9 -17.5t-9 -17.5q-6 -18 -8 -23q42 -5 47 -4q40 6 78 -14q59 -33 131 -78q47 -30 71 -80q5 -8 15.5 -21.5t13.5 -17.5q41 -55 63 -157q9 -56 9 -76q3 -53 -23 -103q-5 -10 -41 -61q0 -4 -2 -4q-19 -47 -67 -80q-9 -8 -39 -53q-42 -55 -101 -58q-14 -1 -39 -7t-34 -7 q-74 -18 -99 -18q-86 0 -143 49q-7 6 -23 17.5t-26.5 21.5t-16.5 22q-10 6 -18.5 16.5t-17 24.5t-13.5 21q-5 5 -7.5 11t-5.5 18t-3 14q-21 85 -23 98q-3 14 -8 53q-4 82 -4 123zM190 256q4 -44 11 -76q6 -45 26 -80q8 -13 25 -20q44 -9 84 0q86 16 147 53q15 6 25 19 q50 77 31 147q-9 42 -35 107q-8 31 -39 55q-23 20 -57 14h-23q-41 4 -66 -14q-13 -6 -16 0q-4 4 -8 5t-6.5 0.5t-7.5 -2t-7 -1.5q-16 -4 -22 0q-30 9 -39 -17q-7 -27 -14 -67q-1 -13 -2 -39.5t-2 -40.5q-1 -7 -2.5 -22t-2.5 -21z" />
<glyph unicode="7" horiz-adv-x="1030" d="M4 1376q-4 42 8 58q21 21 19 32q29 25 47 25q10 0 20.5 -1t23.5 -2.5t21 -2.5q23 -2 140 -2q17 0 36.5 1t43 2.5t36.5 2.5q12 1 37 4t37 4q21 3 62 8t61 8q46 6 98 15q21 2 56 18q19 6 34 4q15 -4 19 -12q10 -10 16 -12q33 -10 47.5 -43.5t7.5 -65.5q-9 -54 -38 -135 q-37 -89 -60 -170q-6 -24 -20.5 -65.5t-18.5 -53.5q-18 -61 -24 -84q16 -4 24 -4q13 0 41 1t43 1q13 0 13 -12q12 2 33 6t32 6q4 0 6 -2q32 -16 37 -20q24 -16 35 -27q9 -6 10.5 -10.5t-4.5 -13.5q-6 -11 6 -23q-18 -3 -33 -6q0 -30 -14 -47q-1 -1 -4.5 -6t-5.5 -6.5 t-5.5 -5t-7 -4.5t-8.5 -1h-2q-3 -6 -7 -9.5t-9.5 -5.5t-9.5 -3t-11.5 -1.5t-9.5 -0.5q-67 -13 -121 -21q-17 -1 -51 -2t-51 -2q-17 0 -21 -8q-28 -46 -30 -49q-23 -58 -37 -109q-24 -78 -33 -164q-1 -4 -3 -11t-3 -11q-5 -29 -20 -184q0 -39 -5 -68q-1 -9 -12 -41 q-39 -3 -45 -35q-2 10 -8 21q-2 -8 -2 -15q-9 -20 -33 -14q-22 3 -39 -8q-4 -3 -12 -5.5t-10 -4.5q-6 10 -11 12q-6 3 -11 8.5t-7.5 9.5t-6 13t-5.5 12v8l2 6q-4 3 -5.5 7t-1.5 7.5t0.5 9t0.5 7.5q1 24 4 70.5t4 68.5q3 76 24 129q11 24 19.5 53t16.5 65t13 54q6 28 33 111 q3 12 6 27h-34q-90 -15 -103 -17q-18 -3 -33 0q-6 1 -22 1.5t-26.5 1.5t-20.5 5q-2 1 -5.5 2t-5.5 2t-5 3.5t-2.5 5t1.5 6.5v2q-9 7 -11 16t0 21.5t1 17.5q0 1 -1 3t-1 3q2 1 6 4l6 4.5t4 5t1 7.5q0 6 12 12q4 3 13 9t13 9q18 10 21 37q6 1 25.5 8.5t31.5 6.5q4 0 8 4 q18 14 64 22q20 2 61 7.5t62 7.5q22 3 28 24q21 87 86 240q30 69 46 114q3 6 8 18.5t8 18.5q3 8 6 25q-28 2 -78 -6q-135 -27 -184 -33q-91 -16 -176 2q-8 1 -23.5 6.5t-17.5 5.5q-17 0 -23 2q-9 4 -27.5 12.5t-27.5 12.5q-14 7 -29 10q-22 3 -30 19q-2 4 -11.5 11t-11.5 15 z" />
<glyph unicode="8" horiz-adv-x="800" d="M10 1071q-19 57 2 109q2 6 9 24.5t10.5 27t10.5 23t15 25.5t17 20q1 0 22 29l2 4q9 4 22.5 19t22.5 20l4 2q14 14 33.5 29t33 23.5t39.5 24t36 22.5q15 7 28 10q11 2 32.5 6t33.5 6h43q17 0 23 2q30 3 61 -18q24 -20 47 -29q10 -5 20 -13t15 -12.5t16.5 -16.5t14.5 -15 q4 -4 11 -13.5t11 -13.5q23 -26 45 -76q29 -52 29 -135q0 -37 -12 -111q-2 -18 -15 -57q-21 -54 -39 -94q-8 -16 -25.5 -44.5t-23.5 -39.5q-1 -2 -3 -5t-3 -5q-14 -29 -13.5 -33.5t21.5 -28.5q10 -13 64 -96q9 -12 20 -33q5 -11 20 -40t23 -46q8 -19 12 -49q15 -87 15 -106 q0 -40 -4 -58q-3 -14 -17 -51q-9 -38 -20 -72q-4 -12 -12 -16q-6 -2 -15 -20q-1 -3 -3 -7.5t-3.5 -7.5t-4 -7t-5.5 -6.5t-8 -4.5l-2 -4q-28 -40 -74 -86q-7 -8 -22.5 -23.5t-22.5 -23.5q-8 -4 -8 -9q-1 -8 -7.5 -14t-9.5 -7t-14 -5q-32 -9 -82 -31q-10 -5 -22.5 -8t-21 -4.5 t-23.5 -3t-21 -2.5h-43v-2q-46 0 -66 2q-54 0 -90 36q-3 3 -19.5 17.5t-23.5 23.5q-25 41 -39 107q-19 67 -16 149q0 22 8 62q5 29 19 69q25 74 47 121q8 17 18 35t17.5 32t20.5 34.5t19.5 31t22 33.5t20.5 30.5t22.5 33t20.5 30.5q1 1 3.5 4.5t3.5 4.5q6 10 5.5 15t-9.5 15 q-54 54 -132 99q-59 35 -96 90q-21 33 -41 102zM203 1094q0 -16 12 -25q33 -26 53 -39q38 -25 88 -59q20 -13 50 -35l10 10q5 11 15 32.5t15 33.5q49 107 37 223q-4 43 -18 61q-10 17 -29 11q-85 -20 -143 -62q-8 -6 -22 -19.5t-19 -17.5q-52 -39 -49 -114zM254 219 q2 -21 6.5 -27.5t22.5 -13.5q36 -15 39 -18q22 -16 49 -13q4 1 14 2.5t14 2.5q92 16 142 86q29 39 22 98q-5 37 -43 119q-7 18 -45 86q-20 40 -41 55q-2 -2 -7 -6t-7 -6q-80 -94 -115 -174q-4 -11 -17.5 -37.5t-17.5 -42.5q-19 -55 -16 -111z" />
<glyph unicode="9" horiz-adv-x="813" d="M2 1098q0 51 10 76q11 29 11 55q2 15 18 43q20 40 37 57q18 20 55 49q23 16 45 29q25 10 31 10q17 2 33.5 6.5t38 12t30.5 10.5q33 11 58 16q5 2 14 -2q6 -1 21 -8.5t24 -7.5q12 -2 33 -2h14q66 -13 90 -29q74 -51 133 -119q2 -5 9 -8q9 -3 18.5 -17t15.5 -18 q9 -13 9 -22q3 -30 9 -90.5t9 -91.5v-21q0 -1 -1 -4.5t-1 -5.5q5 -30 5.5 -61t-0.5 -75.5t-1 -60.5q0 -22 -4.5 -60t-5.5 -54q-4 -36 -4 -56q-11 -89 -35 -147q-8 -18 -20 -51.5t-15 -42.5q-5 -13 -15.5 -36t-15.5 -36q-16 -36 -53 -107q-10 -19 -45 -63q-42 -49 -43 -49 l-44 -49.5t-39 -39t-52 -40.5q-12 -6 -47 -21q-26 -11 -43 -16h-23q-55 -6 -63 -4q-24 4 -31 14q-14 23 -14 29q0 2 -2 4t-4.5 5t-4.5 5q0 18 -12 23q-3 2 -7 8.5t-5 7.5q19 32 61 61q73 50 125 86q29 18 58 54q13 15 36.5 43.5t36.5 42.5q26 26 31 59q5 26 15.5 81t15.5 81 q2 4 2 10q-4 4 -8 6q-51 10 -97 21q-26 6 -49 18q-4 1 -41 17q-69 22 -104 53q-4 4 -15 10t-14 10q-5 7 -21.5 20t-21.5 23q-9 14 -31 54q-43 76 -43 77q-19 37 -26 62q-33 98 -31 166zM252 932q11 -55 57 -55q40 -5 45 -5q54 0 86 23q33 24 101 88q37 37 26 107 q-2 18 -14 49q-14 28 -23 37q-19 21 -59 53q-19 16 -45 6q-36 -13 -82 -59q-51 -54 -84 -154q-16 -47 -8 -90z" />
<glyph unicode="A" horiz-adv-x="948" d="M2 158v37v61q-1 17 8 80v6q1 22 10 63.5t11 53.5q8 54 32 174q5 27 41 203q16 92 19 106q7 45 14 78q5 24 22.5 88.5t24.5 101.5q2 9 7.5 29t7.5 29q1 10 3 30.5t3 30.5q10 10 10 31l6 24q0 1 1 2.5t1 2.5q3 6 23 51q15 9 37 20q0 5 1 16t1 17q4 1 11.5 2t10.5 2 q3 -1 9.5 -4t9.5 -5t8 -5t7.5 -6.5t4.5 -8.5q28 -8 47 -34q3 -4 11.5 -12.5t11.5 -12.5t9 -12.5t9 -12.5q1 -1 2 -3t2 -3q5 -8 25 -33.5t29 -39.5q27 -44 57 -103q31 -60 41 -84q4 -9 16 -36.5t17 -43.5q2 -7 18 -51q5 -12 15.5 -37t15.5 -37q4 -10 11 -30.5t11 -30.5 q10 -29 27 -68q5 -15 6 -16q6 -8 10 -23q5 -21 8 -28q44 -117 66 -199q5 -21 16.5 -62t16.5 -61q20 -88 24 -106q3 -14 9.5 -41.5t9.5 -42.5q1 -5 3 -14.5t3 -14.5t4 -22.5t6 -26.5q4 -13 3.5 -29.5t-3.5 -36.5q-2 -6 -2 -16h-6q-4 -8 -6 -10q-21 -11 -27 -15q-55 16 -78 31 q-8 -4 -12 -4q-4 4 -14 19q-9 12 -13 34q-16 70 -20 82q-1 4 -2 12.5t-2 12.5q-4 21 -29 129q-3 13 -8 41t-8 41q-2 9 -23 80q-4 16 -13 46t-13 46q-11 26 -19 47q-19 4 -33 -2q-4 -1 -9 -3.5t-10.5 -7t-8.5 -6.5q0 -4 -2 -10q-7 0 -23 -4h-4v2q-28 -4 -43 -4 q-23 -2 -46.5 -2t-47.5 2q-18 0 -31 -8q-43 -17 -65 -23q-1 -1 -4.5 -2t-5.5 -2t-3 -2q-6 -6 -6 -22q-2 -22 -10.5 -65.5t-9.5 -67.5q-1 -30 -8.5 -94t-8.5 -95q0 -77 7 -115q1 -10 -13 -43q-6 -2 -14 -6q-2 -6 -6 -14q-4 0 0 -1t0 -1q-21 11 -23 12q-1 -3 -4.5 -12 t-5.5 -14q-5 -4 -15.5 -12.5t-15.5 -12.5q-17 -10 -30 -10h-17v2v-2q-10 6 -31 20h-14q-17 10 -33 23q3 7 -2 31l-6 18q-4 17 4 25q-8 20 -8 49zM195 63h6v3h-6v-3zM281 748h10q10 1 29.5 4t29.5 4q16 4 56 8q37 4 114 4q25 0 37 6q-1 2 -2 6t-2 6q-5 15 -16.5 43t-16.5 43 q-7 15 -15 33.5t-17 40.5t-15 35q-6 17 -29 70q-2 6 -6 17t-6 17q-23 52 -45 91q-13 17 -20 20q0 -1 -5 -16q-2 -10 -5 -31t-5 -31q-8 -41 -24 -127q-2 -8 -7.5 -28t-7.5 -31q-3 -12 -8 -38t-8 -40q-9 -34 -16 -94v-12zM530 627l2 -4q1 0 2.5 1t2.5 1l-2 2h-5z" />
<glyph unicode="B" horiz-adv-x="974" d="M0 1239q0 12 4 14q8 11 8 27q0 10 8 18q2 1 16.5 12t22.5 15q58 28 119 43q84 21 146 29q46 4 88 4q85 0 157 -17q59 -13 84 -20q9 -3 28 -8t27 -8t21.5 -8.5t25 -13.5t23.5 -19q44 -36 62 -72q17 -40 17 -76q0 -15 -3 -29q-2 -9 -4 -55t-10 -65q-3 -8 -10.5 -23.5 t-10.5 -23.5q-4 -9 -10 -17.5t-17.5 -20t-13.5 -14.5q-10 -11 -31 -30.5t-28 -26.5q-12 -9 -27 -18q8 -4 19.5 -12.5t15.5 -10.5q63 -42 80 -59q64 -64 96 -127q23 -51 29 -82q1 -5 1 -12.5t-0.5 -16t-0.5 -12.5q0 -35 -6 -49q-3 -9 -6 -15q-1 -4 -3 -15t-2 -17 q0 -27 -18 -56q-15 -23 -27 -37l-24 -30q-41 -58 -94 -82q-32 -16 -52 -31q-15 -13 -65 -35q-31 -15 -64 -24q-83 -25 -141 -27q-15 -1 -29 -1q-23 0 -43 3q-17 4 -36 5t-41.5 0.5t-34.5 0.5q-13 1 -36.5 4t-35.5 4q-10 1 -29.5 2t-29.5 2q-3 0 -13 5q-4 -2 -13 -7.5 t-13 -7.5q-2 1 -23 15q-18 12 -24 30q0 4 -2 6q-14 17 -9 58q2 17 11.5 49t11.5 49q3 14 0 25q0 67 6 106q11 67 11 128q0 14 -1 28q-2 26 -2.5 73t-1.5 62q-1 13 -5 36t-5 34q-7 41 -14 102q-10 90 -11 102v66v12q-10 43 -14 129q0 5 -2 16.5t-2 16.5zM135 1094 q4 -17 12.5 -51l12.5 -50q16 -86 18 -129q0 -8 2 -12h53q58 9 76 10q54 6 103 21q111 34 182 84q50 34 70 71q44 80 51 107q1 6 1 11q0 26 -32 44q-4 1 -8.5 4.5t-5.5 3.5q-71 23 -72 23q-76 19 -155 19q-20 0 -40 -1q-71 -3 -145 -18q-11 -2 -86 -17q-17 -4 -20 -8t-5 -22 v-8q-1 -8 -8 -37q-5 -20 -5 -34q0 -6 1 -11zM195 616q1 -9 6 -59q2 -20 2 -59v-60q0 -21 6 -39q2 -6 2 -18q1 -13 6 -35t6 -33q0 -1 6 -37q1 1 2.5 -2t2 -6t2 -6t2.5 -2q0 -7 1 -8.5t1 -7.5q9 0 25.5 -2t29.5 -2t24 4q10 3 36 9t36 9q8 2 52 9t65 18q6 4 143 82q46 22 68 59 q11 20 13 36v7q0 13 -4 27q-5 18 -5 24q0 1 -6 13q-37 48 -94 131q-10 13 -45 24q-11 5 -34 6t-30 2q-33 2 -100 2q-32 0 -70 -10q-8 -2 -12 -6q-4 -2 -10 -4t-9 -4q-4 -2 -11 -5t-11 -5q-10 -2 -18 -5.5t-19.5 -10t-24.5 -11.5q-4 -2 -16.5 -12t-17.5 -13z" />
<glyph unicode="C" d="M2 725v15q0 70 25 141q61 146 100 204q35 48 84 101q37 43 90 86q39 31 92 63q34 19 92 45q1 0 23 6q39 12 180 35q22 4 44 4q27 0 52 -6q50 -14 66 -53q0 -4 4 -8q9 -17 9 -38q0 -30 -19 -67q-21 -34 -62 -34q-34 -3 -63 0q-5 0 -55 -11q-12 -4 -38 -12t-38 -12 q-149 -48 -242 -160q-89 -107 -125 -229q-15 -53 -15 -107q0 -42 9 -84q14 -60 68 -141q38 -60 88 -101q43 -35 112 -45q22 -3 44 -3q40 0 81 10q15 3 88 18q12 2 24 -6t15 -21q1 -1 4 -5t4 -7q-12 -8 -16 -12v-4q28 9 55.5 3t44.5 -34q-3 -2 -9 -7t-9 -7q5 -19 25 -39 q-1 -4 -5.5 -11.5t-5 -11t1.5 -12.5q3 -5 -8 -16q-5 -4 -21 -15t-22 -18q-4 -7 -8.5 -12t-12.5 -9t-10.5 -5.5t-14.5 -6.5l-11 -4q-1 -1 -3 -2t-3 -2q-38 -29 -114 -29h-19q-142 6 -244 92q-102 88 -152 162q-3 4 -9 12.5t-9 12.5q-20 20 -49 80q-59 110 -72 143 q-35 83 -41 174z" />
<glyph unicode="D" horiz-adv-x="874" d="M4 784q2 33 2 83v54q-1 38 -1 68q0 40 1 68q0 25 2 73.5t2 71.5q0 78 8 117q14 69 27 88l12 12q3 3 10.5 8.5t10.5 8.5q6 0 26 4q0 1 -1 4t-1 4q11 7 19 10q8 4 20.5 4t28.5 -4q5 -1 16.5 -3t16.5 -3q26 -5 33 -8q95 -33 157 -82q49 -34 68 -49q13 -9 36.5 -31t28.5 -27 q8 -6 24.5 -19t24.5 -19q47 -35 72 -66q52 -58 53 -59q5 -6 13.5 -19.5t9.5 -15.5q5 -11 15.5 -32.5t15.5 -33.5q3 -5 7 -16.5t7 -16.5q41 -108 57 -202q6 -35 6 -73q0 -31 -4 -62q-4 -39 -14 -64q-5 -16 -17.5 -46t-17.5 -46q-5 -13 -15 -40t-15 -40q-5 -10 -7 -12 q-2 -5 -34 -66q-3 -6 -7 -10q-18 -23 -26 -29q-43 -34 -64 -49q-7 -5 -35 -25.5t-45 -29.5q-55 -37 -81 -51q-3 -2 -37 -13q-7 -2 -19.5 -5t-22.5 -6t-18 -7q-15 -6 -28 -19q-15 -15 -72 -38q-4 -2 -10.5 -4t-11 -4t-10 -5t-9.5 -6q-21 -12 -37 -6q-6 1 -12.5 -0.5t-9 -3 t-9.5 -6.5t-8 -6q-2 0 -4 -2q-38 9 -63 34q-5 5 -7 9q-13 37 -18 67q0 4 2 6q2 -1 6.5 -2t7.5 -2q-4 22 -8 35q-16 0 -16 25q-8 65 -10 102v49q0 84 -2 127q-7 123 -17 217q-4 46 -4 84q0 28 2 51zM207 379q0 -54 4 -156q0 -2 4 -14q10 0 14 2q23 4 70.5 13.5t71.5 13.5 q95 18 164 90q17 16 45.5 48.5t33.5 37.5q1 2 4.5 7t4.5 7q2 5 22 51.5t31 69.5q14 37 20 80q4 32 4 57q0 18 -2 33q-14 99 -43 166q-37 90 -77 137q-57 65 -82 84q-50 35 -60 41q-58 38 -96 76q-28 28 -76 53q-5 4 -17.5 9.5t-15.5 6.5v-24v-23q-1 -12 -3 -33t-3 -39t0 -34 v-27q-1 -16 -3 -46.5t-3 -45.5q0 -14 -1 -29t-2.5 -34t-2.5 -29q-6 -117 -6 -121v-131q0 -16 1 -49t1 -49v-129q0 -12 -1 -35.5t-1 -34.5z" />
<glyph unicode="E" horiz-adv-x="729" d="M2 1470q-2 5 8 15q4 4 10 4q11 -2 20 1.5t20.5 12t15.5 10.5q6 5 16 9q7 0 21 1t20 1q32 5 51 20q-6 3 -13.5 3t-15.5 -1.5t-12 -1.5q-8 1 -23 -0.5t-20 -1.5q-21 -4 -41 2q8 3 19 10q-1 1 -3.5 5t-4.5 6q19 4 57 8q16 3 46 8t54.5 9t46.5 7q74 12 150 15q37 4 115 8 q5 0 14 -1t14 -1q12 2 35 -14q2 -2 9 -7t10.5 -8t6.5 -9t3 -13q4 -2 6 -4q16 -8 25 -11q2 -12 4 -23.5t4.5 -24.5t3.5 -21q-6 -4 -8 -11t-1 -13.5t-1 -14.5q-22 -5 -37 -31q-8 -13 -25 -16q-30 -2 -160 -17q-13 -1 -39.5 -4t-40.5 -4q-23 -2 -63 -6q-14 -4 -29 -6 q0 -12 -2 -37t-2 -37v-223q0 -13 2 -21h41q28 -1 83 -2t83 -2q5 0 17 -4q8 -4 36 -16q-2 -1 -6 -4t-6 -4q11 -23 31 -25q15 0 43 -14q13 -7 15 -12.5t-3 -20.5q24 -20 10 -45q-14 -29 -22 -35q-4 -5 -15 -8t-12 -4q0 -15 -4 -21q-2 -4 -18 -4q-31 -2 -95 -2q-42 0 -65 2 q-16 1 -45 3t-45 3q-20 1 -26.5 -6t-6.5 -26q8 -111 10 -164q0 -56 -4 -158v-123v-10q0 -14 4 -17.5t17 -3.5q18 1 51 4.5t49 4.5h129q8 0 25.5 1t25.5 1q17 0 41 -4q2 -1 4 -4.5t5.5 -8.5t5.5 -8q2 0 18 -4q-4 -11 -8 -29q15 0 20 -12q2 -2 5 -3.5t8 -3.5t8 -3q0 -2 3 -13 t-3 -16l16 -8q-1 -4 -3 -13.5t-4 -15t-8 -11t-16 -7.5q6 -15 -14 -35q-25 -25 -41 -31q-10 -7 -20 -10q-88 0 -131 -2q-15 -1 -45.5 -3t-45.5 -3q-16 -2 -47 -2q-37 0 -55 -2h-5q-18 0 -44 12q-48 27 -80 84q-37 64 -37 145q0 45 1 136t1 137v12q-3 23 -3.5 48t0.5 60t1 48 v155v39q0 3 -12 27q1 0 2.5 -0.5l4.5 -1.5t5 -2q0 2 1 7t1 7q0 21 1 63t1 64q3 111 6 219q4 33 -18 49q-3 1 -8 17q8 8 12 14q-2 1 -25 14t-30 27q4 8 4 12q-9 3 -21 9q0 -3 1 -8t1 -7q-6 -3 -11 -1.5t-5 7.5zM135 1561q4 -1 7 -1q10 0 16 9q-4 -1 -12 -2t-11 -2v-4z" />
<glyph unicode="F" d="M2 16q-2 11 -2 22q0 12 2 23l6 99q1 21 4 59t5 69.5t3 59.5q1 22 3.5 68t2.5 68q0 4 1 9q0 21 -2 58q-1 14 -1 42q0 46 3 130q4 132 4 199q2 27 1.5 54t-1.5 54q0 1 -6 55v54q-1 24 -4.5 73.5t-4.5 75.5q0 8 1 26t1 27t-2 13q-11 25 13 53l12 6q5 5 11 12.5t7 8.5 q28 5 60 12q0 2 -2 2q31 0 93 -1t93 -1q24 -1 47 -1q104 0 182 15q22 3 68 10.5t68 10.5q14 2 45 2q8 -4 27 -10.5t28 -10.5q13 -4 31 -18q3 -2 10.5 -11t13.5 -12q1 -4 2 -13.5t2 -14.5q5 -5 17 -13q0 -2 -2 -2q4 -7 12 -22.5t12 -22.5q-10 -10 -30 -26q2 -3 4 -10t4 -11 q-3 -3 -9.5 -9t-9.5 -9q-3 -1 -22.5 -8t-30.5 -7q-6 0 -18.5 -1t-18.5 -1h-43q-23 -3 -68.5 -9t-68.5 -9q-17 -1 -49.5 -3t-48.5 -3q-23 -1 -68 -4t-67 -4q-12 -2 -39 -2q3 -14 6 -19h-2q-4 -46 -4 -65v-183q0 -4 1 -11t1 -11q14 -5 34 -8q13 -1 26 -1q40 0 79 7q9 2 57 2 q2 0 6.5 -2t6.5 -2q25 -11 41 -13q4 -3 12 -7.5t13.5 -9t8.5 -11.5q29 -3 49 -29q0 -2 -1 -6t-1 -6q1 -2 4.5 -7.5t4.5 -7.5q-1 -5 -2 -15.5t-2 -16.5l-24 -15t-19 -12q18 -14 6 -35q-16 -4 -29 -4q-48 -2 -83.5 -2t-59.5 2q-28 1 -125 10q0 -4 -2 -11t-2 -11q-3 -13 0 -27 q3 -23 3 -54q0 -42 -5 -101q-4 -44 -5 -125.5t-4 -118.5q-4 -90 -8 -137q-1 -10 -6.5 -41.5t-7.5 -51.5q-6 -8 -17 -26t-16 -25q-1 -2 -6 -18t-12 -23h-43l-18 -16q-17 -16 -32 -16q-15 13 -43 6l-40 30q-17 19 -21 43z" />
<glyph unicode="G" horiz-adv-x="1013" d="M2 688q2 67 21 182q1 3 3 8.5t3 8.5l4 8q3 15 8 43t8 43q0 10 2 14q4 26 10 41q3 -2 7 -5.5t6 -4.5l2 2q22 50 28 68q2 4 8 19t9 22q7 17 12.5 48.5t7.5 41.5v8q-11 20 6 45q26 55 89 98q54 33 67 37q34 10 82 10q23 0 67.5 1t65.5 1q19 0 51 -4q3 0 15 -6q46 -23 61 -33 q41 -29 66 -51q80 -80 118 -157q19 -36 35 -80q6 -12 21 -52q12 -27 -2 -43q-1 -1 -1 -5.5t-1 -6.5q-24 -4 -45 -4q0 -1 -5 -6q-1 1 -6 7t-10 11q2 -10 2 -18q-18 0 -43 25q0 -2 -1 -7t-1 -8q-3 4 -11.5 24.5t-19.5 26.5l-6 -24h-2q-3 6 -9 19.5t-9 19.5q-22 59 -58 106 q-45 59 -88 78q-34 18 -66 18q-28 0 -54 -14q-5 -3 -15.5 -11t-15.5 -11q-17 -12 -41 -62q-1 2 -2 3.5t-3 4t-3 4.5q-6 -14 -18 -37t-17 -34q-28 -65 -53 -166q-25 -102 -39 -199q-11 -68 -11 -110q-1 -19 -1 -37q0 -129 44 -219q40 -77 95 -107q37 -21 90 -41q26 -8 51 -8 q32 0 61 14q13 7 76 47q7 7 10 13q56 70 80 137q5 12 2.5 18t-14.5 7q-32 4 -47 4q-46 2 -113 24q-5 1 -11.5 4t-8.5 4q-25 4 -27 25q-1 4 -6.5 14t-5.5 17l-12 12q4 8 6 14q-4 2 -13 2t-14.5 4t-7.5 15q5 -1 15.5 -3t15.5 -3l18 18q-15 10 -19.5 11t-11.5 -7q1 4 2 13t2 14 q36 5 50 8q5 0 20 10q6 2 14 10q43 15 66 25q3 1 25 18q8 8 10 9q40 21 88 30h14q8 -8 33 -8q3 -1 6 -2.5t7 -4t7 -3.5q0 -2 -1 -5.5t-1 -6.5q22 4 33 8q2 -2 10 -14q11 2 18 -5t7 -20q24 0 27 -21q4 -4 12 -8q15 -5 18 -22q0 -5 1 -15t1 -16q3 1 8.5 2t8.5 2l2 -4 q0 -7 1 -21.5t1 -21.5v-37q0 -27 -12 -51q-14 -16 -7 -39q7 -22 -8 -33q-3 -2 -4.5 -6.5t-3 -11t-2.5 -10.5l4 -2q4 12 8 20q2 -9 2 -17q0 -26 -18 -44q6 19 4 26q-12 -10 -4 -26q1 -7 0.5 -10t-3 -9t-3.5 -8q-2 -13 -15 -39l-6 -6l-6 -12v-2q-9 -2 -10 -16t-4 -17 q-2 -2 -6 -10q0 10 -2 14q-7 -3 -6 -11.5t-1 -13.5q-18 -4 -18 -22q-1 -3 -3 -5.5t-5 -6t-4 -5.5q-4 -5 -27 -28l-2 -2q-11 -3 -29.5 -17t-31.5 -16q-6 -1 -14.5 -6.5t-12.5 -7.5q-3 -1 -13 -6.5t-16 -6.5q-55 -14 -119 -14q-67 4 -100 14q-39 14 -100 29q-29 7 -82 39 q-4 3 -14.5 7t-14.5 7q-17 11 -18 13q-66 49 -86 69q-14 12 -51 66q-64 97 -89 194q-19 84 -19 167q0 21 1 42zM279 1384q4 -2 7 -2q2 0 4 1q4 2 5 12q-10 -5 -16 -11z" />
<glyph unicode="H" horiz-adv-x="813" d="M4 1391q-2 21 -2 37t2 26q4 44 31 57q5 3 8 7.5t7 14t5 11.5l8 8q3 -25 15 -36q2 -4 12 -9q1 2 3 6.5t3 6.5l4 8q4 -20 4 -25q2 -2 5 -2q18 4 34 -20q25 -29 33 -45q14 -26 14 -53q0 -9 -2 -19q-5 -24 -5 -53q0 -13 1 -27q9 -112 21 -217q2 -31 14 -88q9 -60 9 -131 q0 -19 -1 -39v-96q2 -13 4.5 -16.5t14.5 -4.5q56 -9 103 -9q27 0 52 3q11 0 11 4q0 10 15 10h3q7 1 26.5 3.5t30.5 3.5q2 1 6.5 2t6.5 2q3 0 8.5 2t7.5 2q25 0 25 24q0 37 4 115q1 22 4 68.5t4 68.5v4q3 19 4 41t1 38t-0.5 42t-0.5 39q1 21 0 45t-3 53.5t-3 44.5q0 76 6 115 q8 39 37 76q4 8 6 14q8 -3 27 -8q9 -5 20 6q3 6 6 15q2 -8 7.5 -12.5t15 -8.5t12.5 -6q0 -24 19 -43q14 -17 14 -43q1 -20 2 -61t2 -62q0 -5 3.5 -14t4.5 -11q6 -30 6 -34q6 -24 6 -50q3 -49 3 -100q0 -17 -1.5 -52t-1.5 -52q0 -21 5 -113q1 -13 5 -36t5 -34q4 -32 8 -100 q1 -10 -4 -47q0 -4 -4 -8q-10 -10 -10 -35v-111v-77q0 -29 -7 -48q-5 -13 -5.5 -27t0.5 -34t1 -27q1 -16 11 -110q0 -3 18 -148q4 -40 4 -61q0 -24 -10 -39q-6 -11 -19 -14q-3 0 -12 -9q-4 -2 -8 -10q-4 1 -15 4t-18 4q-2 -2 -6 -10q-2 -2 -6 -2q-9 2 -12 16q-4 11 -13 13 q-10 2 -14 20q0 13 -4 17q-10 16 -14 51q-4 25 -15 71q-4 30 -16 82q-3 18 -6 33q-17 109 -17 113q-1 9 -4 27.5t-4 27.5q-8 78 -8 107v6q0 7 -1 22.5t-1 22.5q-2 12 -14 12q-70 -4 -107 -6q-12 -4 -22 -4h-19q-1 0 -3 1t-3 1q-10 -4 -21 -4t-23.5 2t-19.5 2q-11 0 -32 1 t-33 1q-4 0 -8 -2q0 -3 -1 -10t-1 -11q1 -13 2 -39t2 -40q2 -15 0.5 -30t-7 -39t-6.5 -30q-9 -43 -8 -57q0 -9 -4 -29q-6 -55 -18 -106q-2 -12 -9.5 -32t-9.5 -32q0 -2 -6 -8q-17 -17 -22 -35q0 -2 -9 -16l-14 14h-2q-3 -12 -18 -8.5t-19 0.5q-16 29 -28 37q-7 7 -11 24 q-10 51 -10 125q0 10 -10 45q-6 45 -4 52q2 4 2 16q0 4 -1 14t-1 15q1 10 3 30.5t3 30.5q1 20 3 62l3 63q0 10 -1 29.5t-1 29.5q-2 23 -2 70q-1 19 -2 56t-2 55q-2 30 -6 91.5t-6 92.5q-3 34 -3 63v60v72q-1 13 -4 38t-4 37q-4 62 -4 90q-4 62 -4 93zM647 -70q0 -1 1 -4 t1 -4h4q-1 2 -2 5t-2 5z" />
<glyph unicode="I" horiz-adv-x="311" d="M2 1280v27v8q0 36 23 65q1 2 6.5 5.5t7.5 5.5q8 3 8 5t-4 13q8 5 16 8h9l2 -4q7 2 19.5 3t22.5 4t17 10q10 -5 12 -7q1 -5 3.5 -9t7 -6.5t6.5 -3.5t8.5 -3t7.5 -2q12 -5 19 -15q6 -10 36 -55l7 -14q4 -8 4 -17q1 -2 2 -6t2 -6q0 -1 -1 -3t-1 -3q8 -10 9 -31.5t5 -29.5 q6 -13 -4 -23q-4 -4 -4 -8q2 -11 -4 -29t-6 -22l-13 -13q-1 1 -6 5t-10 6q-6 -15 -12 -27q-22 -7 -39 4q-55 25 -95 68q-8 8 -23.5 26.5t-23.5 26.5q-10 11 -14 47zM43 692q0 68 4 103q0 7 4 22t4 23q10 107 11 131q0 28 18 43l10 -15q9 21 15 39h4q-1 -11 10.5 -23.5 t13.5 -17.5q2 7 7 17.5t6 13.5q2 -4 8 -14.5t8 -16.5q4 3 5 7t0.5 9t0.5 7q2 -3 7 -9.5t7 -9.5q5 -13 21 -16q6 -3 12 -12q25 -45 31 -60q4 -12 4 -39q0 -23 6 -64.5t8 -51.5q2 0 2 -26v-20l-2 -46q0 -29 -2 -43q-7 -62 -7 -126q0 -21 1 -42q0 -23 1 -68t1 -68q0 -2 3 -14.5 t3 -19.5v-72v-53v-15q-27 -3 -30 -36q-3 1 -8.5 3t-8.5 3q0 -9 -4 -13q-12 -6 -14 -6q-7 4 -19 4t-16 2q-2 4 -14 14.5t-13 20.5l-4 4q-10 3 -17 8t-11.5 16t-5.5 14.5t-5 19.5l-30 141q-21 117 -23 166q0 32 -1 94t-1 92z" />
<glyph unicode="J" horiz-adv-x="790" d="M2 483v47q8 73 18 109q2 10 6 20.5t11 24.5t10 21q9 -3 12 -3q21 21 33 31q5 -5 12 -8t11 -3.5t16.5 -1.5t15.5 -1q7 -7 31 -27q-1 0 -2 -1t-2 -1q3 -6 15 -26t18 -31q1 -4 6 -27q0 -7 1 -21.5t1 -21.5q0 -33 6 -63q2 -14 -2 -45q0 -106 19 -162q21 -59 26 -59q1 0 3 3 q6 7 12 3q2 1 8 2t8 2q15 8 65.5 21.5t69.5 35.5q34 40 35 41q3 3 3.5 9t2.5 9q26 54 31 95l4 4q6 10 7.5 30t0.5 44.5t0 31.5q8 57 8 127v7q0 22 -4 83q-2 24 -7 72.5t-7 73.5q-2 21 -10 73q-5 31 -15.5 96t-15.5 97q-3 19 -7 56t-7 55q-4 29 -7 45t-11 38.5t-21 38.5v37 q4 2 15 7t17 8l4 8q4 1 17 10q3 -1 9 -4t9 -4q11 4 11 24q8 1 16 -7.5t14 -10.5q-1 4 -2 12.5t-2 12.5q8 -2 8 -12t2 -13q34 -16 76 -35q0 -14 15 -28.5t16 -16.5q2 -7 8 -37q11 -37 14 -45q8 -17 21 -65q2 -8 7 -24.5t7 -24.5q6 -21 18.5 -64t18.5 -65q1 -5 2 -16t2 -17 q3 -13 8 -25q-2 -10 2 -39.5t-2 -40.5q3 -3 9 -6q-1 -9 -3.5 -28.5t-3.5 -28.5q0 -2 1 -6t1 -6q0 -3 1.5 -9.5t1.5 -9.5q0 -106 -3 -141q-4 -99 -14 -150q-5 -26 -9.5 -76t-6.5 -65q-15 -103 -19 -123q-2 -14 -11 -39t-11 -35q-5 -18 -19.5 -50t-17.5 -40q-1 -3 -9 -28 t-14 -39q-8 -24 -22 -52q-5 -8 -12.5 -18l-10.5 -14q-14 -24 -34 -29q-4 1 -9 4.5t-6 3.5h-4q-8 -6 -28 -6h-19q-3 -1 -10 -6t-10 -6h-33q-4 0 -64 6q-4 0 -13.5 3.5t-14.5 2.5q-10 -2 -21 0.5t-23.5 7.5t-19.5 6q-17 5 -24 7q-24 18 -29 22q-4 2 -33 14q-1 1 -4 2.5t-4 2.5 q-8 9 -25.5 26.5t-25.5 26.5q-6 7 -18.5 22.5t-18.5 22.5q0 12 -2 18q-7 5 -11.5 13.5t-7.5 19.5t-6 16q-9 22 -22 70q-15 54 -15 88q-1 20 -3 43t-5 50t-4 44zM530 -31q4 -2 6 -2q7 0 9 10q-13 0 -15 -8z" />
<glyph unicode="K" horiz-adv-x="1011" d="M0 1346q0 13 6.5 35.5t7.5 29.5q5 -1 13 0t13 0t9 -6q5 5 29 25v-19q6 -5 10.5 1.5t7.5 6.5q8 -1 12.5 -13.5t6.5 -14.5q2 2 4.5 5.5t3.5 4.5q5 -2 8 -4t4.5 -4.5l7.5 -12.5q3 0 7 4q15 -27 30 -57q2 -49 6 -151q1 -15 2 -44.5t2 -44.5q0 -13 5 -106q1 -12 2 -35.5 t2 -34.5l4 -16q19 14 20 16q51 45 103 111q25 33 77 82q80 75 105 113q34 57 88 67h12h17q31 8 48 5.5t48 -13.5q3 -1 6.5 -5t7.5 -10t8 -10q-1 -2 -1.5 -5.5t-1 -9t-1.5 -9.5q0 -1 -1 -5t-1 -5q5 -11 5.5 -15.5t-3 -15.5t-4.5 -15q0 -6 -4 -10q-9 -5 -16 -14.5t-14.5 -22 t-12.5 -18.5q-82 -113 -123 -180q-16 -25 -55 -60q-14 -14 -86 -82q-21 -21 -25 -24q-6 -6 -14 -10q-21 -5 -33 -33q58 -54 84 -80l123 -135q20 -22 61 -66.5t62 -66.5q3 -3 24 -27.5t33 -36.5q15 -15 43 -39q14 -14 40.5 -41.5t39.5 -42.5q5 -5 22 -23t25 -28 q27 -32 31 -49q3 -13 29 -59l2 -3q-7 -10 -11 -12t-16 -2q-11 -28 -12 -33q-2 -6 2 -18q4 -33 -8 -49q-6 -12 -19 -12q-9 0 -20 6q-44 20 -86 69q0 2 -4 2q0 -1 -1 -3t-1 -3q2 -2 2 -10q-6 5 -18.5 13t-16.5 12q-26 22 -41 20q-5 -3 -14 6q-12 12 -35 34.5t-41.5 41 t-34.5 35.5q-98 114 -168 200q-71 87 -141 152q-23 24 -73 70q-8 4 -13 8q0 -3 -1 -9t-1 -8l6 -72t6 -73q1 -15 3.5 -60.5t6.5 -70.5q2 -16 -2 -44.5t-5 -39.5q0 -2 1 -6q0 -20 -4 -80q-7 -51 -7 -101q0 -17 1 -34q0 -15 -2 -21q0 -6 -8 -14q-27 -13 -52 -4q-12 4 -16 4 q-29 -6 -47 12q-5 5 -18.5 11.5t-14.5 7.5q-32 19 -32 63q0 8 1 17q4 20 2 30q-4 28 -4 62.5t4 75.5v77q-1 25 -3 74.5t-3 73.5v121q0 17 1 36.5t2.5 43t2.5 36.5q10 129 11 162q0 94 -2 141q-6 97 -15 185q-12 102 -12 203z" />
<glyph unicode="L" horiz-adv-x="911" d="M2 1329v41q0 10 2 10q4 3 12.5 8.5t12.5 8.5q12 16 22 14q5 -1 17.5 4.5t19.5 3.5q1 0 14 4q10 -23 33 -26q30 -6 33 -43q3 -27 12 -51q30 -100 49 -279q12 -105 23 -260v-88q-2 -41 -2 -119q-1 -14 -3 -40t-3 -40q-5 -65 -5 -109q0 -22 1 -38q4 -47 14 -70q18 -4 51 4 q184 41 242 53q57 9 110 15q78 12 80 12q15 4 35 -8q16 -12 33 -14q1 -3 0 -6.5t0.5 -7.5t5.5 -7q2 -1 2.5 -3.5t0.5 -7t1 -7.5h16q9 -3 17 -11v-20q5 -4 12.5 -8.5t9.5 -5.5l-10 -15q6 -6 10 -8q-13 -13 -16 -14q-2 -2 -5 -2.5t-7.5 -0.5t-7.5 -1q3 -27 -17 -45 q-4 -3 -20 -35q-7 -12 -25 -4q-19 -19 -43 -25q-37 -6 -147 -33q-24 -5 -71.5 -16t-70.5 -16q-44 -11 -75 -13q-44 -8 -79 -8q-16 0 -30 2q-14 4 -27 10q-81 48 -108 119q-3 8 -41 92q-36 79 -36 173q0 14 1 28q1 26 4 72t5 83.5t3 71.5q2 66 2 195q0 16 -1 34.5t-2.5 41 t-2.5 34.5q-3 50 -12 103q-4 34 -14 97t-11 71q-2 19 -7 52t-7 48z" />
<glyph unicode="M" horiz-adv-x="1243" d="M4 201q7 27 14 67q3 20 12 75.5t13 86.5q13 75 37 174q9 37 28.5 110.5t28.5 110.5q19 76 23 101q4 17 8 55q2 17 5 53t5 53q8 34 10 56q1 9 2.5 29t2.5 30q4 54 12 72q1 1 2 3t2 3q13 16 10 39q8 12 10 16q3 1 8 2t7 2q14 6 28 0q6 -3 20 -7t21 -7q7 -14 19 -35 q14 -8 20 -30q10 -23 23 -46q61 -127 108 -217q38 -83 43 -96q15 -35 27 -72q28 -76 29 -79q7 -14 8 -17q2 1 8 21q19 65 23 104q3 20 11 60.5t11 60.5q5 24 14.5 71t14.5 70q17 108 18 113q9 51 15 106l12 93q0 6 4 14q0 4 4 20q1 1 6 11h14l21 14q0 -2 2 -2q1 3 2 3.5 t2 0.5t3 1.5t3 4.5h13q3 -4 9 -3.5t9 -2.5q2 0 5.5 1t4.5 1q6 -2 18.5 -5t18.5 -5q5 -2 15.5 -8.5t15.5 -8.5q0 1 8 5q7 -7 10 -13v-4q-6 -26 4 -55q18 -79 33 -137q8 -31 26 -87t23 -71q8 -18 15 -47q1 -4 4 -12.5t4 -12.5q1 -3 2 -11.5t2 -12.5q2 -7 7 -29t7 -35 q2 -12 5 -37t5 -37q1 -3 2.5 -10t2.5 -10q4 -38 16 -102q1 -6 4.5 -28t3.5 -34q3 -28 33 -139q4 -17 11 -49.5t11 -48.5q27 -101 29 -109q4 -16 11.5 -49.5t11.5 -50.5q4 -22 16 -74q4 -14 4 -25.5t-4 -19.5q6 -9 6 -18q0 -5 -2 -11v-20q-2 -3 -12 -23q-1 -1 -21 -16 q-7 0 -23 -1t-26 -1q-7 7 -43 16q-3 0 -7.5 2t-6.5 2q-2 5 -8.5 17.5t-8.5 19.5h-2v21q-4 27 -12 39q-3 5 -8 24q-5 25 -16.5 87t-18.5 95q-4 22 -29 129q-8 35 -24 109q-12 46 -21 96q-21 98 -34 170q-5 25 -14.5 76t-14.5 76q-5 15 -6 20q-6 -9 -6 -12q-2 -8 -12.5 -57 t-16.5 -74q-2 -9 -5 -26.5t-5 -26.5q-11 -66 -27 -140q-11 -71 -20 -108q-3 -17 -10.5 -51t-10.5 -52q-6 -31 -14 -96q-3 -21 -6 -45q-3 -7 -9 -22t-8 -19q-23 -4 -33 -14q-6 -8 -24 -4q-2 2 -6 5t-6 5q-21 0 -45 4q-25 9 -25 31q-4 12 -6 16q-11 11 -19 39q-5 15 -15 45.5 t-15 46.5t-14.5 50t-14.5 51q-24 83 -68 198q-1 3 -53 121q-4 9 -26 39q-3 -12 -5 -18q-9 -68 -14 -95l-12 -69q-2 -10 -8.5 -30t-8.5 -30q-3 -15 -9.5 -42.5t-11.5 -50t-9 -42.5q-8 -35 -31 -151q-4 -21 -12 -60.5t-11 -54.5q-8 -45 -24 -131q-2 -10 -27 -45q-2 -3 -8 -9.5 t-8 -9.5q-14 -4 -19 -6q-5 1 -15.5 2t-16.5 2q-15 23 -17 25q-12 6 -24 10q-1 3 -5.5 11t-5.5 10v2l-6 6q-13 10 -13 25q0 8 3 16z" />
<glyph unicode="N" horiz-adv-x="944" d="M4 1092q4 80 8 122q0 28 23 31q8 0 14 6q7 5 14 15q2 4 23 57q2 0 2 2h4q9 -4 12.5 -5t6.5 1.5t6 9.5q4 8 8 12q3 -7 10 -10v-4q7 -14 11.5 -16t19.5 2q13 4 63 -6q4 -7 17.5 -16t17.5 -15q20 -22 64 -45q15 -7 18 -21q11 -29 49 -145q5 -13 11.5 -35.5t13.5 -41.5 t16 -34q3 -6 10.5 -18t10.5 -18q8 -15 25.5 -43.5t25.5 -42.5q35 -68 41 -82q6 -17 17 -50.5t16 -48.5l12 -30q7 -13 21.5 -39t21.5 -39q0 -1 14 -19v64q-4 90 -4 131q0 86 2 129q3 44 6 90q1 29 3.5 89t3.5 89q5 58 8 72q3 12 4 26.5t1 31.5t1 26q4 50 16 65q14 17 27 17 q10 0 16 2q22 5 26 5l1 -1q3 0 24 -10h2h7q-5 -18 10 -23q16 -6 22 -22q3 -4 10.5 -10.5t10.5 -10.5q6 -6 6 -12q4 -12 4 -17q8 -31 19 -40q2 -1 2 -15q0 -21 2 -31q5 -21 5 -56q0 -17 -1 -38l-6 -123q-5 -73 -5 -90q-2 -35 -2 -70.5t2 -70.5q1 -24 3.5 -71t3.5 -70 q2 -14 2 -39q1 -16 2.5 -44.5t2.5 -52t1 -43.5q1 -19 2 -54.5t2 -53.5q6 -169 6 -170q2 -26 2 -46.5t-2 -33.5q0 -8 2 -12q1 -5 1 -9q0 -16 -17 -26q-2 -2 -6.5 -6t-6.5 -6q-1 -1 -6 -8t-8 -9q-12 -9 -29.5 -7.5t-29.5 13.5q-24 28 -39 43q-3 3 -10.5 8.5t-10.5 8.5 q-4 2 -12 10q-7 12 -23.5 37t-23.5 37q-18 34 -55 100t-56 100q-12 23 -36.5 72t-38.5 74q-9 18 -28 52.5t-28 51.5q-7 15 -24.5 40t-24.5 40q-4 10 -15 27t-14 24q-8 18 -45 59.5t-45 61.5q-1 2 -5 10.5t-5 12.5q-1 0 -3 -1t-3 -1v-29q0 -6 1 -18.5t1 -18.5q-2 -27 -2 -58 q0 -68 8 -153q1 -27 3 -83t3 -83q0 -19 -0.5 -54t-0.5 -64t1 -54q1 -13 1 -27q0 -33 -5 -71q-1 -9 -5 -27.5t-5 -27.5q0 -40 -16 -64q-11 -18 -25 -24q-5 -3 5 -5q2 -1 6 -1q6 -2 6 -2.5t-3 -0.5q-4 -12 -4 -18q-6 0 -17 -1t-16 -1q-4 5 -15 16t-17 21t-8 22q-3 -1 -8.5 -3 t-8.5 -3h-14q-9 13 -31 39q-2 0 -7 -1t-7 -1q-15 5 -13 14q4 17 -16 37q4 16 -4 47q-2 10 -4 32.5t-4 33.5q-15 84 -19 240q-4 78 -4 116q-1 17 0 51t0 52v16q0 27 2 70t2 70v16q0 12 -1 25.5t-2.5 29.5t-2.5 25q-7 64 -7 113q0 31 3 57z" />
<glyph unicode="O" horiz-adv-x="759" d="M2 479q-2 29 -2 57q0 57 8 115q2 23 23 187q3 18 8 52.5t8 51.5q2 14 7 38t7 34q4 18 11.5 53.5t11.5 54.5q2 10 5 21.5t7 25t6 21.5q2 6 6 10.5t11 8.5t8 5q6 3 8 5q2 -2 6 -6.5t6 -6.5q7 21 11 29h2q0 -12 -2 -18q12 -6 12 8q2 18 23 35l36 24q11 7 11 23q-5 0 -13 4 l2 4q48 27 78 31q12 0 27 -3q28 -9 55 3q3 2 6 2l6 -2q53 -24 91 -80q12 -18 36 -47q18 -23 25 -33q37 -52 94 -160q7 -14 25 -70q2 -2 2 -8q23 -46 31 -127q13 -112 13 -179q0 -17 -1 -30q-4 -104 -19 -159q-1 -5 -4 -12t-4 -9q0 -2 -3.5 -9.5t-4.5 -12.5q-4 -29 -16 -41 q-4 -8 -4 -13q-5 -13 -14.5 -36.5t-14.5 -36.5q-5 -11 -18.5 -32.5t-18.5 -33.5q-6 -12 -14.5 -25t-14 -20t-18.5 -22t-17 -19q-1 -1 -4.5 -6t-5.5 -7.5t-6 -5.5t-7.5 -4.5t-8.5 -1.5q-3 -6 -7.5 -10.5t-11.5 -9t-10 -6.5q-7 -5 -21.5 -15.5t-21.5 -15.5q-4 -4 -4 -8h2 q-5 -9 -8 -4q-7 7 -17 2q-12 -1 -33 -4t-32 -4q-14 -2 -26 -2q-27 0 -48 10q-12 5 -53 31q-9 6 -27 19.5t-20 14.5q-11 9 -22 21.5t-17 21t-18.5 27t-16.5 23.5q-2 3 -11 15.5t-14 20.5q0 1 -3.5 5.5t-3 7t4.5 8.5q2 4 0 4q-6 6 -5.5 19t-0.5 20q-1 2 -1.5 3.5t-1 4 t-1.5 4.5q-8 -4 -10 -6l-2 2q5 10 -4 19q-8 12 -10 18q-20 61 -23 137zM174 410q0 -50 16 -103q18 -68 64 -76q4 0 4 -2q14 -10 31 -10q8 0 18 2q20 6 62 27q4 4 8 6q4 6 14 16q4 5 21 23.5t26.5 31t16.5 27.5q50 97 59 135q5 21 4 23q-2 9 2 20q24 93 25 115q1 14 3 39.5 t3 38.5q-2 6 -2 18q-4 24 -4 39q-3 80 -27 150q-19 51 -59 119q-10 15 -10 18q0 8 -3 12.5t-8.5 8.5t-7.5 6q-8 9 -20 9q-4 0 -9 -1q-29 -3 -53 -21q-12 -6 -14 -6q-5 -1 -35 -6q-11 0 -14 6q-6 12 -15 -2q-1 -3 -3 -8t-3 -8q-19 -74 -26 -92q-12 -34 -19 -91 q-9 -57 -26 -184q-2 -13 -8 -48.5t-7 -55.5q-4 -114 -4 -176z" />
<glyph unicode="P" horiz-adv-x="925" d="M2 1346q-1 3 -1 6q1 2 1 6q2 6 2 7.5t6 10.5t8 13q4 5 12.5 15t12.5 15q6 7 12 11.5t15.5 8t14 4.5t17 3.5t15.5 3.5q2 1 7.5 1t8.5 1q49 16 115 16q1 0 94 -6q31 -2 119 -24q34 -11 88 -37q31 -15 74 -39q4 -2 11 -7t11 -7q87 -57 117 -91q31 -31 49 -63q39 -64 59 -131 q3 -9 13 -59q2 -23 2 -66q-2 -19 -27 -64q-15 -24 -21 -33t-18.5 -20.5t-30.5 -21.5q-28 -15 -58 -28t-75.5 -30t-58.5 -22q-8 -3 -21.5 -8t-24.5 -8.5t-20 -6.5q-20 -6 -60 -10t-60 -10q-19 -4 -24 -14.5t-7 -34.5q-2 -17 -12 -54t-11 -57q-2 -33 -6 -97t-6 -97 q-2 -24 -2 -49.5t2 -51.5q1 -18 1 -34q0 -27 -3 -50q-4 -28 -4 -50v-15q0 -13 -4 -17q-4 -1 -1 -12.5t3 -15.5q-3 -8 -8 -8q-2 0 -4 1t-7 4.5t-8 5t-7.5 3t-8.5 0.5q-2 0 -6 4q-2 1 -8.5 4.5t-8.5 5.5q-8 7 -27 11t-22 5q-2 0 -7 -1t-7 -1q-17 25 -17 37q0 5 -3.5 14 t-4.5 11q-5 57 -5 106q0 21 1 41q1 32 9 132t8 155q2 133 2 401q0 30 -1 89t-1 88v79q0 7 -3.5 20.5t-3.5 16.5q-11 -1 -29.5 8t-27.5 5q-19 -9 -27 -11t-15 -2q-32 0 -58 35q-14 20 -25 45q-2 9 -4 15zM354 896q0 -8 12 -18q14 -12 27 -18q6 -3 16 -3q15 0 37 7 q162 31 224 58q37 18 49 26q18 9 18 25q-2 8 -2 26q-3 30 -36 77.5t-62 74.5q-37 37 -129 76q-48 23 -107 26q-12 0 -20 -8q2 -4 6 -8q0 -1 -15 -8q-6 -3 -1 -4q2 3 7 6t8 4.5t1 3.5q5 -3 -3 -12.5t-5 -12.5q6 -5 6 -12.5t-2.5 -17t-1.5 -15.5q0 -4 2.5 -14t1.5 -16 q-2 -17 -7 -55.5t-7 -59.5q-2 -28 -9 -66z" />
<glyph unicode="Q" horiz-adv-x="1280" d="M2 641q1 8 4 24.5t4 24.5q6 33 18.5 98.5t18.5 98.5q8 40 31 84q7 14 18.5 41.5t18.5 40.5q47 101 80 141q2 3 30 31q7 6 21.5 17.5t21.5 17.5q21 17 61 52.5t60 53.5q7 6 64 41q26 18 39 23q12 5 61 20q6 2 18.5 5t18.5 5q34 9 63 9q17 0 33 -3q1 -1 4.5 -1.5t6 -1.5 t3.5 -3q5 -5 12 -8t13 -4.5t15.5 -3t13.5 -2.5q27 -4 75 -37q15 -12 39 -41q16 -18 39 -49q67 -94 90 -176q19 -65 70 -133q5 -8 27 -52q4 -7 11 -21.5t11 -21.5q25 -44 27 -47q1 -1 2 -4t2 -4q13 -11 25.5 -39t19.5 -37q6 -6 16 -45q2 -6 19 -84q11 -51 11 -97 q0 -31 -5 -60q-15 -83 -43 -170q-28 -74 -43 -105q-10 -21 -33 -57t-29 -47q-19 -27 -26 -47q-14 -36 -60 -82l-3 -4q-3 -4 -5 -5q0 -4 -2 -8q3 -2 9.5 -7t9.5 -7q59 -45 100 -74q16 -12 16 -24q0 -4 9 -13q12 -15 4 -34q-1 -3 -4.5 -9t-5 -11t-1.5 -9q0 -18 -22 -33 q-13 -13 -14 -20q-2 -8 -11 -13q-6 -3 -11 -3l-7 1q-5 0 -17 4q-13 5 -38 15.5t-37 15.5q-6 3 -20 9.5t-25 12t-19 11.5q-7 4 -55 47q-18 18 -19 20q-13 10 -24 7q-5 -2 -15.5 -5.5t-15.5 -5.5q-102 -26 -143 -26h-17q-21 -4 -43 -4q-65 0 -139 36q-4 1 -17 7.5t-20 7.5 q-42 12 -88 51q-69 52 -139 158q-19 27 -76 121q-35 55 -59 137q-4 14 -7 30t-5.5 35.5t-4.5 30.5q-4 42 -8 59q-9 45 -9 109q0 22 1 45zM127 565q0 -32 10 -47q6 -9 12 -26t9 -23q15 -34 22 -84q2 -13 15 -25q5 -7 17 -20.5t17 -20.5q23 -28 45 -65q70 -102 113 -145 q58 -54 121 -62q36 -5 83 -5q20 0 42 1l12 6q-11 21 -20 33q-42 61 -54 106q-4 24 -4 37q0 42 2 62q0 18 6 22q10 10 13 23l10 10q3 -1 11 -9.5t16 -6.5q0 6 2 10q2 -1 7 -3t7 -3q15 -2 27 -19q2 -4 7 -11t7 -11q32 -42 41 -56q20 -38 70 -96q13 -16 28 -26q12 -6 16.5 -5 t10.5 13q5 6 13 20.5t13 20.5q56 76 99 200q7 19 15.5 54t12.5 47q20 84 20 145q0 16 -1 31q-6 61 -25 127q-17 48 -20 67q-17 82 -64 164q-64 108 -80 152q-12 31 -34 76q-23 47 -68 61q-2 0 -31 12q-6 2 -21 7.5t-24 7.5q-20 4 -24 14q-2 3 -11 8q-27 6 -30 41 q-4 -2 -14.5 -5t-14.5 -5q-7 -4 -22.5 -12.5t-22.5 -12.5q-61 -37 -90 -75q-10 -13 -23 -23t-39 -30.5t-40 -30.5q-37 -33 -52 -62q-8 -15 -23.5 -44.5t-23.5 -43.5q-2 -5 -10.5 -18t-11.5 -21q-16 -35 -33 -82q-2 -5 -11.5 -32.5t-11.5 -42.5q-1 -16 -9 -78q-7 -54 -7 -86 v-8q0 -11 -1 -44q-1 -21 -1 -35v-18z" />
<glyph unicode="R" horiz-adv-x="880" d="M0 1427q2 2 5 6.5t5 6.5v16h2q2 7 7.5 23t7.5 26q6 2 17 5.5t17 5.5q2 2 5.5 7t5.5 7q-1 6 -8 7t-9 3l8 8q3 9 7 17h2q1 -1 0 -1q-1 1 -2 1q39 15 112 26q28 4 60 4q40 0 84 -6q28 -4 41 -4q12 -2 32 -6q3 -2 9.5 -5t9.5 -5q4 2 12 0.5t11.5 -3t11 -5.5t10.5 -5 q42 -21 57 -38q5 -5 8 -5q22 -3 25 -24q8 -4 12 -8q6 -8 17.5 -24.5t17.5 -24.5q21 -11 27 -33q0 -12 10 -17q4 0 8 -2q-6 -6 -6 -8q-3 -10 6 -10q3 -5 8.5 -15.5t8.5 -15.5q-6 -11 4 -16q0 -2 -1 -7t-1 -8q4 0 8 -4q7 -11 0 -20h2q1 -9 6 -59q2 -19 2 -38q0 -44 -10 -85 q-1 -5 -6 -35q-6 -39 -25 -70q-9 -7 -18 -24.5t-11 -20.5q-20 -25 -24 -29q-32 -37 -51 -45q-7 -4 -15 -9t-18 -11.5t-15 -9.5q-8 -6 -18 -4q-18 -13 -25 -17v2q-8 -4 -24 -8q-7 -2 -25 -8t-31 -9.5t-26 -4.5q-1 0 -3 -1.5t-3 -1.5q-35 -13 -45 -16q-3 -9 6 -18 q36 -32 59 -58q7 -8 20 -21.5t23.5 -25.5t18.5 -24q4 -6 15 -17.5t15 -17.5q56 -70 60 -76q8 -10 23.5 -29.5t23.5 -29.5q7 -11 29 -37q40 -50 47 -60l6 -6q11 -10 31.5 -35t33.5 -36q1 -1 37 -43q38 -38 56 -58q25 -25 36 -47v2q9 -6 9 -12q0 -3 -5 -9q-4 -5 -6 -8 q0 -6 -3 -13t-5.5 -10.5t-9 -12t-8.5 -11.5q-2 1 -5 3.5t-5 3.5q-1 -1 -2.5 -3t-3 -3.5t-3.5 -2.5q2 -1 4 -4t2 -4l-2 -2q-12 0 -18 -2q-2 -1 -16 -10q-12 4 -19 4q-72 55 -145 147q-13 16 -33 47q-3 5 -10 9q-2 4 -6.5 12t-6.5 12q-4 2 -12 2q-17 14 -24 43q-1 0 -5 1t-6 1 q-4 5 -12 15.5t-15 19.5t-12 17q-2 4 -6 16q-4 6 -8 18q-3 1 -8 3.5t-8 3.5q0 4 -4 12q-9 5 -17.5 13.5t-12.5 14t-12.5 18.5t-11.5 17v-2q-6 7 -18 20.5t-18 20.5l-101 101q-3 2 -9 7t-9 7q-6 -3 -6 -19v-86q0 -19 0.5 -54t0.5 -64t-1 -54q0 -31 -7 -71q-8 -62 -8 -92 q0 -18 -4 -58q-2 -25 -2 -74q0 -10 -4 -14v-4v4l6 -12q2 -10 2 -29q-5 -10 -14 -37q-8 -16 -14 -24q-3 -5 -21 -9h2q-4 -2 -7.5 -2t-6.5 2q-12 9 -27 5l-14 14q-3 1 -12 2t-13 2q1 6 2 17.5t2 17.5q-6 0 -22 4q-6 18 -2 59l-2 2l2 -2q-4 4 -4 11v24q2 0 4 -2q2 4 0.5 10.5 t-0.5 8.5v26l6 117q4 82 6 125q3 53 3 89q0 18 -1 32q-1 20 -1 107.5t-3 135.5q0 2 -2 17.5t-4 23.5q0 1 -10 31q0 2 2 6q7 17 4 37q-1 16 -3 49t-3 49v15q-4 14 -5 28.5t0 39t1 30.5q1 3 10 21h-15q0 4 -1 11.5t-1 10.5l-3 51l-3 51q0 47 -2 72q0 22 -4 76q0 3 -1 10.5 t-1 11.5q0 2 1 7t1 6q0 10 -4 30zM14 1274q0 2 2 2h-2v-2zM31 1006v2v-2zM147 1382q1 -24 11 -163q2 -27 6 -83t6 -83q10 -138 14 -162q2 -1 3.5 -2.5t2.5 -1.5q27 0 39 4q24 5 56 16q10 4 29.5 12.5t29.5 12.5q2 1 5 3t5 3q0 1 -1 2t-1 2q-23 0 -33 2q7 3 20.5 10.5 t20.5 10.5q36 18 54 26q4 4 8 6q11 11 16 13q14 6 49 37q1 1 3 4.5t4 5.5q-11 0 -15 2q24 21 37 53q22 51 25 111q0 10 -2 16q-1 8 -5.5 23.5t-5.5 23.5q-9 35 -32 55q-44 35 -70 45q-48 21 -125 25q-9 1 -21 1q-24 0 -61 -3q-4 0 -22 -6q-5 -1 -14.5 -4t-14.5 -4l-8 -4 q-9 -4 -13 -9zM426 922q3 -6 12 -2q3 10 1 13t-13 3q-3 -3 -3 -6.5t3 -7.5zM487 848v2v-2z" />
<glyph unicode="S" horiz-adv-x="690" d="M0 285q38 21 49 28q2 4 0 15.5t0 17.5q3 7 -12 37q-6 14 -1.5 23t19.5 8q6 0 10 5.5t5 6.5q4 -3 12 -8t12 -8q66 -49 133 -52q26 -2 46 -2q29 0 44 4q101 28 119 127q1 17 1 23t-2 23t-3 24q-9 7 -16 27.5t-15 27.5q-15 14 -88 68q-7 5 -26.5 19t-29 21.5t-25 20 t-27.5 25t-23 25.5q-32 44 -55 79q-6 9 -10 21q-33 81 -39 104q-22 80 -25 113q-6 58 -6 119q0 91 51 159q11 16 11 17q17 50 81 67q17 5 43 5q15 -2 56 12q6 2 12 2q38 -4 55 -8q27 -6 56 -6q20 1 41.5 -4.5t46.5 -14.5t39 -12q5 -1 10.5 -4.5t12 -10t9.5 -8.5 q-2 -11 9 -25.5t12 -19.5q4 -8 0 -12q-5 -12 8 -29q-9 -32 -14 -45l-16 4t-19 4q-3 -22 14 -34q-10 -1 -28.5 -3.5t-28.5 -3.5q-1 -1 -3.5 -6t-4.5 -8q-7 1 -18 4t-15 4q-41 9 -73 9q-19 0 -34 -3q-4 -1 -15 -3t-18.5 -4.5t-13.5 -6.5q-19 -15 -24 -22q-38 -64 -38 -133 q0 -43 15 -87q2 -8 5 -14.5t8.5 -14t8.5 -11.5t12 -11.5t11 -9.5t13 -10.5t12 -9.5q70 -49 98 -70q1 -1 3 -2t3.5 -2.5t1.5 -3.5q2 -9 8 -14.5t16.5 -10.5t14.5 -8q36 -33 56 -61q8 -10 19.5 -31.5t16.5 -28.5q33 -51 43 -96q0 -2 17 -41q10 -20 6 -29l-2 -6q7 -10 9 -22 q2 -10 3 -19q1 -7 -3 -25q-2 -14 -3 -22q-1 -11 -27 -63q-5 -11 -14 -41q-33 -117 -104 -162q-56 -34 -74 -39q-5 -1 -19 -4t-22 -4q-5 1 -46 -7q-23 -4 -40 -5q-14 0 -23 3q-6 2 -18 2t-16 1q-14 3 -39.5 6t-46.5 7t-39 11q-9 4 -27 17q-48 54 -51 57q-9 9 -6 24 q3 10 -4 17q-15 23 -27 37zM178 1440q2 1 10.5 2.5t13 3t10 6t9.5 10.5q-28 0 -33.5 -2.5t-9.5 -19.5zM631 424q2 -2 6 -2q1 3 2 9t2 9h-8q0 -3 -1 -8.5t-1 -7.5z" />
<glyph unicode="T" horiz-adv-x="1239" d="M4 1370q-3 11 -3 20q0 15 7 27q1 2 8 9.5t7 13.5q0 1 2 2t2 2q15 0 12 14q11 0 28.5 -0.5t31.5 -0.5t26 1q13 0 36.5 3.5t31.5 4.5q9 1 26 1t25 1q197 0 338 5q30 0 200 10q33 1 99 2t100 2q35 3 72 6q53 0 67 -25q17 -28 49 -28q3 0 11 -4q-4 -16 -4 -23q-6 -29 12 -47 q10 -10 10 -22q0 -5 -2 -11q-11 -17 -12 -20q-10 -27 -37 -27q-8 0 -24 -1t-25.5 -1.5t-23 -2t-25.5 -5.5q-13 0 -19 2q-12 4 -33 0q-16 -3 -32.5 -5t-36.5 -4t-31 -3q-35 -6 -68 -6q-12 -1 -33.5 -2.5t-33.5 -2.5h-25v-14q2 -16 2 -45q0 -43 2 -63q2 -28 7.5 -84.5 t7.5 -85.5q5 -49 14 -168l12 -177q11 -180 11 -296q0 -18 -3.5 -102t-3.5 -128q0 -67 -4 -102q-5 -33 -41 -51q-1 -1 -5 -1t-5 1q-14 10 -47 14q-7 0 -10 6q-18 23 -19 27q-10 17 -22 22q-4 2 -8 10q-20 45 -23 54q-4 12 -4 39q4 130 8 194q1 19 1 39q0 66 -15 139 q-15 69 -21 146q-4 33 -20 104q-33 114 -39 172q-1 11 -1 33.5t-1 32.5l-6 57l-6 57q-4 26 -12 75.5t-11 68.5q-2 11 -5 13.5t-15 2.5q-41 2 -123 2q-18 -4 -29 10q-7 7 -14 7q-50 4 -72 4q-71 0 -106 2q-43 3 -68 35l-10 10q-15 15 -17 28q-2 6 -12 27z" />
<glyph unicode="U" horiz-adv-x="720" d="M2 1346q-1 6 -1 11q0 16 7 29q1 4 3 12.5t3 12.5v2q7 5 16 21t15 22q9 -31 14 -43q2 3 5 6.5t4 5.5q22 -40 30 -49q32 -35 41 -67q0 -7 6 -19q3 9 5 13v-3q1 -6 3 -17t3 -17q8 -117 14 -170q1 -16 5 -46t5 -46l6 -93q1 -28 2 -82t2 -81q1 -16 5.5 -49.5t5.5 -51.5 q2 -9 4 -33t2 -28q7 -30 21.5 -89t21.5 -89q4 -17 6.5 -49.5t5.5 -45.5q3 -12 8.5 -33.5t9 -39.5t5.5 -35q3 -15 26 -15h21q13 1 39.5 1.5t40.5 1.5q1 0 9 -1t16 -0.5t16 3.5q4 0 4 8q2 13 13.5 46.5t12.5 51.5q1 12 6.5 59.5t6.5 73.5q1 13 1 42q-1 14 -1 33v21q0 38 2 54 q0 14 -2 40t-2 38q0 106 -2 157q-1 27 -11 127l-6 105q-6 106 -33 211q-1 6 -6 28.5t-7.5 38t-2.5 31.5q3 27 6 57q10 0 12 -2q2 28 8.5 37t34.5 18q5 -2 15.5 -5t15.5 -5q0 -4 2 -6l2 -2q15 4 21 -8q4 -4 16 -12q6 -3 10 -11q0 -4 4 -4q9 0 13 -12q8 -27 10 -45q3 -6 0 -12 q-5 -9 0 -37q3 -16 12 -61t13 -70q0 -1 6 -47q6 -41 14 -123q17 -138 18 -152q1 -31 6.5 -89t6.5 -71q5 -41 5 -77q0 -15 -1 -29q-2 -18 -2 -38q0 -28 4 -62q2 -4 2 -16q0 -10 -2 -27q-2 -36 -2 -43v-21q0 -25 -4 -37q-4 -9 -4 -43q-1 -15 -3 -46t-3 -46q-7 -45 -25 -78 q-24 -41 -51 -78q-40 -46 -88 -71l4 8q-4 1 -19 -4q-12 -4 -21 -4q-7 0 -13 2q-8 2 -27 2q-91 6 -92 6q-42 3 -82 18q-40 14 -58 43q-40 63 -57 162q-2 15 -8 42t-8 42q-8 54 -8 78q-3 62 -3 125q-4 73 -14 108q-18 88 -24 181q-2 21 -5.5 60t-5.5 60q-2 10 -10 35 q-3 17 -9 53l-9 54q-6 30 -6 33q-5 32 -3 45q1 8 -0.5 23t-1.5 20q-2 14 -2 43q0 18 -4 22q-2 2 -2 8q1 9 1 18q0 34 -9 77z" />
<glyph unicode="V" horiz-adv-x="946" d="M4 1255l2 5q-5 16 1.5 42t6.5 29v12q3 1 8.5 4.5t6.5 4.5q-1 3 -2 8t-2 8q34 15 34 43q3 3 13.5 5.5t11.5 10.5q8 0 12 -2q1 4 2 11.5t2 11.5q4 -4 11 -12t10 -11q1 0 2 1t2 1q-3 9 -6 21q20 -3 35 -18q27 -27 30 -29q1 2 2 6t2 6q2 0 2 -2q19 -30 33 -49q4 -6 21 -10 q5 -2 13.5 -5t10.5 -4q3 -4 11 -14.5t10 -15.5q3 -8 9 -23.5t9 -23.5q12 -52 53 -148q6 -15 15 -45q6 -18 19.5 -55t19.5 -55q6 -22 16 -50q8 -28 35 -108q33 -87 43 -109q13 -34 67 -153q3 -8 8.5 -25.5t8.5 -25.5q7 -14 12 -29q20 28 29 59q27 112 31 180q0 30 12 84 q11 46 22 127q14 84 29 144q12 59 18 117q1 14 15 67q3 13 28 100q1 3 7 11t8 12l8 -16q1 0 11 4t14 8q4 3 12 29q4 -16 4 -19q3 -8 4 -9t9 -2q3 -1 5 -1q15 -4 19 -12q2 -3 -2 -25q1 -1 4.5 -8.5t5.5 -12.5q0 -1 1 -4t1 -4q-3 -10 -3 -14.5t3 -14.5t4 -14q0 -25 -2 -30 q-17 -65 -22 -119q0 -4 -3.5 -12.5t-3.5 -12.5q-1 -12 -3 -33t-3 -32q-2 -14 -6 -41.5t-6 -42.5q-4 -46 -8 -66q-3 -18 -10.5 -52.5t-10.5 -51.5q-2 -13 -4 -39.5t-4 -40.5t-12 -76q-8 -40 -8 -59v-9q0 -39 -15 -116q-5 -25 -17 -79t-17 -83q-5 -19 -10.5 -54.5t-6.5 -43.5 t-5 -23.5t-5 -23.5q0 -9 4 -29q7 -23 4 -45v-4q-10 -10 -10 -45q0 -40 -33 -60q-15 6 -20.5 4t-10.5 -16q-6 -12 -6 -25q0 -20 -12 -26q-3 -1 -6 -1q-8 0 -17 9q-8 8 -12 14q-23 -5 -41 23q-26 43 -33 72q-5 16 -15 46t-15 46q-20 55 -59 162.5t-58 162.5q-41 120 -84 240 q-8 21 -27.5 58.5t-21.5 41.5q-86 172 -127 258q-14 30 -39.5 90t-38.5 89q-5 10 -16.5 28.5t-14.5 24.5q-1 1 -4 4.5t-4 5.5q0 2 -2 5q-1 2 -1 4q0 4 3 9z" />
<glyph unicode="W" horiz-adv-x="1343" d="M4 1425v23q2 4 6.5 13.5t5.5 11.5q4 3 12.5 9t12.5 9q33 0 51 2q9 -9 49 -18q3 0 8 -2.5t7 -2.5q6 -14 18 -38h2v-25q0 -24 12 -41q5 -8 9 -27q13 -73 39 -198q2 -10 30 -137q15 -58 27 -117q16 -70 22 -105q7 -36 20 -101l17 -85q14 -77 33 -164q0 -7 6 -22q6 12 6 14 q5 24 15.5 71t15.5 70q2 9 5 29t5 29q26 132 29 151q4 20 11 60t11 59q5 21 14 59.5t11 48.5q6 37 14 107q1 7 3.5 23t3.5 26q3 6 18 41q24 8 35 19q8 8 26 4q2 -2 7 -6t6 -5q30 -3 51 -6q24 -9 27 -33q0 -10 6 -16q9 -10 18 -43q21 -57 33 -100q5 -16 10.5 -35t11.5 -40.5 t9 -33.5q42 -136 75 -215q9 -26 30.5 -74t25.5 -57q7 -13 30 -43q1 4 2 11t2 10q5 44 15 102q2 14 7 39.5t7 36.5q14 48 17 63q23 93 34 148q16 69 33 161q4 21 12.5 63.5t12.5 63.5q4 23 13 70.5t13 71.5q1 6 5 13t7 11.5t9 12t8 10.5q2 4 18 20q12 3 21 6q5 0 16 -1t17 -1 q3 -4 9 -13.5t9 -14.5q3 -1 13.5 -5.5t13.5 -5.5q4 -6 12 -22v-2l6 -6q14 -14 14 -31q0 -7 -2 -14q-8 -24 -16 -72q-13 -79 -27 -176q-11 -70 -38 -191q-9 -36 -31 -115.5t-33 -121.5q-4 -18 -12.5 -55t-12.5 -56q-3 -15 -8 -57l-12 -117q-1 -10 -4 -29.5t-4 -29.5 q-1 -3 -6 -66q-4 -54 -15 -75q0 -7 -2 -9q-16 -16 -12 -41l-12 -18q-2 -1 -7.5 -2t-7.5 -2q-15 -6 -32 0q-13 6 -43 14q-9 15 -21 39q-11 6 -22 33q-5 12 -23 49q-105 209 -117 236q-25 46 -47 104q-4 8 -31 76q-5 16 -30 88q-1 1 -2.5 4l-3 6t-2.5 6q-6 -4 -11 -20 q-15 -54 -24 -115q-3 -25 -13 -71.5t-12 -57.5q-2 -14 -29 -156q-15 -75 -22 -118q-7 -42 -14 -119q-2 -17 -6.5 -50t-6.5 -49q0 -4 -4 -16t-6 -20q0 -1 -1 -2.5t-2.5 -4t-2.5 -4.5q-3 0 -7.5 -1t-6.5 -1q-4 -2 -11.5 -7t-11.5 -7l-2 2q-2 -4 -5.5 -5t-4.5 -5h-17 q-3 3 -9 2.5t-9 3.5q-2 0 -5.5 -1t-4.5 -1q-6 2 -20.5 5t-20.5 5t-18 8.5t-15 8.5q-2 0 -8 -3q-2 2 -6 6.5t-6 6.5v4q7 22 -5 61q-16 77 -36 148q-6 25 -15 53.5t-21 63t-18 53.5q-10 41 -14 51l-4 12t-4 15q-1 4 -3 13t-3 13q-2 11 -7.5 34t-7.5 34q-2 14 -6 41.5t-6 40.5 q0 3 -1 10.5t-1 11.5l-18 111q-11 61 -11 65q-2 31 -32 152q-18 66 -27 106q-5 20 -15.5 59t-15.5 58l-24 111q-3 13 -9.5 38.5t-9.5 39.5q0 3 -1.5 11.5t-2 13t0 11.5t3.5 13q-6 10 -6 19q0 6 2 11z" />
<glyph unicode="X" horiz-adv-x="1110" d="M4 1325q-3 9 -3 18q0 11 5 21q4 7 10.5 19t12.5 22t12 18q15 22 39 25q19 0 35 16q5 4 28 13q20 7 33 -4q6 -3 14 -3q21 9 41 -4q4 -4 7 -10q5 -10 14 -31.5t14 -31.5q15 -32 43 -102t49 -111q13 -41 49.5 -132t49.5 -110q6 -6 8 -10q6 6 6 10q10 37 29 187.5t26 183.5 q8 38 39 143q3 8 8 15.5t12.5 16.5t10.5 13q7 7 12 4q17 -5 25 15q1 2 5.5 5t6.5 5q11 -11 27 -23q1 0 2 1t2 1t8.5 5t13.5 1q5 -2 7 -5t1 -10l-1 -7q0 -16 10 -29q11 -25 6 -45q-5 -22 -14.5 -65t-14.5 -64q-5 -22 -15 -68.5t-15 -68.5q-1 -6 -6.5 -48.5t-10.5 -64.5 q-5 -21 -35 -118q-5 -15 -5 -29q0 -24 16 -45q21 -29 122 -197q126 -201 172 -289q23 -44 71.5 -123t66.5 -112q14 -26 14 -38q-1 -3 -1 -8q-2 -8 -1 -11q-4 -12 -4 -21q0 -11 1 -33.5t1 -34.5q0 -7 -6 -10q-15 -18 -15 -41q0 -16 -8 -24q-8 0 -19 -1t-16 -1q-1 0 -9.5 2 t-12.5 4q-2 1 -47 18q-1 -4 -4 -11t-4 -11q-18 9 -21 12q-117 150 -127 162q-32 38 -75 117t-58 102q-23 35 -78 99.5t-78 101.5q-7 7 -8 10q-4 -6 -8 -14q-12 -36 -34.5 -108t-33.5 -108q-3 -10 -8 -31.5t-8 -31.5q-45 -113 -53 -135q-3 -7 -25 -70q-8 -16 -14 -22 q-1 -2 -8.5 -10t-10.5 -11.5t-7 -11.5t-5 -16q-2 -8 -6.5 -16.5t-11 -18t-8.5 -13.5t-6.5 -11t-6.5 -11q-11 -24 -35 -45q-4 -4 -16 -8q-6 -2 -16 -2q-2 0 -11 -2q-5 -1 -9 0h-3q-2 2 -7.5 5.5t-8.5 6t-7 7t-6 9.5q-9 12 -22 25q-14 8 -14 26q-1 6 -1 13q0 28 11 57 q24 74 28 115q6 35 29 61q32 34 43 107q15 94 66 213q17 38 47.5 114.5t46.5 114.5q8 22 -4 43q-14 20 -28.5 43t-32 50.5t-27.5 43.5q-4 7 -24 39.5t-29 50.5q-43 76 -125 224q-44 82 -64 147z" />
<glyph unicode="Y" horiz-adv-x="903" d="M2 1290q1 6 6 16t6 15q5 -1 8.5 1.5t6 7.5t4.5 7q8 6 20 6t21 -6q6 -6 12 -2q1 0 4.5 -1t5.5 -1q30 -11 54 -41q11 -16 34 -49t35 -49q18 -26 39 -66q19 -41 72 -106q46 -53 94 -137q10 -16 31.5 -45.5t31.5 -44.5q3 0 7 -4l18 36q36 64 66 174q25 87 53 142q11 17 18 41 q4 9 11.5 28.5t11.5 28.5q2 6 8 18.5t8 18.5q16 31 23 51q3 10 9.5 18.5t17 18t14.5 14.5q1 2 4 2.5t7.5 0.5t6.5 1q4 2 14 2.5t15 2.5q4 2 9 2t11.5 -1t9.5 -1l5 -3q26 -26 26 -41q0 -71 -22 -137q-3 -11 -9 -29l-11 -33t-9 -28q-4 -15 -14 -40t-13 -36q-9 -38 -16 -47 q-8 -11 -14.5 -25t-10 -25t-8.5 -29t-8 -27q-25 -75 -57 -182q-5 -16 -18.5 -54t-20.5 -59q-2 -7 -4 -25t-4 -26q-3 -1 -5.5 -2.5t-4.5 -4.5t-3 -5.5t-2 -7.5t-2 -7q-32 -107 -51 -162q-1 -4 -53 -127q-7 -17 -21.5 -48t-21.5 -48q-4 -9 -13 -39q-13 -61 -71 -215 q-5 -13 -25 -20q-6 -1 -18 -8t-17 -9l-20 10l-2 -2q-5 -6 -18.5 -1.5t-18.5 1.5q-23 -10 -37 7q-9 5 -14 2q-10 -2 -19 10q-4 -6 -10 -12q-33 2 -22 34q8 33 28 95q1 4 3.5 12t4.5 15t5 12q38 106 61 170q10 29 33.5 78.5t31.5 68.5q28 56 60 141q24 59 45 117q10 20 -4 31 q-3 2 -6.5 7t-6 8t-6.5 4.5t-10 0.5q-3 4 -10 11.5t-10 11.5q-22 25 -56 74.5t-49 68.5q-3 4 -61 94q-5 8 -15 22t-12 17q-13 20 -18 37q-4 14 -27 47q-42 59 -67 105q-5 8 -17.5 25t-13.5 18q-23 31 -21 55q0 15 -12 39q-1 6 -1 11q0 3 1 5z" />
<glyph unicode="Z" horiz-adv-x="1437" d="M4 43q-2 5 -2 10q0 8 6 16q10 14 10 19q-8 4 -14 6q0 7 9 17t10 12q4 10 18 31q4 12 4 26l-4 8q17 24 47 58q39 53 59 96q10 22 43 64q14 18 86 100q11 12 34.5 33t35.5 32q92 95 176 185q15 15 43 39q3 4 9.5 12t9.5 12q5 10 10 15q16 16 24 26q21 30 37 35q4 4 7 10 q0 1 -5 21q7 13 33.5 53.5t36.5 67.5q-31 2 -68 6q-19 2 -106 12l-123 18q-12 2 -37 7.5t-37 7.5q-16 3 -44.5 10.5t-39.5 9.5q-10 2 -26 10q-18 12 -21 15q-2 4 -6 16q-3 1 -10 2t-10 2q-4 4 -13 14t-14 15q13 0 33 -4v4q-38 24 -51 31q-14 36 -35 49q-5 16 10 24 q1 -2 3.5 -6t4.5 -7t4 -5h35l-4 12q12 0 18 2q-2 6 -8 15q21 3 39 6l12 18h11q8 1 19 1q21 0 51 -4q44 -6 55 -7q22 -1 67.5 -4t69.5 -4q23 -1 70.5 -4t72.5 -4q16 -1 45 -4.5t45 -4.5q39 -1 116 -4t116 -4q16 0 50 2t52 2q42 0 111 15q9 4 30 0l60 6q2 -1 17.5 -12 t27.5 -11q3 -6 14.5 -28.5t18.5 -36.5q-1 -7 -6 -24t-7 -27q9 9 11 10q12 -4 22 -6q-30 -27 -57 -54q-8 -8 -24 -26t-25 -27q-93 -56 -131 -92q-4 0 -11 1t-12 1q-5 -4 -52 -45t-73 -62q-21 -16 -54.5 -51t-49.5 -49q-2 -2 -19 -24q-10 -15 -30.5 -42.5t-30.5 -41.5 q-1 -1 -3 -3.5t-3 -3.5q-17 -10 -33 -25.5t-34.5 -38.5t-27.5 -32q-5 -5 -15 -15.5t-15 -15.5q-25 -25 -41 -49q-2 -1 -17 -6q0 -1 1 -2t1 -2q-16 -20 -49 -59t-49 -58q-17 -3 -25 -9.5t-28 -35.5q2 -4 6 -16q0 1 -1 4t-1 4q-2 -3 -18 -18.5t-17 -30.5q6 6 21 16 q-20 -25 -23 -37q8 -2 19 -2q16 1 51 3.5t55 3.5q105 8 156 14q20 2 42.5 5t50 7t42.5 6q64 9 129 15q20 4 29 4q9 2 90 16t125 21q2 -2 10.5 -8.5t15.5 -10.5q5 -1 17 -3t14 -3q11 -9 34 -26.5t34 -26.5q-3 -6 -13 -21q-4 -2 -14 -5.5t-16 -6.5q10 -4 22 -8q0 -5 -6 -17 q14 7 18 11q1 -1 4 -3.5t5 -4.5q1 1 4.5 6.5t4.5 6.5t6 3.5t9 -2.5q10 -6 27 -23q-8 -7 -41 -16q-18 -6 -19 -8q-14 -22 -43 -25v-16q-18 -12 -20 -13q4 -1 14 -8q-53 -22 -102 -35v-1q-3 -3 -4 -5q-8 -2 -26 -7t-26 -7v2q-13 -2 -37 -5.5t-32 -4.5q-11 4 -25 5t-24 0 t-28.5 -3.5t-25.5 -3.5q-15 -1 -41.5 -6.5t-35.5 -6.5q-6 -1 -17.5 -3t-17.5 -3q-23 0 -33 2q-5 -1 -18 -5t-19 -5t-17 -3t-20.5 -1t-19.5 4q-8 -6 -19.5 -7t-21.5 1t-21 0q-4 -2 -12 -10q-13 4 -20 2q-56 -4 -82 -8q-23 0 -29 6q-10 5 -25 -2q-3 -2 -7.5 -6t-6.5 -5 q-15 -3 -43 -8t-43 -8q-7 -1 -20.5 -3t-20.5 -3q-44 -6 -90 -12q3 -3 6 -9h-18v3h-2q-9 -7 -27 -7q-12 0 -28 4q-40 8 -52 5q-50 19 -63 61h-4h-7q-2 1 -8 4.5t-8 5.5q-5 14 -8 19q-8 0 -14 -2q-15 10 -21 16zM1311 248q4 -4 4 -6q1 0 3 1t3 1l-6 6z" />
<glyph unicode="a" horiz-adv-x="948" d="M2 158v37v61q-1 17 8 80v6q1 22 10 63.5t11 53.5q8 54 32 174q5 27 41 203q16 92 19 106q7 45 14 78q5 24 22.5 88.5t24.5 101.5q2 9 7.5 29t7.5 29q1 10 3 30.5t3 30.5q10 10 10 31l6 24q0 1 1 2.5t1 2.5q3 6 23 51q15 9 37 20q0 5 1 16t1 17q4 1 11.5 2t10.5 2 q3 -1 9.5 -4t9.5 -5t8 -5t7.5 -6.5t4.5 -8.5q28 -8 47 -34q3 -4 11.5 -12.5t11.5 -12.5t9 -12.5t9 -12.5q1 -1 2 -3t2 -3q5 -8 25 -33.5t29 -39.5q27 -44 57 -103q31 -60 41 -84q4 -9 16 -36.5t17 -43.5q2 -7 18 -51q5 -12 15.5 -37t15.5 -37q4 -10 11 -30.5t11 -30.5 q10 -29 27 -68q5 -15 6 -16q6 -8 10 -23q5 -21 8 -28q44 -117 66 -199q5 -21 16.5 -62t16.5 -61q20 -88 24 -106q3 -14 9.5 -41.5t9.5 -42.5q1 -5 3 -14.5t3 -14.5t4 -22.5t6 -26.5q4 -13 3.5 -29.5t-3.5 -36.5q-2 -6 -2 -16h-6q-4 -8 -6 -10q-21 -11 -27 -15q-55 16 -78 31 q-8 -4 -12 -4q-4 4 -14 19q-9 12 -13 34q-16 70 -20 82q-1 4 -2 12.5t-2 12.5q-4 21 -29 129q-3 13 -8 41t-8 41q-2 9 -23 80q-4 16 -13 46t-13 46q-11 26 -19 47q-19 4 -33 -2q-4 -1 -9 -3.5t-10.5 -7t-8.5 -6.5q0 -4 -2 -10q-7 0 -23 -4h-4v2q-28 -4 -43 -4 q-23 -2 -46.5 -2t-47.5 2q-18 0 -31 -8q-43 -17 -65 -23q-1 -1 -4.5 -2t-5.5 -2t-3 -2q-6 -6 -6 -22q-2 -22 -10.5 -65.5t-9.5 -67.5q-1 -30 -8.5 -94t-8.5 -95q0 -77 7 -115q1 -10 -13 -43q-6 -2 -14 -6q-2 -6 -6 -14q-4 0 0 -1t0 -1q-21 11 -23 12q-1 -3 -4.5 -12 t-5.5 -14q-5 -4 -15.5 -12.5t-15.5 -12.5q-17 -10 -30 -10h-17v2v-2q-10 6 -31 20h-14q-17 10 -33 23q3 7 -2 31l-6 18q-4 17 4 25q-8 20 -8 49zM195 63h6v3h-6v-3zM281 748h10q10 1 29.5 4t29.5 4q16 4 56 8q37 4 114 4q25 0 37 6q-1 2 -2 6t-2 6q-5 15 -16.5 43t-16.5 43 q-7 15 -15 33.5t-17 40.5t-15 35q-6 17 -29 70q-2 6 -6 17t-6 17q-23 52 -45 91q-13 17 -20 20q0 -1 -5 -16q-2 -10 -5 -31t-5 -31q-8 -41 -24 -127q-2 -8 -7.5 -28t-7.5 -31q-3 -12 -8 -38t-8 -40q-9 -34 -16 -94v-12zM530 627l2 -4q1 0 2.5 1t2.5 1l-2 2h-5z" />
<glyph unicode="b" horiz-adv-x="974" d="M0 1239q0 12 4 14q8 11 8 27q0 10 8 18q2 1 16.5 12t22.5 15q58 28 119 43q84 21 146 29q46 4 88 4q85 0 157 -17q59 -13 84 -20q9 -3 28 -8t27 -8t21.5 -8.5t25 -13.5t23.5 -19q44 -36 62 -72q17 -40 17 -76q0 -15 -3 -29q-2 -9 -4 -55t-10 -65q-3 -8 -10.5 -23.5 t-10.5 -23.5q-4 -9 -10 -17.5t-17.5 -20t-13.5 -14.5q-10 -11 -31 -30.5t-28 -26.5q-12 -9 -27 -18q8 -4 19.5 -12.5t15.5 -10.5q63 -42 80 -59q64 -64 96 -127q23 -51 29 -82q1 -5 1 -12.5t-0.5 -16t-0.5 -12.5q0 -35 -6 -49q-3 -9 -6 -15q-1 -4 -3 -15t-2 -17 q0 -27 -18 -56q-15 -23 -27 -37l-24 -30q-41 -58 -94 -82q-32 -16 -52 -31q-15 -13 -65 -35q-31 -15 -64 -24q-83 -25 -141 -27q-15 -1 -29 -1q-23 0 -43 3q-17 4 -36 5t-41.5 0.5t-34.5 0.5q-13 1 -36.5 4t-35.5 4q-10 1 -29.5 2t-29.5 2q-3 0 -13 5q-4 -2 -13 -7.5 t-13 -7.5q-2 1 -23 15q-18 12 -24 30q0 4 -2 6q-14 17 -9 58q2 17 11.5 49t11.5 49q3 14 0 25q0 67 6 106q11 67 11 128q0 14 -1 28q-2 26 -2.5 73t-1.5 62q-1 13 -5 36t-5 34q-7 41 -14 102q-10 90 -11 102v66v12q-10 43 -14 129q0 5 -2 16.5t-2 16.5zM135 1094 q4 -17 12.5 -51l12.5 -50q16 -86 18 -129q0 -8 2 -12h53q58 9 76 10q54 6 103 21q111 34 182 84q50 34 70 71q44 80 51 107q1 6 1 11q0 26 -32 44q-4 1 -8.5 4.5t-5.5 3.5q-71 23 -72 23q-76 19 -155 19q-20 0 -40 -1q-71 -3 -145 -18q-11 -2 -86 -17q-17 -4 -20 -8t-5 -22 v-8q-1 -8 -8 -37q-5 -20 -5 -34q0 -6 1 -11zM195 616q1 -9 6 -59q2 -20 2 -59v-60q0 -21 6 -39q2 -6 2 -18q1 -13 6 -35t6 -33q0 -1 6 -37q1 1 2.5 -2t2 -6t2 -6t2.5 -2q0 -7 1 -8.5t1 -7.5q9 0 25.5 -2t29.5 -2t24 4q10 3 36 9t36 9q8 2 52 9t65 18q6 4 143 82q46 22 68 59 q11 20 13 36v7q0 13 -4 27q-5 18 -5 24q0 1 -6 13q-37 48 -94 131q-10 13 -45 24q-11 5 -34 6t-30 2q-33 2 -100 2q-32 0 -70 -10q-8 -2 -12 -6q-4 -2 -10 -4t-9 -4q-4 -2 -11 -5t-11 -5q-10 -2 -18 -5.5t-19.5 -10t-24.5 -11.5q-4 -2 -16.5 -12t-17.5 -13z" />
<glyph unicode="c" d="M2 725v15q0 70 25 141q61 146 100 204q35 48 84 101q37 43 90 86q39 31 92 63q34 19 92 45q1 0 23 6q39 12 180 35q22 4 44 4q27 0 52 -6q50 -14 66 -53q0 -4 4 -8q9 -17 9 -38q0 -30 -19 -67q-21 -34 -62 -34q-34 -3 -63 0q-5 0 -55 -11q-12 -4 -38 -12t-38 -12 q-149 -48 -242 -160q-89 -107 -125 -229q-15 -53 -15 -107q0 -42 9 -84q14 -60 68 -141q38 -60 88 -101q43 -35 112 -45q22 -3 44 -3q40 0 81 10q15 3 88 18q12 2 24 -6t15 -21q1 -1 4 -5t4 -7q-12 -8 -16 -12v-4q28 9 55.5 3t44.5 -34q-3 -2 -9 -7t-9 -7q5 -19 25 -39 q-1 -4 -5.5 -11.5t-5 -11t1.5 -12.5q3 -5 -8 -16q-5 -4 -21 -15t-22 -18q-4 -7 -8.5 -12t-12.5 -9t-10.5 -5.5t-14.5 -6.5l-11 -4q-1 -1 -3 -2t-3 -2q-38 -29 -114 -29h-19q-142 6 -244 92q-102 88 -152 162q-3 4 -9 12.5t-9 12.5q-20 20 -49 80q-59 110 -72 143 q-35 83 -41 174z" />
<glyph unicode="d" horiz-adv-x="874" d="M4 784q2 33 2 83v54q-1 38 -1 68q0 40 1 68q0 25 2 73.5t2 71.5q0 78 8 117q14 69 27 88l12 12q3 3 10.5 8.5t10.5 8.5q6 0 26 4q0 1 -1 4t-1 4q11 7 19 10q8 4 20.5 4t28.5 -4q5 -1 16.5 -3t16.5 -3q26 -5 33 -8q95 -33 157 -82q49 -34 68 -49q13 -9 36.5 -31t28.5 -27 q8 -6 24.5 -19t24.5 -19q47 -35 72 -66q52 -58 53 -59q5 -6 13.5 -19.5t9.5 -15.5q5 -11 15.5 -32.5t15.5 -33.5q3 -5 7 -16.5t7 -16.5q41 -108 57 -202q6 -35 6 -73q0 -31 -4 -62q-4 -39 -14 -64q-5 -16 -17.5 -46t-17.5 -46q-5 -13 -15 -40t-15 -40q-5 -10 -7 -12 q-2 -5 -34 -66q-3 -6 -7 -10q-18 -23 -26 -29q-43 -34 -64 -49q-7 -5 -35 -25.5t-45 -29.5q-55 -37 -81 -51q-3 -2 -37 -13q-7 -2 -19.5 -5t-22.5 -6t-18 -7q-15 -6 -28 -19q-15 -15 -72 -38q-4 -2 -10.5 -4t-11 -4t-10 -5t-9.5 -6q-21 -12 -37 -6q-6 1 -12.5 -0.5t-9 -3 t-9.5 -6.5t-8 -6q-2 0 -4 -2q-38 9 -63 34q-5 5 -7 9q-13 37 -18 67q0 4 2 6q2 -1 6.5 -2t7.5 -2q-4 22 -8 35q-16 0 -16 25q-8 65 -10 102v49q0 84 -2 127q-7 123 -17 217q-4 46 -4 84q0 28 2 51zM207 379q0 -54 4 -156q0 -2 4 -14q10 0 14 2q23 4 70.5 13.5t71.5 13.5 q95 18 164 90q17 16 45.5 48.5t33.5 37.5q1 2 4.5 7t4.5 7q2 5 22 51.5t31 69.5q14 37 20 80q4 32 4 57q0 18 -2 33q-14 99 -43 166q-37 90 -77 137q-57 65 -82 84q-50 35 -60 41q-58 38 -96 76q-28 28 -76 53q-5 4 -17.5 9.5t-15.5 6.5v-24v-23q-1 -12 -3 -33t-3 -39t0 -34 v-27q-1 -16 -3 -46.5t-3 -45.5q0 -14 -1 -29t-2.5 -34t-2.5 -29q-6 -117 -6 -121v-131q0 -16 1 -49t1 -49v-129q0 -12 -1 -35.5t-1 -34.5z" />
<glyph unicode="e" horiz-adv-x="729" d="M2 1470q-2 5 8 15q4 4 10 4q11 -2 20 1.5t20.5 12t15.5 10.5q6 5 16 9q7 0 21 1t20 1q32 5 51 20q-6 3 -13.5 3t-15.5 -1.5t-12 -1.5q-8 1 -23 -0.5t-20 -1.5q-21 -4 -41 2q8 3 19 10q-1 1 -3.5 5t-4.5 6q19 4 57 8q16 3 46 8t54.5 9t46.5 7q74 12 150 15q37 4 115 8 q5 0 14 -1t14 -1q12 2 35 -14q2 -2 9 -7t10.5 -8t6.5 -9t3 -13q4 -2 6 -4q16 -8 25 -11q2 -12 4 -23.5t4.5 -24.5t3.5 -21q-6 -4 -8 -11t-1 -13.5t-1 -14.5q-22 -5 -37 -31q-8 -13 -25 -16q-30 -2 -160 -17q-13 -1 -39.5 -4t-40.5 -4q-23 -2 -63 -6q-14 -4 -29 -6 q0 -12 -2 -37t-2 -37v-223q0 -13 2 -21h41q28 -1 83 -2t83 -2q5 0 17 -4q8 -4 36 -16q-2 -1 -6 -4t-6 -4q11 -23 31 -25q15 0 43 -14q13 -7 15 -12.5t-3 -20.5q24 -20 10 -45q-14 -29 -22 -35q-4 -5 -15 -8t-12 -4q0 -15 -4 -21q-2 -4 -18 -4q-31 -2 -95 -2q-42 0 -65 2 q-16 1 -45 3t-45 3q-20 1 -26.5 -6t-6.5 -26q8 -111 10 -164q0 -56 -4 -158v-123v-10q0 -14 4 -17.5t17 -3.5q18 1 51 4.5t49 4.5h129q8 0 25.5 1t25.5 1q17 0 41 -4q2 -1 4 -4.5t5.5 -8.5t5.5 -8q2 0 18 -4q-4 -11 -8 -29q15 0 20 -12q2 -2 5 -3.5t8 -3.5t8 -3q0 -2 3 -13 t-3 -16l16 -8q-1 -4 -3 -13.5t-4 -15t-8 -11t-16 -7.5q6 -15 -14 -35q-25 -25 -41 -31q-10 -7 -20 -10q-88 0 -131 -2q-15 -1 -45.5 -3t-45.5 -3q-16 -2 -47 -2q-37 0 -55 -2h-5q-18 0 -44 12q-48 27 -80 84q-37 64 -37 145q0 45 1 136t1 137v12q-3 23 -3.5 48t0.5 60t1 48 v155v39q0 3 -12 27q1 0 2.5 -0.5l4.5 -1.5t5 -2q0 2 1 7t1 7q0 21 1 63t1 64q3 111 6 219q4 33 -18 49q-3 1 -8 17q8 8 12 14q-2 1 -25 14t-30 27q4 8 4 12q-9 3 -21 9q0 -3 1 -8t1 -7q-6 -3 -11 -1.5t-5 7.5zM135 1561q4 -1 7 -1q10 0 16 9q-4 -1 -12 -2t-11 -2v-4z" />
<glyph unicode="f" d="M2 16q-2 11 -2 22q0 12 2 23l6 99q1 21 4 59t5 69.5t3 59.5q1 22 3.5 68t2.5 68q1 4 1 9q0 21 -2 58q-1 14 -1 42q0 46 3 130q4 132 4 199q1 27 1 54t-1 54q0 1 -6 55v54q-1 24 -4.5 73.5t-4.5 75.5q0 8 1 26t1 27t-2 13q-11 25 13 53l12 6q5 5 11 12.5t7 8.5q28 5 60 12 q0 2 -2 2q31 0 93 -1t93 -1q24 -1 47 -1q104 0 182 15q22 3 68 10.5t68 10.5q14 2 45 2q8 -4 27 -10.5t28 -10.5q13 -4 31 -18q3 -2 10.5 -11t13.5 -12q1 -4 2 -13.5t2 -14.5q5 -5 17 -13q0 -2 -2 -2q4 -7 12 -22.5t12 -22.5q-10 -10 -30 -26q2 -3 4 -10t4 -11 q-3 -3 -9.5 -9t-9.5 -9q-3 -1 -22.5 -8t-30.5 -7q-6 0 -18.5 -1t-18.5 -1h-43q-23 -3 -68.5 -9t-68.5 -9q-17 -1 -49.5 -3t-48.5 -3q-23 -1 -68 -4t-67 -4q-12 -2 -39 -2q3 -14 6 -19h-2q-4 -46 -4 -65v-183q0 -4 1 -11t1 -11q14 -5 34 -8q13 -1 26 -1q40 0 79 7q9 2 57 2 q2 0 6.5 -2t6.5 -2q25 -11 41 -13q4 -3 12 -7.5t13.5 -9t8.5 -11.5q29 -3 49 -29q0 -2 -1 -6t-1 -6q1 -2 4.5 -7.5t4.5 -7.5q-1 -5 -2 -15.5t-2 -16.5l-24 -15t-19 -12q18 -14 6 -35q-16 -4 -29 -4q-47 -2 -83 -2t-60 2q-28 1 -125 10q0 -4 -2 -11t-2 -11q-3 -13 0 -27 q3 -23 3 -54q0 -43 -5 -101q-4 -44 -5 -125.5t-4 -118.5q-4 -90 -8 -137q-1 -10 -6.5 -41.5t-7.5 -51.5q-6 -8 -17 -26t-16 -25q-1 -2 -6 -18t-12 -23h-43l-18 -16q-17 -16 -32 -16q-15 13 -43 6l-40 30q-18 19 -21 43z" />
<glyph unicode="g" horiz-adv-x="1013" d="M2 688q2 67 21 182q1 3 3 8.5t3 8.5l4 8q3 15 8 43t8 43q0 10 2 14q4 26 10 41q3 -2 7 -5.5t6 -4.5l2 2q22 50 28 68q2 4 8 19t9 22q7 17 12.5 48.5t7.5 41.5v8q-11 20 6 45q26 55 89 98q54 33 67 37q34 10 82 10q23 0 67.5 1t65.5 1q19 0 51 -4q3 0 15 -6q46 -23 61 -33 q41 -29 66 -51q80 -80 118 -157q19 -36 35 -80q6 -12 21 -52q12 -27 -2 -43q-1 -1 -1 -5.5t-1 -6.5q-24 -4 -45 -4q0 -1 -5 -6q-1 1 -6 7t-10 11q2 -10 2 -18q-18 0 -43 25q0 -2 -1 -7t-1 -8q-3 4 -11.5 24.5t-19.5 26.5l-6 -24h-2q-3 6 -9 19.5t-9 19.5q-22 59 -58 106 q-45 59 -88 78q-34 18 -66 18q-28 0 -54 -14q-5 -3 -15.5 -11t-15.5 -11q-17 -12 -41 -62q-1 2 -2 3.5t-3 4t-3 4.5q-6 -14 -18 -37t-17 -34q-28 -65 -53 -166q-25 -102 -39 -199q-11 -68 -11 -110q-1 -19 -1 -37q0 -129 44 -219q40 -77 95 -107q37 -21 90 -41q26 -8 51 -8 q32 0 61 14q13 7 76 47q7 7 10 13q56 70 80 137q5 12 2.5 18t-14.5 7q-32 4 -47 4q-46 2 -113 24q-5 1 -11.5 4t-8.5 4q-25 4 -27 25q-1 4 -6.5 14t-5.5 17l-12 12q4 8 6 14q-4 2 -13 2t-14.5 4t-7.5 15q5 -1 15.5 -3t15.5 -3l18 18q-15 10 -19.5 11t-11.5 -7q1 4 2 13t2 14 q36 5 50 8q5 0 20 10q6 2 14 10q43 15 66 25q3 1 25 18q8 8 10 9q40 21 88 30h14q8 -8 33 -8q3 -1 6 -2.5t7 -4t7 -3.5q0 -2 -1 -5.5t-1 -6.5q22 4 33 8q2 -2 10 -14q11 2 18 -5t7 -20q24 0 27 -21q4 -4 12 -8q15 -5 18 -22q0 -5 1 -15t1 -16q3 1 8.5 2t8.5 2l2 -4 q0 -7 1 -21.5t1 -21.5v-37q0 -27 -12 -51q-14 -16 -7 -39q7 -22 -8 -33q-3 -2 -4.5 -6.5t-3 -11t-2.5 -10.5l4 -2q4 12 8 20q2 -9 2 -17q0 -26 -18 -44q6 19 4 26q-12 -10 -4 -26q1 -7 0.5 -10t-3 -9t-3.5 -8q-2 -13 -15 -39l-6 -6l-6 -12v-2q-9 -2 -10 -16t-4 -17 q-2 -2 -6 -10q0 10 -2 14q-7 -3 -6 -11.5t-1 -13.5q-18 -4 -18 -22q-1 -3 -3 -5.5t-5 -6t-4 -5.5q-4 -5 -27 -28l-2 -2q-11 -3 -29.5 -17t-31.5 -16q-6 -1 -14.5 -6.5t-12.5 -7.5q-3 -1 -13 -6.5t-16 -6.5q-55 -14 -119 -14q-67 4 -100 14q-39 14 -100 29q-29 7 -82 39 q-4 3 -14.5 7t-14.5 7q-17 11 -18 13q-66 49 -86 69q-14 12 -51 66q-64 97 -89 194q-19 84 -19 167q0 21 1 42zM279 1384q4 -2 7 -2q2 0 4 1q4 2 5 12q-10 -5 -16 -11z" />
<glyph unicode="h" horiz-adv-x="813" d="M4 1391q-2 21 -2 37t2 26q4 44 31 57q5 3 8 7.5t7 14t5 11.5l8 8q3 -25 15 -36q2 -4 12 -9q1 2 3 6.5t3 6.5l4 8q4 -20 4 -25q2 -2 5 -2q18 4 34 -20q25 -29 33 -45q14 -26 14 -53q0 -9 -2 -19q-5 -24 -5 -53q0 -13 1 -27q9 -112 21 -217q2 -31 14 -88q9 -60 9 -131 q0 -19 -1 -39v-96q2 -13 4.5 -16.5t14.5 -4.5q56 -9 103 -9q27 0 52 3q11 0 11 4q0 10 15 10h3q7 1 26.5 3.5t30.5 3.5q2 1 6.5 2t6.5 2q3 0 8.5 2t7.5 2q25 0 25 24q0 37 4 115q1 22 4 68.5t4 68.5v4q3 19 4 41t1 38t-0.5 42t-0.5 39q1 21 0 45t-3 53.5t-3 44.5q0 76 6 115 q8 39 37 76q4 8 6 14q8 -3 27 -8q9 -5 20 6q3 6 6 15q2 -8 7.5 -12.5t15 -8.5t12.5 -6q0 -24 19 -43q14 -17 14 -43q1 -20 2 -61t2 -62q0 -5 3.5 -14t4.5 -11q6 -30 6 -34q6 -24 6 -50q3 -49 3 -100q0 -17 -1.5 -52t-1.5 -52q0 -21 5 -113q1 -13 5 -36t5 -34q4 -32 8 -100 q1 -10 -4 -47q0 -4 -4 -8q-10 -10 -10 -35v-111v-77q0 -29 -7 -48q-5 -13 -5.5 -27t0.5 -34t1 -27q1 -16 11 -110q0 -3 18 -148q4 -40 4 -61q0 -24 -10 -39q-6 -11 -19 -14q-3 0 -12 -9q-4 -2 -8 -10q-4 1 -15 4t-18 4q-2 -2 -6 -10q-2 -2 -6 -2q-9 2 -12 16q-4 11 -13 13 q-10 2 -14 20q0 13 -4 17q-10 16 -14 51q-4 25 -15 71q-4 30 -16 82q-3 18 -6 33q-17 109 -17 113q-1 9 -4 27.5t-4 27.5q-8 78 -8 107v6q0 7 -1 22.5t-1 22.5q-2 12 -14 12q-70 -4 -107 -6q-12 -4 -22 -4h-19q-1 0 -3 1t-3 1q-10 -4 -21 -4t-23.5 2t-19.5 2q-11 0 -32 1 t-33 1q-4 0 -8 -2q0 -3 -1 -10t-1 -11q1 -13 2 -39t2 -40q2 -15 0.5 -30t-7 -39t-6.5 -30q-9 -43 -8 -57q0 -9 -4 -29q-6 -55 -18 -106q-2 -12 -9.5 -32t-9.5 -32q0 -2 -6 -8q-17 -17 -22 -35q0 -2 -9 -16l-14 14h-2q-3 -12 -18 -8.5t-19 0.5q-16 29 -28 37q-7 7 -11 24 q-10 51 -10 125q0 10 -10 45q-6 45 -4 52q2 4 2 16q0 4 -1 14t-1 15q1 10 3 30.5t3 30.5q1 20 3 62l3 63q0 10 -1 29.5t-1 29.5q-2 23 -2 70q-1 19 -2 56t-2 55q-2 30 -6 91.5t-6 92.5q-3 34 -3 63v60v72q-1 13 -4 38t-4 37q-4 62 -4 90q-4 62 -4 93zM647 -70q0 -1 1 -4 t1 -4h4q-1 2 -2 5t-2 5z" />
<glyph unicode="i" horiz-adv-x="311" d="M2 1280v27v8q0 36 23 65q1 2 6.5 5.5t7.5 5.5q8 3 8 5t-4 13q8 5 16 8h9l2 -4q7 2 19.5 3t22.5 4t17 10q10 -5 12 -7q1 -5 3.5 -9t7 -6.5t6.5 -3.5t8.5 -3t7.5 -2q12 -5 19 -15q6 -10 36 -55l7 -14q4 -8 4 -17q1 -2 2 -6t2 -6q0 -1 -1 -3t-1 -3q8 -10 9 -31.5t5 -29.5 q6 -13 -4 -23q-4 -4 -4 -8q2 -11 -4 -29t-6 -22l-13 -13q-1 1 -6 5t-10 6q-6 -15 -12 -27q-22 -7 -39 4q-55 25 -95 68q-8 8 -23.5 26.5t-23.5 26.5q-10 11 -14 47zM43 692q0 68 4 103q0 7 4 22t4 23q10 107 11 131q0 28 18 43l10 -15q9 21 15 39h4q-1 -11 10.5 -23.5 t13.5 -17.5q2 7 7 17.5t6 13.5q2 -4 8 -14.5t8 -16.5q4 3 5 7t0.5 9t0.5 7q2 -3 7 -9.5t7 -9.5q5 -13 21 -16q6 -3 12 -12q25 -45 31 -60q4 -12 4 -39q0 -23 6 -64.5t8 -51.5q2 0 2 -26v-20l-2 -46q0 -29 -2 -43q-7 -62 -7 -126q0 -21 1 -42q0 -23 1 -68t1 -68q0 -2 3 -14.5 t3 -19.5v-72v-53v-15q-27 -3 -30 -36q-3 1 -8.5 3t-8.5 3q0 -9 -4 -13q-12 -6 -14 -6q-7 4 -19 4t-16 2q-2 4 -14 14.5t-13 20.5l-4 4q-10 3 -17 8t-11.5 16t-5.5 14.5t-5 19.5l-30 141q-21 117 -23 166q0 32 -1 94t-1 92z" />
<glyph unicode="j" horiz-adv-x="790" d="M2 483v47q8 73 18 109q2 10 6 20.5t11 24.5t10 21q9 -3 12 -3q21 21 33 31q5 -5 12 -8t11 -3.5t16.5 -1.5t15.5 -1q7 -7 31 -27q-1 0 -2 -1t-2 -1q3 -6 15 -26t18 -31q1 -4 6 -27q0 -7 1 -21.5t1 -21.5q0 -33 6 -63q2 -14 -2 -45q0 -106 19 -162q21 -59 26 -59q1 0 3 3 q6 7 12 3q2 1 8 2t8 2q15 8 65.5 21.5t69.5 35.5q34 40 35 41q3 3 3.5 9t2.5 9q26 54 31 95l4 4q6 10 7.5 30t0.5 44.5t0 31.5q8 57 8 127v7q0 22 -4 83q-2 24 -7 72.5t-7 73.5q-2 21 -10 73q-5 31 -15.5 96t-15.5 97q-3 19 -7 56t-7 55q-4 29 -7 45t-11 38.5t-21 38.5v37 q4 2 15 7t17 8l4 8q4 1 17 10q3 -1 9 -4t9 -4q11 4 11 24q8 1 16 -7.5t14 -10.5q-1 4 -2 12.5t-2 12.5q8 -2 8 -12t2 -13q34 -16 76 -35q0 -14 15 -28.5t16 -16.5q2 -7 8 -37q11 -37 14 -45q8 -17 21 -65q2 -8 7 -24.5t7 -24.5q6 -21 18.5 -64t18.5 -65q1 -5 2 -16t2 -17 q3 -13 8 -25q-2 -10 2 -39.5t-2 -40.5q3 -3 9 -6q-1 -9 -3.5 -28.5t-3.5 -28.5q0 -2 1 -6t1 -6q0 -3 1.5 -9.5t1.5 -9.5q0 -106 -3 -141q-4 -99 -14 -150q-5 -26 -9.5 -76t-6.5 -65q-15 -103 -19 -123q-2 -14 -11 -39t-11 -35q-5 -18 -19.5 -50t-17.5 -40q-1 -3 -9 -28 t-14 -39q-8 -24 -22 -52q-5 -8 -12.5 -18l-10.5 -14q-14 -24 -34 -29q-4 1 -9 4.5t-6 3.5h-4q-8 -6 -28 -6h-19q-3 -1 -10 -6t-10 -6h-33q-4 0 -64 6q-4 0 -13.5 3.5t-14.5 2.5q-10 -2 -21 0.5t-23.5 7.5t-19.5 6q-17 5 -24 7q-24 18 -29 22q-4 2 -33 14q-1 1 -4 2.5t-4 2.5 q-8 9 -25.5 26.5t-25.5 26.5q-6 7 -18.5 22.5t-18.5 22.5q0 12 -2 18q-7 5 -11.5 13.5t-7.5 19.5t-6 16q-9 22 -22 70q-15 54 -15 88q-1 20 -3 43t-5 50t-4 44zM530 -31q4 -2 6 -2q7 0 9 10q-13 0 -15 -8z" />
<glyph unicode="k" horiz-adv-x="1011" d="M0 1346q0 13 6.5 35.5t7.5 29.5q5 -1 13 0t13 0t9 -6q5 5 29 25v-19q6 -5 10.5 1.5t7.5 6.5q8 -1 12.5 -13.5t6.5 -14.5q2 2 4.5 5.5t3.5 4.5q5 -2 8 -4t4.5 -4.5l7.5 -12.5q3 0 7 4q15 -27 30 -57q2 -49 6 -151q1 -15 2 -44.5t2 -44.5q0 -13 5 -106q1 -12 2 -35.5 t2 -34.5l4 -16q19 14 20 16q51 45 103 111q25 33 77 82q80 75 105 113q34 57 88 67h12h17q31 8 48 5.5t48 -13.5q3 -1 6.5 -5t7.5 -10t8 -10q-1 -2 -1.5 -5.5t-1 -9t-1.5 -9.5q0 -1 -1 -5t-1 -5q5 -11 5.5 -15.5t-3 -15.5t-4.5 -15q0 -6 -4 -10q-9 -5 -16 -14.5t-14.5 -22 t-12.5 -18.5q-82 -113 -123 -180q-16 -25 -55 -60q-14 -14 -86 -82q-21 -21 -25 -24q-6 -6 -14 -10q-21 -5 -33 -33q58 -54 84 -80l123 -135q20 -22 61 -66.5t62 -66.5q3 -3 24 -27.5t33 -36.5q15 -15 43 -39q14 -14 40.5 -41.5t39.5 -42.5q5 -5 22 -23t25 -28 q27 -32 31 -49q3 -13 29 -59l2 -3q-7 -10 -11 -12t-16 -2q-11 -28 -12 -33q-2 -6 2 -18q4 -33 -8 -49q-6 -12 -19 -12q-9 0 -20 6q-44 20 -86 69q0 2 -4 2q0 -1 -1 -3t-1 -3q2 -2 2 -10q-6 5 -18.5 13t-16.5 12q-26 22 -41 20q-5 -3 -14 6q-12 12 -35 34.5t-41.5 41 t-34.5 35.5q-98 114 -168 200q-71 87 -141 152q-23 24 -73 70q-8 4 -13 8q0 -3 -1 -9t-1 -8l6 -72t6 -73q1 -15 3.5 -60.5t6.5 -70.5q2 -16 -2 -44.5t-5 -39.5q0 -2 1 -6q0 -20 -4 -80q-7 -51 -7 -101q0 -17 1 -34q0 -15 -2 -21q0 -6 -8 -14q-27 -13 -52 -4q-12 4 -16 4 q-29 -6 -47 12q-5 5 -18.5 11.5t-14.5 7.5q-32 19 -32 63q0 8 1 17q4 20 2 30q-4 28 -4 62.5t4 75.5v77q-1 25 -3 74.5t-3 73.5v121q0 17 1 36.5t2.5 43t2.5 36.5q10 129 11 162q0 94 -2 141q-6 97 -15 185q-12 102 -12 203z" />
<glyph unicode="l" horiz-adv-x="911" d="M2 1329v41q0 10 2 10q4 3 12.5 8.5t12.5 8.5q12 16 22 14q5 -1 17.5 4.5t19.5 3.5q1 0 14 4q10 -23 33 -26q30 -6 33 -43q3 -27 12 -51q30 -100 49 -279q12 -105 23 -260v-88q-2 -41 -2 -119q-1 -14 -3 -40t-3 -40q-5 -65 -5 -109q0 -22 1 -38q4 -47 14 -70q18 -4 51 4 q184 41 242 53q57 9 110 15q78 12 80 12q15 4 35 -8q16 -12 33 -14q1 -3 0 -6.5t0.5 -7.5t5.5 -7q2 -1 2.5 -3.5t0.5 -7t1 -7.5h16q9 -3 17 -11v-20q5 -4 12.5 -8.5t9.5 -5.5l-10 -15q6 -6 10 -8q-13 -13 -16 -14q-2 -2 -5 -2.5t-7.5 -0.5t-7.5 -1q3 -27 -17 -45 q-4 -3 -20 -35q-7 -12 -25 -4q-19 -19 -43 -25q-37 -6 -147 -33q-24 -5 -71.5 -16t-70.5 -16q-44 -11 -75 -13q-44 -8 -79 -8q-16 0 -30 2q-14 4 -27 10q-81 48 -108 119q-3 8 -41 92q-36 79 -36 173q0 14 1 28q1 26 4 72t5 83.5t3 71.5q2 66 2 195q0 16 -1 34.5t-2.5 41 t-2.5 34.5q-3 50 -12 103q-4 34 -14 97t-11 71q-2 19 -7 52t-7 48z" />
<glyph unicode="m" horiz-adv-x="1243" d="M4 201q7 27 14 67q3 20 12 75.5t13 86.5q13 75 37 174q9 37 28.5 110.5t28.5 110.5q19 76 23 101q4 17 8 55q2 17 5 53t5 53q8 34 10 56q1 9 2.5 29t2.5 30q4 54 12 72q1 1 2 3t2 3q13 16 10 39q8 12 10 16q3 1 8 2t7 2q14 6 28 0q6 -3 20 -7t21 -7q7 -14 19 -35 q14 -8 20 -30q10 -23 23 -46q61 -127 108 -217q38 -83 43 -96q15 -35 27 -72q28 -76 29 -79q7 -14 8 -17q2 1 8 21q19 65 23 104q3 20 11 60.5t11 60.5q5 24 14.5 71t14.5 70q17 108 18 113q9 51 15 106l12 93q0 6 4 14q0 4 4 20q1 1 6 11h14l21 14q0 -2 2 -2q1 3 2 3.5 t2 0.5t3 1.5t3 4.5h13q3 -4 9 -3.5t9 -2.5q2 0 5.5 1t4.5 1q6 -2 18.5 -5t18.5 -5q5 -2 15.5 -8.5t15.5 -8.5q0 1 8 5q7 -7 10 -13v-4q-6 -26 4 -55q18 -79 33 -137q8 -31 26 -87t23 -71q8 -18 15 -47q1 -4 4 -12.5t4 -12.5q1 -3 2 -11.5t2 -12.5q2 -7 7 -29t7 -35 q2 -12 5 -37t5 -37q1 -3 2.5 -10t2.5 -10q4 -38 16 -102q1 -6 4.5 -28t3.5 -34q3 -28 33 -139q4 -17 11 -49.5t11 -48.5q27 -101 29 -109q4 -16 11.5 -49.5t11.5 -50.5q4 -22 16 -74q4 -14 4 -25.5t-4 -19.5q6 -9 6 -18q0 -5 -2 -11v-20q-2 -3 -12 -23q-1 -1 -21 -16 q-7 0 -23 -1t-26 -1q-7 7 -43 16q-3 0 -7.5 2t-6.5 2q-2 5 -8.5 17.5t-8.5 19.5h-2v21q-4 27 -12 39q-3 5 -8 24q-5 25 -16.5 87t-18.5 95q-4 22 -29 129q-8 35 -24 109q-12 46 -21 96q-21 98 -34 170q-5 25 -14.5 76t-14.5 76q-5 15 -6 20q-6 -9 -6 -12q-2 -8 -12.5 -57 t-16.5 -74q-2 -9 -5 -26.5t-5 -26.5q-11 -66 -27 -140q-11 -71 -20 -108q-3 -17 -10.5 -51t-10.5 -52q-6 -31 -14 -96q-3 -21 -6 -45q-3 -7 -9 -22t-8 -19q-23 -4 -33 -14q-6 -8 -24 -4q-2 2 -6 5t-6 5q-21 0 -45 4q-25 9 -25 31q-4 12 -6 16q-11 11 -19 39q-5 15 -15 45.5 t-15 46.5t-14.5 50t-14.5 51q-24 83 -68 198q-1 3 -53 121q-4 9 -26 39q-3 -12 -5 -18q-9 -68 -14 -95l-12 -69q-2 -10 -8.5 -30t-8.5 -30q-3 -15 -9.5 -42.5t-11.5 -50t-9 -42.5q-8 -35 -31 -151q-4 -21 -12 -60.5t-11 -54.5q-8 -45 -24 -131q-2 -10 -27 -45q-2 -3 -8 -9.5 t-8 -9.5q-14 -4 -19 -6q-5 1 -15.5 2t-16.5 2q-15 23 -17 25q-12 6 -24 10q-1 3 -5.5 11t-5.5 10v2l-6 6q-13 10 -13 25q0 8 3 16z" />
<glyph unicode="n" horiz-adv-x="944" d="M4 1092q4 80 8 122q0 28 23 31q8 0 14 6q7 5 14 15q2 4 23 57q2 0 2 2h4q9 -4 12.5 -5t6.5 1.5t6 9.5q4 8 8 12q3 -7 10 -10v-4q7 -14 11.5 -16t19.5 2q13 4 63 -6q4 -7 17.5 -16t17.5 -15q20 -22 64 -45q15 -7 18 -21q11 -29 49 -145q5 -13 11.5 -35.5t13.5 -41.5 t16 -34q3 -6 10.5 -18t10.5 -18q8 -15 25.5 -43.5t25.5 -42.5q35 -68 41 -82q6 -17 17 -50.5t16 -48.5l12 -30q7 -13 21.5 -39t21.5 -39q0 -1 14 -19v64q-4 90 -4 131q0 86 2 129q3 44 6 90q1 29 3.5 89t3.5 89q5 58 8 72q3 12 4 26.5t1 31.5t1 26q4 50 16 65q14 17 27 17 q10 0 16 2q22 5 26 5l1 -1q3 0 24 -10h2h7q-5 -18 10 -23q16 -6 22 -22q3 -4 10.5 -10.5t10.5 -10.5q6 -6 6 -12q4 -12 4 -17q8 -31 19 -40q2 -1 2 -15q0 -21 2 -31q5 -21 5 -56q0 -17 -1 -38l-6 -123q-5 -73 -5 -90q-2 -35 -2 -70.5t2 -70.5q1 -24 3.5 -71t3.5 -70 q2 -14 2 -39q1 -16 2.5 -44.5t2.5 -52t1 -43.5q1 -19 2 -54.5t2 -53.5q6 -169 6 -170q2 -26 2 -46.5t-2 -33.5q0 -8 2 -12q1 -5 1 -9q0 -16 -17 -26q-2 -2 -6.5 -6t-6.5 -6q-1 -1 -6 -8t-8 -9q-12 -9 -29.5 -7.5t-29.5 13.5q-24 28 -39 43q-3 3 -10.5 8.5t-10.5 8.5 q-4 2 -12 10q-7 12 -23.5 37t-23.5 37q-18 34 -55 100t-56 100q-12 23 -36.5 72t-38.5 74q-9 18 -28 52.5t-28 51.5q-7 15 -24.5 40t-24.5 40q-4 10 -15 27t-14 24q-8 18 -45 59.5t-45 61.5q-1 2 -5 10.5t-5 12.5q-1 0 -3 -1t-3 -1v-29q0 -6 1 -18.5t1 -18.5q-2 -27 -2 -58 q0 -68 8 -153q1 -27 3 -83t3 -83q0 -19 -0.5 -54t-0.5 -64t1 -54q1 -13 1 -27q0 -33 -5 -71q-1 -9 -5 -27.5t-5 -27.5q0 -40 -16 -64q-11 -18 -25 -24q-5 -3 5 -5q2 -1 6 -1q6 -2 6 -2.5t-3 -0.5q-4 -12 -4 -18q-6 0 -17 -1t-16 -1q-4 5 -15 16t-17 21t-8 22q-3 -1 -8.5 -3 t-8.5 -3h-14q-9 13 -31 39q-2 0 -7 -1t-7 -1q-15 5 -13 14q4 17 -16 37q4 16 -4 47q-2 10 -4 32.5t-4 33.5q-15 84 -19 240q-4 78 -4 116q-1 17 0 51t0 52v16q0 27 2 70t2 70v16q0 12 -1 25.5t-2.5 29.5t-2.5 25q-7 64 -7 113q0 31 3 57z" />
<glyph unicode="o" horiz-adv-x="759" d="M2 479q-2 29 -2 57q0 57 8 115q2 23 23 187q3 18 8 52.5t8 51.5q2 14 7 38t7 34q4 18 11.5 53.5t11.5 54.5q2 10 5 21.5t7 25t6 21.5q2 6 6 10.5t11 8.5t8 5q6 3 8 5q2 -2 6 -6.5t6 -6.5q7 21 11 29h2q0 -12 -2 -18q12 -6 12 8q2 18 23 35l36 24q11 7 11 23q-5 0 -13 4 l2 4q48 27 78 31q12 0 27 -3q28 -9 55 3q3 2 6 2l6 -2q53 -24 91 -80q12 -18 36 -47q18 -23 25 -33q37 -52 94 -160q7 -14 25 -70q2 -2 2 -8q23 -46 31 -127q13 -112 13 -179q0 -17 -1 -30q-4 -104 -19 -159q-1 -5 -4 -12t-4 -9q0 -2 -3.5 -9.5t-4.5 -12.5q-4 -29 -16 -41 q-4 -8 -4 -13q-5 -13 -14.5 -36.5t-14.5 -36.5q-5 -11 -18.5 -32.5t-18.5 -33.5q-6 -12 -14.5 -25t-14 -20t-18.5 -22t-17 -19q-1 -1 -4.5 -6t-5.5 -7.5t-6 -5.5t-7.5 -4.5t-8.5 -1.5q-3 -6 -7.5 -10.5t-11.5 -9t-10 -6.5q-7 -5 -21.5 -15.5t-21.5 -15.5q-4 -4 -4 -8h2 q-5 -9 -8 -4q-7 7 -17 2q-12 -1 -33 -4t-32 -4q-14 -2 -26 -2q-27 0 -48 10q-12 5 -53 31q-9 6 -27 19.5t-20 14.5q-11 9 -22 21.5t-17 21t-18.5 27t-16.5 23.5q-2 3 -11 15.5t-14 20.5q0 1 -3.5 5.5t-3 7t4.5 8.5q2 4 0 4q-6 6 -5.5 19t-0.5 20q-1 2 -1.5 3.5t-1 4 t-1.5 4.5q-8 -4 -10 -6l-2 2q5 10 -4 19q-8 12 -10 18q-20 61 -23 137zM174 410q0 -50 16 -103q18 -68 64 -76q4 0 4 -2q14 -10 31 -10q8 0 18 2q20 6 62 27q4 4 8 6q4 6 14 16q4 5 21 23.5t26.5 31t16.5 27.5q50 97 59 135q5 21 4 23q-2 9 2 20q24 93 25 115q1 14 3 39.5 t3 38.5q-2 6 -2 18q-4 24 -4 39q-3 80 -27 150q-19 51 -59 119q-10 15 -10 18q0 8 -3 12.5t-8.5 8.5t-7.5 6q-8 9 -20 9q-4 0 -9 -1q-29 -3 -53 -21q-12 -6 -14 -6q-5 -1 -35 -6q-11 0 -14 6q-6 12 -15 -2q-1 -3 -3 -8t-3 -8q-19 -74 -26 -92q-12 -34 -19 -91 q-9 -57 -26 -184q-2 -13 -8 -48.5t-7 -55.5q-4 -114 -4 -176z" />
<glyph unicode="p" horiz-adv-x="925" d="M2 1346q-1 2 -1 5t1 7q1 6 1.5 7.5t6.5 10.5t8 13q4 5 12.5 15t12.5 15q6 7 12 11.5t15.5 8t14 4.5t17 3.5t15.5 3.5q2 1 7.5 1t8.5 1q49 16 115 16q1 0 94 -6q31 -2 119 -24q34 -11 88 -37q31 -15 74 -39q4 -2 11 -7t11 -7q87 -57 117 -91q31 -31 49 -63q39 -64 59 -131 q3 -9 13 -59q2 -23 2 -66q-2 -19 -27 -64q-15 -24 -21 -33t-18.5 -20.5t-30.5 -21.5q-28 -15 -58 -28t-75.5 -30t-58.5 -22q-8 -3 -21.5 -8t-24.5 -8.5t-20 -6.5q-20 -6 -60 -10t-60 -10q-19 -4 -24 -14.5t-7 -34.5q-2 -17 -12 -54t-11 -57q-2 -33 -6 -97t-6 -97 q-2 -24 -2 -49.5t2 -51.5q1 -18 1 -34q0 -27 -3 -50q-4 -28 -4 -50v-15q0 -13 -4 -17q-4 -1 -1 -12.5t3 -15.5q-3 -8 -8 -8q-2 0 -4 1t-7 4.5t-8 5t-7.5 3t-8.5 0.5q-2 0 -6 4q-2 1 -8.5 4.5t-8.5 5.5q-8 7 -27 11t-22 5q-2 0 -7 -1t-7 -1q-17 25 -17 37q0 5 -3.5 14 t-4.5 11q-5 57 -5 106q0 21 1 41q1 32 9 132t8 155q2 133 2 401q0 30 -1 89t-1 88v79q0 7 -3.5 20.5t-3.5 16.5q-11 -1 -29.5 8t-27.5 5q-19 -9 -27 -11t-15 -2q-33 0 -58 35q-14 20 -25 45q-3 9 -4 15zM354 896q0 -8 12 -18q14 -12 27 -18q6 -3 16 -3q14 0 37 7 q162 31 224 58q37 18 49 26q18 9 18 25q-2 8 -2 26q-3 30 -36 77.5t-62 74.5q-37 37 -129 76q-48 23 -107 26q-12 0 -20 -8q2 -4 6 -8q0 -1 -15 -8q-6 -3 -1 -4q2 3 7 6t8 4.5t1 3.5q5 -3 -3 -12.5t-5 -12.5q6 -5 6 -12.5t-2.5 -17t-1.5 -15.5q0 -4 2.5 -14t1.5 -16 q-2 -17 -7 -55.5t-7 -59.5q-2 -28 -9 -66z" />
<glyph unicode="q" horiz-adv-x="1280" d="M2 641q1 8 4 24.5t4 24.5q6 33 18.5 98.5t18.5 98.5q8 40 31 84q7 14 18.5 41.5t18.5 40.5q47 101 80 141q2 3 30 31q7 6 21.5 17.5t21.5 17.5q21 17 61 52.5t60 53.5q7 6 64 41q26 18 39 23q12 5 61 20q6 2 18.5 5t18.5 5q34 9 63 9q17 0 33 -3q1 -1 4.5 -1.5t6 -1.5 t3.5 -3q5 -5 12 -8t13 -4.5t15.5 -3t13.5 -2.5q27 -4 75 -37q15 -12 39 -41q16 -18 39 -49q67 -94 90 -176q19 -65 70 -133q5 -8 27 -52q4 -7 11 -21.5t11 -21.5q25 -44 27 -47q1 -1 2 -4t2 -4q13 -11 25.5 -39t19.5 -37q6 -6 16 -45q2 -6 19 -84q11 -51 11 -97 q0 -31 -5 -60q-15 -83 -43 -170q-28 -74 -43 -105q-10 -21 -33 -57t-29 -47q-19 -27 -26 -47q-14 -36 -60 -82l-3 -4q-3 -4 -5 -5q0 -4 -2 -8q3 -2 9.5 -7t9.5 -7q59 -45 100 -74q16 -12 16 -24q0 -4 9 -13q12 -15 4 -34q-1 -3 -4.5 -9t-5 -11t-1.5 -9q0 -18 -22 -33 q-13 -13 -14 -20q-2 -8 -11 -13q-6 -3 -11 -3l-7 1q-5 0 -17 4q-13 5 -38 15.5t-37 15.5q-6 3 -20 9.5t-25 12t-19 11.5q-7 4 -55 47q-18 18 -19 20q-13 10 -24 7q-5 -2 -15.5 -5.5t-15.5 -5.5q-102 -26 -143 -26h-17q-21 -4 -43 -4q-65 0 -139 36q-4 1 -17 7.5t-20 7.5 q-42 12 -88 51q-69 52 -139 158q-19 27 -76 121q-35 55 -59 137q-4 14 -7 30t-5.5 35.5t-4.5 30.5q-4 42 -8 59q-9 45 -9 109q0 22 1 45zM127 565q0 -32 10 -47q6 -9 12 -26t9 -23q15 -34 22 -84q2 -13 15 -25q5 -7 17 -20.5t17 -20.5q23 -28 45 -65q70 -102 113 -145 q58 -54 121 -62q36 -5 83 -5q20 0 42 1l12 6q-11 21 -20 33q-42 61 -54 106q-4 24 -4 37q0 42 2 62q0 18 6 22q10 10 13 23l10 10q3 -1 11 -9.5t16 -6.5q0 6 2 10q2 -1 7 -3t7 -3q15 -2 27 -19q2 -4 7 -11t7 -11q32 -42 41 -56q20 -38 70 -96q13 -16 28 -26q12 -6 16.5 -5 t10.5 13q5 6 13 20.5t13 20.5q56 76 99 200q7 19 15.5 54t12.5 47q20 84 20 145q0 16 -1 31q-6 61 -25 127q-17 48 -20 67q-17 82 -64 164q-64 108 -80 152q-12 31 -34 76q-23 47 -68 61q-2 0 -31 12q-6 2 -21 7.5t-24 7.5q-20 4 -24 14q-2 3 -11 8q-27 6 -30 41 q-4 -2 -14.5 -5t-14.5 -5q-7 -4 -22.5 -12.5t-22.5 -12.5q-61 -37 -90 -75q-10 -13 -23 -23t-39 -30.5t-40 -30.5q-37 -33 -52 -62q-8 -15 -23.5 -44.5t-23.5 -43.5q-2 -5 -10.5 -18t-11.5 -21q-16 -35 -33 -82q-2 -5 -11.5 -32.5t-11.5 -42.5q-1 -16 -9 -78q-7 -54 -7 -86 v-8q0 -11 -1 -44q-1 -21 -1 -35v-18z" />
<glyph unicode="r" horiz-adv-x="880" d="M0 1427q2 2 5 6.5t5 6.5v16h2q2 7 7.5 23t7.5 26q6 2 17 5.5t17 5.5q2 2 5.5 7t5.5 7q-1 6 -8 7t-9 3l8 8q3 9 7 17h2q1 -1 0 -1q-1 1 -2 1q39 15 112 26q28 4 60 4q40 0 84 -6q28 -4 41 -4q12 -2 32 -6q3 -2 9.5 -5t9.5 -5q4 2 12 0.5t11.5 -3t11 -5.5t10.5 -5 q42 -21 57 -38q5 -5 8 -5q22 -3 25 -24q8 -4 12 -8q6 -8 17.5 -24.5t17.5 -24.5q21 -11 27 -33q0 -12 10 -17q4 0 8 -2q-6 -6 -6 -8q-3 -10 6 -10q3 -5 8.5 -15.5t8.5 -15.5q-6 -11 4 -16q0 -2 -1 -7t-1 -8q4 0 8 -4q7 -11 0 -20h2q1 -9 6 -59q2 -19 2 -38q0 -44 -10 -85 q-1 -5 -6 -35q-6 -39 -25 -70q-9 -7 -18 -24.5t-11 -20.5q-20 -25 -24 -29q-32 -37 -51 -45q-7 -4 -15 -9t-18 -11.5t-15 -9.5q-8 -6 -18 -4q-18 -13 -25 -17v2q-8 -4 -24 -8q-7 -2 -25 -8t-31 -9.5t-26 -4.5q-1 0 -3 -1.5t-3 -1.5q-35 -13 -45 -16q-3 -9 6 -18 q36 -32 59 -58q7 -8 20 -21.5t23.5 -25.5t18.5 -24q4 -6 15 -17.5t15 -17.5q56 -70 60 -76q8 -10 23.5 -29.5t23.5 -29.5q7 -11 29 -37q40 -50 47 -60l6 -6q11 -10 31.5 -35t33.5 -36q1 -1 37 -43q38 -38 56 -58q25 -25 36 -47v2q9 -6 9 -12q0 -3 -5 -9q-4 -5 -6 -8 q0 -6 -3 -13t-5.5 -10.5t-9 -12t-8.5 -11.5q-2 1 -5 3.5t-5 3.5q-1 -1 -2.5 -3t-3 -3.5t-3.5 -2.5q2 -1 4 -4t2 -4l-2 -2q-12 0 -18 -2q-2 -1 -16 -10q-12 4 -19 4q-72 55 -145 147q-13 16 -33 47q-3 5 -10 9q-2 4 -6.5 12t-6.5 12q-4 2 -12 2q-17 14 -24 43q-1 0 -5 1t-6 1 q-4 5 -12 15.5t-15 19.5t-12 17q-2 4 -6 16q-4 6 -8 18q-3 1 -8 3.5t-8 3.5q0 4 -4 12q-9 5 -17.5 13.5t-12.5 14t-12.5 18.5t-11.5 17v-2q-6 7 -18 20.5t-18 20.5l-101 101q-3 2 -9 7t-9 7q-6 -3 -6 -19v-86q0 -19 0.5 -54t0.5 -64t-1 -54q0 -31 -7 -71q-8 -62 -8 -92 q0 -18 -4 -58q-2 -25 -2 -74q0 -10 -4 -14v-4v4l6 -12q2 -10 2 -29q-5 -10 -14 -37q-8 -16 -14 -24q-3 -5 -21 -9h2q-4 -2 -7.5 -2t-6.5 2q-12 9 -27 5l-14 14q-3 1 -12 2t-13 2q1 6 2 17.5t2 17.5q-6 0 -22 4q-6 18 -2 59l-2 2l2 -2q-4 4 -4 11v24q2 0 4 -2q2 4 0.5 10.5 t-0.5 8.5v26l6 117q4 82 6 125q3 53 3 89q0 18 -1 32q-1 20 -1 107.5t-3 135.5q0 2 -2 17.5t-4 23.5q0 1 -10 31q0 2 2 6q7 17 4 37q-1 16 -3 49t-3 49v15q-4 14 -5 28.5t0 39t1 30.5q1 3 10 21h-15q0 4 -1 11.5t-1 10.5l-3 51l-3 51q0 47 -2 72q0 22 -4 76q0 3 -1 10.5 t-1 11.5q0 2 1 7t1 6q0 10 -4 30zM14 1274q0 2 2 2h-2v-2zM31 1006v2v-2zM147 1382q1 -24 11 -163q2 -27 6 -83t6 -83q10 -138 14 -162q2 -1 3.5 -2.5t2.5 -1.5q27 0 39 4q24 5 56 16q10 4 29.5 12.5t29.5 12.5q2 1 5 3t5 3q0 1 -1 2t-1 2q-23 0 -33 2q7 3 20.5 10.5 t20.5 10.5q36 18 54 26q4 4 8 6q11 11 16 13q14 6 49 37q1 1 3 4.5t4 5.5q-11 0 -15 2q24 21 37 53q22 51 25 111q0 10 -2 16q-1 8 -5.5 23.5t-5.5 23.5q-9 35 -32 55q-44 35 -70 45q-48 21 -125 25q-9 1 -21 1q-24 0 -61 -3q-4 0 -22 -6q-5 -1 -14.5 -4t-14.5 -4l-8 -4 q-9 -4 -13 -9zM426 922q3 -6 12 -2q3 10 1 13t-13 3q-3 -3 -3 -6.5t3 -7.5zM487 848v2v-2z" />
<glyph unicode="s" horiz-adv-x="690" d="M0 285q38 21 49 28q2 4 0 15.5t0 17.5q3 7 -12 37q-6 14 -1.5 23t19.5 8q6 0 10 5.5t5 6.5q4 -3 12 -8t12 -8q66 -49 133 -52q26 -2 46 -2q29 0 44 4q101 28 119 127q1 17 1 23t-2 23t-3 24q-9 7 -16 27.5t-15 27.5q-15 14 -88 68q-7 5 -26.5 19t-29 21.5t-25 20 t-27.5 25t-23 25.5q-32 44 -55 79q-6 9 -10 21q-33 81 -39 104q-22 80 -25 113q-6 58 -6 119q0 91 51 159q11 16 11 17q17 50 81 67q17 5 43 5q15 -2 56 12q6 2 12 2q38 -4 55 -8q27 -6 56 -6q20 1 41.5 -4.5t46.5 -14.5t39 -12q5 -1 10.5 -4.5t12 -10t9.5 -8.5 q-2 -11 9 -25.5t12 -19.5q4 -8 0 -12q-5 -12 8 -29q-9 -32 -14 -45l-16 4t-19 4q-3 -22 14 -34q-10 -1 -28.5 -3.5t-28.5 -3.5q-1 -1 -3.5 -6t-4.5 -8q-7 1 -18 4t-15 4q-41 9 -73 9q-19 0 -34 -3q-4 -1 -15 -3t-18.5 -4.5t-13.5 -6.5q-19 -15 -24 -22q-38 -64 -38 -133 q0 -43 15 -87q2 -8 5 -14.5t8.5 -14t8.5 -11.5t12 -11.5t11 -9.5t13 -10.5t12 -9.5q70 -49 98 -70q1 -1 3 -2t3.5 -2.5t1.5 -3.5q2 -9 8 -14.5t16.5 -10.5t14.5 -8q36 -33 56 -61q8 -10 19.5 -31.5t16.5 -28.5q33 -51 43 -96q0 -2 17 -41q10 -20 6 -29l-2 -6q7 -10 9 -22 q2 -10 3 -19q1 -7 -3 -25q-2 -14 -3 -22q-1 -11 -27 -63q-5 -11 -14 -41q-33 -117 -104 -162q-56 -34 -74 -39q-5 -1 -19 -4t-22 -4q-5 1 -46 -7q-23 -4 -40 -5q-14 0 -23 3q-6 2 -18 2t-16 1q-14 3 -39.5 6t-46.5 7t-39 11q-9 4 -27 17q-48 54 -51 57q-9 9 -6 24 q3 10 -4 17q-15 23 -27 37zM178 1440q2 1 10.5 2.5t13 3t10 6t9.5 10.5q-28 0 -33.5 -2.5t-9.5 -19.5zM631 424q2 -2 6 -2q1 3 2 9t2 9h-8q0 -3 -1 -8.5t-1 -7.5z" />
<glyph unicode="t" horiz-adv-x="1239" d="M4 1370q-3 11 -3 20q0 15 7 27q1 2 8 9.5t7 13.5q0 1 2 2t2 2q15 0 12 14q11 0 28.5 -0.5t31.5 -0.5t26 1q13 0 36.5 3.5t31.5 4.5q9 1 26 1t25 1q197 0 338 5q30 0 200 10q33 1 99 2t100 2q35 3 72 6q53 0 67 -25q17 -28 49 -28q3 0 11 -4q-4 -16 -4 -23q-6 -29 12 -47 q10 -10 10 -22q0 -5 -2 -11q-11 -17 -12 -20q-10 -27 -37 -27q-8 0 -24 -1t-25.5 -1.5t-23 -2t-25.5 -5.5q-13 0 -19 2q-12 4 -33 0q-16 -3 -32.5 -5t-36.5 -4t-31 -3q-35 -6 -68 -6q-12 -1 -33.5 -2.5t-33.5 -2.5h-25v-14q2 -16 2 -45q0 -43 2 -63q2 -28 7.5 -84.5 t7.5 -85.5q5 -49 14 -168l12 -177q11 -180 11 -296q0 -18 -3.5 -102t-3.5 -128q0 -67 -4 -102q-5 -33 -41 -51q-1 -1 -5 -1t-5 1q-14 10 -47 14q-7 0 -10 6q-18 23 -19 27q-10 17 -22 22q-4 2 -8 10q-20 45 -23 54q-4 12 -4 39q4 130 8 194q1 19 1 39q0 66 -15 139 q-15 69 -21 146q-4 33 -20 104q-33 114 -39 172q-1 11 -1 33.5t-1 32.5l-6 57l-6 57q-4 26 -12 75.5t-11 68.5q-2 11 -5 13.5t-15 2.5q-41 2 -123 2q-18 -4 -29 10q-7 7 -14 7q-50 4 -72 4q-71 0 -106 2q-43 3 -68 35l-10 10q-15 15 -17 28q-2 6 -12 27z" />
<glyph unicode="u" horiz-adv-x="720" d="M2 1346q-1 6 -1 11q0 16 7 29q1 4 3 12.5t3 12.5v2q7 5 16 21t15 22q9 -31 14 -43q2 3 5 6.5t4 5.5q22 -40 30 -49q32 -35 41 -67q0 -7 6 -19q3 9 5 13v-3q1 -6 3 -17t3 -17q8 -117 14 -170q1 -16 5 -46t5 -46l6 -93q1 -28 2 -82t2 -81q1 -16 5.5 -49.5t5.5 -51.5 q2 -9 4 -33t2 -28q7 -30 21.5 -89t21.5 -89q4 -17 6.5 -49.5t5.5 -45.5q3 -12 8.5 -33.5t9 -39.5t5.5 -35q3 -15 26 -15h21q13 1 39.5 1.5t40.5 1.5q1 0 9 -1t16 -0.5t16 3.5q4 0 4 8q2 13 13.5 46.5t12.5 51.5q1 12 6.5 59.5t6.5 73.5q1 13 1 42q-1 14 -1 33v21q0 38 2 54 q0 14 -2 40t-2 38q0 106 -2 157q-1 27 -11 127l-6 105q-6 106 -33 211q-1 6 -6 28.5t-7.5 38t-2.5 31.5q3 27 6 57q10 0 12 -2q2 28 8.5 37t34.5 18q5 -2 15.5 -5t15.5 -5q0 -4 2 -6l2 -2q15 4 21 -8q4 -4 16 -12q6 -3 10 -11q0 -4 4 -4q9 0 13 -12q8 -27 10 -45q3 -6 0 -12 q-5 -9 0 -37q3 -16 12 -61t13 -70q0 -1 6 -47q6 -41 14 -123q17 -138 18 -152q1 -31 6.5 -89t6.5 -71q5 -41 5 -77q0 -15 -1 -29q-2 -18 -2 -38q0 -28 4 -62q2 -4 2 -16q0 -10 -2 -27q-2 -36 -2 -43v-21q0 -25 -4 -37q-4 -9 -4 -43q-1 -15 -3 -46t-3 -46q-7 -45 -25 -78 q-24 -41 -51 -78q-40 -46 -88 -71l4 8q-4 1 -19 -4q-12 -4 -21 -4q-7 0 -13 2q-8 2 -27 2q-91 6 -92 6q-42 3 -82 18q-40 14 -58 43q-40 63 -57 162q-2 15 -8 42t-8 42q-8 54 -8 78q-3 62 -3 125q-4 73 -14 108q-18 88 -24 181q-2 21 -5.5 60t-5.5 60q-2 10 -10 35 q-3 17 -9 53l-9 54q-6 30 -6 33q-5 32 -3 45q1 8 -0.5 23t-1.5 20q-2 14 -2 43q0 18 -4 22q-2 2 -2 8q1 9 1 18q0 34 -9 77z" />
<glyph unicode="v" horiz-adv-x="946" d="M4 1255l2 5q-5 16 1.5 42t6.5 29v12q3 1 8.5 4.5t6.5 4.5q-1 3 -2 8t-2 8q34 15 34 43q3 3 13.5 5.5t11.5 10.5q8 0 12 -2q1 4 2 11.5t2 11.5q4 -4 11 -12t10 -11q1 0 2 1t2 1q-3 9 -6 21q20 -3 35 -18q27 -27 30 -29q1 2 2 6t2 6q2 0 2 -2q19 -30 33 -49q4 -6 21 -10 q5 -2 13.5 -5t10.5 -4q3 -4 11 -14.5t10 -15.5q3 -8 9 -23.5t9 -23.5q12 -52 53 -148q6 -15 15 -45q6 -18 19.5 -55t19.5 -55q6 -22 16 -50q8 -28 35 -108q33 -87 43 -109q13 -34 67 -153q3 -8 8.5 -25.5t8.5 -25.5q7 -14 12 -29q20 28 29 59q27 112 31 180q0 30 12 84 q11 46 22 127q14 84 29 144q12 59 18 117q1 14 15 67q3 13 28 100q1 3 7 11t8 12l8 -16q1 0 11 4t14 8q4 3 12 29q4 -16 4 -19q3 -8 4 -9t9 -2q3 -1 5 -1q15 -4 19 -12q2 -3 -2 -25q1 -1 4.5 -8.5t5.5 -12.5q0 -1 1 -4t1 -4q-3 -10 -3 -14.5t3 -14.5t4 -14q0 -25 -2 -30 q-17 -65 -22 -119q0 -4 -3.5 -12.5t-3.5 -12.5q-1 -12 -3 -33t-3 -32q-2 -14 -6 -41.5t-6 -42.5q-4 -46 -8 -66q-3 -18 -10.5 -52.5t-10.5 -51.5q-2 -13 -4 -39.5t-4 -40.5t-12 -76q-8 -40 -8 -59v-9q0 -39 -15 -116q-5 -25 -17 -79t-17 -83q-5 -19 -10.5 -54.5t-6.5 -43.5 t-5 -23.5t-5 -23.5q0 -9 4 -29q7 -23 4 -45v-4q-10 -10 -10 -45q0 -40 -33 -60q-15 6 -20.5 4t-10.5 -16q-6 -12 -6 -25q0 -20 -12 -26q-3 -1 -6 -1q-8 0 -17 9q-8 8 -12 14q-23 -5 -41 23q-26 43 -33 72q-5 16 -15 46t-15 46q-20 55 -59 162.5t-58 162.5q-41 120 -84 240 q-8 21 -27.5 58.5t-21.5 41.5q-86 172 -127 258q-14 30 -39.5 90t-38.5 89q-5 10 -16.5 28.5t-14.5 24.5q-1 1 -4 4.5t-4 5.5q0 2 -2 5q-1 2 -1 4q0 4 3 9z" />
<glyph unicode="w" horiz-adv-x="1343" d="M4 1425v23q2 4 6.5 13.5t5.5 11.5q4 3 12.5 9t12.5 9q33 0 51 2q9 -9 49 -18q3 0 8 -2.5t7 -2.5q6 -14 18 -38h2v-25q0 -24 12 -41q5 -8 9 -27q13 -73 39 -198q2 -10 30 -137q15 -58 27 -117q16 -70 22 -105q7 -36 20 -101l17 -85q14 -77 33 -164q0 -7 6 -22q6 12 6 14 q5 24 15.5 71t15.5 70q2 9 5 29t5 29q26 132 29 151q4 20 11 60t11 59q5 21 14 59.5t11 48.5q6 37 14 107q1 7 3.5 23t3.5 26q3 6 18 41q24 8 35 19q8 8 26 4q2 -2 7 -6t6 -5q30 -3 51 -6q24 -9 27 -33q0 -10 6 -16q9 -10 18 -43q21 -57 33 -100q5 -16 10.5 -35t11.5 -40.5 t9 -33.5q42 -136 75 -215q9 -26 30.5 -74t25.5 -57q7 -13 30 -43q1 4 2 11t2 10q5 44 15 102q2 14 7 39.5t7 36.5q14 48 17 63q23 93 34 148q16 69 33 161q4 21 12.5 63.5t12.5 63.5q4 23 13 70.5t13 71.5q1 6 5 13t7 11.5t9 12t8 10.5q2 4 18 20q12 3 21 6q5 0 16 -1t17 -1 q3 -4 9 -13.5t9 -14.5q3 -1 13.5 -5.5t13.5 -5.5q4 -6 12 -22v-2l6 -6q14 -14 14 -31q0 -7 -2 -14q-8 -24 -16 -72q-13 -79 -27 -176q-11 -70 -38 -191q-9 -36 -31 -115.5t-33 -121.5q-4 -18 -12.5 -55t-12.5 -56q-3 -15 -8 -57l-12 -117q-1 -10 -4 -29.5t-4 -29.5 q-1 -3 -6 -66q-4 -54 -15 -75q0 -7 -2 -9q-16 -16 -12 -41l-12 -18q-2 -1 -7.5 -2t-7.5 -2q-15 -6 -32 0q-13 6 -43 14q-9 15 -21 39q-11 6 -22 33q-5 12 -23 49q-105 209 -117 236q-25 46 -47 104q-4 8 -31 76q-5 16 -30 88q-1 1 -2.5 4l-3 6t-2.5 6q-6 -4 -11 -20 q-15 -54 -24 -115q-3 -25 -13 -71.5t-12 -57.5q-2 -14 -29 -156q-15 -75 -22 -118q-7 -42 -14 -119q-2 -17 -6.5 -50t-6.5 -49q0 -4 -4 -16t-6 -20q0 -1 -1 -2.5t-2.5 -4t-2.5 -4.5q-3 0 -7.5 -1t-6.5 -1q-4 -2 -11.5 -7t-11.5 -7l-2 2q-2 -4 -5.5 -5t-4.5 -5h-17 q-3 3 -9 2.5t-9 3.5q-2 0 -5.5 -1t-4.5 -1q-6 2 -20.5 5t-20.5 5t-18 8.5t-15 8.5q-2 0 -8 -3q-2 2 -6 6.5t-6 6.5v4q7 22 -5 61q-16 77 -36 148q-6 25 -15 53.5t-21 63t-18 53.5q-10 41 -14 51l-4 12t-4 15q-1 4 -3 13t-3 13q-2 11 -7.5 34t-7.5 34q-2 14 -6 41.5t-6 40.5 q0 3 -1 10.5t-1 11.5l-18 111q-11 61 -11 65q-2 31 -32 152q-18 66 -27 106q-5 20 -15.5 59t-15.5 58l-24 111q-3 13 -9.5 38.5t-9.5 39.5q0 3 -1.5 11.5t-2 13t0 11.5t3.5 13q-6 10 -6 19q0 6 2 11z" />
<glyph unicode="x" horiz-adv-x="1110" d="M4 1325q-3 9 -3 18q0 11 5 21q4 7 10.5 19t12.5 22t12 18q15 22 39 25q19 0 35 16q5 4 28 13q20 7 33 -4q6 -3 14 -3q21 9 41 -4q4 -4 7 -10q5 -10 14 -31.5t14 -31.5q15 -32 43 -102t49 -111q13 -41 49.5 -132t49.5 -110q6 -6 8 -10q6 6 6 10q10 37 29 187.5t26 183.5 q8 38 39 143q3 8 8 15.5t12.5 16.5t10.5 13q7 7 12 4q17 -5 25 15q1 2 5.5 5t6.5 5q11 -11 27 -23q1 0 2 1t2 1t8.5 5t13.5 1q5 -2 7 -5t1 -10l-1 -7q0 -16 10 -29q11 -25 6 -45q-5 -22 -14.5 -65t-14.5 -64q-5 -22 -15 -68.5t-15 -68.5q-1 -6 -6.5 -48.5t-10.5 -64.5 q-5 -21 -35 -118q-5 -15 -5 -29q0 -24 16 -45q21 -29 122 -197q126 -201 172 -289q23 -44 71.5 -123t66.5 -112q14 -26 14 -38q-1 -3 -1 -8q-2 -8 -1 -11q-4 -12 -4 -21q0 -11 1 -33.5t1 -34.5q0 -7 -6 -10q-15 -18 -15 -41q0 -16 -8 -24q-8 0 -19 -1t-16 -1q-1 0 -9.5 2 t-12.5 4q-2 1 -47 18q-1 -4 -4 -11t-4 -11q-18 9 -21 12q-117 150 -127 162q-32 38 -75 117t-58 102q-23 35 -78 99.5t-78 101.5q-7 7 -8 10q-4 -6 -8 -14q-12 -36 -34.5 -108t-33.5 -108q-3 -10 -8 -31.5t-8 -31.5q-45 -113 -53 -135q-3 -7 -25 -70q-8 -16 -14 -22 q-1 -2 -8.5 -10t-10.5 -11.5t-7 -11.5t-5 -16q-2 -8 -6.5 -16.5t-11 -18t-8.5 -13.5t-6.5 -11t-6.5 -11q-11 -24 -35 -45q-4 -4 -16 -8q-6 -2 -16 -2q-2 0 -11 -2q-5 -1 -9 0h-3q-2 2 -7.5 5.5t-8.5 6t-7 7t-6 9.5q-9 12 -22 25q-14 8 -14 26q-1 6 -1 13q0 28 11 57 q24 74 28 115q6 35 29 61q32 34 43 107q15 94 66 213q17 38 47.5 114.5t46.5 114.5q8 22 -4 43q-14 20 -28.5 43t-32 50.5t-27.5 43.5q-4 7 -24 39.5t-29 50.5q-43 76 -125 224q-44 82 -64 147z" />
<glyph unicode="y" horiz-adv-x="903" d="M2 1290q1 6 6 16t6 15q5 -1 8.5 1.5t6 7.5t4.5 7q8 6 20 6t21 -6q6 -6 12 -2q1 0 4.5 -1t5.5 -1q30 -11 54 -41q11 -16 34 -49t35 -49q18 -26 39 -66q19 -41 72 -106q46 -53 94 -137q10 -16 31.5 -45.5t31.5 -44.5q3 0 7 -4l18 36q36 64 66 174q25 87 53 142q11 17 18 41 q4 9 11.5 28.5t11.5 28.5q2 6 8 18.5t8 18.5q16 31 23 51q3 10 9.5 18.5t17 18t14.5 14.5q1 2 4 2.5t7.5 0.5t6.5 1q4 2 14 2.5t15 2.5q4 2 9 2t11.5 -1t9.5 -1l5 -3q26 -26 26 -41q0 -71 -22 -137q-3 -11 -9 -29l-11 -33t-9 -28q-4 -15 -14 -40t-13 -36q-9 -38 -16 -47 q-8 -11 -14.5 -25t-10 -25t-8.5 -29t-8 -27q-25 -75 -57 -182q-5 -16 -18.5 -54t-20.5 -59q-2 -7 -4 -25t-4 -26q-3 -1 -5.5 -2.5t-4.5 -4.5t-3 -5.5t-2 -7.5t-2 -7q-32 -107 -51 -162q-1 -4 -53 -127q-7 -17 -21.5 -48t-21.5 -48q-4 -9 -13 -39q-13 -61 -71 -215 q-5 -13 -25 -20q-6 -1 -18 -8t-17 -9l-20 10l-2 -2q-5 -6 -18.5 -1.5t-18.5 1.5q-23 -10 -37 7q-9 5 -14 2q-10 -2 -19 10q-4 -6 -10 -12q-33 2 -22 34q8 33 28 95q1 4 3.5 12t4.5 15t5 12q38 106 61 170q10 29 33.5 78.5t31.5 68.5q28 56 60 141q24 59 45 117q10 20 -4 31 q-3 2 -6.5 7t-6 8t-6.5 4.5t-10 0.5q-3 4 -10 11.5t-10 11.5q-22 25 -56 74.5t-49 68.5q-3 4 -61 94q-5 8 -15 22t-12 17q-13 20 -18 37q-4 14 -27 47q-42 59 -67 105q-5 8 -17.5 25t-13.5 18q-23 31 -21 55q0 15 -12 39q-1 6 -1 11q0 3 1 5z" />
<glyph unicode="z" horiz-adv-x="1437" d="M4 43q-2 5 -2 10q0 8 6 16q10 14 10 19q-8 4 -14 6q0 7 9 17t10 12q4 10 18 31q4 12 4 26l-4 8q17 24 47 58q39 53 59 96q10 22 43 64q14 18 86 100q11 12 34.5 33t35.5 32q92 95 176 185q15 15 43 39q3 4 9.5 12t9.5 12q5 10 10 15q16 16 24 26q21 30 37 35q4 4 7 10 q0 1 -5 21q7 13 33.5 53.5t36.5 67.5q-31 2 -68 6q-19 2 -106 12l-123 18q-12 2 -37 7.5t-37 7.5q-16 3 -44.5 10.5t-39.5 9.5q-10 2 -26 10q-18 12 -21 15q-2 4 -6 16q-3 1 -10 2t-10 2q-4 4 -13 14t-14 15q13 0 33 -4v4q-38 24 -51 31q-14 36 -35 49q-5 16 10 24 q1 -2 3.5 -6t4.5 -7t4 -5h35l-4 12q12 0 18 2q-2 6 -8 15q21 3 39 6l12 18h11q8 1 19 1q21 0 51 -4q44 -6 55 -7q22 -1 67.5 -4t69.5 -4q23 -1 70.5 -4t72.5 -4q16 -1 45 -4.5t45 -4.5q39 -1 116 -4t116 -4q16 0 50 2t52 2q42 0 111 15q9 4 30 0l60 6q2 -1 17.5 -12 t27.5 -11q3 -6 14.5 -28.5t18.5 -36.5q-1 -7 -6 -24t-7 -27q9 9 11 10q12 -4 22 -6q-30 -27 -57 -54q-8 -8 -24 -26t-25 -27q-93 -56 -131 -92q-4 0 -11 1t-12 1q-5 -4 -52 -45t-73 -62q-21 -16 -54.5 -51t-49.5 -49q-2 -2 -19 -24q-10 -15 -30.5 -42.5t-30.5 -41.5 q-1 -1 -3 -3.5t-3 -3.5q-17 -10 -33 -25.5t-34.5 -38.5t-27.5 -32q-5 -5 -15 -15.5t-15 -15.5q-25 -25 -41 -49q-2 -1 -17 -6q0 -1 1 -2t1 -2q-16 -20 -49 -59t-49 -58q-17 -3 -25 -9.5t-28 -35.5q2 -4 6 -16q0 1 -1 4t-1 4q-2 -3 -18 -18.5t-17 -30.5q6 6 21 16 q-20 -25 -23 -37q8 -2 19 -2q16 1 51 3.5t55 3.5q105 8 156 14q20 2 42.5 5t50 7t42.5 6q64 9 129 15q20 4 29 4q9 2 90 16t125 21q2 -2 10.5 -8.5t15.5 -10.5q5 -1 17 -3t14 -3q11 -9 34 -26.5t34 -26.5q-3 -6 -13 -21q-4 -2 -14 -5.5t-16 -6.5q10 -4 22 -8q0 -5 -6 -17 q14 7 18 11q1 -1 4 -3.5t5 -4.5q1 1 4.5 6.5t4.5 6.5t6 3.5t9 -2.5q10 -6 27 -23q-8 -7 -41 -16q-18 -6 -19 -8q-14 -22 -43 -25v-16q-18 -12 -20 -13q4 -1 14 -8q-53 -22 -102 -35v-1q-3 -3 -4 -5q-8 -2 -26 -7t-26 -7v2q-13 -2 -37 -5.5t-32 -4.5q-11 4 -25 5t-24 0 t-28.5 -3.5t-25.5 -3.5q-15 -1 -41.5 -6.5t-35.5 -6.5q-6 -1 -17.5 -3t-17.5 -3q-23 0 -33 2q-5 -1 -18 -5t-19 -5t-17 -3t-20.5 -1t-19.5 4q-8 -6 -19.5 -7t-21.5 1t-21 0q-4 -2 -12 -10q-13 4 -20 2q-56 -4 -82 -8q-23 0 -29 6q-10 5 -25 -2q-3 -2 -7.5 -6t-6.5 -5 q-15 -3 -43 -8t-43 -8q-7 -1 -20.5 -3t-20.5 -3q-44 -6 -90 -12q3 -3 6 -9h-18v3h-2q-9 -7 -27 -7q-12 0 -28 4q-40 8 -52 5q-50 19 -63 61h-4h-7q-2 1 -8 4.5t-8 5.5q-5 14 -8 19q-8 0 -14 -2q-15 10 -21 16zM1311 248q4 -4 4 -6q1 0 3 1t3 1l-6 6z" />
<glyph unicode="&#x2000;" horiz-adv-x="816" />
<glyph unicode="&#x2001;" horiz-adv-x="1632" />
<glyph unicode="&#x2002;" horiz-adv-x="816" />
<glyph unicode="&#x2003;" horiz-adv-x="1632" />
<glyph unicode="&#x2004;" horiz-adv-x="544" />
<glyph unicode="&#x2005;" horiz-adv-x="408" />
<glyph unicode="&#x2006;" horiz-adv-x="272" />
<glyph unicode="&#x2007;" horiz-adv-x="272" />
<glyph unicode="&#x2008;" horiz-adv-x="204" />
<glyph unicode="&#x2009;" horiz-adv-x="326" />
<glyph unicode="&#x200a;" horiz-adv-x="90" />
<glyph unicode="&#x202f;" horiz-adv-x="326" />
<glyph unicode="&#x205f;" horiz-adv-x="408" />
<glyph unicode="&#x25fc;" horiz-adv-x="1525" d="M0 0v1526h1526v-1526h-1526z" />
</font>
</defs>
</svg>
