<?xml version="1.0" standalone="no"?>
<!DOCTYPE svg PUBLIC "-//W3C//DTD SVG 1.1//EN" "http://www.w3.org/Graphics/SVG/1.1/DTD/svg11.dtd" >
<svg xmlns="http://www.w3.org/2000/svg">
<metadata></metadata>
<defs>
<font id="selfishregular" horiz-adv-x="430" >
<font-face units-per-em="2048" ascent="1638" descent="-410" />
<missing-glyph horiz-adv-x="461" />
<glyph horiz-adv-x="0" />
<glyph unicode="&#xd;" horiz-adv-x="461" />
<glyph unicode=" "  horiz-adv-x="461" />
<glyph unicode="&#x09;" horiz-adv-x="461" />
<glyph unicode="&#xa0;" horiz-adv-x="461" />
<glyph unicode="!" horiz-adv-x="666" d="M61 78q0 9 41 67q35 50 60 50q30 0 35 -13q32 -88 32 -98q0 -78 -82 -78q-33 0 -58 19q-28 21 -28 53zM195 229v17q63 112 132 264l-5 -2q-24 -35 -54 -94v6l174 508q41 121 86 121h88q6 0 27 -21v-22q0 -58 -47 -146h49l-416 -614q-12 -17 -34 -17z" />
<glyph unicode="&#x22;" horiz-adv-x="418" d="M139 920q0 51 82 51q49 0 49 -58q0 -33 -34 -83q-30 -45 -62 -66v2q0 12 10.5 36.5t10.5 41.5l-21 -21q1 4 1 10q0 31 -7 44q-10 8 -27 26q0 3 -1 9t-1 8zM287 760q0 12 14 40t14 42q0 12 -14 35.5t-14 35.5q0 58 55 58q21 0 37 -18.5t16 -39.5q0 -49 -106 -155z" />
<glyph unicode="#" horiz-adv-x="686" d="M328 358q1 3 18 22l118 -1l39 66h-94q-13 32 -14 27q1 3 18 22l118 -2l111 190q9 -9 26 -30q3 -1 3 -5q-1 -2 -90 -155l72 -1l112 191q9 -9 26 -30q3 -1 2 -5q0 -2 -90 -156l103 -1q7 0 6 -6q7 -26 9 -40h-145l-39 -67l102 -1q7 0 6 -6q7 -26 9 -40h-144l-108 -186 q-23 -6 -21 -6q-1 0 -18 28l96 164l-71 1l-109 -187q-22 -6 -21 -6q-1 0 -18 28l96 165h-94q-13 32 -14 27zM515 378l72 -1l39 67h-72z" />
<glyph unicode="%" horiz-adv-x="1124" d="M117 2l1118 1182q7 -13 20 -39q4 -4 -1 -9l-1093 -1156q-27 -7 -30 -1q-4 8 -14 23zM367 667v34q0 204 147 367q105 117 201 117q57 0 78 -43q2 -4 5 -14v-49q0 -128 -44 -240q-50 -128 -143 -193q-76 -52 -135 -52h-31q-74 29 -78 73zM450 701q0 -77 46 -77 q82 0 145 132q53 112 53 207v20q0 13 -10 26q-17 1 -20 1q-81 0 -151 -116q-63 -106 -63 -193zM532 998q114 58 152 58q49 0 83 -32q2 2 4 6q6 12 6 25v78q-1 4 -4 10q-14 26 -56 26q-51 0 -111 -61q-53 -54 -74 -110zM592 73v34q0 204 147 367q105 117 202 117q57 0 77 -43 q2 -4 5 -14v-49q0 -128 -44 -240q-50 -128 -143 -192q-76 -53 -135 -53h-30q-74 29 -79 73zM675 107q0 -77 46 -77q82 0 145 132q54 112 54 207v20q0 13 -11 26q-17 1 -20 1q-80 0 -151 -116q-63 -106 -63 -193zM757 404q114 58 152 58q49 0 83 -32q2 2 5 6q6 12 6 25v78 q-1 4 -5 10q-14 27 -56 27q-51 0 -111 -62q-53 -54 -74 -110z" />
<glyph unicode="&#x26;" horiz-adv-x="1401" d="M-23 -143q0 97 70 168q65 67 164 84l2 2q-55 92 -55 149q0 14 4 41t4 41q0 17 -7 51t-7 51q0 229 241 338q57 23 166 74l53 121q4 134 66 232q74 116 199 116q68 0 109.5 -39.5t41.5 -107.5q0 -56 -41 -127q35 -47 35 -97q0 -107 -140 -189q-78 -42 -155 -83l94 -213h6 q40 56 107 147v-8q-3 -4 -6 -12q38 28 33 47q17 18 71 86q82 108 165 217q108 119 228 119q78 0 78 -72q0 -69 -73 -69q-19 0 -52 33.5t-49 33.5q-52 0 -159 -119q-79 -90 -130 -170v-8q67 5 81 5q15 0 28 -1q77 -6 80 -55v-41q0 -106 -84 -106q-90 0 -90 65q0 19 13 53.5 t13 53.5q-59 0 -100 -66q-121 -194 -121 -223q0 -26 10.5 -74.5t10.5 -62.5v-129q0 -7 -2 -10v6v-33q78 0 126.5 54.5t96.5 111.5v-4q0 -13 -8 -28q44 60 73 85h2v-4q0 -50 -68 -134q-63 -79 -113 -103.5t-122 -39.5q-22 -41 -39 -79q-4 -12 -14 -35q-170 -308 -512 -308 q-126 0 -220 68q-104 76 -104 197zM4 -127q0 -99 82 -156q72 -51 176 -51q312 0 512 309q21 32 21 50q-41 26 -115 84h-14q-6 -6 -27 -21q-116 -82 -201 -82q-86 0 -207 82h-6q-45 -12 -67 -20q-154 -57 -154 -195zM272 508q81 78 187 125q27 10 80 31l8 6v135l-4 -2h-4 q-118 -58 -173 -113q-71 -71 -94 -182zM332 254q36 -21 74 -21h26q94 0 148 29v19q0 22 -7 57q-9 43 -10 57q-5 72 -24 213h-13q-8 0 -67 -33q-127 -71 -127 -264v-57zM341 203h3q0 -52 43 -94.5t96 -42.5q62 0 138 81v17q0 31 -27 72h-8q-7 0 -46 -13t-55 -14h-26 q-19 0 -93 -4zM645 1047q0 -3 1 -11t1 -12q66 74 187 74q65 0 127 -33q40 31 40 117q0 116 -127 116q-94 0 -161.5 -78t-67.5 -173zM707 549l4 -37q6 -53 16 -158q68 68 68 90q-1 3 -88 211v-106zM707 729q56 24 121 71q85 60 85 97v80q-66 -37 -200 -100l-6 -7v-141z M713 909q69 27 194 95v4q0 57 -69 57q-57 0 -91 -39.5t-34 -97.5v-19zM733 301q31 25 53 80l-53 -53v-27zM760 205q0 -60 61 -111q21 29 21 189q0 26 -15 53l-67 -121v-10zM766 309q49 26 49 80l-2 6q-25 -41 -47 -86zM840 428l26 47q-26 -20 -26 -39v-8zM1014 115 q11 10 25 25zM1022 676l12 6v2h-4l-2 -2q-6 0 -6 -6z" />
<glyph unicode="'" horiz-adv-x="319" d="M139 920q0 51 82 51q49 0 49 -58q0 -33 -34 -83q-30 -45 -62 -66v2q0 12 10.5 36.5t10.5 41.5l-21 -21q1 4 1 10q0 31 -7 44q-10 8 -27 26q0 3 -1 9t-1 8z" />
<glyph unicode="(" horiz-adv-x="827" d="M20 127q0 96 33 248q2 11 17 48q12 30 12 50q0 24 -4 71.5t-4 71.5q0 206 73 390q90 228 187 352q28 35 82 106q121 162 186 181v-7q-3 -5 -6 -14q37 24 100 74h6q-351 -419 -442 -783q-1 -7 -4 -20q-35 -119 -35 -178l4 2q46 92 279 301q213 191 332 264q25 15 74 45 t147 82v-20q0 -2 -8 -7q-558 -317 -848 -935v-41q0 -115 73 -287v-6h-14l-33 32l-12 -6v6q-41 62 -74 127q-2 -4 -8 -12q-33 -123 -33 -250q0 -145 33 -211q13 -28 41 -82q10 -13 19.5 -25.5t9.5 -33.5h-8q-175 139 -175 467zM217 159q1 -3 4 -5q4 2 4 6q0 6 -4 8 q-4 -2 -4 -7v-2z" />
<glyph unicode=")" horiz-adv-x="1079" d="M197 -113q0 1 6 7q222 200 389 503q138 250 205 518q18 73 18 80q0 16 -8 41q-4 17 -14 50q-33 90 -123 212l-2 7l14 4l39 -25l12 8v-6q36 -33 101 -106q6 13 6 45q0 284 -105 417q-37 39 -100 121q3 1 8 2q6 0 49 -30q97 -68 148 -170q104 -208 104 -386q0 -71 -2 -94 q-6 -77 -6 -75q0 -12 22 -78q47 -140 47 -311q0 -262 -112 -541q-9 -23 -57 -121q-50 -103 -60 -120q-45 -81 -80 -99l-2 4v2q0 -9 3 13l-1 3q-22 -42 -80 -96h-6q254 498 254 862v144q0 32 -4 41l-4 18q-33 -65 -102 -194q-189 -334 -473 -603q-32 -25 -80 -69q-4 7 -4 22z M727 1274q1 -8 5 -8q3 0 3 6t-4 6q-4 -1 -4 -4z" />
<glyph unicode="+" d="M145 393q3 9 7 26h97l35 80q23 15 28 11q7 -7 21 -17l-33 -74h79q-4 -13 -14 -41q0 -6 -7 -6h-79l-38 -87q-11 10 -32 30q-6 2 -3 9l22 48h-62q-23 15 -21 21z" />
<glyph unicode="," horiz-adv-x="266" d="M115 63q0 52 82 52q49 0 49 -58q0 -63 -96 -147v4q0 10 10 34.5t10 41.5l-20 -21q1 4 1 11q0 38 -34 67q0 3 -1 8.5t-1 7.5z" />
<glyph unicode="-" d="M145 393q3 9 7 26h227q-4 -13 -14 -41q0 -6 -7 -6h-192q-23 15 -21 21z" />
<glyph unicode="." horiz-adv-x="238" d="M68 72q0 71 63 71q64 0 64 -71q0 -72 -64 -72q-63 0 -63 72z" />
<glyph unicode="/" horiz-adv-x="686" d="M117 2l1118 1182q7 -13 20 -39q4 -4 -1 -9l-1093 -1156q-27 -7 -30 -1q-4 8 -14 23z" />
<glyph unicode="0" horiz-adv-x="598" d="M20 113v43q0 263 189 473q136 151 260 151q74 0 100 -56q2 -5 6 -17v-64q0 -164 -56 -309q-65 -164 -185 -248q-98 -68 -174 -68h-39q-95 38 -101 95zM127 156q0 -99 59 -99q106 0 187 170q69 145 69 267v26q0 17 -14 33q-21 2 -25 2q-104 0 -194 -151q-82 -135 -82 -248 zM233 539q146 75 195 75q64 0 107 -41q3 2 6 7q8 16 8 32v101q-2 7 -5 13q-19 34 -73 34q-66 0 -143 -79q-68 -70 -95 -142z" />
<glyph unicode="1" horiz-adv-x="668" d="M31 274q11 10 32 29q20 14 60 43q278 202 500 404h4q8 0 8 -19q0 -12 -426 -768l-14 -12q-56 -6 -138 -6l45 61q1 3 2 7q0 9 -20 14l250 360q24 34 20 55q58 62 90 90q41 15 64 46q66 90 67 100l-434 -363l178 84h9q-62 -39 -187 -96h-5q-15 1 -48 -17t-43 -18 q-12 0 -14 6z" />
<glyph unicode="2" horiz-adv-x="705" d="M20 41v6q0 16 21 27v-2q0 -17 -21 -31zM25 -66q0 14 14 41.5t14 38.5q-5 5 -12 15v2q0 24 39 57l-6 6q22 31 83 59q44 18 124 62q10 8 90 57q196 122 196 254q0 23 -26 49h-6q-4 -4 -24.5 -49.5t-23.5 -56.5h15q-41 -121 -133 -121q-54 0 -91.5 32t-37.5 85q0 107 87 175 q80 62 191 62h57q29 0 67.5 -32.5t39.5 -61.5v-49q0 -223 -305 -352q-80 -32 -176 -78l2 -4v-6q10 0 31.5 1.5t32.5 1.5q35 0 76.5 -27t70.5 -27q20 0 71 20l40 50q30 36 42 36v-18q-24 -32 -35 -42q-17 -15 -47 -26q-3 -4 -65 -27q-53 -19 -53 -53q0 -26 34 -26q23 0 37 10 q51 36 97 90q15 20 47 59h14q0 -18 -41 -67q-111 -133 -197 -133q-32 0 -87.5 60t-86.5 60q-22 0 -39 -14q-39 -31 -104 -113h-16zM86 63l2 -2l3 -1l3 1l1 3l-3 6q-4 -1 -6 -7zM106 47q29 16 41 27l-4 2h-2q-18 0 -35 -29zM156 141q1 -4 4 -6q6 0 6 5v2q0 5 -6 5 q-4 -2 -4 -6zM174 147l27 15h-4q-17 0 -23 -15zM260 455q62 98 109 120q-50 -49 -62 -79v-7q34 46 51 57.5t82 42.5q71 34 84 34q15 0 43 -10.5t43 -10.5q0 80 -102 80q-92 0 -167 -59q-81 -62 -81 -152v-16zM346 453q0 -45 14 -45q37 0 89.5 75t52.5 115q-49 0 -74.5 -23 t-54.5 -53q-27 -26 -27 -69zM434 408q15 0 15 14q-9 -4 -15 -14z" />
<glyph unicode="3" horiz-adv-x="657" d="M20 88q0 20 31 65.5t31 65.5q-6 4 -16 12q0 37 94 37q20 0 64 -12q50 -13 50 -25q0 -11 -13 -30t-23 -19q-13 0 -46.5 16.5t-50.5 16.5q-61 0 -61 -39q47 -18 47 -55q0 -24 -34 -51.5t-34 -34.5q0 -20 18 -36t38 -17h45q92 0 114 32q-77 4 -120 21q20 2 59 6q77 8 146 82 t69 151q0 38 -12.5 47t-50.5 9q-22 0 -62 -17.5t-55 -17.5l-6 6q0 11 80 53l-5 2q-59 -14 -57 -14q14 19 69 37q64 20 79 31q-23 11 -68 32q-23 9 -66 29q-34 20 -34 57q0 54 94 142q50 47 180 47q20 0 27 -2q28 -8 58 -29q35 -26 36 -51v-39q0 -128 -62 -174q-9 -6 -92 -47 l-6 -6q53 -54 53 -119q0 -40 -47 -129q-40 -76 -121.5 -121t-169.5 -45q-170 0 -170 133zM106 55q1 3 5 4q3 -2 4 -4l-4 -4q-4 2 -5 4zM133 42q1 3 5 3h3q3 0 7 -2q0 -6 -9 -6q-6 2 -6 5zM266 514q0 -33 41 -33q19 56 41 74v-27q17 23 80 62q33 20 53 53h6l5 -2v-25 q32 0 69 -14v60q-20 34 -80 34q-72 0 -140 -47q-75 -52 -75 -121v-14zM377 359q1 -3 4 -5q4 1 4 5v2q0 6 -4 8q-4 -3 -4 -8v-2zM387 522q53 35 53 60q-53 -23 -53 -60zM408 479q0 -18 41 -18q29 0 54 22.5t25 51.5q0 49 -32 49q-26 -15 -88 -103v-2zM455 395h6q16 9 26 15 h-6q-9 -5 -26 -15z" />
<glyph unicode="4" horiz-adv-x="604" d="M20 139v8q7 8 7 13q0 6 -7 6q121 104 347 575q7 15 65 15q10 0 31 -1t31 -1q0 -2 -101 -146h96q0 -68 -74 -158q-58 -70 -132 -124q-144 -105 -156 -105l88 92q-15 -7 -41 -26h-6q94 109 122 145q64 84 97 162q-2 -2 -144 -190.5t-143 -190.5l15 -6q-29 -25 -47 -33 q60 10 119 19q68 14 105.5 58.5t63.5 69.5q46 44 78 52l121 174q6 8 16 8q6 0 11 -2l-168 -340l41 20q0 -6 6 -6q5 0 15.5 3t17.5 3q2 -5 8 -12h1q1 0 17 6h17q0 -26 -66 -51q-45 -14 -90 -29l-68 -141q-18 0 -54 -3t-54 -3q-6 0 -15.5 17.5t-15.5 15.5q9 26 74 121 q-35 8 -101 8q-55 0 -120 -29l-2 4zM147 203q1 2 5 2h4q4 0 4 -2v-1q-1 -3 -6 -5q-7 2 -7 6zM401 181q0 -5 7 -5q6 2 6 6q-1 2 -5 2h-3q-5 0 -5 -3zM424 201q1 -4 4 -6q4 2 4 6q0 5 -4 6q-4 -2 -4 -6z" />
<glyph unicode="5" horiz-adv-x="731" d="M20 201v6q5 9 33 35q22 20 94 20q115 0 115 -45q0 -37 -53 -37q-18 0 -50.5 14.5t-49.5 14.5q-56 0 -56 -62q15 9 41 9q47 0 47 -41t-53 -62l33 -18h-6q-7 0 -20 3t-19 3v-31q0 -28 39 -43h43q102 0 170 80q-73 -27 -164 -27q-21 0 -37 7q52 10 127 34q53 34 100 107.5 t47 132.5q0 80 -45 80q-65 0 -182 -100h-6l-8 8l235 387q12 20 25 20q24 0 70.5 -11t70.5 -11q26 0 76 15.5t76 15.5q0 -54 -131 -97q20 -6 20 -20q0 -30 -40 -51q-34 -17 -68 -17q-16 0 -46.5 7.5t-46.5 7.5q-57 0 -100 -113q124 0 126 -2t7 -6q88 -71 88 -166 q0 -128 -109 -220q-103 -87 -233 -87q-153 0 -153 125q0 114 26 155q-14 -6 -33 -20zM221 348l27 27h-4q-10 -9 -23 -27zM268 414q33 0 86 135q-8 -6 -86 -127v-8z" />
<glyph unicode="6" horiz-adv-x="711" d="M18 154q0 184 160 358q199 217 373 217h29q108 0 108 -102q0 -74 -55 -74q-31 0 -45 14v-6q0 -11 7 -34.5t7 -37.5q0 -4 -2 -8q-20 -14 -47 -14q-22 0 -48.5 60.5t-58.5 60.5q-62 -25 -127 -73q-78 -59 -92 -107q54 34 103 34q60 0 95.5 -38.5t35.5 -98.5 q0 -126 -90 -230q-93 -108 -217 -108q-116 0 -134 121q-2 14 -2 66zM75 39q12 -45 64 -45q45 0 68 20q-47 4 -132 25zM127 141q0 -32 14 -62q17 -38 45 -38q41 0 104.5 62.5t63.5 103.5v127q0 20 -30 20q-62 0 -91 -53t-38 -53q20 67 45 106l-33 -14q59 70 141 82h-24 q-88 0 -147 -100q-50 -86 -50 -181zM233 47l5 -4q1 2 2 5q0 2 -2 3q-4 -2 -5 -4zM250 52q1 -3 4 -5q4 2 4 6q0 6 -4 8q-4 -2 -4 -7v-2zM334 588q57 20 121 20q84 0 127 -35q-2 6 -2 11q0 20 21.5 50t21.5 40q0 35 -72 35q-107 0 -217 -121z" />
<glyph unicode="7" horiz-adv-x="645" d="M18 -59q0 22 21 46q25 29 29 40l-4 -1q-11 0 -11 35q166 228 171 234q89 117 184 213l-7 8l-147 53l-92 -73l-2 4l2 2q0 10 18 47v6l-26 -20v14q-53 -68 -70 -68q-16 0 -16 35q0 6 6 12q12 10 35 31q60 59 112 164q5 0 16 3t17 3q-47 -86 -80 -127q90 82 133 82 q32 0 85 -35t85 -35q46 0 131 88q15 0 15 -12q-9 -27 -55 -84q-59 -74 -66 -84l-355 -561q-13 -20 -108 -20h-21zM201 602h8q45 0 65 14q-8 7 -26 7q-31 0 -47 -21zM360 436l74 72h-12zM449 569q12 -6 26 -6l2 -2h4q27 0 47 41q-26 -11 -79 -33z" />
<glyph unicode="8" horiz-adv-x="625" d="M20 111q0 95 89 163q31 23 172 95v6q0 26 -20.5 76t-20.5 77q0 96 67 150q62 51 160 51q96 0 126 -53q9 -15 9 -21v-43q0 -29 -8 -89q-10 -69 -19 -81q-38 -47 -69 -57q-72 -24 -72 -43q0 -25 20.5 -72.5t20.5 -72.5q0 -47 -26 -82q-9 -12 -43 -44q-111 -104 -216 -104 q-68 0 -117 37q-53 41 -53 107zM80 80q0 -51 53 -77q15 -8 21 -9h43q59 0 90 20q-142 4 -207 74v-8zM145 164q0 -44 29 -82q32 -41 74 -41q84 0 121 86v47q0 45 -15 89q-20 59 -55 59q-62 0 -108 -47.5t-46 -110.5zM322 588h2q20 0 59 10t59 10q80 0 119 -39q8 17 8 45 q0 95 -100 95q-119 0 -147 -121zM332 577q2 -2 6 -3q4 3 4 8l-3 2l-3 -2zM348 506q0 -27 12 -56q15 -36 37 -36q32 17 63 34q36 23 36 58q0 69 -72 69q-76 0 -76 -69zM408 381q45 18 53 35l-53 -29v-6zM430 381q1 -4 4 -6q4 2 4 6q0 5 -4 6q-4 -2 -4 -6z" />
<glyph unicode="9" horiz-adv-x="698" d="M20 41q0 38 39 58t39 28q0 6 -4 14h94q0 -67 39 -100q6 0 20 -1t21 -1q70 0 86 29q-41 -24 -53 -21q123 64 186 207q-67 -47 -137 -47q-123 0 -123 115q0 129 91 239q97 115 223 115h47q10 -3 22 -10q65 -33 66 -97v-73q0 -244 -242 -476q-110 -106 -254 -106 q-160 0 -160 127zM86 -20q0 -25 35 -39h49q129 0 225 114q-86 -41 -151 -41q-66 0 -117 47q-3 -8 -24 -40q-17 -27 -17 -41zM328 334q0 -74 53 -74q27 0 74 47l-41 -45q51 12 108 100h6q-10 -30 -14 -47q55 39 55 160v35q0 80 -57 80q-73 0 -132 -94q-52 -84 -52 -162z M367 76q1 -1 4 -3h1q2 1 4 5l-1 4l-3 1q-4 -2 -5 -7zM444 595q0 -5 5 -5q4 2 4 6q-1 6 -4 6q-5 0 -5 -5v-2zM455 608q0 -6 6 -6q8 0 14 6q3 0 10.5 1t10.5 1h24q16 0 47 -7t47 -7h9q-13 61 -70 61q-64 0 -98 -49z" />
<glyph unicode=":" horiz-adv-x="281" d="M131 111q0 43 68 43q59 0 59 -27v-53q0 -27 -51 -27q-26 0 -51 19.5t-25 44.5zM131 416q0 45 68 45q59 0 59 -27v-53q0 -29 -51 -29q-26 0 -51 19.5t-25 44.5z" />
<glyph unicode=";" horiz-adv-x="289" d="M127 436q0 45 66 45q59 0 59 -26v-54q0 -26 -49 -26q-26 0 -51 18t-25 43zM160 72q0 57 53 57q21 0 37 -18t16 -39q0 -47 -106 -154v4q0 14 13 39t13 39q0 12 -13 35.5t-13 36.5z" />
<glyph unicode="=" d="M145 332q3 9 7 26h227q-4 -14 -14 -41q0 -6 -7 -6h-192q-23 15 -21 21zM145 434q3 9 7 26h227q-4 -13 -14 -41q0 -6 -7 -6h-192q-23 15 -21 21z" />
<glyph unicode="?" horiz-adv-x="836" d="M72 109q0 77 69 77q21 0 62.5 -14t62.5 -14q33 -21 33 -56q0 -36 -27.5 -60t-64.5 -24h-23q-17 10 -53 27q-35 12 -44 20q-15 13 -15 44zM199 258v4q0 11 28 61.5t39 61.5l314 313q106 106 106 263q-20 36 -61 53h-39q-67 0 -123 -34q-66 -39 -66 -101q0 -9 28 -37 t28 -45t-35 -58q0 -94 -99 -94q-120 0 -120 115q0 107 94 192q13 9 35 29h4v-2l-47 -53q50 42 198 116l2 5h133q73 0 134 -61t61 -134q0 -87 -64.5 -191.5t-142.5 -142.5l-215 -106q-92 -45 -92 -140q10 -20 43 -20q25 0 84 59v-12q-59 -68 -104 -68q-43 0 -91 48l-26 -27z M254 288q0 -17 3 -17q4 0 5 20q0 21 -5 21q-3 -5 -3 -18v-6zM270 907l2 -2q7 0 7 6v2l-3 2l-3 -2q-2 -3 -3 -6zM285 786q30 9 41 7q10 155 180 233h-10q-71 0 -141 -73t-70 -144v-23z" />
<glyph unicode="A" horiz-adv-x="1692" d="M59 418q0 187 168 350q33 32 84 53q64 27 193 78q112 43 201 43q30 0 89 -13.5t89 -13.5h6q61 66 95 89q55 38 122 38q104 0 176 -59q39 14 66 14q79 0 182 -114h4v-2l2 2h2q45 52 139 153l154 154q70 70 140 117q27 17 61 43q61 34 67 34h17q0 -28 -37 -108q78 0 94 -27 q-36 -29 -94 -86q-67 -87 -79 -106q-44 -68 -48 -121l-414 -756q129 0 266 127h6l7 -4l2 -2q0 -4 -9 -14q-107 -119 -280 -140q-4 -3 -39 -108q-18 -5 -55 -15l-14 -4q-5 -1 -6 -2l-5 2q-29 -1 -29 13l-26 14l55 107q-77 16 -129 32q-6 7 -18 7q-32 13 -95 40q-17 0 -26 -6 q-43 -32 -131 -94q-189 -127 -416 -127q-224 0 -367 92q-170 108 -170 320zM106 354q0 -75 35 -124q10 -14 92 -97h7q-109 119 -134 221zM199 446q0 -156 112.5 -268t268.5 -112q122 0 260 77q123 68 215 170l-92 101q-3 1 -7 2q-2 0 -102 -54q-8 -4 -114 -31 q-32 -8 -154 -56q-75 -30 -170 -30q-35 0 -35 19v2l6 8q17 -1 32 -1q137 0 210 55q-28 8 -82 26q-62 26 -100.5 82.5t-38.5 122.5q0 81 46 137q49 60 128 60q47 0 79.5 -27.5t32.5 -73.5q0 -40 -87 -94.5t-87 -85.5q0 -48 51 -80q44 -28 95 -28q42 0 72 80q24 65 24 118 q0 217 -252 217q-98 0 -152 -28q-72 -37 -117 -133q-42 -87 -42 -175zM242 127q1 -4 4 -6h2v-1v-2q0 -5 6 -5q4 2 4 6q0 6 -4 8h-2v1q0 5 -6 5q-4 -2 -4 -6zM248 121q1 5 4 6v-1q-1 -4 -4 -5zM434 862q55 0 121 41q-51 0 -121 -41zM494 868q294 -57 294 -299 q0 -106 -67 -202q114 0 180 88q14 19 14 26q0 13 -12.5 34.5t-13.5 31.5q-35 92 -35 188q0 18 4 53.5t4 53.5q0 24 -87 41q-67 12 -113 12q-140 0 -168 -27zM711 59q1 -4 4 -6q4 1 4 5v2q-1 5 -4 6q-4 -2 -4 -7zM735 66q219 0 387 194l-2 4q-14 12 -37 29 q-190 -166 -348 -227zM750 345q0 -5 6 -5q4 2 4 6q0 6 -4 8q-6 0 -6 -7v-2zM782 354q66 0 86 33zM874 74q47 0 140 67q79 57 123 107q-150 -119 -263 -174zM877 392q0 -5 6 -5q4 2 4 6q0 6 -4 8q-6 0 -6 -7v-2zM922 711q0 -138 26 -183q10 19 21 47v60q0 104 -41 153 q-3 -9 -6 -20v-57zM963 862q106 -94 106 -207q0 -85 -40 -151q-36 -60 -40 -61v1q0 -34 80 -104q14 0 18 2q43 51 130 152q0 26 -20.5 74t-20.5 73v14l20 -61q0 11 -3 31t-3 30v88q0 3 -1 5q1 12 1 88q-5 -11 -14 -33q0 92 67 160q-37 20 -94 20q-99 0 -180 -94 q-6 -7 -6 -21v-6zM1102 319q0 -12 14.5 -22t26.5 -10q14 0 47 47l-21 -15q68 99 68 136v12q-44 -50 -135 -148zM1157 271q0 -5 6 -5q4 1 4 5v2q0 6 -4 8q-6 0 -6 -7v-3zM1165 678v4q0 6 3 13q6 0 6 -15q0 -13 -6 -13q-3 3 -3 11zM1165 766v9q0 7 3 14q6 0 6 -17t-6 -17 q-3 3 -3 11zM1184 260q10 -22 100 -49q82 -25 119 -25q18 0 20 7q27 87 27 108v27q-40 15 -127 59l-12 6zM1188 740v5v6l1 -3q0 -5 -1 -8zM1192 852l4 -4q3 2 4 4q-2 3 -4 4q-3 -2 -4 -4zM1198 584q1 -2 2 -2q2 0 6 2q-2 4 -6 4q-2 0 -2 -3v-1zM1217 711q0 -37 12 -88 q14 -64 35 -76q18 20 47 53q71 84 112 135v13q0 33 -38 91t-68 58q-53 0 -80 -71q-20 -51 -20 -115zM1282 508q38 33 91 95q65 76 65 102v4q-7 -7 -39 -45q-117 -140 -117 -150v-6zM1343 440q21 -47 117 -47h4q6 25 6 45v117q0 23 -6 53q-8 -6 -121 -168zM1370 903 q29 -42 80 -129q20 12 20 31q0 30 -32.5 64t-61.5 34h-6zM1491 340q24 64 53 135q6 14 6 33l4 -2q17 0 17 59v23q-12 -39 -15 -60q-6 66 -26 166q-39 -41 -39 -47v-307zM1597 788q-1 -5 21 -147q178 346 360 576l-4 2q-23 0 -23 -16q0 -4 1 -7q-154 -67 -355 -408z M1774 1075q1 -4 4 -6q4 2 4 6q0 6 -4 8q-4 -3 -4 -8zM1831 1137q11 4 41 32q-14 -10 -41 -32zM1925 1030q26 36 86 100h8l80 87q0 14 -41 14q-8 0 -12 -2q-86 -117 -121 -199zM1937 1243l82 27q18 20 54 59l-2 2q-44 0 -134 -88z" />
<glyph unicode="B" horiz-adv-x="1651" d="M139 203q0 100 39 167q48 81 141 81q115 0 115 -103q0 -68 -86 -93q-99 -28 -108 -46q-2 -21 -2 -12v-11q0 -49 82 -87q68 -31 126 -31q171 0 301 164q62 78 179 313l129 260q98 199 336 426q-97 29 -211 29q-133 0 -185 -21q21 -70 21 -141q0 -23 -7.5 -67.5t-7.5 -67.5 q0 -8 14.5 -36.5t14.5 -45.5q0 -96 -61 -184q-64 -92 -154 -113l-75 -18l-8 -2q0 -1 2 -2q-165 -66 -224 -66q-92 0 -144.5 55.5t-52.5 148.5q0 92 37 177q141 326 539 462q-41 60 -191 60q-321 0 -512 -449l-6 -6l-8 6v4q9 26 27.5 77t85.5 149q170 247 415 247 q116 0 222 -75q38 0 111.5 14t111.5 14q155 0 332 -67h20q111 45 107 45l4 2h4l6 -8q-8 -11 -47.5 -30t-46.5 -30q30 -23 73 -61h13q135 57 227 57q0 -26 -37 -44t-37 -25q-49 -16 -112 -33l-6 -8q79 -115 79 -191q0 -92 -65 -172q-60 -74 -150 -110l-6 -9q43 -60 85 -120 q36 -57 36 -146q0 -168 -127 -295t-295 -127q-74 0 -162 48q-100 55 -100 122q0 58 49 90v-39q20 20 27 52q13 56 57 110q38 47 90 92q11 9 27 9v-15q-68 -66 -89 -90q-43 -49 -67 -104q8 -2 8 -13q0 -9 -4 -25.5t-4 -25.5q0 -132 160 -132q11 0 23 1l-9 -6q162 0 275 240 q6 12 6 20l2 4l-2 4l-72 -108q-5 -4 -14 -13v7q74 131 74 243v64q0 19 -30 72t-44 53h-107l-14 16l-65 6l-9 -6q-175 -275 -261 -375q-168 -195 -367 -260q-12 2 -28 2q-19 0 -44 -3q-56 -7 -72 -7q-192 0 -282 115q-15 19 -15 47zM346 696q0 -168 154 -168q69 0 121 29 q-86 17 -139 74q-56 60 -56 145q0 160 120 276q79 76 261 167h8q-63 -38 -147 -101q52 38 133 74q70 29 141 59q0 62 -33 62q-36 0 -153 -60q-19 -9 -56 -28q-150 -80 -248 -219q-106 -151 -106 -310zM526 774q0 -92 101 -164h67q13 0 31 19q35 37 99 127q79 108 79 135 q0 4 -27.5 20.5t-27.5 22.5q0 45 57 45q13 0 31 -2q22 31 22 84q0 138 -10 170q-149 -37 -281 -169q-141 -143 -141 -288zM780 188q46 25 62 62q-7 -3 -33.5 -29.5t-28.5 -32.5zM788 610q65 0 126 67.5t61 133.5v12q-53 -155 -187 -213zM815 637q44 18 83.5 70t43.5 98 q-2 -2 -63 -90q-27 -39 -64 -78zM823 1225q1 4 4 6q7 0 7 -5v-2q0 -5 -6 -5h-1q-3 2 -4 6zM838 1230v2q1 5 4 7q4 -2 4 -7v-2q-1 -4 -4 -5q-4 2 -4 5zM856 273q0 -5 6 -5q4 1 4 5v2q0 6 -4 8q-6 0 -6 -7v-3zM922 1260l2 2q3 0 4 -2q-2 -4 -4 -5zM948 1325q19 -47 37 -47 q32 0 94.5 10t94.5 10q45 0 135 -10t135 -10q10 0 12 8q-108 66 -313 66q-156 0 -195 -27zM989 1266h8q13 0 25 6h-12q-13 0 -21 -6zM1163 35h23q112 0 205 106q-47 -30 -142 -80q-31 -3 -86 -26zM1229 918q74 81 233 206l-112 -120v-7l186 154q-28 0 -47 -12q14 13 14 28 q0 45 -67 45h-6q-111 -94 -201 -294zM1243 737h3h1l5 1l24 1q51 3 102 5q50 9 88 49q105 111 105 278q0 35 -8 53q-23 0 -74.5 -49t-91.5 -90q-9 -9 -45 -65q-39 -59 -109 -183zM1386 211v1q0 3 2 3h1h2l2 -4l-2 -2h-1q-4 0 -4 2zM1403 723q51 0 101 27q56 29 73 73 q-80 -63 -174 -92v-8zM1462 723q2 -3 4 -4q3 2 4 4q-2 3 -4 4q-3 -2 -4 -4zM1483 731l4 -2q33 0 71.5 28t51.5 60q-65 -55 -127 -86zM1485 1266q1 -4 4 -6q6 0 6 5v2q0 5 -6 5q-4 -2 -4 -6zM1491 361q0 -5 6 -5q4 1 4 5v2q-1 6 -4 6q-6 0 -6 -6v-2zM1497 1260l2 -5q4 2 4 5 q-1 2 -4 2z" />
<glyph unicode="C" horiz-adv-x="1282" d="M127 973q0 188 143 298q130 99 324 99q219 0 416 -170h14l147 64h-26q69 39 147 39q18 0 44.5 -4.5t41.5 -4.5q21 0 60.5 10.5t60.5 10.5q174 0 174 -123q0 -30 -14 -64q-10 -20 -25 -57q-2 -21 -8 -63q-6 -37 -106 -142h-9q-59 -65 -100 -80h-6l27 27 q-332 -159 -582 -195h-6q-145 0 -215 -20q-27 -8 -66 -148q-35 -129 -35 -176q0 -61 60 -119.5t121 -58.5h14q19 184 99 306q99 151 265 151q158 0 158 -166q0 -167 -161 -300q-146 -120 -322 -138l-6 -6q0 -31 17.5 -91t17.5 -90h-15q-14 33 -27 89q-17 83 -20 92 q-169 26 -245 100q-83 82 -83 248v61q2 11 5 31q10 63 16 123q2 15 14.5 49t12.5 51v6q-5 4 -15 6q-172 31 -238 105q-69 78 -69 250zM160 1012q0 -41 8 -51q54 50 79 77q-52 -57 -52 -94v-4q38 58 106 110q78 58 137 58h4q-209 -98 -209 -248v-35q123 -133 238 -133h4 q40 67 100 162q128 183 275 266q-44 -44 -94 -106q102 90 227 168v6q-44 53 -148 103t-173 50q-154 0 -224 -18q-119 -31 -195 -108q-83 -86 -83 -203zM535 96q30 -121 190 -121q0 56 -48 77q-47 13 -95 26q-6 3 -19 10q-7 2 -22 10h-2zM662 680q3 0 8 -1t8 -1 q474 0 768 262q86 77 86 117q0 79 -54.5 132t-133.5 53q-52 0 -115 -33q-53 -31 -105 -62q-41 -23 -41 -27v-6q37 -51 109 -190q-2 -6 -8 -11q-9 0 -60.5 94.5t-68.5 94.5q-5 0 -45 -29q-253 -182 -348 -393zM756 -25q70 0 157 34q95 36 131 87h-8q-145 -55 -280 -59v-62z M762 90q74 -6 180 -6q115 0 198 95q79 91 79 208v51q0 8 -11 29q-29 51 -104 51q-121 0 -235 -150q-107 -142 -107 -268v-10zM762 946q106 88 268 189v6l-26 26q-34 0 -128 -92q-81 -80 -114 -129zM862 1128q2 5 8 7l1 -4l-1 -2l-4 -2zM1030 1182l27 -27h2l2 -2l176 88 q-3 0 -9 1t-9 1q-89 0 -189 -55v-6zM1458 1282q3 -8 23 -14q115 -36 151 -140q15 35 15 66q0 94 -111 94q-43 0 -78 -6z" />
<glyph unicode="D" horiz-adv-x="1618" d="M174 713q0 256 152 472q167 240 413 240q131 0 236 -79q18 1 55 7.5t57 6.5q252 0 422 -141h15q124 107 207 141q8 -4 8 -14q0 -13 -48 -43q-32 -19 -63 -37q-57 -37 -84 -88q78 -103 133 -240q27 -67 27 -201q0 -271 -205 -485q-82 -86 -170 -125q-298 -133 -518 -133 q-27 0 -80 3t-80 3q-30 0 -91 -3t-91 -3q-184 0 -184 59q0 41 86 41h8q-27 12 -27 33q0 37 75 37q22 0 48 -2h-4q53 0 161.5 -14.5t163.5 -14.5q22 0 25 2q11 8 37 45q85 121 182 303l162 314q87 164 228 327q-138 154 -394 154q11 -30 33 -92q12 -35 12 -156 q0 -373 -213 -502q-142 -86 -250 -86q-245 0 -245 357q0 187 197 348q160 132 370 192q-43 60 -197 60q-193 0 -341 -156q-132 -139 -177 -340q-6 -57 -32 -166q-7 -19 -19 -24zM453 156l2 -6l4 6l-3 2h-1zM466 100q31 -40 102 -40q8 0 17 1l48 2q32 1 87 11 q-31 2 -90.5 31.5t-95.5 29.5q-45 0 -68 -35zM473 711q70 -170 180 -170q54 0 109 11q26 5 78 11l-13 -14h7l14 6l47 47v8q88 112 88 175q0 153 -78 153q-40 0 -119 -53q0 32 48 65h-7q-36 -17 -59 -26q57 67 131 67q86 0 150 -67h6q8 33 8 75q0 168 -62 273h-30 q-152 0 -286 -130q-114 -112 -173 -272q-39 -105 -39 -159zM487 527q0 -5 7 -5l4 5v3q-1 5 -4 7q-7 0 -7 -7v-3zM500 522q0 -53 129 -53q61 0 92 14q-16 -1 -31 -1q-101 0 -190 40zM639 75l7 3h6q2 0 8 -2q-4 -6 -9 -6h-2zM694 27q35 -7 62 -7h71q119 0 234 27h-207 q-13 0 -40 3t-40 3q-39 0 -80 -26zM809 543l4 -6q6 2 6 5v2q-1 4 -6 5zM856 1266l4 -6q6 2 6 5v2q-1 4 -6 5zM874 1272h15q31 0 92 20v6q-7 10 -12 15h-2q-23 0 -93 -41zM895 121q102 -27 254 -27q-6 1 -6 5v3q0 7 6 7l4 -7v-3l-4 -5h6q50 0 125 49l-2 4q0 5 4 7l4 -6v-1 l10 7q301 204 301 559q0 159 -73 291q-21 -19 -41 -54l-334 -596q-59 -106 -254 -233zM907 584q2 -1 6 -2q9 0 9 14l-2 1q-13 -5 -13 -12v-1zM934 616q45 39 67 95q-22 -32 -67 -95zM1001 1319l13 -14q24 2 49 2q103 0 216 -32q120 -34 198 -89l2 -2q5 1 10 8l2 2 q-3 22 -72 63q-128 76 -291 76h-65q-33 0 -62 -14zM1004 723l4 -6l4 5v2l-4 5zM1004 780l4 -4l4 4l-4 4zM1010 806q0 -2 3 -9q5 0 5 10l-5 10l-3 -7v-4zM1077 53l4 -6l4 6q0 6 -4 8q-4 -3 -4 -8zM1403 971q82 81 82 84q0 22 -12 22q-16 0 -42 -45q-21 -37 -28 -61zM1415 938 l88 92q-5 2 -10 2q-30 0 -78 -94zM1522 1155l2 -2v-2l20 -21v9q-6 6 -20 18zM1546 1124l4 -6q3 1 4 6l-4 6zM1552 1118l4 -6l5 5v2l-5 5zM1616 1112q60 55 94 80q-10 -2 -36 -16q-22 -11 -38 -11q36 49 189 101v-35q-62 -12 -62 -48v-5l-139 -66h-8z" />
<glyph unicode="E" horiz-adv-x="1094" d="M96 344q0 57 19 123q59 203 235 276l17 7q78 32 116 32l-37 -22q101 22 211 57q-42 39 -63 39q-19 0 -56.5 -3t-56.5 -3q-145 0 -246 63q-118 74 -118 211q0 141 122 226q108 75 255 75q187 0 337 -120q5 -3 15 -7q186 88 315 88q113 0 113 -98q0 -9 -3 -26.5t-3 -26.5 l26 -45q27 -45 27 -76q0 -92 -81 -169t-173 -77q-47 0 -93 20q-54 24 -69 62q-54 -20 -112 -53v-80l-9 -8q-15 -3 -45 -6h140q32 0 32 -27q0 -8 -12 -20h-41q-20 0 -60.5 7t-60.5 7q-177 0 -316 -169q-132 -160 -132 -341q0 -96 36 -139.5t132 -67.5v13v7q-1 39 9 108 q10 75 11 112q0 13 -3 38t-3 38q0 73 27 100v-4q0 -10 -4.5 -29.5t-4.5 -29.5q0 -33 9 -52q4 8 6 27q15 122 141 201q43 23 127 71h-27q22 17 54 17q120 0 195 -44q93 -55 93 -165q0 -148 -119 -262q-99 -94 -257 -146q-126 -41 -219 -59l38 -174h-12q-16 42 -35 106 q-2 23 -18 68q-169 27 -238 96l-90 90q-41 42 -41 164zM170 1151q74 80 133 80q-45 -21 -65 -47q67 47 137 47q57 0 57 -49q0 -2 -1 -5.5t-1 -5.5q-22 -14 -43 -14q-31 0 -31 27q1 -6 9 -6q53 0 53 12q0 22 -37 22q-119 0 -119 -131q0 -106 87 -145q59 -27 181 -27 q19 0 35 9q4 128 70 215q51 66 176 145l2 4l-2 2q-17 20 -53 41q-130 74 -269 74q-114 0 -207 -53q-112 -63 -112 -168v-27zM291 582q198 159 420 209q-6 6 -37 6q-180 0 -383 -215zM317 1239q1 2 6 2h2q5 0 5 -2v-1q-2 -4 -6 -5q-7 0 -7 6zM489 76q0 -3 1.5 -10.5 t1.5 -12.5l6 -6l80 -4q19 -2 20 -2q9 0 24 6t23 6q316 148 316 383q0 133 -121 133q-105 0 -197 -114q-49 -61 -78 -119q-2 -4 -2 -10q0 -45 55 -45q13 0 36.5 33.5t35.5 33.5q82 0 82 -47q0 -40 -32.5 -67t-73.5 -27q-88 0 -136 47q-16 -6 -30 -81q-11 -63 -11 -97z M545 428q119 176 286 176q15 0 44.5 -7t44.5 -7q-24 41 -117 41q-71 0 -162 -66q-96 -70 -96 -137zM678 944q16 27 33 80q33 103 141 168q-37 -47 -53 -82q37 30 106 94q-16 29 -33 29q-9 0 -32 -23q-19 -17 -56 -51q-106 -104 -106 -215zM725 68q182 66 254 200 q33 61 33 74q-37 -60 -103 -124v3q-1 5 -4 6q-4 -2 -4 -6q1 -5 4 -6q-52 -50 -121 -102q-21 -14 -59 -45zM811 969q39 0 68 35l-13 14q54 59 113 80v-21l33 15h8q12 0 12 -15q0 -3 -3 -11.5t-3 -14.5q111 65 174 133v4q0 24 -56 39q-42 12 -77 12q-24 0 -68 -10 q-53 -12 -53 -25v-6q18 -21 39 -53l-6 -8h-6l-47 47h-6l-19 -19q-51 -50 -69 -87q-21 -42 -21 -109zM885 983l4 -4q3 2 4 4l-4 4zM899 1251l33 -32q32 15 94 38h-41q19 15 84 15q28 0 82 -13.5t82 -13.5q14 0 14 49q0 64 -84 64q-57 0 -142 -33q-90 -34 -122 -74zM905 215 l4 3q-1 -3 -4 -3zM920 242q73 57 73 180v41q-22 -144 -73 -221zM926 582q13 -17 41 -47v4q0 43 -41 43zM969 524q1 -2 3 -2q1 0 5 2q-2 2 -6 4q-2 0 -2 -4zM975 506q0 -4 3 -4q4 1 5 6q0 8 -5 8q-3 -1 -3 -6v-4zM981 477q0 -4 3 -9q4 0 5 12v4q-1 13 -5 13q-3 -3 -3 -12v-8z M1006 993q0 -69 57 -69q43 0 63 20l86 86q11 11 11 78v51q-14 0 -78 -61q-12 -11 -139 -94v-11zM1016 358l4 -4l4 4q-2 3 -4 4zM1022 375q1 -4 4 -6q4 2 4 6q0 5 -4 6q-4 -2 -4 -6zM1128 923q1 -5 4 -5h2q5 0 5 5v2q0 5 -5 5h-2q-4 0 -4 -5v-2zM1147 930q7 1 100 94v12 q-69 -67 -100 -106zM1249 1051q1 -5 4 -7q4 1 4 6v2q-1 4 -4 5q-4 -2 -4 -6z" />
<glyph unicode="F" horiz-adv-x="1473" d="M115 397q0 178 130 304q124 120 304 137v6q0 11 -3 32.5t-3 32.5q0 57 52 117q15 18 95 92q18 17 53 41h7q-93 -86 -148 -168q172 180 336 242h-6q-8 0 -23 -4t-22 -4l-4 2h-6q37 21 98 30q102 15 225 52q75 23 125 24l703 21q47 7 141 14v-55q-12 -6 -27 -21 q-3 -1 -6 -6h82v-20q0 -25 -22 -30q-30 -6 -33 -9q-18 -21 -27 -21h-51q-38 0 -113.5 3t-113.5 3q-21 0 -111 -86l53 33h6q-215 -227 -327 -489v-6q0 -7 41 -21q6 20 67 109q28 41 68 41q33 0 33 -45q0 -82 -121 -138q-25 -88 -62 -194q-12 -33 -106 -33q20 49 61 147 l-20 -6l-4 -2l-2 2q-8 0 -9 13q-185 -308 -340 -402q-43 -21 -85 -42q-62 -33 -62 -56q0 -27 18.5 -78t18.5 -78q-31 0 -49 70q-10 38 -35 84v-12q0 -18 6 -25q0 -15 13.5 -43.5t13.5 -44.5q-17 12 -33 57q-11 34 -21 68h-12h1q0 -2 -83 -18q-112 -21 -194 -21 q-204 0 -330 98q-137 108 -137 303zM156 297q0 -93 105 -179q100 -83 196 -83h12q-174 71 -174 190q0 79 44 128.5t122 49.5q117 0 117 -94q0 -50 -46 -72q-3 -2 -85 -24q-46 -13 -46 -41q0 -59 106 -102q86 -35 159 -35q198 0 198 53q0 12 -1 36.5t-1 37.5q0 29 8 53 q54 155 138 276q115 165 237 179q12 1 74 8q46 5 88 86l66 127q4 7 30 39q106 134 312 282q-22 8 -212 22q-176 13 -219 13h-137q-133 0 -207 -28q-99 -37 -159 -136q-43 -71 -43 -139q0 -54 33 -101q36 -52 87 -52h107q30 0 73 74q42 69 42 104q0 51 -72 51q-47 0 -104 -29 q13 15 73 51h-26q22 17 77 17q152 0 152 -90q0 -37 -76 -131q125 49 289 307l6 -8v-9q0 -40 -47 -118q-38 -63 -80 -105l-94 -94q-33 -33 -94 -53q-160 -52 -307 -88q28 -64 28 -123q0 -181 -174 -285q-55 -33 -94 -33q233 105 233 312q0 75 -32 129q-142 16 -236 94 q-6 0 -18 1t-19 1q-126 0 -238 -82q-106 -79 -157 -199q-14 -33 -14 -55v-133zM471 29q1 -4 4 -6q6 0 6 5v2q0 5 -6 5q-4 -2 -4 -6zM643 918q13 -41 36 -91q1 -1 34 -16q8 -4 63 -33q27 -26 82 -73q12 -9 64 -9q57 0 110 29q-223 41 -223 219q0 123 149 262h-4 q-93 0 -223 -135q-88 -91 -88 -133v-20zM752 736q0 -5 6 -5q4 1 4 5v2q-1 3 -4 5q-6 0 -6 -5v-2zM762 1174l4 2q3 0 5 -2l-1 -3l-4 -2l-3 3zM856 1221l4 2q3 -1 4 -4l-4 -5l-2 5zM889 109h6q0 215 203 448q-209 -145 -209 -448zM938 123q91 37 168 132q38 47 119 181 q67 110 67 142q-107 -50 -258 -207q-2 7 -4 20q5 6 14 19q38 48 116.5 107.5t137.5 86.5h-12q-5 0 -37 -12q-92 -34 -169.5 -109.5t-112.5 -167.5q-29 -76 -29 -192zM950 1240q1 -3 6 -5q7 1 10 6q-5 2 -9 2h-2q-5 0 -5 -3zM979 1244q0 -5 6 -5q4 1 4 5v2q-1 5 -4 7 q-6 0 -6 -7v-2zM1098 799q46 0 94 100zM1274 1286q1 -4 4 -6q6 0 6 5v2q0 5 -6 5q-4 -2 -4 -6zM1507 630q0 -5 6 -5q5 1 5 5v2q-1 5 -4 5h-2q-5 0 -5 -5v-2zM1585 647q31 0 56.5 27.5t25.5 58.5v25q-6 14 -22 14q-53 0 -60 -125z" />
<glyph unicode="G" horiz-adv-x="1350" d="M135 1004q0 179 141 291q131 104 314 104q241 0 428 -168q15 0 14 0q168 59 179 59h1q-73 -18 -153 -65h6q11 0 248 84h-21q207 37 242 37q72 0 96 -23q38 -37 85 -123q52 -94 52 -139q0 -117 -111 -195q-100 -71 -222 -71q-76 0 -148 28q-301 -143 -575 -180 q8 -43 52 -69q40 -20 81 -39q14 -7 106 -113h88l-6 -6q3 -1 8 -2q115 0 291 147h-12l-68 -33h-6q104 72 301 228v-6l-26 -54h6q8 0 14 6v-6q-19 -22 -53 -67q-7 -11 -27 -51q-33 -70 -100 -209q-99 -204 -299.5 -326.5t-429.5 -122.5q-169 0 -289 67q-147 82 -147 238 q0 149 137 255q119 92 278 110v6q0 53 -16 53q-10 0 -31 -4t-31 -4q-159 0 -275 101q-122 106 -122 262zM168 1026q0 -132 125 -222q113 -81 250 -81h35q11 8 25 59l20 68q37 99 155 207q101 94 213 153v7q-142 155 -411 155q-168 0 -284 -87q-128 -96 -128 -259zM242 199 q0 -135 129 -203q102 -55 250 -55q272 0 397 147h-6q-149 -55 -340 -55q-131 0 -236 48q-135 62 -135 177q0 72 47 118t119 46q117 0 117 -94q0 -50 -45 -73q-12 -6 -84 -25q-45 -12 -45 -35q0 -64 71 -103q59 -33 129 -33q260 0 423 106q160 104 280 343h-8 q-230 -127 -347 -139q-12 -124 -98.5 -200.5t-212.5 -76.5q-8 0 -25 1t-26 1q336 41 336 254v21q-160 18 -289 166q-12 2 -16 2q-143 0 -261 -96q-124 -102 -124 -242zM717 717q7 -2 53 -2q258 0 481 129q-56 30 -69 69q-53 156 -117 217h-6q-260 -161 -342 -413zM786 521 q0 -5 5 -5q4 2 4 6q-1 4 -4 6q-5 0 -5 -5v-2zM797 516q13 -16 88 -61h6q-47 61 -94 61zM891 81q0 -1 2 -5q2 2 4 6q0 2 -4 2q-2 -1 -2 -3zM893 449q1 -5 4 -7q6 0 6 6v2q0 5 -6 5q-4 -2 -4 -6zM911 89q0 -1 2 -5q5 1 5 6q0 2 -4 2h-1q-2 -1 -2 -3zM932 95q0 -1 2 -5q3 2 4 4 l-4 4q-2 -1 -2 -3zM950 100h4q31 0 85 35q49 31 73 60q-74 -54 -162 -95zM1092 1151q27 -46 86 -141h4q2 0 38.5 23.5t61.5 23.5q117 0 117 -64v-22q-23 6 -49 6q-84 0 -84 -68q0 -47 26 -47q103 50 205 126q143 106 143 175q-21 62 -103 96q-67 27 -144 27 q-127 0 -301 -129v-6zM1225 516l4 4q3 -2 4 -4l-4 -4q-3 2 -4 4zM1225 1300q1 3 5 3h3q6 -1 6 -4q0 -5 -8 -5q-6 0 -6 6zM1251 1306q0 3 9 3h4q4 0 9 -3l-1 -1q-2 -5 -10 -5q-11 0 -11 6zM1325 844l6 -8q-2 1 -3 0q2 -2 10 -3q84 -18 132 -18q100 0 183 94q20 23 20 41 q-28 -25 -86 -73q66 81 66 112v127q-42 -42 -70 -74q-10 -13 -31 -38q-46 -47 -162 -120q-24 -11 -65 -40zM1462 823q1 4 4 6q4 -2 4 -6q0 -5 -4 -6q-4 2 -4 6zM1499 1317q127 -39 140 -39h1q-28 41 -108 41h-16q-12 0 -17 -2z" />
<glyph unicode="H" horiz-adv-x="2193" d="M186 432q0 82 46 159q23 37 102 132q3 8 26.5 27.5t32.5 19.5q-128 -149 -127 -180q33 43 101 127q67 81 274 129h-27q39 10 97 10q267 0 358 -106q27 -31 27 -203q0 -146 -135 -241q-121 -85 -273 -85h-74q-31 0 -78 15q-57 18 -57 40l94 -22q26 -6 105 -6q137 0 251 68 q134 79 134 206q-3 -2 -8 -6q-16 -20 -49 -58q-131 -136 -285 -136q-69 0 -129 34q-72 40 -72 103q0 40 33.5 69t73.5 29v-6q11 0 33.5 2t33.5 2l6 -6q-79 -45 -79 -96q0 -105 147 -105q117 0 186 94q14 17 35 54v6l-61 -53v4q36 67 42.5 93t6.5 103q0 115 -217 115 q-236 0 -414 -189q-59 -63 -59 -129q0 -63 32 -139q108 -255 478 -255q22 0 45 1q-24 -6 -150 -6q-30 0 -91 4t-91 4l-10 -2q94 -33 215 -33q184 0 321 80h-8q-16 0 -50.5 -13t-55.5 -13q114 32 223 102q122 77 178 166q-117 -106 -133 -106q147 147 147 198q-15 24 -20 21 q-58 -33 -117 -68q-10 -1 -10 14q0 7 106 80q-26 43 -26 105q0 121 59 170v-2q0 -15 -10 -44.5t-10 -45.5q0 -5 2 -9q39 117 186 181q-6 3 -10 2q-27 -15 -64 -15q66 41 215 60l134 188q-62 -35 -142 -35q58 24 172 74q121 54 121 111q-14 0 -45 -2t-47 -2q-1 0 -101 16 t-150 26q-20 6 -56 13h-58q-131 0 -217 -94v-31q0 -117 140 -117q129 0 221 80l2 -2q0 -50 -82 -93q-73 -38 -129 -38q-79 0 -134 26q-71 35 -71 105q0 135 201 182l6 15h55q38 0 86 -7q116 -17 253 -33q118 -14 155 -14q49 0 137.5 57.5t108.5 57.5q34 0 34 -20 q0 -16 -26 -35q-18 -8 -51 -25q-200 -98 -271 -223l-106 -186q-6 -11 -6 -21q115 -58 115 -97q0 -7 -2.5 -21t-2.5 -21q38 0 62 18q11 8 70 70q62 68 186 205q12 13 26 20v-6l-47 -68q13 16 39 41q98 95 130 124q70 62 138 110q1 12 64.5 47t81.5 35q0 -32 -52 -72 q-39 -29 -79 -57q-193 -167 -316 -367h15q12 4 28 10q249 82 400 162v-24q-11 -9 -37 -23q-108 -58 -264 -119q-52 -17 -154 -53q-16 -6 -21 -14q-84 -142 -151 -277q-103 -208 -103 -358q13 8 39 26q38 27 109 89v-5q0 -20 -74 -74.5t-74 -70.5q0 -33 21 -45h27 q81 0 170 90l157 158h6l7 -8v-7q0 -5 -7 -12l-153 -153q-103 -103 -191 -103q-57 0 -110 62q-5 -1 -16 -1q-138 0 -138 76v27q0 14 6 25l189 354q-187 -160 -383 -174q-355 -381 -766 -381q-339 0 -457 213q-74 134 -74 225zM481 63q0 -4 6 -6q3 1 7 4v2q-1 3 -6 3h-2 q-5 0 -5 -3zM547 838q1 2 5 2h3q6 0 6 -3q0 -6 -8 -6q-6 2 -6 7zM582 846q1 2 5 2h2q3 0 5 -3q0 -3 -6 -5q-6 2 -6 6zM599 530l1 -2q14 0 14 15l-1 1q-14 0 -14 -14zM855 63q3 3 9 3q11 0 11 -3q0 -6 -11 -6q-6 0 -9 6zM888 69q3 3 9 3q12 0 12 -3q0 -6 -12 -6q-6 0 -8 5z M991 513q1 -3 4 -5q4 2 4 6q0 6 -4 8q-4 -2 -4 -7v-2zM1044 105q0 -5 5 -5q4 1 4 5v3q0 5 -4 7q-5 0 -5 -8v-2zM1169 223q0 2 2 2h1q4 0 4 -2q-1 -5 -5 -6q-1 2 -2 6zM1356 608q0 -80 24 -80q41 0 58 35q33 68 65 135q50 100 74 125h-4q-91 0 -152 -51q-65 -54 -65 -143v-21 zM1530 442q19 -2 20 -2q17 0 50.5 7.5t50.5 7.5l-21 -13h8q62 0 136 57q31 24 110 103q3 5 8 14v7h-20l-41 -41q40 44 94 114h-6q-23 0 -150 -51.5t-159 -75.5zM1638 623h7q45 16 133 53v6q-10 6 -27 20q0 10 14.5 34t14.5 38q0 43 -29 43q-9 -5 -113 -194zM1659 460v2 q0 7 6 7q4 -3 4 -8q-1 -6 -4 -6q-6 0 -6 5zM1673 469q1 4 4 6q4 -2 4 -6q0 -5 -4 -6q-4 2 -4 6zM1686 474v2q0 5 6 5q4 -2 4 -6q-1 -6 -4 -6q-6 0 -6 5zM1751 989q18 19 80 115q-14 -5 -33 -21zM1772 152q0 -58 47 -58q-9 27 -9 33q-2 111 -6 116v-7q-32 -58 -32 -84z M1872 1118l26 27q-20 -8 -26 -27zM1952 1238q0 -1 2 -5q2 2 4 6q0 2 -4 2q-2 -1 -2 -3zM2161 936q1 -4 4 -6q6 0 6 5v2q0 7 -6 7q-4 -3 -4 -8zM2312 1124q47 47 62 47q-18 -16 -54 -47h-8z" />
<glyph unicode="I" horiz-adv-x="1563" d="M160 465q0 191 165 319q152 119 349 119q151 0 266 -75q131 -86 131 -230q0 -45 -12 -78q-14 -39 -62.5 -101t-81.5 -85q-29 -20 -92 -37.5t-102 -17.5q-68 0 -176 20q-137 26 -137 61l2 5l4 2h6q146 -54 177 -54h5q-67 56 -67 107q0 39 47 80v-2q0 -6 -4.5 -17.5 t-4.5 -17.5q0 -2 2 -8q19 20 38 39q30 28 44 28q0 -17 -18 -47.5t-18 -46.5q0 -39 28 -77t66 -38q90 0 184 58q105 65 105 149q-22 -32 -68 -92v6q35 78 35 144q0 135 -103 178q-62 26 -114 26q-158 0 -270 -101q-117 -105 -117 -261q0 -166 127 -281q45 -41 172 -41 q388 0 618 348l37 56q53 77 117 186q-37 15 -63 22q-8 1 -23.5 6t-42.5 24q-86 63 -92 190q-168 39 -168 151q0 62 47 103v-4q0 -10 -3 -29t-3 -29q16 47 88 95v-7q-41 -82 -41 -120q0 -39 20 -68q23 -33 60 -33q6 0 43 64q56 98 131 157v7q-54 24 -107 24h-4l-76 -2 q-1 -2 -1.5 -1t1.5 1v4l33 25h-27q17 10 78 10q29 0 85 -10.5t85 -10.5q365 183 725 183q-1 -35 -63 -35q-121 -55 -181 -121h7q21 0 34 6l7 -6v-4l-68 -31q-4 -2 -23 -20q-70 -64 -137 -187q-9 -19 -28 -57q-50 -87 -140 -264q105 22 262 168l7 -6v-9q-20 -49 -123 -111 q-93 -55 -158 -69l-242 -381q-47 -74 -170 -153q-130 -84 -211 -84v10q187 74 261 160h-7q-116 -75 -122 -75q-1 0 -5 1q-204 -86 -374 -100q14 -2 43 -6l85 -6l7 -1q0 -1 -1 -1l7 -5q-57 -14 -162 -14q-188 0 -350 117q-178 128 -178 309zM213 410q0 -148 115 -217h6 q-62 88 -62 182q0 58 23 129q26 83 65 110q-41 -71 -41 -141q70 223 375 336h-45q60 14 195 14q-43 13 -119 13q-192 0 -345 -115q-167 -125 -167 -311zM336 186q1 -4 4 -6q4 1 4 5v2q-1 5 -4 6q-4 -2 -4 -7zM365 630l2 5l5 2l3 -2q0 -5 -4 -7l-4 1zM858 815q1 -4 4 -6 q4 2 4 6q0 5 -4 6q-4 -2 -4 -6zM868 66q21 8 47 8v-8q-24 -7 -25 -7h-16q-3 3 -6 7zM1296 899q0 -76 36 -124q40 -54 114 -54q8 0 12 8l119 217q64 117 141 203q-30 -6 -63 -6q-34 0 -97.5 23.5t-97.5 23.5q-41 0 -96 -80q-53 -76 -53 -121h20l-6 -6h8q44 0 87 21 q48 23 65 59l2 -4v-6q0 -30 -80 -74q-65 -37 -111 -49v-31zM1518 1237q63 -42 167 -42q13 0 27 1l-6 -6h23q45 0 63 14q20 18 60 53q121 104 208 148h-24q-119 0 -264.5 -46.5t-245.5 -115.5q-3 -2 -8 -6zM1720 1201v2q0 7 5 7h2q4 0 4 -7v-2q-1 -5 -5 -5q-6 0 -6 5z" />
<glyph unicode="J" horiz-adv-x="1911" d="M25 -137q0 243 141 360v-8q-82 -119 -82 -174q21 55 77 130q60 79 105 105h6q-16 -28 -41 -53q152 107 299 107q133 0 224 -71q100 -77 100 -206v-18q0 -21 -27 -113l2 -2h2q46 0 68 69q16 49 16 109q0 146 -90 222q-84 71 -233 71q-137 0 -225 -59q-25 -17 -56 -17 q23 31 201 95h-39q70 20 160 20q154 0 250 -57q118 -70 118 -213q0 -31 -17 -92t-17 -93q71 23 215 66q18 4 53 14q58 21 88 21q22 15 40.5 50t18.5 62q-32 56 -32 133v-98q-29 19 -29 82q0 30 41 105q63 34 90 34t72 -8q21 15 106 189v2q0 8 -33 15q-20 5 -41 9 q-68 24 -107.5 82.5t-39.5 130.5q0 24 13 70t14 69q0 -6 -3 -7q-8 0 -32.5 55t-24.5 71q0 23 12 51q15 33 35 33q-14 -35 -14 -53q35 68 160 135h-19q25 19 92 19q18 0 54 -7.5t55 -7.5q356 168 674 168l8 -6v-8q-244 -82 -342 -254q28 -6 59 -6q45 0 133.5 40t141.5 40 q-8 -10 -66 -35q-112 -49 -217 -170q-97 -112 -225 -330v-6q53 20 127 106h8l6 -6q0 -31 -80 -84q-90 -60 -100 -77l-297 -508h10q0 -27 -22 -41h14q11 0 33.5 4t34.5 4l-9 -8h9q38 0 105.5 47t80.5 47l4 -2l2 -4q-113 -128 -281 -128q-16 0 -32 1q-162 -232 -375 -408 q-26 -23 -76 -57q-7 -2 -20 -8q-9 -6 -28 -19q-207 -131 -470 -131q-205 0 -334 76q-27 16 -96 92q-58 64 -80 109q-26 55 -26 133zM74 29q1 -4 4 -6q4 2 4 6q-1 4 -4 6q-4 -2 -4 -6zM125 -115q0 -40 41 -137q37 -85 65 -127q5 -8 27 -25q87 -71 244 -71q120 0 237 43 q65 25 148 53q267 198 362 328q24 33 54 80v6q-37 0 -27 0l-115 -29q-66 -23 -200 -65q-4 -1 -13 -7q-93 -88 -293 -200q-27 -15 -55 -15q-21 0 -31.5 11.5t-21.5 23.5q-79 15 -133 56q-68 49 -68 120q0 64 33 93v-56q13 45 50.5 77t82.5 32q-86 -77 -86 -121 q0 -60 40.5 -107t100.5 -61q86 52 176 94q11 5 31 15q47 28 47 129q0 153 -135 207q-42 17 -59 18h-68q-166 0 -294 -98q-140 -106 -140 -267zM393 -492q0 -4 6 -6q3 1 7 4v2q-1 3 -6 3h-2q-5 0 -5 -3zM412 -500l55 -14h186q31 0 47 8q13 0 21 -4h-21q5 -4 16 -4 q59 0 218 82q12 5 35 18q18 14 36 22q-6 -2 -16 -7q-36 -24 -124 -60q-97 -41 -132 -41q40 14 117 54t158 67l10 -6q-2 -2 -6 -4q9 3 28 10q15 6 95 86q-54 -44 -117 -92q-6 4 -10 6l67 66q-32 -25 -86 -60q-70 -31 -211 -92q-80 -35 -157 -35h-209zM659 -519v-1q5 -4 11 -4 q11 0 11 6q-2 2 -9 2h-3q-10 0 -10 -3zM733 -205q64 25 141 113q-34 -14 -88 -47q-18 -23 -53 -66zM893 -53q28 0 44 56q11 41 11 79v6l-26 -80q-14 -21 -29 -61zM1352 213q1 2 3 2q1 0 5 -2l-4 -4zM1356 336l5 12q-2 -2 -5 -6v-6zM1395 242q0 -15 8 -27q7 14 12 21 q21 41 68 120v6l-6 7q-82 0 -82 -101v-26zM1456 1128q0 -22 21 -57q37 38 112 115q14 14 76 55q11 7 25 19l-13 6q-3 0 -9 1t-9 1h-24q-71 0 -121 -33q-58 -39 -58 -107zM1489 797q0 -44 55 -90q43 -37 113 -37q29 51 201 321q4 6 112 148q-23 10 -59 26l-142 68h-6 q-37 0 -129 -87.5t-92 -127.5q32 -12 78 -12q43 0 67 2q-1 1 -1 4q1 5 4 6q6 -1 4 -9q22 2 47 5q75 43 84 43v-4q0 -26 -148 -88h-112q-25 0 -49 6q-27 -19 -27 -94v-80zM1618 108q0 -6 6 -6q4 0 4 6v2q-1 5 -4 5q-6 0 -6 -5v-2zM1669 135q8 4 27 15h8q-8 -5 -27 -15h-8z M1825 1272q82 -31 192 -74h8l254 215h-18q-188 0 -436 -141zM1859 798q39 55 93 128q67 87 166 186v-4q0 -20 -127 -170l221 233h-6q-4 0 -17 -4l-59 -18q-26 -5 -78 -16q-23 -25 -67 -105q-43 -76 -126 -230zM1960 896q1 -3 4 -5q4 1 4 5v2q-1 5 -4 7q-4 -2 -4 -7v-2z M1976 920q1 -2 5 -3q3 1 5 5l-2 4l-2 1q-4 -3 -6 -7z" />
<glyph unicode="K" horiz-adv-x="1563" d="M96 348q0 175 104 313q114 150 283 150q123 0 201 -87q74 -83 74 -208q0 -129 -87 -227q-91 -103 -218 -103q-43 0 -94 16q-66 21 -66 54q26 0 76 -20.5t77 -20.5q124 0 206 91q79 88 79 214q0 98 -67 155q-62 54 -162 54q-158 0 -261.5 -113.5t-103.5 -273.5q15 0 43 10 t43 10q56 0 56 -40l-3 -7q-61 -55 -61 -104q0 -74 72 -119q62 -39 141 -39q222 0 444 236q25 26 104 167q52 92 140 257q136 254 238 391q-76 6 -219 62q-134 53 -211 53q-64 0 -109 -48.5t-45 -113.5q0 -115 148 -115q16 0 47 4t47 4l-6 -6l6 -2h4q65 0 117 68h14 q-24 -51 -93 -89t-128 -38q-96 0 -161 43q-75 49 -75 141q0 53 68 117v-2q0 -14 -14 -38t-13 -34q45 70 162 131h-29q21 25 94 25q66 0 199 -51.5t209 -51.5l209 183q7 2 12 6h4q25 0 25 -33q0 -23 -87 -74q-90 -53 -95 -74h2l2 -2q8 15 43 21l2 2h4v-2l-21 -27h9q1 0 98 56 q59 34 106 34q1 -18 -22 -22q-12 -2 -37 0q-171 -90 -367 -522q11 -13 43 -13q105 0 170 107q-32 -33 -53 -33l307 387q33 41 95 93q78 63 116 63q0 -31 -76 -88h3q26 0 80 23.5t83 23.5q115 0 115 -78q0 -40 -18 -47q-5 -2 -54 -2q0 6 1 19t1 20q0 53 -49 53 q-112 0 -200 -86q-42 -41 -134 -178q-148 -221 -270 -283q-33 -17 -74 -35q56 -65 56 -120q0 -41 -24 -104q-31 -84 -36 -103q-10 -43 -10 -127q0 -95 39 -95q46 0 96 68l148 201l4 -2l2 -4v-7q-3 -5 -6 -14q-45 -67 -91 -134q-65 -92 -104 -114q-105 -59 -153 -59 q-46 0 -85 32q-42 35 -42 79q0 49 94 196q4 47 13 141q3 16 7 48v79l-8 -14q-14 8 -14 21q0 1 15 26v3l-7 12q-7 -10 -21 -29l-79 -119q-28 -57 -86 -168q-95 -167 -239 -269q-158 -112 -337 -112q-175 0 -275 102t-100 279zM252 59q1 -4 4 -6q6 0 6 5v3q0 7 -6 7 q-4 -3 -4 -9zM264 53q59 -59 203 -59q199 0 305 121q-129 -88 -319 -88q-32 0 -93.5 14t-93.5 14zM498 48q0 -1 2 -5q2 2 4 6q0 2 -4 2q-2 -1 -2 -3zM530 53q5 -4 11 -4q10 0 10 5q-2 3 -9 3h-4q-8 0 -8 -3v-1zM565 61q3 -1 8 -2q88 0 218 106q123 100 161 189 q-120 -128 -174 -174q-103 -86 -213 -119zM780 121q1 -6 4 -6h1q6 0 6 5v2q0 5 -7 5q-4 -2 -4 -6zM1245 152q0 -35 45 -80q21 0 37 10q-49 24 -80 92q-2 -4 -2 -22zM1303 649q1 -4 4 -6l2 1v-3q1 -4 4 -6q4 2 4 6q0 6 -4 8l-2 -1q0 6 -4 7q-4 -2 -4 -6zM1309 935q1 -3 4 -5 q4 2 4 6q0 6 -4 8q-4 -2 -4 -7v-2zM1319 629l8 -6v6q-3 3 -8 6v-6zM1319 676q0 -6 8 -6q21 0 47 32zM1319 950q5 2 141 180q-1 4 -6 7l-2 2h-6q-12 0 -33 -21v6q-14 -12 -33 -41l27 21q-55 -76 -88 -148v-6zM1329 612l4 -4q3 2 4 4q-2 3 -4 4q-3 -2 -4 -4zM1335 592 q1 -2 3 -2q1 0 5 2q-2 3 -4 4q-3 -2 -4 -4zM1341 534q0 -6 7 -6q3 0 4 6v2q0 5 -4 7q-7 0 -7 -7v-2zM1343 565q2 -2 4 -2q1 0 4 2q-1 2 -3 4q-4 -2 -5 -4z" />
<glyph unicode="L" horiz-adv-x="1538" d="M170 905q0 192 177 310q155 102 358 102q202 0 415 -121h13l41 21h6l-33 -35v-6q65 32 81 42q51 28 72 52h-20q5 2 14 6q16 6 105 61q64 39 114 39q43 0 61 -29q14 -32 28 -65q11 -11 61 -45q36 -25 54 -56q26 -47 26 -118q0 -158 -113 -276.5t-270 -118.5 q-115 0 -180 86q-9 0 -72 -44q-66 -45 -68 -57q-61 -290 -188 -428q40 -12 119 -37q197 -63 286 -63q155 0 232 74l160 153h8q0 -16 -8 -26q-41 -48 -132 -125q-102 -87 -149 -103q-66 -23 -127 -32q-35 -21 -51 -21q-19 0 -84 27q-171 71 -301 94q-217 -109 -395 -109 q-57 0 -101.5 40t-44.5 96q0 54 70 83q25 11 31 11h147q24 0 141 -31q95 -25 172 -25q101 101 101 183q-54 -99 -95 -135v8q63 117 72 166q6 36 19 108q6 29 4 60h-13q-157 -68 -325 -68q-173 0 -289 88q-129 96 -129 264zM203 926q0 -152 132 -232q111 -67 273 -67 q107 0 285 47q40 10 46 42t16 98q45 245 145 355v7q-181 120 -392 120q-184 0 -332 -91q-173 -106 -173 -279zM291 184q0 -26 12 -26q25 0 68 28l6 -2v-12h8q47 18 72 27h-45q127 26 192 32q-76 29 -175 29h-73q-8 -2 -19 -7q-46 -22 -46 -69zM387 193q1 4 4 6q4 -1 4 -5v-2 q-1 -5 -4 -6q-4 2 -4 7zM416 131q0 -20 24 -20h41q62 0 150 34q-15 -16 -33 -26h4q20 0 65.5 19t45.5 34q-35 8 -70 8h-108q-5 0 -16 -1t-17 -1q-86 0 -86 -47zM1012 948q0 -3 1 -9.5t1 -10.5q27 93 26 100q-28 -51 -28 -80zM1042 1041q0 -5 5 -5q4 1 4 5v2q-1 6 -4 6 q-5 0 -5 -6v-2zM1049 1055q1 -4 4 -6q6 0 6 5v2q0 7 -6 7q-4 -3 -4 -8zM1055 1068q0 -5 6 -5q4 2 4 6q-1 6 -4 6q-6 0 -6 -5v-2zM1063 1080q1 -3 4 -5q4 2 4 6q0 6 -4 9q-4 -3 -4 -8v-2zM1067 963l107 153l-7 6h-4q-16 0 -56 -68.5t-40 -90.5zM1073 733q24 12 72 38 q16 9 30 50.5t37 58.5q29 22 88 22q13 0 27 -1q39 38 115 115q35 36 77 101q50 78 50 112q0 35 -129 35q-56 0 -99 -15q-114 -114 -114 -141q0 -12 40 -57.5t40 -67.5q-27 0 -93 92q-13 -14 -20 -33zM1075 1102q1 -4 4 -6q6 0 6 5v2q0 5 -6 5q-4 -2 -4 -6zM1094 1122l32 33 h-6zM1180 1149l8 -6h6l39 53q-18 -10 -53 -47zM1194 1231q0 2 2 2h1q3 0 3 -2q0 -3 -4 -6q-1 2 -2 6zM1274 776q0 -82 149 -82q83 0 154 71q64 64 86 150q-24 -16 -52 -62q-30 -49 -48 -65q88 174 88 240q0 119 -56 180q-63 -145 -247 -319v-8l14 -19q-14 -16 -39 -30 q-36 -20 -42.5 -24.5t-6.5 -31.5zM1401 1303h13h6q26 0 72 -7q52 -8 77 -8q0 62 -64 62q-73 0 -104 -47z" />
<glyph unicode="M" horiz-adv-x="2374" d="M162 438q0 173 161 300q150 118 328 118q164 0 262 -77q107 -84 107 -244q0 -149 -112 -239q-104 -83 -257 -83q-57 0 -136 16q-105 20 -105 52l2 4l4 2h6q-4 0 59 -18q107 -29 162 -29q177 0 301 135q35 38 35 74q-133 -142 -283 -142q-76 0 -150 47q-83 52 -83 123 q0 98 88 98q106 0 106 -53q-94 -6 -94 -71q0 -58 94 -111q48 -6 101 -6q54 0 107 42q49 38 73 91v8l-59 -61h-9q50 118 50 192q0 5 -1 14.5t-1 14.5q-54 115 -238 115q-124 0 -241 -50q-143 -61 -163 -165q-2 -10 -2 -68q0 -185 131 -299q125 -109 312 -109q77 0 191 71 q97 59 163 130l395 422q4 7 47 94q62 124 62 244q0 231 -193 231q-8 0 -23 1t-22 1q-12 0 -39 -10q-81 -30 -148 -107q-73 -83 -73 -163q0 -57 27 -103q31 -55 84 -55q88 0 88 117h2q1 -1 20 -17q2 9 19 9q43 0 43 -72q0 -50 -42.5 -87.5t-92.5 -37.5q-80 0 -181 115 q-26 30 -26 106q0 99 53 168l2 -2q0 -22 -20.5 -63.5t-20.5 -63.5q0 -61 12 -84q9 252 263 369h-47q55 26 124 26q121 0 188 -59q53 -46 109 -168q2 -4 5 -6l2 -2l26 20v-4q0 -7 -8 -19t-8 -30h2q172 182 315 242h-12q-7 0 -23 -4.5t-24 -3.5q58 36 139 36q20 0 41 -2 q6 5 21 13q32 24 100 61h6l11 -9q-79 -82 -79 -101q0 -9 7.5 -24t7.5 -24q0 -19 -14.5 -54t-14.5 -54q0 -2 2 -8q94 82 201 145l-2 2h-2q-7 0 -23.5 -4.5t-25.5 -3.5q94 55 227 55q23 0 47 -2q66 60 113 82h6l8 -8v-2q0 -20 -22 -47q-27 -33 -31 -43q63 -29 133 -29 q20 0 51 20.5t43 20.5q-9 -16 -41 -47q37 27 94 55q0 -32 -34 -67t-66 -35q-31 0 -47 8h-6q-52 0 -106 -36q-44 -36 -89 -72q-20 0 -53.5 -33t-67.5 -68l-268 -448q-13 -22 -70 -140q-90 -187 -90 -309q6 -12 58 -12q50 0 63 12l121 115h12q-78 -119 -207 -154h13 q81 0 327 254q9 -2 9 -14t-15 -27l-139 -139q-121 -121 -219 -121q-62 0 -110 51.5t-48 114.5q0 297 438 786l232 259l-2 2h-4q-12 0 -33 -21l-210 -210q-33 -31 -105 -105l-212 -248l-423 -496q-103 -121 -166 -121q-56 0 -56 84q0 193 175 439l155 218q23 34 78 109 q32 36 105 119l210 238v12q-22 -7 -143 -109q-107 -90 -141 -124q-58 -55 -170 -168q-12 -13 -41 -86q-126 -319 -469 -564h-6q8 11 37 41l108 114q15 15 43 46q18 28 59 80l-174 -174h-6q49 58 98 115q55 68 82 127v6l-274 -287q-83 -87 -260 -188h6q38 0 248 100v-2 q0 -15 -14 -25q-45 -33 -246 -84q-192 -49 -256 -49q-190 0 -309 121t-119 311zM258 207q1 -4 4 -6l2 1v-3q1 -4 4 -6q6 0 6 5v3q0 9 -8 5q0 6 -4 7q-4 -2 -4 -6zM276 186q82 -85 136 -114q71 -39 174 -39q49 0 92 6q-264 14 -402 154v-7zM303 696q115 90 207 119h-6 q-96 0 -201 -119zM940 487q1 -4 4 -6q6 0 6 5v3q0 7 -6 7q-4 -3 -4 -9zM1081 1132v2q0 3 2 3q6 -1 7 -4q-3 -3 -7 -4q-2 1 -2 3zM1620 201q9 8 27 26q32 41 97 121q336 413 787 877h-55q-110 0 -214 -86q-65 -54 -159 -176q-33 -41 -94 -127zM1673 903q100 100 375 328 q7 4 20 20h-10q-98 0 -240 -125q-145 -127 -145 -223zM1696 541q1 -4 4 -6q6 0 6 5v2q0 7 -6 7q-4 -3 -4 -8zM1710 561q1 -4 4 -6q4 2 4 6q0 5 -4 6q-4 -2 -4 -6zM1716 573q1 -4 4 -6q6 0 6 5v3q0 7 -6 7q-4 -3 -4 -9zM1731 593q1 -3 4 -5q4 2 4 6q0 6 -4 8q-4 -2 -4 -7v-2z M1739 610l2 -2l3 -1l3 1l1 3q-2 4 -4 5q-4 -2 -5 -6zM1749 628q0 -5 6 -5q4 2 4 6q-1 6 -4 6q-6 0 -6 -5v-2zM1759 643q1 -1 4 -3h1q3 2 4 6l-3 5l-3 -2q-2 -3 -3 -6zM1774 662q9 6 14 20q-6 -4 -14 -20zM1792 698l2 -2l4 -1l2 1l1 3q0 4 -2 6l-4 -3zM1808 715q9 8 13 20 q-9 -6 -13 -20zM1827 752q2 -2 4 -3l4 1l1 2q-1 5 -4 6q-4 -1 -5 -6zM1841 768q14 12 27 41q-21 -25 -27 -41zM1872 826q1 -2 2 -3l4 -1l4 1l1 3l-3 5q-8 -2 -8 -5zM1886 844l2 -2q5 0 8 4q-1 3 -4 6l-3 -2q-2 -3 -3 -6zM1901 862q9 6 14 21q-6 -4 -14 -21zM1919 899l2 -2 l4 -1q4 2 4 7l-3 2l-4 -2zM1933 918l2 -3q1 -1 3 -1t5 6q-2 3 -4 5q-4 -3 -6 -7zM1935 1259q0 3 2 3h1q4 -1 4 -3q0 -5 -5 -6q-1 2 -2 6zM1946 938l2 -2q6 2 8 6l-3 2q-4 -1 -7 -6zM1960 958l2 -2l4 -1l2 1l1 3l-3 6q-5 -1 -6 -7zM2558 1090q65 35 154 94q-33 20 -80 20 l-45 -67h10q-17 -17 -39 -47z" />
<glyph unicode="N" horiz-adv-x="2132" d="M84 395q0 198 169 328q156 121 359 121q10 0 148 -15q175 -19 228 -38q114 -41 159 -156q8 -21 8 -53q0 -85 -63 -166t-146 -101q-21 -5 -45 -10q-50 -10 -82 -26q-10 -7 -33 -17q-84 -43 -195 -43q-25 0 -52 2q133 -147 288 -147q37 0 93 26q241 111 469 389 q39 48 59 80l221 361q0 8 1 26t1 27q0 124 -35 181q-45 73 -161 73q-111 0 -193 -92.5t-82 -204.5q0 -58 31 -97q34 -42 90 -42q74 0 80 102q6 -6 14 -6q3 0 10.5 3t10.5 3q32 0 32 -51q0 -54 -42.5 -88.5t-98.5 -34.5q-75 0 -130.5 60t-55.5 135q0 53 12 86q0 -89 8 -113 q21 248 266 360h-32q30 15 86 15q207 0 282 -180q15 9 101 155q82 139 98 139q14 0 14 -14q0 2 -43 -135q-25 -79 -30 -135h1v-5v-25l1 -329q0 -143 -41 -462q-2 -14 -12 -50q-9 -31 -9 -51l322 570q73 129 254 360q210 268 360 268q36 0 65 -24.5t29 -59.5q0 -71 -73 -71 q-31 0 -62 41t-43 41q-55 0 -123 -68l-80 -80q-129 -129 -315 -434q-52 -80 -147 -242q-73 -146 -227 -432q-14 -24 -23 -35q-17 -22 -33 -22q12 41 35 123q8 28 8 157q0 71 -14.5 213t-14.5 213q0 35 7.5 105.5t7.5 105.5l-195 -420q-54 -116 -233 -241 q-202 -141 -322 -180q-18 -6 -192 -27l-222 -27q-341 0 -479 205q-49 73 -49 176zM131 354q0 -169 158 -250q122 -63 309 -63h59q27 0 62 6q0 4 -6 6q-162 51 -234 121q-29 32 -88 94l4 6q-9 20 -26 81q-19 65 -19 83q0 217 182 326h-4q-57 0 -176 -68q-221 -126 -221 -342z M451 446q0 -43 16 -106q19 -77 45 -86q17 -6 76 -6q137 0 211 47q-104 60 -105 60q-55 42 -55 100q0 120 80 120q88 0 88 -47q-82 -34 -82 -79q0 -48 35.5 -84.5t83.5 -36.5q60 0 123 141q8 18 8 74q0 104 -88 168q-79 59 -187 59q-97 0 -176 -116q-73 -106 -73 -208z M854 797q154 -84 154 -238q0 -123 -115 -237q74 8 132 59q62 55 62 127q-17 -29 -53 -72q27 56 27 72v57q0 97 -54 162q-58 70 -153 70zM920 68h16q69 0 162 50q89 47 137 103q-65 -43 -115 -67l6 8q258 190 416 446q113 183 113 248l-207 -328q-1 -1 -59 -75 q-218 -276 -469 -385zM1042 114v2q1 5 4 5h2q5 0 5 -5v-2q0 -5 -5 -5h-2q-4 0 -4 5zM1057 121q1 4 4 6q4 -1 4 -5v-2q-1 -3 -4 -5q-4 2 -4 6zM1069 127q0 5 4 8q6 0 6 -7v-2q0 -5 -6 -5q-4 2 -4 6zM1087 135q7 10 21 12q-10 -10 -21 -12zM1157 1026q0 4 2 6q3 -1 6 -6l-3 -3 l-3 -1zM1243 226q1 -3 4 -5q4 1 4 5v3q-1 6 -4 7q-4 -3 -4 -8v-2zM1411 836q1 -5 4 -7q4 1 4 6v2q0 6 -4 7q-4 -3 -4 -8zM1417 887l4 -4q4 1 6 4q-2 3 -6 4zM1776 1004l16 6v-27l78 221q-16 -12 -94 -153v-7l14 7q-4 -17 -14 -47z" />
<glyph unicode="O" horiz-adv-x="1401" d="M236 764q0 222 172 388.5t395 166.5h41q26 0 94 -14q13 -7 43 -15l4 4q61 50 187 94t206 44q166 0 217 -115q10 -19 21 -60q40 -42 81 -85q40 -47 40 -109q0 -53 -15 -75t-63 -46q-12 -1 -21 6t-8 19h-28q24 43 34 69v70q0 18 -14 31q-19 -35 -33 -35v82q0 7 -26 26 q-86 62 -254 62q-103 0 -215 -35q26 -33 47 -33q24 0 68.5 16.5t68.5 16.5q120 0 183 -92q55 -80 55 -205q0 -142 -54 -266q-122 -279 -325 -451q-231 -196 -510 -196q-132 0 -219 95q-84 92 -84 226q0 100 67 260q110 263 408 543q12 11 155 121q-59 20 -157 20 q-274 0 -442 -248q-67 -99 -81 -196q-1 -17 -4 -51q-6 -54 -26 -68l-6 6q-2 24 -2 29zM504 332v5q1 -37 2 -89q2 -75 46 -119q37 -37 120 -37q88 0 211 66l-2 -4q-18 -11 -88 -54h6q7 2 24 9q95 35 156 86q108 89 242 301q-29 -25 -77 -87t-77 -87q9 9 20 26q74 113 147 226 q75 134 75 255q0 97 -27 142v-8q0 -21 3 -62.5t3 -62.5q0 -161 -97 -293q-106 -144 -261 -144q-185 0 -185 201q0 175 106 336q97 144 257 246v6q-17 15 -47 35q-14 0 -31 -8q-237 -110 -385 -368q-141 -246 -141 -517zM774 91q0 -5 6 -5q4 2 4 6q0 6 -4 8q-6 0 -6 -7v-2z M786 608q52 269 334 428h-20l-74 -32q27 42 168 67q-25 51 -59 92h-5q-69 0 -203 -165.5t-134 -245.5v-2q3 1 6 6q8 16 26 47q71 121 148 168q-187 -171 -187 -332v-31zM831 604q0 -108 56 -108q26 0 39 12l8 -12q44 6 35 6q12 0 12 -17q0 -16 -27 -43q3 -2 7 -2q34 0 79 35 q112 87 156 216q35 103 35 267q0 35 -17 58q-5 2 -32 2q-129 0 -243 -144q-108 -137 -108 -270zM854 86h6q256 100 438 339q191 250 191 515q0 270 -207 270q-102 0 -121 -32q51 -60 80 -115q168 -18 168 -209q0 -222 -207 -457q-87 -98 -107 -120q-70 -74 -118 -107z M899 168q2 4 8 6l1 -4l-1 -2l-4 -1zM913 1178l121 59q-27 0 -35 14q-31 -23 -86 -73zM926 186q2 7 8 9q1 -1 1 -4q0 -5 -8 -5h-1zM936 433q1 -3 4 -5q4 2 4 6q0 6 -4 8q-4 -2 -4 -7v-2zM946 201v1q0 7 12 12l3 -1q0 -12 -15 -12zM981 227q29 35 59 60q-20 -39 -59 -60z M987 977q10 14 27 20q-17 -14 -27 -20zM989 1237q0 5 4 8q4 -2 4 -7v-2q-1 -4 -4 -5q-4 2 -4 6zM1026 1272q24 -15 41 -21l160 39h-60q109 23 162 23q121 0 254 -49v8q0 65 -76 103q-60 30 -133 30q-157 0 -340 -127q-3 -2 -8 -6zM1063 1264q0 5 4 8q4 -1 4 -7v-2 q-1 -5 -4 -6q-4 2 -4 7zM1083 1270q0 5 4 8q5 0 5 -7v-2q0 -5 -5 -5q-4 2 -4 6zM1110 1278q1 4 4 6q4 -2 4 -6q0 -5 -4 -6q-4 2 -4 6zM1141 1284l4 4q2 -1 2 -3q-1 -4 -4 -5zM1225 511q1 -2 2 -3q6 2 8 6l-3 2q-7 -2 -7 -5zM1270 983q1 -4 4 -6q6 0 6 5v2q0 5 -6 5 q-4 -2 -4 -6z" />
<glyph unicode="P" horiz-adv-x="1538" d="M96 248q0 52 26 86q29 39 79 39q45 0 69 -39v-4q0 -4 -36.5 -39t-36.5 -58q0 -47 32 -73q9 48 21 64q18 24 61 24q74 0 74 -70q0 -12 -8 -34.5t-8 -34.5q0 -16 145 -35l31 -4h-94l114 -21h-141q16 -10 65 -10q117 0 189 47h-4q-11 0 -33.5 -4t-34.5 -4q-3 1 -8 2 q16 0 57 12q68 20 101 39q39 22 96 85q54 59 80 103l270 461l-43 41q-2 0 -5 -1q1 0 -34 48l-8 -6q-80 -129 -139 -200l39 26l2 -4v-2q0 -34 -64 -64q-46 -22 -78 -45q99 50 154 89h8q0 -29 -49 -54q-234 -121 -391 -121q-99 0 -155 59.5t-56 158.5q0 295 428 544 q28 16 201 80q6 2 14 8q-72 54 -217 54q-370 0 -580 -443l-6 6v11q0 41 60 137q197 315 534 315q110 0 150 -20q107 -54 108 -54q41 0 121 10.5t121 10.5q122 0 217 -21q14 -3 72 -24q44 -16 75 -16q48 32 107 61q8 -2 8 -18q-27 -23 -82 -56l-6 -8q195 -121 195 -319 q0 -148 -120 -254q-116 -103 -265 -103q-56 0 -144 49h-8q-2 -3 -6 -8l-74 -112q-10 -16 -106 -123l-90 -101q-25 -13 -78 -84q-39 -52 -193 -114h-8q29 14 74 53h-2q-15 0 -105 -68q-114 -86 -311 -86q-69 0 -136 30q-63 33 -126 67q-109 58 -109 139zM410 707 q0 -102 44.5 -144.5t145.5 -42.5q14 0 25 6q-174 66 -174 205q0 140 94 238q222 230 522 321v6l-14 15h-2q-51 0 -152 -47q-195 -90 -324 -218q-165 -163 -165 -339zM563 729q0 -149 178 -149q36 0 90 47q269 236 269 512q0 80 -15 110q-522 -166 -522 -520zM874 1195 q0 -5 5 -5q4 1 4 5v2q-1 3 -4 5q-5 0 -5 -5v-2zM893 1202h6q8 8 9 8h-3q-6 -3 -12 -8zM922 1217q1 -5 4 -7q4 1 4 6v2q-1 4 -4 5q-4 -2 -4 -6zM938 1223h8q14 0 121 41q6 0 12 6h-12q-9 0 -64 -20.5t-65 -26.5zM1094 1317l6 -14h33h-1q0 1 96 14q67 9 154 9q49 0 105 -3 q-60 14 -172 14q-154 0 -221 -20zM1116 1276h10q5 0 68 14h-55q-23 0 -23 -14zM1133 1255q0 -29 13 -85t13 -85q0 -53 -6 -96q27 21 55 21q86 0 86 -47l-8 -9q-29 -8 -86 -53v-63q0 -24 12 -29l9 6q147 221 346 408v6q-107 41 -181 41q-39 0 -116 1h-116q-7 0 -21 -7v-9z M1378 688q0 -20 47 -35q38 -12 66 -12q102 0 182 77q72 69 103 173q20 68 20 164q0 47 -21 104q-26 72 -65 72l-2 -2q68 -74 68 -176q0 -135 -142 -265q-6 -51 -105 -77q-69 -17 -149 -17q-1 -2 -2 -6zM1407 739q115 0 208 86.5t93 200.5v-4q-7 50 -7 70q0 7 1 10l-14 -6 q-33 63 -80 106q-46 -40 -148 -192q-4 -5 -6 -15q147 142 174 142q-45 -37 -61 -68v-6l55 39h4l2 -6q-43 -44 -174 -248q-13 -27 -41 -80q0 -8 -6 -20v-9zM1447 723q2 -6 9 -6q11 0 11 6q-2 2 -8 2h-4q-5 0 -8 -2zM1481 727h10q22 0 43 14h-6q-11 0 -47 -14zM1669 1254 q0 -5 6 -5q4 1 4 5v3q-1 7 -4 7q-6 0 -6 -8v-2zM1681 1249q2 0 7 -6h6v1q0 5 -5 5h-8zM1696 1234q0 -5 6 -5q4 1 4 5v2q-1 5 -4 7q-6 0 -6 -7v-2z" />
<glyph unicode="Q" horiz-adv-x="1333" d="M68 168q0 48 73 113q0 18 -4 53t-4 53q0 228 182 475q159 216 279 320q164 142 371 209q-47 55 -199 55q-108 0 -193 -37q-209 -90 -335 -308q-18 -38 -56 -112q-4 -8 -16 -8q0 143 182 309q198 180 418 180q111 0 164 -26q83 -41 80 -41q22 0 65.5 7t65.5 7 q213 0 332 -227q26 -50 26 -133l-14 -41q-13 -69 -53 -195q-79 -168 -263 -327q-89 -77 -236 -175q-38 -22 -110 -71q-27 -25 -80 -74q66 -47 144 -47q16 0 58 44q39 43 46 62h6q-16 -37 -14 -47l8 -6h2q6 0 23 27.5t31 28.5q0 -54 -76 -123q10 -7 53 -7q193 0 422 242h12 v-14q-124 -146 -258 -212q-141 -69 -328 -69h-102q-21 0 -92 29t-103 31q-25 -41 -79 -45q-186 -15 -232 -15q-196 0 -196 115zM94 166q0 -86 174 -86h47q-129 55 -161 160l-2 2q-58 0 -58 -76zM236 360q0 -45 18 -73q74 -13 104 -13q17 0 48.5 10.5t48.5 10.5 q114 0 215 -94h6q16 0 80 59q321 294 321 598v72q-1 -1 -26 -47q-7 -13 -60 -95q-89 -138 -282 -227v-6q2 -5 8 -14h6q14 14 20 14q21 0 21 -37q0 -33 -23.5 -55.5t-56.5 -22.5q-72 0 -135 82l-6 6q-29 6 -84 19q-48 14 -70 47q-15 22 -61 121q-92 -174 -92 -355zM268 242 q0 -84 113 -136h94q12 0 51 15q43 16 43 26q-160 60 -179 60h-1q-14 -27 -24 -27t-13 43q-12 -7 -35 -14q0 33 -49 33zM360 752q0 -74 33 -125q39 -60 109 -60h20q20 189 101 289q6 8 14 12q-76 -137 -76 -206q0 -5 1 -16t1 -17q25 142 117 256q89 112 223 172h-39 q42 27 141 27q18 0 39 -1q9 27 9 50v96q0 20 -9 49q-3 3 -8 6h-53l53 12q-35 74 -49 74q-91 0 -239 -93q-131 -83 -205 -167q35 12 92.5 53t87.5 54q-2 -3 -6 -7q-53 -32 -148 -106q-52 -51 -102 -103q36 38 115 103q70 45 141 91q97 56 149 56l5 -2q-273 -132 -461 -387 q-56 -76 -56 -110zM391 265q1 -3 4 -5q4 2 4 6q0 6 -4 8q-4 -2 -4 -7v-2zM418 947q1 -3 4 -5q4 2 4 6q0 6 -4 8q-4 -2 -4 -7v-2zM481 249q2 -4 6 -5q9 0 9 5q-1 3 -7 3h-4q-4 0 -4 -3zM498 240q1 -5 4 -7q4 1 4 6v2q0 5 -4 7q-4 -3 -4 -8zM608 645q0 -63 21 -63q24 0 67 26 q95 57 196 180q108 129 132 228q-4 20 -59 20q-135 0 -248 -129q-109 -125 -109 -262zM641 885q1 4 6 6q2 -2 3 -6l-1 -2l-2 -1l-4 1zM643 539q0 -11 6 -11h15q18 0 32 27h-6q9 0 -47 -14v-2zM719 969q0 5 4 8q4 -2 4 -7v-2q-1 -3 -4 -5q-4 2 -4 6zM731 1222v2q0 7 6 7 q4 0 4 -8q-1 -4 -4 -6q-6 0 -6 5zM737 227q24 7 66 39q54 42 156 169q112 141 112 188q-84 -158 -334 -396zM756 995q2 6 8 9v-1q0 -9 -5 -9q-1 0 -3 1zM778 1016q1 4 4 6q6 0 6 -5v-2q0 -5 -6 -5q-4 2 -4 6zM799 1028q0 5 4 8q4 -2 4 -7v-2q-1 -4 -4 -5q-4 2 -4 6z M811 1035v2q0 5 6 5q4 -2 4 -6q-1 -6 -4 -6q-6 0 -6 5zM909 119q17 0 39.5 13t22.5 28v14l-62 -47v-8zM917 1266q2 2 6 2h2q5 0 5 -2v-1q-1 -3 -6 -5q-7 2 -7 6zM965 387q407 377 407 750v73q-66 80 -289 80q30 -71 30 -158q0 -41 -3 -90q65 -65 68 -106v-57 q0 -217 -213 -492zM1030 1384q6 -6 6 -14q7 -14 41 -65l41 2h-20q16 4 65 4q4 0 86 -17q48 -10 88 -10h9q-48 107 -228 107h-45q-18 0 -43 -7zM1073 635q1 -4 4 -6q4 2 4 6q0 5 -4 6q-4 -2 -4 -6z" />
<glyph unicode="R" horiz-adv-x="1497" d="M72 903q0 64 84 182q203 287 481 287q102 0 162 -26q7 -3 44 -29q28 -19 48 -19q38 0 114.5 10.5t114.5 10.5q95 0 207 -21q14 -3 63 -19q39 -13 64 -13q55 30 100 47h7q2 -2 8 -6v-9q-35 -17 -82 -47v-6q24 -12 35 -12q7 0 143 45q88 29 147 29q136 0 230 -47 q8 -4 8 -35l-53 14l-8 -6h-234q-58 0 -180 -41l-6 -6q80 -99 80 -201q0 -248 -422 -375q33 -57 33 -186q0 -51 -27 -148.5t-27 -148.5q0 -19 33 -12l-6 -6h14q72 0 148 120h8q0 -69 -94 -118q-43 -19 -97 -48q-1 -22 33 -22q51 0 130.5 81.5t164.5 172.5h16q0 -17 -32 -49 q-58 -61 -176 -178q-58 -54 -109 -54q-60 0 -105 62q-42 56 -42 119v20q0 14 2 21q67 238 67 307q0 32 -13 50q-2 3 -36 38h-6q-25 0 -73 -96q-30 -62 -60 -125q-45 -72 -262 -263q-181 -159 -387 -159q-68 0 -136 28q-86 36 -86 93v112q0 68 58 68q84 0 84 -33 q-15 -16 -27 -27l-2 -4q13 -18 27 -35q7 -13 7 -43q0 -65 210 -65q114 0 151 33q78 70 101 106q38 60 82 127q35 54 131 238q37 74 114 219q93 162 289 354q-92 107 -321 107q-43 0 -86 -6v-3l-2 -2q55 -56 55 -305q-6 -20 -19 -53q-70 -174 -180 -287q-151 -155 -348 -155 q-90 0 -143.5 55t-53.5 145q0 156 101 283q199 251 516 348q-66 60 -209 60q-333 0 -526 -383q-14 -29 -39 -60zM236 68q0 -54 94 -54q106 0 233 68h-2q-30 0 -90 -14.5t-90 -14.5q-92 0 -145 21v-6zM256 659q0 -90 37.5 -130t126.5 -40q158 0 272 134h-4q-20 0 -57.5 -10.5 t-57.5 -10.5q-101 0 -172 57q-77 61 -77 160q0 37 6 72q-34 -24 -56 -107q-18 -68 -18 -125zM422 811q0 -31 2 -47q3 -26 28.5 -57.5t49.5 -44.5q38 -20 105 -20q12 0 24 1l-13 -6h13q192 0 248 328q37 12 37 76q0 38 -3 46l-4 92q-9 66 -43 66q-92 0 -243 -104 q-201 -139 -201 -330zM451 90q0 2 2 2h1q3 0 3 -2q-1 -5 -4 -6q-1 2 -2 6zM840 1256q0 -5 6 -5q4 1 4 5v3q0 5 -4 7q-6 0 -6 -8v-2zM905 1272h49q23 0 39 14h-14q-31 0 -74 -14zM1026 1292q87 -6 227 -32q133 -50 127 -50q15 0 33 29q-92 53 -301 53h-86zM1145 668 q13 0 39 5t39 5l4 -2l-33 -12h12q105 0 174 79q-81 -47 -100 -47q102 53 136 139q11 27 11 35v58q0 82 -26 151q-150 -125 -254 -403v-2zM1200 604q6 -16 21 -35v15q0 20 -15 20h-6zM1221 705h12v-9h-1q-9 0 -11 9zM1239 685q1 3 5 3h3q3 0 6 -3q0 -5 -8 -5q-6 2 -6 5z M1247 971q39 46 121 135h-8q-33 -32 -65 -64q-27 -30 -48 -71zM1260 649h8q22 0 59 21h-6q-19 0 -61 -21zM1262 689v2q0 5 6 5q4 -2 4 -6q-1 -6 -4 -6q-6 0 -6 5zM1343 211v1q1 3 3 3q5 -1 6 -4q-2 -1 -6 -2q-3 0 -3 2zM1386 1059h9v-8zM1413 1186h8q31 0 39 20l-2 4l-4 2 h-4q-10 0 -37 -26zM1434 1165l45 23l2 4h-6q-17 -7 -41 -21v-6zM1466 1143l2 -4q27 -45 66 -142v45q0 117 -39 117q-3 -1 -29 -16z" />
<glyph unicode="S" horiz-adv-x="1440" d="M143 420q0 183 149 309q136 115 326 133q-88 96 -88 207q0 163 161 263q139 85 313 85q190 0 364 -121q44 47 133 138q80 77 168 77q80 0 80 -122q0 -65 -47 -160v-6q0 -10 20.5 -54t20.5 -67q0 -95 -60 -160q-61 -68 -155 -68q-70 0 -115 62q-36 -17 -100 -62 q90 -217 90 -331q0 -155 -106 -285q-98 -122 -250 -178q-111 -41 -154 -41h-295q-172 0 -307 103q-148 111 -148 278zM197 373q0 -125 120 -216q111 -85 240 -85h21q-30 17 -70 34q-104 44 -175 141.5t-71 207.5q0 71 41 180q-106 -94 -106 -262zM365 451q0 -70 20 -117 q176 -55 262 -55h66q30 0 65 14q-152 21 -221 166q2 123 70 123q55 0 92 -15v-14q-62 -69 -62 -84v-20q0 -110 136 -110q12 0 26 1l-14 -6h10q68 0 117 43h-19q101 84 101 194q0 67 -35 121q-38 57 -100 76q-31 10 -72 18q-84 17 -111 17q-47 0 -73 -2q-114 -9 -190 -125 q-68 -104 -68 -225zM397 303q0 -17 33 -63q120 -168 293 -168q344 0 577 454v86q0 61 -67 215q-7 15 -12 15q-39 0 -96 -24q-81 -34 -93 -38q73 -89 68 -118l14 6v-52q0 -197 -147 -270q-190 -94 -314 -94q-129 0 -256 55v-4zM397 709q2 -1 6 -2q9 0 9 14l-2 1 q-13 -5 -13 -12v-1zM578 1100q0 -135 105 -198q28 -17 42.5 -20t42.5 -7q2 0 109 -25q65 -16 110 -16q26 0 166 28l14 12q12 30 27 80l12 117q8 78 47 105q-20 -46 -20 -107q8 40 56 105q53 72 65 102q-142 121 -365 121q-147 0 -269 -74q-142 -86 -142 -223zM592 67 q0 -1 2 -6q4 1 4 7q0 2 -4 2q-2 -1 -2 -3zM627 72q1 -4 4 -6q6 0 6 5v2q0 7 -6 7q-4 -3 -4 -8zM791 46q1 0 2 -1q4 -4 18 -4h10q13 0 19 4q-1 2 -6 2h-39q-2 0 -4 -1zM879 66h14q104 0 219 69q120 71 156 164q-155 -155 -190 -155q-3 0 -5 1q-94 -49 -194 -79zM881 358 q0 6 4 9q6 0 6 -8v-2q0 -5 -6 -5q-4 2 -4 6zM895 367q1 4 4 6q4 -1 4 -5v-2q-1 -5 -4 -6q-4 2 -4 7zM1008 439q0 -5 6 -5q4 2 4 6q-1 4 -4 6q-6 0 -6 -5v-2zM1020 454q3 2 6 7v6zM1270 1202q1 4 4 6q4 -2 4 -6q0 -5 -4 -6q-4 2 -4 6zM1300 922h21l80 41v6q0 7 -3 21.5 t-3 21.5q0 63 73 63q9 0 34.5 -3t39.5 -3l33 33q21 27 65 80v14q0 13 -32 33q-44 28 -111 28q-45 0 -76 -8q22 -24 66 -73l8 -13v-4l-2 -4h-6q-29 25 -82 76q-14 -12 -19 -23q-12 -26 -49 -132q-37 -109 -37 -122v-32zM1427 1282h7q5 2 14 8h-7q-11 0 -14 -8zM1440 1305 l2 -2q37 8 55 8q49 0 172 -68h2l4 -2l6 2q41 72 41 148q0 94 -61 94q-49 0 -135 -66.5t-86 -113.5zM1487 975q0 -35 74 -66l10 -13l-2 -1h4q59 0 96 54q33 48 33 110q0 74 -41 104q-117 -114 -174 -174v-14z" />
<glyph unicode="T" horiz-adv-x="1354" d="M143 393q0 154 79 258q55 72 165 138q18 9 51 28l6 6q0 5 -3 14t-3 13v29q0 74 51 140q30 39 109 105q25 21 41 21q-3 -2 -88 -86q-6 -9 -21 -27q76 76 121 101q7 4 148 81q229 125 436 125h180q33 0 99 -1t99 -1q115 0 229 16q112 16 112 18q0 1 -4 1q8 0 14 -6v-2 q0 -26 -94 -92h22q66 0 199 35v-47q0 -19 -35 -34q-29 -12 -53 -14q-45 -7 -133 -14h-53q-54 -1 -162 -4q-67 -2 -53 -2q-9 -8 -46 -8q0 12 -6.5 13.5t-89.5 8.5q-180 13 -403 13q-126 0 -188 -15q-98 -24 -155 -97.5t-57 -166.5q0 -109 80 -146q22 -10 29 -10h53 q209 0 209 134q0 94 -55 94q-23 0 -94 -33v2q0 10 55 51h-41q49 27 70 27q84 0 118 -27q34 -28 34 -93q0 -10 -1 -21q64 55 166 221q8 -2 8 -13t-8 -28q-162 -342 -467 -434q21 -56 21 -123q0 -140 -88 -234q-90 -98 -228 -98q-67 0 -160 39q-22 -17 -22 -51l2 -9 q81 -97 180 -100q16 0 87 -4q54 -2 87 -2q64 0 155 52q82 47 132 102q-181 -135 -250 -136l-4 2q138 60 195 113q104 97 180 254q52 110 157 328q90 184 211 295v-7q-30 -42 -79 -127q7 4 49 60q72 97 151 158q5 4 47 4q-6 -6 -65 -60q-40 -36 -55 -69l-275 -594 q-97 -209 -278 -335q-188 -132 -412 -132q-190 0 -299 107t-109 296zM176 352q0 -162 111 -253q103 -85 268 -85q87 0 183 27q116 34 155 88q-164 -76 -313 -76q-202 0 -308 86q-43 35 -43 82q0 74 74 74q25 0 125 -45q31 -14 94 -14q126 0 206 86q79 83 79 210 q0 80 -29 125l-27 -1h-10q-164 0 -260 96q-24 0 -78 -29q-227 -121 -227 -371zM539 862q0 -21 12 -24q36 -7 108 -27v6q-10 16 -20 47q-8 19 -8 33v37q0 74 61 184q4 7 6 15q-7 -5 -20 -15q-51 -40 -91 -99q-48 -70 -48 -124v-33zM596 760q0 -27 49 -47q41 -17 74 -17h26 q-51 64 -149 64zM772 731q14 -13 29 -41q71 0 125 33q-131 0 -148 8h-6zM840 1212h12q9 0 127 31h-27l82 12h473q-15 8 -39 11q-184 20 -194 20h-84q-221 0 -350 -74zM1047 864q14 8 14 31v10zM1376 944q1 -4 4 -6q6 0 6 5v2q0 5 -6 5q-4 -2 -4 -6z" />
<glyph unicode="U" horiz-adv-x="1729" d="M127 625q0 262 191 486q199 235 456 235q42 0 117 -16q82 -17 117 -19q61 -2 176 -19q151 -44 151 -291q0 -122 -100 -284l-274 -443q-62 -100 -62 -151q0 -49 121 -49q-51 -21 -166 -21q-18 17 -47 27q-14 -4 -14 -57q0 -50 51 -50t115 34q61 32 96 73l-8 8 q116 71 215 180q2 2 16 27q21 38 91 123q10 10 26 31l489 808q0 4 21 7q167 24 180 24l-696 -1100q-41 -65 -41 -100q22 -8 51 -8q36 0 63 14q73 39 174 121v-8q0 -9 -14 -19l-108 -74q-62 -39 -117 -56q-21 -3 -62 -11q-8 -2 -8 -24q0 -50 41 -50q58 0 189 121 q73 74 147 148h14l-2 -4v-5q-127 -146 -157 -175q-114 -111 -191 -111q-86 0 -86 127q-47 22 -47 67q0 25 27 74q-101 -82 -202 -163q-141 -105 -224 -105q-49 0 -77 38q-26 35 -26 85q0 151 133 352l328 496q13 19 27 53q2 4 2 41q0 95 -49 166q-55 79 -146 79h-14 q53 -75 53 -170q0 -200 -145 -357q-149 -161 -347 -161q-125 0 -163 98q-21 54 -21 205q0 84 62 172v-8q0 -8 -10.5 -31.5t-10.5 -33.5v-35q18 50 75 129q65 92 99 92q-53 -57 -94 -121q193 178 348 236h-6q-17 0 -49 -10.5t-49 -10.5l90 43h-19l33 17q-33 8 -86 8 q-248 0 -430 -219q-134 -161 -177 -360q-5 -32 -15 -97q-3 -19 -25 -18zM391 1219q44 29 47 32l2 -4v-6q0 -22 -42 -22h-7zM426 723q0 -50 41.5 -85.5t91.5 -35.5q53 0 100 21q-149 22 -233 106v-6zM479 913q0 -148 68 -188q46 -27 207 -27v-12q30 0 105 86.5t75 118.5v18 q-13 -35 -41 -80v5q0 12 4 34.5t4 34.5q0 78 -35 101q-5 0 -15.5 1t-16.5 1q-39 0 -134 -62q7 34 80 80h-14q-16 0 -33 -6q26 39 86 39q133 0 162 -94h6q35 79 35 182q0 37 -19 75q-22 46 -55 46q-105 0 -282 -127q-187 -134 -187 -226zM618 1171q1 3 5 5q3 -2 4 -5l-4 -4z M711 1005q2 5 7 7l2 -2v-4l-1 -2l-3 -2q-3 1 -5 3zM762 702q0 5 4 7q6 0 6 -6v-2q0 -5 -6 -5q-4 2 -4 6zM1364 74q1 -4 4 -6q6 0 6 5v2q0 5 -6 5q-4 -2 -4 -6z" />
<glyph unicode="V" horiz-adv-x="1225" d="M111 866q0 202 180 357q173 149 379 149q105 0 156 -29q31 -18 51 -58q17 -35 36 -40l199 -55l129 129q55 55 123 55q48 0 67.5 -44t30.5 -44v-6l-43 -63q-20 -29 -79.5 -79.5t-84.5 -93.5l-495 -856q-21 -36 -21 -59q24 7 134 106q106 96 128 127q38 57 116 170 q163 231 300 388l6 21q-87 -89 -233 -273q-15 -20 -49 -58v6q9 16 69 92q55 70 136 169q34 39 102 118q30 38 90 115q133 170 258 240q50 28 102 28q36 0 65.5 -24.5t29.5 -59.5q0 -71 -74 -71q-31 0 -62 41t-42 41q-55 0 -123 -68q-40 -39 -118 -121l9 8v-12q0 -13 -41 -52 q-27 -26 -55 -53q-4 -4 -35 -49q36 40 70 74v-47q-3 -4 -242 -283q-97 -113 -145 -192l20 20l367 435l2 -7v-8q0 -17 -8 -26l-682 -809q-51 -61 -129 -61q-9 0 -19 1q-51 -47 -100 -65h-27q-7 4 -7 9q0 1 1 3l80 86q-3 14 -3 28q0 37 53 128q38 64 77 129q13 21 33 63 l174 496q16 36 47 106l-6 6q-127 40 -190 119q-10 17 -32 49q-16 21 -131 21q-96 0 -174 -48q-90 -57 -90 -147q0 -67 47 -126q50 -62 115 -62q29 0 59 59l41 82q11 22 66 168h8q1 -4 6 -14v-2q0 -111 -94 -293v-6q19 3 70 20q44 15 71 15q-13 -8 -35 -29q57 14 114 59 q47 44 95 88v-2q0 -21 -20 -45q-130 -156 -336 -166q-127 -141 -260 -141q-99 0 -163 62t-64 161zM143 870q0 -174 152 -174q141 0 223 101q-201 61 -201 204q0 58 25 78v-61q3 2 10 6q62 105 78 125q42 55 109 96h-13q-4 0 -47 -12q26 55 262 55q0 51 -112 51 q-184 0 -335 -143t-151 -326zM340 1092q1 4 4 6q6 0 6 -5v-2q0 -6 -6 -6q-4 2 -4 7zM461 1225q0 5 4 8q4 -2 4 -8q-1 -4 -4 -6q-4 2 -4 6zM639 55q10 4 20 16v3zM748 98l18 -10q51 3 168 180zM793 891l4 4l3 -1q-1 -3 -3 -7zM819 911l41 39h6l-39 -39h-8zM934 1169 q0 -27 33 -59.5t61 -32.5q16 0 39 47v9q-43 14 -133 38v-2zM1047 784l200 287h-6q-3 0 -29 -9.5t-30 -10.5q-21 -4 -62 -13q-39 -31 -39 -141v-6q32 63 80 106q-32 -53 -64 -105q-50 -83 -50 -108zM1077 526q1 3 4 4q4 -1 6 -4q-2 -3 -6 -4zM1090 547l1 4q3 -1 7 -4l-4 -4z M1104 565q0 4 2 6q6 -2 6 -6l-3 -2l-4 -1q0 1 -1 3zM1120 584v6q4 4 8 6v-6q-3 -4 -8 -6zM1126 1075q48 0 113 24q78 30 78 68q-30 0 -88 -21.5t-88 -21.5q-13 -24 -13 -39zM1166 1014q2 5 6 6l2 -2q-2 -5 -7 -6zM1180 1190q53 0 114 35q50 34 101 67q20 13 20 17 q0 37 -49 37q-53 0 -104 -48q-16 -16 -76 -92q-6 -8 -6 -16zM1182 1038l1 1q3 -1 6 -5l-1 -2q-5 2 -6 6zM1237 1112q1 4 4 6q4 -1 4 -5v-2q-1 -3 -4 -5q-4 2 -4 6zM1243 1186q1 -4 4 -6q6 0 6 5v2q0 5 -6 5q-4 -2 -4 -6zM1257 1138v2q0 5 5 5q4 -1 4 -5v-2q-1 -3 -4 -5 q-5 0 -5 5zM1329 1212q78 35 86 74h-6q-80 -35 -80 -74z" />
<glyph unicode="W" horiz-adv-x="1597" d="M170 928q0 194 183 347q174 146 372 146q163 0 207 -88l61 -121q6 -13 52.5 -33t68.5 -20q17 17 90 113q39 52 96 95q70 54 121 54q74 0 74 -82q0 -16 -14 -51.5t-14 -50.5q0 -5 1 -10q-36 -32 -94 -101l-307 -491q-48 -75 -154 -246l-47 -89l-94 -177v-25q0 -51 35 -51 q19 0 33 14l139 142q22 22 96 119l119 155q45 58 289 416q127 187 233 293l-61 -53h-6q47 47 47 73q71 93 186 215h2q19 0 19 -20q0 -9 -80 -109q-17 -29 -54 -86q11 5 47 33q28 21 54 21l-6 -15q-9 -10 -40 -51q-44 -52 -122 -162q-4 -6 -6 -14q-73 -252 -215 -508 q9 5 110 141q201 270 461 461q220 162 467 162v-25h-57v-30q-186 -35 -312 -127q-344 -251 -522 -502l-274 -387q-49 -69 -127 -142v7l463 663q-59 -50 -117 -133q-99 -146 -311 -430l-2 2v4q0 6 8 14l-88 -86v7q28 37 80 132q56 105 61 136q-4 -4 -154 -275q0 -4 -1 -9.5 t-1 -8.5q0 -43 35 -49q-24 -21 -61 -21q-26 0 -49 18.5t-23 43.5q0 66 66 200q24 48 133 220l82 129q59 86 119 172q70 104 102 182l-6 -8l-422 -615q-57 -83 -121 -147l-133 -133q-68 -68 -127 -68q-39 0 -72 22q-37 24 -37 62q0 32 21 70l129 236q22 35 65 118l58 163 l116 327q11 25 33 73v2q0 27 -80 31q-147 68 -207 68q-20 -193 -147 -355q7 -2 39 -2q21 0 63.5 7.5t63.5 7.5l-12 -13q49 3 103 50l83 83h8v-14q-164 -193 -400 -193q-15 0 -30 1q-82 -62 -172 -62q-101 0 -160 70q-55 65 -55 168zM197 928q0 -185 170 -185q63 0 125 35 q-26 14 -74 47q-80 64 -80 174q0 62 39 93v-7q0 -11 -3 -33t-3 -34q59 135 215 188h-47q93 35 245 35q33 0 68 -2q-66 147 -172 147q-174 0 -327 -141q-156 -144 -156 -317zM418 1001q0 -112 133 -170h4q33 0 99 105q53 83 77 143q8 20 22 62t13 45q-28 6 -88 6 q-124 0 -214 -79q-13 -11 -34 -34q-12 -18 -12 -78zM440 1159q1 4 4 6q5 -1 5 -5v-2q0 -5 -5 -5q-4 2 -4 6zM459 1170v3q0 7 6 7q4 -2 4 -8v-2q-1 -5 -4 -5q-6 0 -6 5zM473 1178q0 5 4 8q6 0 6 -7v-2q0 -6 -6 -6q-4 2 -4 7zM487 1185v2q0 5 5 5q4 -1 4 -5v-2q-1 -3 -4 -5 q-5 0 -5 5zM500 1192q0 5 4 8q6 0 6 -7v-2q0 -5 -6 -5q-4 2 -4 6zM518 1200l2 2q4 0 4 -2l-4 -4zM818 855q1 1 3 1q4 0 6 -2l-6 -6l-2 3zM952 209v6q6 8 21 21v-7q-6 -14 -21 -20zM993 256v6q4 5 13 14l2 -2v-2q-4 -6 -15 -16zM1020 289v6l213 295l2 -2v-2l-2 -2 q0 -16 -97 -147q-93 -126 -116 -148zM1069 750q1 -5 4 -7q4 1 4 6v2q0 6 -4 7q-4 -3 -4 -8zM1079 764q9 5 269 369q-23 0 -48 -21v6q-48 -33 -118 -33h-15q-5 -5 -34 -114q-28 -102 -33 -127q8 6 180 235zM1188 1145q16 0 49.5 4t50.5 4l-14 -8h10q14 0 23 8l-7 6 q54 23 107 86h8v-6l-53 -53q44 14 76 63q30 46 30 94q0 52 -51 52q-94 0 -196 -176q-33 -57 -33 -74zM1243 606q0 4 2 6q3 -1 6 -6l-2 -2l-4 -1zM1257 627q1 3 5 4l3 -5q-3 -2 -6 -3zM1270 647l4 4q4 -1 6 -4q-3 -3 -6 -4zM1284 668l2 3q3 -1 6 -3l-4 -4zM1286 1094q2 5 6 7 l2 -1q-2 -6 -6 -8zM1296 686q0 4 2 6q3 -1 7 -6l-3 -3l-4 -1zM1704 758q1 -4 4 -6q6 0 6 5v2q0 5 -6 5q-4 -2 -4 -6zM1729 1118q34 35 34 56q-15 0 -34 -56z" />
<glyph unicode="X" horiz-adv-x="1626" d="M143 736q0 126 101 308q90 163 229 263q154 112 326 112h32q30 0 80 -14q6 -2 33 -13q18 -8 35 -8q18 0 53 4.5t53 4.5q146 0 201 -121q35 -78 41 -248q352 369 588 369q121 0 121 -131q0 -202 -375 -377q-184 -86 -358 -139q-18 -4 -50 -15q-18 -8 -47 -88 q-73 -198 -73 -455q3 -11 9 -24q28 -62 77 -62q27 0 67 39l180 174l9 -6v-6q-16 -18 -48 -53l-108 -109q-15 -11 -31 -22q-20 -14 -20 -29q22 0 65 13.5t66 13.5l2 -2l-21 -19h2q28 0 84 39q183 127 183 301q0 2 -1 7t-1 8q-11 -34 -39 -101v2q0 13 3 40t3 40q0 107 -47 137 q-6 0 -19 1t-20 1q-88 0 -127 -82h-15q15 43 68 101h-35q37 47 107 47q162 0 162 -164q0 -145 -127 -287q-130 -145 -273 -145q-15 0 -45 4t-45 4q-16 0 -47 -10t-47 -10q-86 0 -113 75q-5 14 -39 146q-155 -133 -273.5 -177t-322.5 -44q-71 0 -121 30q-59 36 -59 103 q0 84 55 153q102 128 299 215q94 42 353 123q66 21 131 39q22 6 65 19q14 6 21 12l47 94v68q0 104 -9 144q-16 73 -73 122q-15 -98 -52 -170q-25 -48 -102 -150q-85 -113 -118 -142q-70 -60 -170 -60q-106 0 -183 58q-84 64 -84 167q0 129 62 205v-4q0 -21 -13.5 -67 t-13.5 -97q49 242 275 360l-4 2h-5q-11 0 -33 -10t-32 -10l-4 -2v2h-4q56 31 126 48q26 3 62 11q50 29 154 74q6 2 6 6q-35 21 -137 21q-194 0 -354 -139q-138 -120 -224 -316q-27 -98 -67 -207q-7 2 -7 5zM276 172q0 -46 43 -79q40 -32 87 -32q138 0 319 181q95 95 128 131 q69 74 116 141q43 57 104 164h-10q-18 0 -64 -14q-243 -74 -327 -106q-179 -70 -299 -165q-68 -54 -82 -96q35 -16 53 -14q29 -9 29 -66q-9 0 -26.5 6t-27.5 6q-43 0 -43 -57zM436 901q0 -41 8 -63q11 111 83 215q49 69 157 172h-2q-19 0 -64 -27q-182 -109 -182 -297z M477 844q0 -115 105 -115q145 0 270 141v31q0 72 -59 72q-30 0 -61 -27q-24 -24 -48 -49q14 51 61 94h-10q-18 0 -43 -20q31 41 92 41q112 0 142 -54q35 25 67.5 96t32.5 117q0 76 -229 76q-53 0 -113 -55q-207 -190 -207 -348zM498 49l2 -4q2 2 4 5q0 2 -2 3zM518 55h21 q166 0 370 203q19 17 49 57l-139 -112l53 59q-69 -54 -172 -117q-120 -73 -182 -90zM565 684q17 -8 45 -8q66 0 115 20l-20 -18h4q41 0 89 34t68 72h-8q-121 -92 -293 -100zM678 1260q1 -3 4 -5q1 2 2 5v2q0 1 -2 2zM733 701v3q0 7 6 7q4 0 4 -8v-2q-1 -5 -4 -5q-6 0 -6 5z M768 168q0 5 4 8q4 -2 4 -7v-2q-1 -4 -4 -5q-4 2 -4 6zM791 183q7 16 14 14q1 -2 1 -7q0 -8 -13 -8zM838 1298q14 -7 92 -21q73 -13 90 -13h2q0 47 -57 88q-41 -6 -127 -54zM879 905q6 0 6 6q0 10 -6 13v-19zM999 1352q19 -37 60 -107q8 -13 43.5 -33t44.5 -34 q46 -71 92 -160q21 49 21 137q0 119 -55 168q-52 45 -171 45q-28 0 -35 -16zM1018 160q0 -105 82 -105q28 0 53 6q-102 56 -127 154q-8 -18 -8 -55zM1022 1256q1 -3 4 -5q4 1 4 5v2q0 6 -4 8q-4 -3 -4 -8v-2zM1266 764l336 121q141 51 248 145q132 117 132 242v41 q-18 47 -73 47q-158 0 -322 -189l142 68q-39 -24 -115 -74q-165 -113 -301 -315q-15 -27 -47 -80v-6zM1755 1245q8 15 29 15h10q-16 -15 -33 -15h-6zM1829 1272l2 2h20q4 0 4 -2q-4 -4 -12 -4h-4q-6 0 -10 4z" />
<glyph unicode="Y" horiz-adv-x="1808" d="M127 -53q0 191 167 321q154 121 351 121q224 0 332 -147q12 -17 33 -56l4 -2l2 -4h8q20 17 59 53q14 62 23 119q3 22 10 62q23 83 111 211q61 89 123 177q75 123 75 206q0 149 -211 149q-210 0 -428 -162q-19 -13 -53 -43l-4 -2v-24q0 -95 63 -160.5t158 -65.5 q126 0 201 136q47 86 47 118q0 36 -43 64q-38 26 -76 26q-42 0 -116 -69l-7 2q13 41 80 90h-26q22 16 80 16q68 0 115 -23q6 -3 20 -9l2 -2l4 2l6 12h4q37 -68 37 -127q0 -67 -49 -125q-160 -190 -249.5 -243.5t-203.5 -53.5q-209 0 -209 170q0 99 47 166q10 12 23 47 q1 22 4 66q10 81 88 147v-6q-41 -85 -41 -100q111 190 316 266h-11q-9 0 -25.5 -3t-25.5 -3q68 41 193 41q181 0 300 -92q130 -101 130 -277t-140 -372q-79 -109 -274 -304v-27q145 -20 156 -20q28 0 121 70q89 67 110 98l369 561q111 169 393 363q5 4 14 6l2 -8v-9 q0 -34 -90 -98q0 -27 -6 -33q-15 -8 -41 -26q-40 -36 -86 -113v-8l121 94h10q0 -24 -18 -41q-97 -92 -133 -132q-61 -70 -107 -155l-369 -682q-72 -132 -163 -221q-28 -26 -217 -180q-35 -32 -107 -94q-74 -58 -224 -98q-135 -35 -245 -35q-165 0 -276 110q-12 13 -37 37 q-14 9 -41 27q-160 121 -160 301zM180 -111q0 -168 142 -237q8 74 86 74q28 0 41 -21q-70 -10 -70 -55q0 -4 1 -12t1 -13q34 -53 260 -53q233 0 383 82t272 278q76 122 127 222q-69 -56 -106 -60q-6 32 -33 27l-20 39q-17 -6 -60 -6q-37 0 -100 41q-55 0 -80 -41v-22v-11 q0 -165 -113 -262q-110 -95 -288 -95q-140 0 -162 41l8 9h2q27 0 81 -11.5t81 -11.5q133 0 240 78.5t116 214.5q2 30 2 22q0 21 -14 21l-62 -41l62 61v9q0 80 -109 124q-84 35 -178 35q-202 0 -349 -110q-161 -120 -161 -316zM393 -418q1 -4 8 -10q86 -74 326 -74 q75 0 188 37q126 41 162 90h-8q-58 -39 -86 -39v6h-6l-107 -26q-110 -21 -227 -21q-102 0 -248 41v-4h-2zM594 692q0 -66 40.5 -105.5t106.5 -39.5q164 0 254 108q-182 6 -275 77q-25 20 -32 30q-12 34 -47 88q-47 -72 -47 -158zM678 989q1 -4 4 -6q4 2 4 6q0 5 -4 6 q-4 -2 -4 -6zM735 989q266 195 471 195q99 0 185 -47v6q-7 13 -13 20q-91 94 -241 94q-136 0 -249 -65q-129 -73 -153 -197v-6zM965 -420q1 4 4 6q6 0 6 -5v-2q0 -7 -6 -7q-4 3 -4 8zM1016 207l20 20q1 -2 2 -6q0 -14 -18 -14h-4zM1016 696l4 -4q3 2 4 4l-4 2zM1016 1278 q2 -3 4 -4q3 2 4 4q-2 3 -4 4zM1036 702h6q4 2 9 7zM1088 209q2 -3 4 -3q3 1 5 5v3l-2 1l-4 -2zM1145 218q0 -5 6 -5q4 2 4 6q0 6 -4 8q-6 0 -6 -7v-2zM1155 203q0 -25 53 -25h31q0 25 -60 25h-24zM1178 322q90 78 212 278l-1 -2l-5 -2q-14 -18 -41 -55q-11 -16 -90 -104 q-55 -62 -75 -115zM1184 788q55 41 55 105v16q0 2 -1 7t-1 8zM1286 502q1 -4 4 -6q4 2 4 6q0 5 -4 6q-4 -2 -4 -6zM1331 186l21 -18l100 100h-8q-52 -33 -113 -82zM1364 160l6 -6h8l80 79h-20zM1393 614q1 -4 4 -6q6 0 6 5v3q0 7 -6 7q-4 -3 -4 -9zM1393 1130q1 -4 4 -6 q6 0 6 5v2q0 6 -6 6q-4 -2 -4 -7zM1815 762q1 -4 4 -6q4 2 4 6q0 5 -4 6q-4 -2 -4 -6zM1825 776q17 11 26 39q-14 -8 -26 -39zM1866 850q129 174 248 293q-170 -117 -248 -293z" />
<glyph unicode="Z" horiz-adv-x="1464" d="M186 154q76 172 250 266q161 88 359 88q28 0 84 -7t84 -7q10 0 14 4q9 10 49 61l90 117v10h-33v19h-28v4q0 1 2 6q11 35 26 35h60q58 81 162 245q26 47 53 74v8q-42 40 -144 92q-228 117 -387 117q-7 0 -18 -8q-256 -191 -256 -387q0 -50 55 -88q50 -35 103 -35 q20 0 58 14.5t58 14.5l2 -2q-14 -8 -41 -27h5q57 0 113.5 52.5t56.5 109.5v12l-33 -53q0 9 1.5 28.5t1.5 29.5q0 97 -59 97q-18 0 -54 -14t-58 -14q14 18 47 41h-6l-41 -15h-14q55 41 114 41q154 0 154 -106q0 -57 -39 -107q-110 -141 -262 -141q-16 0 -47 3t-47 3 q18 -26 108 -26q142 0 262 166q92 127 139 294h9q0 -189 -100 -336q-114 -165 -294 -165q-110 0 -172 61q-100 99 -101 100q-52 63 -52 127q0 129 115 222v-9l-48 -86v-6q33 56 102 117q80 70 132 70q-83 -44 -141 -119q-66 -84 -66 -168v-31q0 -14 6 -31q17 41 23 70 q1 9 4 25q36 129 215 260l-6 8q82 38 164 77q94 38 176 38q191 0 295 -205q8 -16 20 -37q13 -10 29 -23q2 0 125 115q-8 -3 -35 -19q-22 -14 -33 -14q78 80 109 80l6 -12q160 106 264 106q111 0 111 -84q0 -97 -126 -179q-105 -68 -216 -85q-81 -12 -168 -20 q-24 -22 -50 -53l-94 -112q-20 -22 -57 -69q-14 -22 -12 -32l12 -9l61 -18v-8q0 -39 -100 -39l-162 -248v-10q43 -105 43 -168q0 -3 -1 -8.5t-1 -8.5q-15 58 -24 86q-21 61 -43 74q-95 -123 -220 -213q9 -7 27 -14q108 -39 180 -44q10 -1 201 -1l-14 -8h10q98 0 185 80.5 t87 177.5v22q-28 -39 -35 -71q5 37 5 56q0 91 -68 91q-37 0 -117 -90q0 35 53 108h-4q-27 0 -69 -59v2q0 38 48 69q43 29 83 29q77 0 105 -18q38 -24 38 -96q0 -79 -39 -133q-89 -125 -191 -172q-93 -43 -253 -43q-39 0 -152 14q-24 3 -89 20q-55 15 -89 15q-34 -8 -100 -27 q-35 -12 -213 -63l-64 -19q-168 0 -168 148zM227 100q19 -67 125 -67q47 0 88 14q-96 6 -207 53h-6zM240 207q94 35 155 35q46 0 135.5 -15.5t135.5 -15.5q5 0 17 1t19 1q19 11 181 174q26 26 53 68v6q-51 20 -158 20q-268 0 -450 -168q-74 -68 -88 -106zM299 150 q0 -20 69 -37q58 -15 91 -15q119 0 149 41q-11 20 -96 33q-65 10 -111 10h-34q-6 0 -17 -1t-16 -1q-35 -14 -35 -30zM604 740q1 -3 4 -5q4 1 4 5v2q0 6 -4 8q-4 -3 -4 -8v-2zM635 121l2 -4l4 4q-1 2 -4 2zM649 126q0 -5 6 -5q4 2 4 6q-1 6 -4 6q-6 0 -6 -5v-2zM735 1272 q0 2 2 2h1q3 0 3 -2q0 -3 -4 -6q-1 2 -2 6zM762 221l2 -2h4l61 21l-26 -27h2q100 0 205 209q-28 -33 -88 -94l61 106v6zM842 1296q17 1 35 1q156 0 360 -80v4q0 35 -47 89t-80 54h-51q-135 0 -217 -68zM1118 217l4 4q3 -2 4 -4q-2 -3 -4 -4zM1249 127l4 4l4 -4q-1 -3 -4 -4 q-3 2 -4 4zM1286 922q1 -5 4 -7q4 1 4 6v2q0 5 -4 7q-4 -3 -4 -8zM1296 936l9 6q28 38 79 115l-8 6h-2q-20 -18 -78 -127zM1376 977q16 15 41 47h-6q-14 0 -35 -47zM1470 1067q0 -18 64 -18q123 0 262 66q164 78 164 185q0 40 -23 51q-14 7 -59 7q-63 0 -154 -47 q82 -6 82 -49q0 -74 -134 -137q-116 -56 -202 -56v-2zM1505 1130h66l-12 -6l4 -2h6q51 0 109 30q67 34 67 79q-10 8 -27 8q-114 0 -213 -109zM1579 1136v2q0 5 6 5q4 -1 4 -5v-2q-1 -6 -4 -6q-6 0 -6 6z" />
<glyph unicode="\" horiz-adv-x="788" d="M545 -32l136 1431q13 -6 39 -21q5 0 4 -7l-131 -1412q-24 -14 -29 -9q-6 7 -19 18z" />
<glyph unicode="^" horiz-adv-x="811" d="M233 701q25 6 75 20q131 42 216 158q13 5 17 4l6 -10q-10 -41 -10 -64q0 -94 116 -94l6 -10q-14 -17 -67 -17q-64 0 -105 68q-36 -26 -112.5 -47t-124.5 -21q-10 0 -17 13z" />
<glyph unicode="_" d="M145 -119q3 9 7 26h350q-4 -13 -14 -41q0 -6 -7 -6h-315q-23 15 -21 21z" />
<glyph unicode="`" horiz-adv-x="651" d="M242 1354q1 45 28 45q20 0 43 -76q24 -82 70 -106h2l2 -5v-8q-2 -5 -4 -8q-43 0 -88 37q-54 45 -53 121z" />
<glyph unicode="a" horiz-adv-x="737" d="M37 272v9q9 14 20 26q215 234 402 234q5 -5 25 -30q11 -4 14 -13h-5q29 -39 56 -39q28 0 52 33.5t36 33.5h100l-213 -333q-12 -18 -61 -123l2 -15q91 0 187 80q37 32 145 152h8v-21q0 -8 -195 -200q-61 -60 -123 -60q-37 0 -90 30q-57 31 -67 64q-39 -31 -77 -63 q-48 -33 -91 -33q-89 0 -111 93q-8 32 -8 163q0 -3 -6 12zM176 133q0 -51 27 -74h24q26 0 58 23q89 64 182 240q45 85 45 102q-1 3 -2 10q-35 39 -59 39q-79 0 -179 -131q-96 -126 -96 -209zM317 440l93 47l8 11h75l-9 13q-10 3 -25 3q-94 0 -142 -74zM352 473q1 4 4 6 q6 0 6 -5v-2q0 -5 -6 -5q-4 2 -4 6zM477 33q19 -2 21 -2q55 0 100 55q-80 -37 -121 -53z" />
<glyph unicode="b" horiz-adv-x="557" d="M-63 242q3 7 8 20q196 196 365 479q11 22 36 62q3 4 39 47q3 3 86 90q27 31 84 86q68 56 128 74q52 16 144 16q27 -16 27 -53q0 -36 -49 -121q-79 -136 -354 -346q-74 -51 -152 -107h86q16 -8 35 -8q7 0 21.5 20.5t31.5 20.5q47 0 47 -76q0 -208 -94 -290l4 -2h2 q55 0 168 114l6 -6v-8q-21 -23 -39 -57q-28 -53 -110.5 -108.5t-139.5 -55.5q4 3 172 110q16 9 43 31q-47 -29 -73 -39q-11 0 -37 -7q-12 -2 -38 -7.5t-73 -36.5q-145 -96 -223 -96q-111 0 -111 127q0 79 59 178q24 42 109 156l-200 -207h-8zM49 33q1 -1 17 -19h32 q90 0 115 33h-4q-27 0 -80 -7t-80 -7zM86 100q10 -39 47 -39q11 0 66 21q209 80 209 274q0 34 -17 62q-19 33 -51 33q-74 0 -168 -183zM147 460q1 -5 4 -5h2q5 0 5 5v2q0 7 -5 7h-2q-4 0 -4 -7v-2zM313 535q160 96 219 167l-219 -159v-8zM326 561q93 53 280 242 q142 144 142 256q0 18 -23 18q-18 0 -131 -114q-45 -46 -88 -113l-43 -68q-60 -88 -137 -221zM340 70q0 1 2 2l4 -4q-1 -3 -4 -5q-1 2 -2 7z" />
<glyph unicode="c" horiz-adv-x="528" d="M8 274q170 261 395 261q121 0 121 -97q0 -78 -73 -78q-68 0 -68 33h-21q54 36 60 62l6 -6q8 0 14 6q-14 20 -49 20q-107 0 -193 -125q-79 -114 -79 -227q0 -70 82 -70q73 0 153 60q8 7 27 20h6q-65 -80 -227 -106h37q101 0 175 65q41 37 118 150q28 41 73 41 q0 -18 -22 -43q-210 -240 -359 -240q-106 0 -137 86q-16 45 -16 176q-23 0 -23 12zM322 475q36 12 69 12q12 0 34 -7t34 -7q0 35 -43 35q-74 0 -94 -33zM432 184q1 2 3 2q1 0 5 -2q-2 -3 -4 -4z" />
<glyph unicode="d" horiz-adv-x="715" d="M20 254q74 106 175 174q116 80 229 80h51q29 0 53 -47l287 491h53l80 138h41v-121l-475 -781q-20 -41 -59 -120v-15h12q4 3 82 41q53 26 113 113v-2q0 -47 -67 -97q-52 -40 -110 -61q-24 -9 -30 -20q1 -7 6 -7q81 0 147 66l174 174h15v-2q-3 -9 -39 -49 q-191 -215 -295 -215q-20 0 -78 32t-63 48q-107 -80 -179 -80q-111 0 -111 175q0 25 3 64q-15 -1 -15 21zM109 40q0 -5 6 -5q4 2 4 6q-1 6 -4 6q-6 0 -6 -5v-2zM119 35q0 -15 20 -15h52q11 0 16 7q-65 8 -73 8h-15zM139 119q0 -51 82 -51q60 0 86 38l-2 3q-12 -5 -31 -15 q66 75 193 293q2 3 2 14q0 33 -33 33q-93 0 -195 -110t-102 -205zM217 32q1 -3 4 -5q4 2 4 6q0 6 -4 8q-4 -2 -4 -7v-2zM360 461h134q-19 26 -45 26q-48 0 -89 -26z" />
<glyph unicode="e" horiz-adv-x="500" d="M20 287q0 9 15 26q215 240 383 240q98 0 98 -90q0 -95 -123 -163q-44 -24 -205 -81q-28 -10 -28 -61q0 -101 84 -101q59 0 124 51q61 47 87 105v-27q65 62 106 113h17q0 -12 -17 -33q-194 -248 -385 -248q-150 0 -150 218q0 17 1 36q-7 2 -7 15zM221 283q0 -11 21 -11 q18 0 53 21h-21q95 57 95 141q-40 0 -94 -55.5t-54 -95.5zM256 285q0 5 4 8q6 0 6 -7v-2q0 -5 -6 -5q-4 2 -4 6zM287 453q53 26 82 26h57q12 0 29 -6v21q0 32 -33 32q-68 0 -135 -73zM303 299q1 -4 4 -6q6 0 6 5v2q0 5 -6 5q-4 -2 -4 -6z" />
<glyph unicode="f" horiz-adv-x="426" d="M-297 -434q14 28 48 68q50 59 54 65q129 171 205 334q-14 22 -14 61q0 56 49 56h3q24 0 30 10l213 381l-254 -260q-6 0 -6 6q0 7 6 14l301 328q9 10 49 73q37 58 64 109q8 18 26 51q119 175 168 232q129 149 232 149q69 0 69 -90q0 -148 -201 -317l-313 -263 q-41 -34 -41 -55q0 -23 121 -24v-17h-141q-68 -112 -142 -241q-35 -59 -92 -177h6q77 0 180 91q74 76 148 151h12q0 -7 -32 -53q-9 -14 -33 -68q-20 -21 -64 -59q-134 -88 -151 -88q-5 0 -8.5 3.5t-6.5 4.5l-50 -14l-13 -4l-7 -2l-1 -1l-273 -501q-16 -29 -123 -29v4 q6 20 23 51q-18 6 -18 21h-23zM465 635q101 84 202 169q172 151 173 185q-11 15 -68 15q-68 0 -136 -81q-22 -26 -91 -137q-30 -48 -80 -145v-6zM545 862q29 27 127 139q-80 -61 -127 -139zM571 922q129 141 232 141q13 0 38 -7t38 -7q34 61 34 131q0 37 -51 37 q-111 0 -225 -193q-6 -11 -66 -102zM680 1007q0 -6 6 -6q3 0 4 6v2q0 5 -4 7q-6 0 -6 -7v-2z" />
<glyph unicode="g" horiz-adv-x="627" d="M-254 -373q0 131 191 237q45 24 311 130q45 18 45 39q-14 0 -42.5 -6.5t-43.5 -6.5q-24 0 -70 13q-50 14 -67 28q-43 35 -43 183q0 9 3 26t3 25q0 6 -6 6q-5 0 -15 -3t-16 -3q0 26 115 127q166 147 317 147q35 0 74 -28q32 -26 63 -52h4l4 3q29 60 74 65q55 6 84 6 q0 -7 -297 -502h8q44 18 119 60v-6q8 3 16 15l-2 5l74 80v-6q-16 -28 -31 -45l52 51q10 9 31 35t61 65h10q0 -11 -55 -79q-140 -172 -309 -242l-181 -221q-66 -80 -171 -151q-123 -83 -206 -83q-104 0 -104 88zM-203 -383v-8q0 -43 60 -43q80 0 104 43h-129l-33 16 q-1 -3 -2 -8zM-168 -291q0 -55 35 -55h106q78 0 248 280h-6q-12 -3 -45 -14q-211 -68 -303 -151q-35 -32 -35 -60zM180 109q29 -29 37 -29q37 0 127 102q78 89 105 140q16 31 47 94q0 5 1 15t1 15q0 13 -84 13q-67 0 -166 -146q-68 -100 -68 -176v-28zM221 389q66 43 101 60 l-27 -27l86 47l-6 6q78 29 127 35q-10 33 -53 33q-62 0 -130 -50q-60 -44 -98 -104z" />
<glyph unicode="h" horiz-adv-x="756" d="M-63 -4q6 13 20 39l285 467q-43 -39 -117 -127.5t-115 -126.5v6q0 15 10 27q71 81 209 247q61 86 193 252q43 46 121 142q22 32 43 53l90 94v-6q-10 -19 -27 -47l101 80h-21q33 43 129 43q3 0 9.5 -1t9.5 -1q41 -15 41 -43q0 -120 -89 -211q-55 -59 -145 -148l-103 -78 l-206 -155q-8 -6 -13 -13l3 -14h4h-1q0 2 107 21q13 2 43 18q26 14 45 14q74 0 74 -96q0 -49 -27 -90l-147 -221q-24 -36 -21 -45l2 -6q35 0 82 39l2 -3q-13 -10 -39 -32q78 35 175 141v-8q0 -6 -13 -31q-54 -99 -215 -149v-4q82 0 127 45l217 215q4 -3 11 -9l-15 -20 q-21 -23 -62 -67q-27 -33 -83 -95q-93 -96 -185 -96q-27 0 -75.5 34.5t-48.5 59.5q0 33 87 160.5t87 181.5q0 23 -17 23q-24 0 -63 -39l-195 -195q-10 -10 -86 -137q-13 -21 -41 -45q-45 -37 -47 -39q-34 -4 -79 -4h-31zM242 281l168 168q-12 -3 -85.5 -76.5t-82.5 -91.5z M463 635q116 68 226 195q130 148 130 255q-74 0 -117 -49q-80 -91 -239 -401zM471 68q1 -5 4 -7q6 0 6 6v2q0 5 -6 5q-4 -2 -4 -6zM528 496q3 -2 47 -21l3 6v4q0 17 -19 17q-14 0 -31 -6z" />
<glyph unicode="i" horiz-adv-x="395" d="M45 254q0 40 229 268q18 0 56 3t57 3v-6q-69 -119 -203 -358q-24 -45 -24 -76q0 -20 14 -22q-13 2 33 2l-6 -7h2l2 -2q20 6 49 21l133 115h8l-47 -62l146 148h8q0 -12 -60 -78q-99 -109 -125 -132q-85 -75 -159 -75t-111 92v12q0 28 68 154q19 30 57 88l55 86q3 3 6 12 l-180 -186h-8zM133 27l8 -7q4 0 10 -1t9 -1q41 0 67 23h-6q-40 -6 -88 -14zM236 46q0 -5 6 -5q4 1 4 5v2q-1 3 -4 5q-6 0 -6 -5v-2zM334 635q0 33 57 33h17q34 0 34 -33q0 -41 -45 -41q-63 0 -63 41z" />
<glyph unicode="j" horiz-adv-x="487" d="M-395 -420q0 86 138 198q28 23 214 148q40 27 121 74l-2 2h-2q-18 -7 -51 -20h-3l-4 2l62 30q6 6 12 13l234 462q-48 -31 -220 -208h-10q0 39 191 208q19 21 59 54q20 12 123 12q4 0 4 -6q0 -3 -3 -9.5t-3 -11.5q7 -2 20 -6v-6q-68 -147 -235 -407v-7q89 0 141 52 q22 20 60 61v6l79 80h9l4 -2l2 -4q-10 -11 -21 -33q-30 -64 -98 -117q-41 -31 -123 -94q-28 -23 -92 -63q-14 0 -72 -72l-233 -287q-98 -121 -211 -121q-90 0 -90 72zM-342 -424v-27q12 -20 51 -20q57 0 90.5 32t85.5 89v6l-67 -35h-8q-66 0 -66 45q0 21 41 103 q-49 -23 -88 -81.5t-39 -111.5zM-195 -309q0 -23 33 -23q55 0 113 84q11 16 74 131q12 22 32 66h-6q-82 -42 -153 -106q-93 -84 -93 -152zM217 20q12 3 21 15q-8 -5 -21 -15zM246 41q1 -4 4 -6q6 0 6 5v2q0 5 -6 5q-4 -2 -4 -6zM442 676q0 41 70 41q53 0 53 -41 q0 -47 -53 -47q-70 0 -70 47z" />
<glyph unicode="k" horiz-adv-x="629" d="M-68 -35l254 490l-186 -240h-14v6q0 -9 6 15q80 99 218 302q28 38 77 117l233 455q10 20 109 20v-6l-39 -84h92q0 -25 -27 -69q-383 -631 -383 -656q0 -14 41 -14q81 0 162 148v4q0 4 -4 13t-4 13q0 25 68 25q94 0 94 -62q0 -36 -16 -45l-46 -12q-11 -3 -39 -31 q-127 -59 -194 -80v-2q3 -5 12 -14q41 -40 51 -61q11 -24 11 -76q0 -4 -3.5 -13t-3.5 -14q0 -20 29 -20q8 0 22.5 7t22.5 7l-14 -20q82 59 121 94v-15l44 60q34 43 50 43q0 -24 -82 -123q-75 -91 -107 -117q-55 -45 -96 -45q-50 0 -76 55q-15 33 -29 113.5t-26 102.5h-20 q-25 0 -33 -15l-94 -168q-30 -28 -76 -80q-21 -8 -105 -8zM184 457q2 -3 5 -3q3 1 5 5q-1 3 -4 6q-5 -4 -6 -8zM373 14q0 -10 8 -20h20q45 0 113 74q-26 -22 -64 -30q-34 -5 -69 -11q-8 -2 -8 -13zM436 342q1 -4 4 -6q4 2 4 6q0 5 -4 6q-4 -2 -4 -6z" />
<glyph unicode="l" horiz-adv-x="391" d="M-18 215v12l187 232q30 34 93 116l114 180l228 361l119 14l8 -6l-622 -1015q-7 -11 -7 -25q0 -31 29 -31q56 0 199 135h6q-29 -74 -110 -118q-71 -39 -158 -43v-11q0 -14 8 -22q21 -2 26 -2q72 0 154 82l174 174h8q0 -20 -39 -60q-120 -123 -138 -139q-95 -82 -171 -82 q-88 0 -88 96q0 74 96.5 228t96.5 151q-41 -36 -107 -113q-70 -81 -106 -114z" />
<glyph unicode="m" horiz-adv-x="1155" d="M27 238v14q118 134 136 152q96 92 169 92q80 0 86 -78h63v-35q113 113 185 113q64 0 64 -85q0 -10 -1 -20q9 -8 29 -8q14 0 59 25q42 23 51 20q88 68 142 68q63 0 63 -86q0 -57 -96 -191.5t-96 -185.5q64 8 192 143v-6q-9 -14 -26 -41q-41 -61 -140 -111h11q48 0 143 93 l151 147l9 -6v-6q-9 -16 -88 -94.5t-106 -99.5q-71 -56 -130 -56q-168 0 -168 59q0 16 31 78q16 23 46 68q41 63 95 157q2 16 2 17q0 26 -22 26q-101 -79 -285 -307q-25 -32 -80 -94q-35 -4 -81 -4h-32q7 15 21 43q22 34 64 103q57 96 135 235v6q0 19 -25 19q-49 0 -90 -31 q-10 -8 -49 -48q-113 -117 -215 -305q-13 -24 -172 -24v6l272 416q12 18 12 39q0 16 -24 16q-58 0 -103 -43l-198 -190h-4zM543 401h2q18 0 30 25h95q2 6 6 14v6q0 25 -27 25q-20 0 -57 -25.5t-49 -44.5zM643 195q63 61 191 202h-7q-47 -21 -98 -51q-5 -13 -39 -63 q-1 -2 -47 -88zM907 428q27 -6 80 -27q35 29 35 60q0 10 -25 10q-34 0 -90 -43z" />
<glyph unicode="n" horiz-adv-x="854" d="M47 233v15q33 42 186 201q57 59 127 59q43 0 56 -34t65 -34q7 -7 21 -18h2l4 -2q30 0 104.5 44t100.5 44q69 0 69 -86q0 -73 -80 -189q-100 -144 -114 -180q2 -6 4 -18q133 0 244 145h6l73 74h7q2 0 6 -2l2 -4q-15 -29 -27 -41l-174 -174q-60 -60 -125 -60q-29 0 -80 25 q-57 27 -57 51q3 10 6 21l176 299q2 3 2 18q0 35 -28 47q-23 0 -299 -303q-29 -47 -70 -111q-29 -8 -53 -40q-58 -9 -121 -9l268 410q12 25 35 72v4q0 24 -27 24q-55 0 -108 -53l-195 -195h-6zM395 254l160 160q-84 -35 -160 -160zM602 0h16q56 0 91 47zM635 449 q58 -9 74 -9q20 0 20 25q0 16 -22 16q-19 0 -72 -32z" />
<glyph unicode="o" horiz-adv-x="627" d="M43 250q0 19 16 37q220 248 412 248q115 0 115 -134q0 -110 -101 -235v-4q101 0 220 119l8 -7v-4l-4 -2q-19 -28 -79 -72.5t-92 -54.5q-10 -3 -85 -14q-138 -127 -244 -127q-125 0 -125 172q0 17 4 49.5t4 48.5q-15 -10 -49 -20zM174 38q1 -3 4 -5q4 1 4 5v2q-1 5 -4 7 q-4 -2 -4 -7v-2zM184 33l9 -6h22q100 0 123 41q-56 -35 -154 -35zM205 154q0 -86 78 -86q40 0 129 92q-29 -21 -86 -60q153 144 153 277q0 39 -26 63h-27q-83 0 -155 -103q-66 -96 -66 -183zM287 79v2q0 5 6 5q4 -1 4 -5v-2q-1 -3 -4 -5q-6 0 -6 5zM304 89l1 3q3 2 6 2l1 -4 l-1 -2l-3 -1l-3 1zM354 80q1 -4 4 -6q4 1 4 5v2q-1 3 -4 5q-4 -2 -4 -6zM387 479q1 -4 4 -6q6 0 6 5v2q0 7 -6 7q-4 -3 -4 -8zM520 486q0 -5 6 -5q4 1 4 5v2q-1 6 -4 6q-6 0 -6 -6v-2zM522 127q0 4 57 24z" />
<glyph unicode="p" horiz-adv-x="766" d="M-326 -535l652 1065q-27 -23 -76 -84q-23 -26 -68 -79q-40 -50 -125 -144l-6 6q109 136 322 410q43 62 127 186q4 3 49 12t51 9v-8q-2 -5 -41 -70q-55 -91 -160 -276l33 -15q107 27 180 27q68 0 68 -96q0 -91 -100 -212.5t-101 -170.5v-17q-1 -8 31 -8q63 0 111 49 l198 201q4 -1 8 -6q-7 -13 -67 -88q-148 -183 -260 -183q-37 0 -56 22q-8 8 -32 54q-62 -33 -111 -33q-19 0 -54 13.5t-54 13.5q-3 -3 -9 -6l-268 -477q-41 -21 -68 -21q-16 -14 -47 -67q-43 -7 -90 -7h-37zM244 102q0 -47 41 -47q61 0 115 46t89 100q18 28 41 92 q23 68 23 100q0 37 -41 37q-20 0 -59 -39l-127 -127q-82 -82 -82 -162zM311 285l154 145q-3 1 -8 2q-86 0 -146 -147zM539 49q120 19 209 162v-8q0 -10 -35 -53q-81 -101 -174 -101z" />
<glyph unicode="q" horiz-adv-x="723" d="M-6 -543q0 13 55 103h-12q9 29 26 59l162 291q31 52 72 131q2 7 6 20q-102 -75 -170 -75q-110 0 -110 166q0 17 3 51t3 51h-6q-5 0 -13 -6l-8 6v8q218 260 469 260q21 0 61.5 -10t61.5 -10q16 0 22 6h103l-330 -561q48 15 322 286h14l45 41l8 -6l-522 -602 q-4 -5 -100 -133q-24 -32 -39 -59q-45 -17 -123 -17zM102 41l15 -27q22 -2 14 -2h15q36 0 63 15q-14 2 -53 13q-34 9 -54 9v-8zM156 164q0 -70 71 -70q69 0 172 152q99 146 99 223q0 27 -47 27l-25 -10l-2 1q-96 -50 -174 -134q-94 -101 -94 -189zM217 -346l408 467 l-281 -254q-3 -3 -65 -104q-62 -104 -62 -109z" />
<glyph unicode="r" horiz-adv-x="618" d="M61 256l23 20v7q108 134 134 161q101 107 163 107q41 0 63 -45q12 -40 25 -80q33 -11 33 -61v-11l14 -6q31 25 68 62h14v-7q9 9 51 9q-1 -25 -64 -90q-78 -82 -83 -89q-6 -11 -21 -32q-4 -11 -35 -65q-20 -34 -20 -73q0 -40 29 -40q60 0 96 23q10 6 74 65h6q0 -7 -6 -15 q-72 -96 -193 -96q-80 0 -80 59q0 56 68 123v-6l-41 -78l6 4q36 48 72 95q41 57 59 104l-4 2h-2l-21 -18l-40 59l10 -22l-13 18q-18 -14 -38 -45l14 24q-15 -18 -33 -55l4 4l-8 -14v3q-8 -15 -20 -40l16 28q-32 -60 -63 -121q-40 -71 -80 -108q-54 -8 -113 -8v8l276 469 q-2 13 -4.5 25t-21.5 12q-54 0 -173 -133t-137 -133h-4z" />
<glyph unicode="s" horiz-adv-x="434" d="M-6 37q0 14 3 41t3 41q0 6 -6 10l26 33q0 -8 7 -15h8l2 5l4 4q12 15 35 44l84 101l-13 6l7 15l-107 -107l-6 6l154 188q130 152 163 152q29 0 29 -22q0 -23 -40 -48t-40 -75q0 -41 17.5 -121t17.5 -121q0 -19 -14.5 -53.5t-14.5 -52.5l166 168h10q0 -28 -39.5 -67 t-119.5 -118q-100 -94 -224 -94q-112 0 -112 80zM59 18q0 -28 50 -28q86 0 86 157q0 121 -27 121q-17 -10 -52 -49q-36 -42 -36 -57q61 0 61 -47q0 -21 -53 -39q-12 -19 -29 -58zM160 334q30 16 47 47q-21 -16 -47 -47zM213 395l27 19l8 -13q40 26 40 59q0 4 -1 9h-6z" />
<glyph unicode="t" horiz-adv-x="459" d="M31 231q7 13 59 74q76 90 153 180q120 145 128 179h-68q4 26 8 26h80l107 176q32 17 120 17v-11q-100 -161 -100 -165q0 -17 14 -17h193q7 0 10 -26h-223q-85 -132 -121 -205q-10 -24 -33 -68l-180 -280q-14 -22 -14 -41q0 -33 39 -33q72 0 175.5 112.5t115.5 112.5 q0 -21 -24 -51q-28 -33 -32 -47q-113 -94 -180 -146q-52 -41 -111 -41q-90 0 -90 93q0 86 61 193q9 15 113 169l-186 -207h-8zM119 9q0 -5 6 -5q4 2 4 6q0 6 -4 8q-6 0 -6 -7v-2zM131 4q4 -4 18 -4h10q13 0 19 4q-2 2 -6 2h-35q-3 0 -6 -2z" />
<glyph unicode="u" horiz-adv-x="750" d="M41 223q1 4 6 15q9 11 27 32l180 181q41 41 143 41q0 -10 -11 -29t-11 -29q0 -5 3 -15t3 -16q-55 -88 -110 -175q-84 -140 -84 -176q0 -7 3 -32h25l-14 -10h10q27 0 70 41q175 165 318 375q10 16 30 45l12 12q35 9 115 9v-9l-242 -360l-39 -80v-16q12 0 37 2t37 2 l-41 -21h6q21 0 53 21q24 12 66 41l168 166h8v-21q0 -6 -41 -47l-139 -139q-74 -74 -135 -74q-43 0 -69 31t-50 63q-170 -94 -225 -94q-82 0 -82 102q0 93 61 191q28 45 125 162v6q-16 -13 -47 -41l-160 -160q-6 0 -6 6zM227 25q1 3 4 4q4 -2 5 -4q-1 -3 -5 -5q-3 2 -4 5z M322 51q29 4 61.5 33.5t32.5 56.5l-2 2z" />
<glyph unicode="v" horiz-adv-x="772" d="M27 233q0 22 137 168q100 107 180 107q44 0 58 -25q19 -35 22 -37q41 -24 41 -45q-100 -148 -113 -169q-71 -115 -82 -179v-4q0 -22 62 -22q98 0 187 114q85 108 85 209v31q-16 25 -86 33v6q0 20 121 20q10 68 59 68q41 0 41 -66q0 -23 -28 -102q-36 -102 -39 -110 q-20 -43 -68 -97h4q62 0 183 121h10q0 -36 -62 -82q-37 -28 -89 -46q-46 -16 -93 -32q-11 -4 -65 -47h-7l7 12l-89 -53l8 -5q-6 1 -14 1q-10 0 -12 -6q-41 -21 -96 -21q-113 0 -113 129q0 83 68 175l114 155q5 6 7 12v15q0 20 -27 20q-53 0 -100 -47l-201 -201h-10zM463 35 l4 2q3 0 5 -2q-1 -2 -5 -6q-2 4 -4 6z" />
<glyph unicode="w" horiz-adv-x="1001" d="M55 55q0 95 66 209q26 45 87 126q16 19 42 56l6 15l-195 -195h-6v15q26 32 80 92l141 141l27 21q16 0 49.5 3t50.5 3v-15l-47 -71l21 -9v-6q-166 -224 -217 -356q-3 -8 -10 -25l6 -6q6 0 16 -1t14 -1q74 0 109 49l3 2l-3 4q26 22 150 202q102 147 157 147q19 0 35 -9v-12 l-188 -301q-7 -11 -7 -31q0 -63 90 -63q76 0 178 96q90 85 128 166v6q-42 -70 -154 -180h-8l115 133q26 30 26 133q0 29 -39 29q-65 0 -88 -41h-8q0 80 92 80q62 0 109 -53q0 133 63 133q45 0 45 -47q0 -168 -180 -328v-6q102 14 219 127h6q1 0 6 -2l2 -4q0 -5 -8 -15 q-32 -39 -84 -78q-61 -45 -102 -49q-65 -7 -125 -45l-104 -67q-33 -21 -89 -21q-147 0 -190 80h-6q-115 -80 -172 -80q-109 0 -109 49zM256 80q6 6 11 6h9q-17 -6 -14 -6h-6zM317 118q1 -5 4 -5h2q5 0 5 5v2q0 7 -5 7h-2q-4 0 -4 -7v-2zM649 106q1 4 4 5q3 -1 4 -5 q-1 -3 -4 -6q-3 3 -4 6zM711 27q51 18 180 118h8v-16q-104 -102 -188 -102zM840 324q1 -4 4 -5q4 1 6 5q-3 3 -6 4z" />
<glyph unicode="x" horiz-adv-x="614" d="M-94 57q0 26 36.5 88t57.5 62h74q20 0 20 -39q0 -33 -67 -88v-2q0 -25 32 -25q17 0 61 42q89 84 112 114q55 72 55 147q0 66 -64 66q-63 0 -63 -74q0 -29 14 -41h23q34 0 57 8v-4q0 -21 -25.5 -36t-48.5 -15q-76 0 -76 80q0 13 2 29l-100 -109h-6l-8 8q12 19 41 54 l160 159q56 56 118 56q82 0 82 -142h4q1 0 94 71t138 71q73 0 73 -62q0 -49 -50 -49q-10 0 -23 2q6 -6 6 -31q0 -43 -60 -43q-20 0 -26 6v9q-12 6 -21 6v59q-67 0 -138 -133q-64 -120 -64 -197q0 -4 1 -11.5t1 -12.5q6 -12 20 -12h86l221 213q4 -1 7 -7q-30 -60 -107 -139.5 t-133 -107.5q-59 -29 -109 -29q-12 0 -49 39q-12 10 -31 31h-20q-39 0 -111.5 -34t-111.5 -34q-84 0 -84 57zM119 332q0 -10 8 -17q6 70 53 119q-40 -32 -43 -35q-18 -20 -18 -49v-18zM121 53h6q19 9 47 27l-4 2h-6q-23 0 -43 -29zM221 469q75 -8 84 -8h21q0 47 -25 47 q-55 0 -80 -39zM535 469q81 -20 79 -20q0 40 -32 40q-31 0 -47 -20zM616 433q0 -5 7 -5q4 2 4 6q0 6 -4 8q-7 0 -7 -7v-2z" />
<glyph unicode="y" horiz-adv-x="891" d="M-43 -502q0 17 13.5 48t13.5 48q0 5 -3.5 14.5t-3.5 14.5q0 60 54 98v-6q0 -4 -3 -12.5t-3 -13.5q94 107 181 168q69 49 210 118h6q-7 -4 -27 -20q-5 -4 -119 -72q-11 -7 -26 -14q-48 -24 -109 -82q-67 -63 -80 -106q16 14 48 40l327 220q4 3 33 47h-23q0 11 17 18l-14 6 q45 17 53 47h-2q-35 0 -98.5 -29.5t-98.5 -29.5q-82 0 -82 115q0 80 74 184q41 58 108 174v10q0 25 -26 25q-56 0 -125 -65q-51 -53 -102 -107q-25 -25 -74 -76h-10q8 20 100 127q127 148 209 148q69 0 88 -74q26 26 74 26q24 0 47 -6q-29 -57 -205 -360q-4 -7 -4 -19 q0 -28 28 -28q32 12 146 133q100 106 135 153l82 126q42 49 143 49v-15l-266 -434v-20h21l-9 -7h4q23 0 25 21q0 -6 12 -6q86 35 121 80v6l119 121h10q0 -16 -16 -38t-12 -50l-27 -27q-7 -6 -65 -50q-92 -70 -183 -129q-30 -16 -86 -53l-8 -6q-58 -97 -154 -239 q-14 -22 -43 -64q-23 -32 -149 -157q-74 -74 -154 -74q-92 0 -92 104zM4 -512q0 -68 53 -68q125 0 273 254q-167 -113 -232 -113q-9 0 -27 3.5t-28 3.5q-39 0 -39 -80zM74 -369q0 -24 41 -24q151 0 233 135l-45 -41h-8q66 90 115 186h-7q-13 -8 -280 -206q-25 -19 -47 -48z M281 47q0 -20 22 -20h5q11 0 22 6l-47 26v-6q-1 -2 -2 -6zM442 66h7q3 0 7 4t7 4h-6q-3 0 -7.5 -4t-7.5 -4zM463 86q112 64 186 195q-61 -67 -186 -195zM471 80q1 -4 4 -6q6 0 6 5v2q0 5 -6 5q-4 -2 -4 -6zM582 -18q19 0 55.5 20.5t46.5 36.5l-82 -27q-20 -20 -20 -30z M639 53q1 -4 4 -6q4 1 4 5v2q-1 3 -4 5q-4 -2 -4 -6z" />
<glyph unicode="z" horiz-adv-x="442" d="M-72 0q0 12 238 209q-27 7 -36 10q-20 8 -30 23q4 10 133 53q6 -1 9 -1q28 0 57 42v4l-6 2q-6 -1 -12 -6q-5 1 -9 6q-69 12 -125 33q-30 -25 -74.5 -86.5t-72.5 -85.5v12l119 154l-123 -127l-8 6v8q23 34 74 87q56 58 77 85q-1 12 -1 23q0 65 55 65q49 0 49 -37 q0 -9 -8.5 -26.5t-8.5 -26.5q0 -25 21 -25h73q6 3 15 7q19 18 53 55h23q32 0 43 -14q28 26 94 67h4q16 0 16 -27q0 -28 -53 -55q-26 -12 -74 -39q-52 -38 -147 -121q21 0 21 -27q0 -21 -38 -27q-29 -3 -57 -5q-106 -70 -106 -100q17 -2 62 -19q39 -14 65 -14q9 0 26.5 7 t26.5 7v-6q37 0 70.5 60.5t44.5 60.5q0 -59 -59.5 -125t-117.5 -66q-27 0 -78.5 20.5t-78.5 20.5q-20 0 -63.5 -38.5t-59.5 -38.5h-17q-6 15 -6 16zM366 417q0 -1 1 -1q14 6 20 20q-21 -16 -21 -19zM373 369q22 14 61 47q-33 -8 -61 -47zM442 422q1 -4 4 -6q5 1 5 5v2 q0 5 -5 5q-4 -2 -4 -6z" />
<glyph unicode="|" horiz-adv-x="686" d="M322 2l526 1338q11 -10 31 -30q5 -3 2 -9l-515 -1321q-27 -7 -30 -1q-4 8 -14 23z" />
<glyph unicode="~" horiz-adv-x="1087" d="M297 680q61 117 160 117q36 0 107.5 -16.5t107.5 -16.5q35 0 80 39h2q12 0 12 -8q-62 -127 -176 -127q-34 0 -99.5 19.5t-99.5 19.5q-51 0 -78 -39h-6q-6 0 -10 12z" />
<glyph unicode="&#xa1;" horiz-adv-x="666" d="M61 195l416 614q12 17 34 17v-17q-63 -112 -132 -264l5 2q24 35 54 94v-6l-174 -508q-41 -121 -86 -121h-88q-6 0 -27 21v22q0 58 47 146h-49zM477 971q0 78 82 78q33 0 59.5 -20t26.5 -52q0 -9 -41 -67q-35 -50 -60 -50q-30 0 -35 13q-32 88 -32 98z" />
<glyph unicode="&#xa6;" horiz-adv-x="686" d="M322 2l218 551q11 -10 31 -30q5 -2 2 -9l-207 -534q-27 -7 -30 -1q-4 8 -14 23zM626 758l222 582q11 -10 31 -30q5 -3 2 -9l-211 -566q-27 -6 -30 0q-4 8 -14 23z" />
<glyph unicode="&#xa8;" horiz-adv-x="582" d="M135 1378q0 52 51 52q52 0 52 -52q0 -53 -52 -53q-51 0 -51 53zM350 1378q0 52 51 52q52 0 52 -52q0 -53 -52 -53q-51 0 -51 53z" />
<glyph unicode="&#xad;" d="M145 393q3 9 7 26h227q-4 -13 -14 -41q0 -6 -7 -6h-192q-23 15 -21 21z" />
<glyph unicode="&#xb4;" horiz-adv-x="651" d="M293 1204v8l2 5h2q46 24 70 106q23 76 43 76q27 0 28 -45q1 -76 -53 -121q-45 -37 -88 -37q-2 3 -4 8z" />
<glyph unicode="&#xb7;" horiz-adv-x="238" d="M68 482q0 71 63 71q64 0 64 -71q0 -72 -64 -72q-63 0 -63 72z" />
<glyph unicode="&#xbf;" horiz-adv-x="836" d="M72 213q0 87 64.5 191.5t142.5 142.5l215 106q92 45 92 140q-10 20 -43 20q-25 0 -84 -59v12q59 68 104 68q43 0 91 -48l26 27l6 -6v-4q0 -11 -28 -61.5t-39 -61.5l-314 -313q-106 -106 -106 -263q20 -36 61 -53h39q67 0 123 34q66 39 66 101q0 9 -28 37t-28 45t35 58 q0 94 99 94q120 0 120 -115q0 -107 -94 -192q-13 -9 -35 -29h-4v2l47 53q-50 -42 -198 -116l-2 -5h-133q-73 0 -134 61t-61 134zM379 39h10q71 0 141 73t70 144v23q-30 -9 -41 -7q-10 -155 -180 -233zM586 963q0 36 27.5 60t64.5 24h23q17 -10 53 -27q35 -12 44 -20 q15 -13 15 -44q0 -77 -69 -77q-21 0 -62.5 14t-62.5 14q-33 21 -33 56zM606 152l3 -2l3 2q2 3 3 6l-2 2q-7 0 -7 -6v-2zM623 774q0 -21 5 -21q3 5 3 18v6q0 17 -3 17q-4 0 -5 -20z" />
<glyph unicode="&#xc0;" horiz-adv-x="1692" d="M59 418q0 187 168 350q33 32 84 53q64 27 193 78q112 43 201 43q30 0 89 -13.5t89 -13.5h6q61 66 95 89q55 38 122 38q104 0 176 -59q39 14 66 14q79 0 182 -114h4v-2l2 2h2q45 52 139 153l154 154q70 70 140 117q27 17 61 43q61 34 67 34h17q0 -28 -37 -108q78 0 94 -27 q-36 -29 -94 -86q-67 -87 -79 -106q-44 -68 -48 -121l-414 -756q129 0 266 127h6l7 -4l2 -2q0 -4 -9 -14q-107 -119 -280 -140q-4 -3 -39 -108q-18 -5 -55 -15l-14 -4q-5 -1 -6 -2l-5 2q-29 -1 -29 13l-26 14l55 107q-77 16 -129 32q-6 7 -18 7q-32 13 -95 40q-17 0 -26 -6 q-43 -32 -131 -94q-189 -127 -416 -127q-224 0 -367 92q-170 108 -170 320zM106 354q0 -75 35 -124q10 -14 92 -97h7q-109 119 -134 221zM199 446q0 -156 112.5 -268t268.5 -112q122 0 260 77q123 68 215 170l-92 101q-3 1 -7 2q-2 0 -102 -54q-8 -4 -114 -31 q-32 -8 -154 -56q-75 -30 -170 -30q-35 0 -35 19v2l6 8q161 -7 242 54q-28 8 -82 26q-62 26 -100.5 82.5t-38.5 122.5q0 81 46 137q49 60 128 60q47 0 79.5 -27.5t32.5 -73.5q0 -40 -87 -94.5t-87 -85.5q0 -48 51 -80q44 -28 95 -28q42 0 72 80q24 65 24 118q0 217 -252 217 q-98 0 -152 -28q-72 -37 -117 -133q-42 -87 -42 -175zM242 127q1 -4 4 -6h2v-1v-2q0 -5 6 -5q4 2 4 6q0 6 -4 8h-2v1q0 5 -6 5q-4 -2 -4 -6zM248 121q1 5 4 6v-1q-1 -4 -4 -5zM434 862q55 0 121 41q-51 0 -121 -41zM494 868q294 -57 294 -299q0 -106 -67 -202q114 0 180 88 q14 19 14 26q0 13 -12.5 34.5t-13.5 31.5q-35 92 -35 188q0 18 4 53.5t4 53.5q0 24 -87 41q-67 12 -113 12q-140 0 -168 -27zM711 59q1 -4 4 -6q4 1 4 5v2q-1 5 -4 6q-4 -2 -4 -7zM735 66q219 0 387 194l-2 4q-14 12 -37 29q-190 -166 -348 -227zM750 345q0 -5 6 -5q4 2 4 6 q0 6 -4 8q-6 0 -6 -7v-2zM782 354q66 0 86 33zM874 74q47 0 140 67q79 57 123 107q-150 -119 -263 -174zM877 392q0 -5 6 -5q4 2 4 6q0 6 -4 8q-6 0 -6 -7v-2zM922 711q0 -138 26 -183q10 19 21 47v60q0 104 -41 153q-3 -9 -6 -20v-57zM963 862q106 -94 106 -207 q0 -85 -40 -151.5t-40 -59.5q0 -34 80 -104q14 0 18 2q43 51 130 152q0 26 -20.5 74t-20.5 73v14l20 -61q0 11 -3 31t-3 30v88q0 3 -1 5q1 12 1 88q-5 -11 -14 -33q0 92 67 160q-37 20 -94 20q-99 0 -180 -94q-6 -7 -6 -21v-6zM1102 319q0 -12 14.5 -22t26.5 -10q14 0 47 47 l-21 -15q68 99 68 136v12q-44 -50 -135 -148zM1157 271q0 -5 6 -5q4 1 4 5v2q0 6 -4 8q-6 0 -6 -7v-3zM1165 678v4q0 6 3 13q6 0 6 -15q0 -13 -6 -13q-3 3 -3 11zM1165 766v9q0 7 3 14q6 0 6 -17t-6 -17q-3 3 -3 11zM1184 260q10 -22 100 -49q82 -25 119 -25q18 0 20 7 q27 87 27 108v27q-40 15 -127 59l-12 6zM1188 740v5v6l1 -3q0 -5 -1 -8zM1192 852l4 -4q3 2 4 4q-2 3 -4 4q-3 -2 -4 -4zM1198 584q1 -2 2 -2q2 0 6 2q-2 4 -6 4q-2 0 -2 -3v-1zM1217 711q0 -37 12 -88q14 -64 35 -76q18 20 47 53q71 84 112 135v13q0 33 -38 91t-68 58 q-53 0 -80 -71q-20 -51 -20 -115zM1282 508q38 33 91 95q65 76 65 102v4q-7 -7 -39 -45q-117 -140 -117 -150v-6zM1343 440q21 -47 117 -47h4q6 25 6 45v117q0 23 -6 53q-8 -6 -121 -168zM1370 903q29 -42 80 -129q20 12 20 31q0 30 -32.5 64t-61.5 34h-6zM1491 340 q24 64 53 135q6 14 6 33l4 -2q17 0 17 59v23q-12 -39 -15 -60q-6 66 -26 166q-39 -41 -39 -47v-307zM1597 788q-1 -5 21 -147q178 346 360 576l-4 2q-23 0 -23 -16q0 -4 1 -7q-154 -67 -355 -408zM1774 1075q1 -4 4 -6q4 2 4 6q0 6 -4 8q-4 -3 -4 -8zM1831 1137q11 4 41 32 q-14 -10 -41 -32zM1925 1030q26 36 86 100h8l80 87q0 14 -41 14q-8 0 -12 -2q-86 -117 -121 -199zM1937 1243l82 27q18 20 54 59l-2 2q-44 0 -134 -88zM2005 1608q1 45 28 45q20 0 43 -76q24 -82 70 -106h2l2 -5v-8q-2 -5 -4 -8q-43 0 -88 37q-54 45 -53 121z" />
<glyph unicode="&#xc1;" horiz-adv-x="1692" d="M59 418q0 187 168 350q33 32 84 53q64 27 193 78q112 43 201 43q30 0 89 -13.5t89 -13.5h6q61 66 95 89q55 38 122 38q104 0 176 -59q39 14 66 14q79 0 182 -114h4v-2l2 2h2q45 52 139 153l154 154q70 70 140 117q27 17 61 43q61 34 67 34h17q0 -28 -37 -108q78 0 94 -27 q-36 -29 -94 -86q-67 -87 -79 -106q-44 -68 -48 -121l-414 -756q129 0 266 127h6l7 -4l2 -2q0 -4 -9 -14q-107 -119 -280 -140q-4 -3 -39 -108q-18 -5 -55 -15l-14 -4q-5 -1 -6 -2l-5 2q-29 -1 -29 13l-26 14l55 107q-77 16 -129 32q-6 7 -18 7q-32 13 -95 40q-17 0 -26 -6 q-43 -32 -131 -94q-189 -127 -416 -127q-224 0 -367 92q-170 108 -170 320zM106 354q0 -75 35 -124q10 -14 92 -97h7q-109 119 -134 221zM199 446q0 -156 112.5 -268t268.5 -112q122 0 260 77q123 68 215 170l-92 101q-3 1 -7 2q-2 0 -102 -54q-8 -4 -114 -31 q-32 -8 -154 -56q-75 -30 -170 -30q-35 0 -35 19v2l6 8q161 -7 242 54q-28 8 -82 26q-62 26 -100.5 82.5t-38.5 122.5q0 81 46 137q49 60 128 60q47 0 79.5 -27.5t32.5 -73.5q0 -40 -87 -94.5t-87 -85.5q0 -48 51 -80q44 -28 95 -28q42 0 72 80q24 65 24 118q0 217 -252 217 q-98 0 -152 -28q-72 -37 -117 -133q-42 -87 -42 -175zM242 127q1 -4 4 -6h2v-1v-2q0 -5 6 -5q4 2 4 6q0 6 -4 8h-2v1q0 5 -6 5q-4 -2 -4 -6zM248 121q1 5 4 6v-1q-1 -4 -4 -5zM434 862q55 0 121 41q-51 0 -121 -41zM494 868q294 -57 294 -299q0 -106 -67 -202q114 0 180 88 q14 19 14 26q0 13 -12.5 34.5t-13.5 31.5q-35 92 -35 188q0 18 4 53.5t4 53.5q0 24 -87 41q-67 12 -113 12q-140 0 -168 -27zM711 59q1 -4 4 -6q4 1 4 5v2q-1 5 -4 6q-4 -2 -4 -7zM735 66q219 0 387 194l-2 4q-14 12 -37 29q-190 -166 -348 -227zM750 345q0 -5 6 -5q4 2 4 6 q0 6 -4 8q-6 0 -6 -7v-2zM782 354q66 0 86 33zM874 74q47 0 140 67q79 57 123 107q-150 -119 -263 -174zM877 392q0 -5 6 -5q4 2 4 6q0 6 -4 8q-6 0 -6 -7v-2zM922 711q0 -138 26 -183q10 19 21 47v60q0 104 -41 153q-3 -9 -6 -20v-57zM963 862q106 -94 106 -207 q0 -85 -40 -151.5t-40 -59.5q0 -34 80 -104q14 0 18 2q43 51 130 152q0 26 -20.5 74t-20.5 73v14l20 -61q0 11 -3 31t-3 30v88q0 3 -1 5q1 12 1 88q-5 -11 -14 -33q0 92 67 160q-37 20 -94 20q-99 0 -180 -94q-6 -7 -6 -21v-6zM1102 319q0 -12 14.5 -22t26.5 -10q14 0 47 47 l-21 -15q68 99 68 136v12q-44 -50 -135 -148zM1157 271q0 -5 6 -5q4 1 4 5v2q0 6 -4 8q-6 0 -6 -7v-3zM1165 678v4q0 6 3 13q6 0 6 -15q0 -13 -6 -13q-3 3 -3 11zM1165 766v9q0 7 3 14q6 0 6 -17t-6 -17q-3 3 -3 11zM1184 260q10 -22 100 -49q82 -25 119 -25q18 0 20 7 q27 87 27 108v27q-40 15 -127 59l-12 6zM1188 740v5v6l1 -3q0 -5 -1 -8zM1192 852l4 -4q3 2 4 4q-2 3 -4 4q-3 -2 -4 -4zM1198 584q1 -2 2 -2q2 0 6 2q-2 4 -6 4q-2 0 -2 -3v-1zM1217 711q0 -37 12 -88q14 -64 35 -76q18 20 47 53q71 84 112 135v13q0 33 -38 91t-68 58 q-53 0 -80 -71q-20 -51 -20 -115zM1282 508q38 33 91 95q65 76 65 102v4q-7 -7 -39 -45q-117 -140 -117 -150v-6zM1343 440q21 -47 117 -47h4q6 25 6 45v117q0 23 -6 53q-8 -6 -121 -168zM1370 903q29 -42 80 -129q20 12 20 31q0 30 -32.5 64t-61.5 34h-6zM1491 340 q24 64 53 135q6 14 6 33l4 -2q17 0 17 59v23q-12 -39 -15 -60q-6 66 -26 166q-39 -41 -39 -47v-307zM1597 788q-1 -5 21 -147q178 346 360 576l-4 2q-23 0 -23 -16q0 -4 1 -7q-154 -67 -355 -408zM1774 1075q1 -4 4 -6q4 2 4 6q0 6 -4 8q-4 -3 -4 -8zM1831 1137q11 4 41 32 q-14 -10 -41 -32zM1925 1030q26 36 86 100h8l80 87q0 14 -41 14q-8 0 -12 -2q-86 -117 -121 -199zM1937 1243l82 27q18 20 54 59l-2 2q-44 0 -134 -88zM2163 1388v8l2 5h2q46 24 70 106q23 76 43 76q27 0 28 -45q1 -76 -53 -121q-45 -37 -88 -37q-2 3 -4 8z" />
<glyph unicode="&#xc2;" horiz-adv-x="1692" d="M59 418q0 187 168 350q33 32 84 53q64 27 193 78q112 43 201 43q30 0 89 -13.5t89 -13.5h6q61 66 95 89q55 38 122 38q104 0 176 -59q39 14 66 14q79 0 182 -114h4v-2l2 2h2q45 52 139 153l154 154q70 70 140 117q27 17 61 43q61 34 67 34h17q0 -28 -37 -108q78 0 94 -27 q-36 -29 -94 -86q-67 -87 -79 -106q-44 -68 -48 -121l-414 -756q129 0 266 127h6l7 -4l2 -2q0 -4 -9 -14q-107 -119 -280 -140q-4 -3 -39 -108q-18 -5 -55 -15l-14 -4q-5 -1 -6 -2l-5 2q-29 -1 -29 13l-26 14l55 107q-77 16 -129 32q-6 7 -18 7q-32 13 -95 40q-17 0 -26 -6 q-43 -32 -131 -94q-189 -127 -416 -127q-224 0 -367 92q-170 108 -170 320zM106 354q0 -75 35 -124q10 -14 92 -97h7q-109 119 -134 221zM199 446q0 -156 112.5 -268t268.5 -112q122 0 260 77q123 68 215 170l-92 101q-3 1 -7 2q-2 0 -102 -54q-8 -4 -114 -31 q-32 -8 -154 -56q-75 -30 -170 -30q-35 0 -35 19v2l6 8q161 -7 242 54q-28 8 -82 26q-62 26 -100.5 82.5t-38.5 122.5q0 81 46 137q49 60 128 60q47 0 79.5 -27.5t32.5 -73.5q0 -40 -87 -94.5t-87 -85.5q0 -48 51 -80q44 -28 95 -28q42 0 72 80q24 65 24 118q0 217 -252 217 q-98 0 -152 -28q-72 -37 -117 -133q-42 -87 -42 -175zM242 127q1 -4 4 -6h2v-1v-2q0 -5 6 -5q4 2 4 6q0 6 -4 8h-2v1q0 5 -6 5q-4 -2 -4 -6zM248 121q1 5 4 6v-1q-1 -4 -4 -5zM434 862q55 0 121 41q-51 0 -121 -41zM494 868q294 -57 294 -299q0 -106 -67 -202q114 0 180 88 q14 19 14 26q0 13 -12.5 34.5t-13.5 31.5q-35 92 -35 188q0 18 4 53.5t4 53.5q0 24 -87 41q-67 12 -113 12q-140 0 -168 -27zM711 59q1 -4 4 -6q4 1 4 5v2q-1 5 -4 6q-4 -2 -4 -7zM735 66q219 0 387 194l-2 4q-14 12 -37 29q-190 -166 -348 -227zM750 345q0 -5 6 -5q4 2 4 6 q0 6 -4 8q-6 0 -6 -7v-2zM782 354q66 0 86 33zM874 74q47 0 140 67q79 57 123 107q-150 -119 -263 -174zM877 392q0 -5 6 -5q4 2 4 6q0 6 -4 8q-6 0 -6 -7v-2zM922 711q0 -138 26 -183q10 19 21 47v60q0 104 -41 153q-3 -9 -6 -20v-57zM963 862q106 -94 106 -207 q0 -85 -40 -151.5t-40 -59.5q0 -34 80 -104q14 0 18 2q43 51 130 152q0 26 -20.5 74t-20.5 73v14l20 -61q0 11 -3 31t-3 30v88q0 3 -1 5q1 12 1 88q-5 -11 -14 -33q0 92 67 160q-37 20 -94 20q-99 0 -180 -94q-6 -7 -6 -21v-6zM1102 319q0 -12 14.5 -22t26.5 -10q14 0 47 47 l-21 -15q68 99 68 136v12q-44 -50 -135 -148zM1157 271q0 -5 6 -5q4 1 4 5v2q0 6 -4 8q-6 0 -6 -7v-3zM1165 678v4q0 6 3 13q6 0 6 -15q0 -13 -6 -13q-3 3 -3 11zM1165 766v9q0 7 3 14q6 0 6 -17t-6 -17q-3 3 -3 11zM1184 260q10 -22 100 -49q82 -25 119 -25q18 0 20 7 q27 87 27 108v27q-40 15 -127 59l-12 6zM1188 740v5v6l1 -3q0 -5 -1 -8zM1192 852l4 -4q3 2 4 4q-2 3 -4 4q-3 -2 -4 -4zM1198 584q1 -2 2 -2q2 0 6 2q-2 4 -6 4q-2 0 -2 -3v-1zM1217 711q0 -37 12 -88q14 -64 35 -76q18 20 47 53q71 84 112 135v13q0 33 -38 91t-68 58 q-53 0 -80 -71q-20 -51 -20 -115zM1282 508q38 33 91 95q65 76 65 102v4q-7 -7 -39 -45q-117 -140 -117 -150v-6zM1343 440q21 -47 117 -47h4q6 25 6 45v117q0 23 -6 53q-8 -6 -121 -168zM1370 903q29 -42 80 -129q20 12 20 31q0 30 -32.5 64t-61.5 34h-6zM1491 340 q24 64 53 135q6 14 6 33l4 -2q17 0 17 59v23q-12 -39 -15 -60q-6 66 -26 166q-39 -41 -39 -47v-307zM1597 788q-1 -5 21 -147q178 346 360 576l-4 2q-23 0 -23 -16q0 -4 1 -7q-154 -67 -355 -408zM1774 1075q1 -4 4 -6q4 2 4 6q0 6 -4 8q-4 -3 -4 -8zM1831 1137q11 4 41 32 q-14 -10 -41 -32zM1873 1426q25 6 75 20q131 42 216 158q13 5 17 4l6 -10q-10 -41 -10 -64q0 -94 116 -94l6 -10q-14 -17 -67 -17q-64 0 -105 68q-36 -25 -112.5 -46.5t-124.5 -21.5q-10 0 -17 13zM1925 1030q26 36 86 100h8l80 87q0 14 -41 14q-8 0 -12 -2 q-86 -117 -121 -199zM1937 1243l82 27q18 20 54 59l-2 2q-44 0 -134 -88z" />
<glyph unicode="&#xc3;" horiz-adv-x="1692" d="M59 418q0 187 168 350q33 32 84 53q64 27 193 78q112 43 201 43q30 0 89 -13.5t89 -13.5h6q61 66 95 89q55 38 122 38q104 0 176 -59q39 14 66 14q79 0 182 -114h4v-2l2 2h2q45 52 139 153l154 154q70 70 140 117q27 17 61 43q61 34 67 34h17q0 -28 -37 -108q78 0 94 -27 q-36 -29 -94 -86q-67 -87 -79 -106q-44 -68 -48 -121l-414 -756q129 0 266 127h6l7 -4l2 -2q0 -4 -9 -14q-107 -119 -280 -140q-4 -3 -39 -108q-18 -5 -55 -15l-14 -4q-5 -1 -6 -2l-5 2q-29 -1 -29 13l-26 14l55 107q-77 16 -129 32q-6 7 -18 7q-32 13 -95 40q-17 0 -26 -6 q-43 -32 -131 -94q-189 -127 -416 -127q-224 0 -367 92q-170 108 -170 320zM106 354q0 -75 35 -124q10 -14 92 -97h7q-109 119 -134 221zM199 446q0 -156 112.5 -268t268.5 -112q122 0 260 77q123 68 215 170l-92 101q-3 1 -7 2q-2 0 -102 -54q-8 -4 -114 -31 q-32 -8 -154 -56q-75 -30 -170 -30q-35 0 -35 19v2l6 8q161 -7 242 54q-28 8 -82 26q-62 26 -100.5 82.5t-38.5 122.5q0 81 46 137q49 60 128 60q47 0 79.5 -27.5t32.5 -73.5q0 -40 -87 -94.5t-87 -85.5q0 -48 51 -80q44 -28 95 -28q42 0 72 80q24 65 24 118q0 217 -252 217 q-98 0 -152 -28q-72 -37 -117 -133q-42 -87 -42 -175zM242 127q1 -4 4 -6h2v-1v-2q0 -5 6 -5q4 2 4 6q0 6 -4 8h-2v1q0 5 -6 5q-4 -2 -4 -6zM248 121q1 5 4 6v-1q-1 -4 -4 -5zM434 862q55 0 121 41q-51 0 -121 -41zM494 868q294 -57 294 -299q0 -106 -67 -202q114 0 180 88 q14 19 14 26q0 13 -12.5 34.5t-13.5 31.5q-35 92 -35 188q0 18 4 53.5t4 53.5q0 24 -87 41q-67 12 -113 12q-140 0 -168 -27zM711 59q1 -4 4 -6q4 1 4 5v2q-1 5 -4 6q-4 -2 -4 -7zM735 66q219 0 387 194l-2 4q-14 12 -37 29q-190 -166 -348 -227zM750 345q0 -5 6 -5q4 2 4 6 q0 6 -4 8q-6 0 -6 -7v-2zM782 354q66 0 86 33zM874 74q47 0 140 67q79 57 123 107q-150 -119 -263 -174zM877 392q0 -5 6 -5q4 2 4 6q0 6 -4 8q-6 0 -6 -7v-2zM922 711q0 -138 26 -183q10 19 21 47v60q0 104 -41 153q-3 -9 -6 -20v-57zM963 862q106 -94 106 -207 q0 -85 -40 -151.5t-40 -59.5q0 -34 80 -104q14 0 18 2q43 51 130 152q0 26 -20.5 74t-20.5 73v14l20 -61q0 11 -3 31t-3 30v88q0 3 -1 5q1 12 1 88q-5 -11 -14 -33q0 92 67 160q-37 20 -94 20q-99 0 -180 -94q-6 -7 -6 -21v-6zM1102 319q0 -12 14.5 -22t26.5 -10q14 0 47 47 l-21 -15q68 99 68 136v12q-44 -50 -135 -148zM1157 271q0 -5 6 -5q4 1 4 5v2q0 6 -4 8q-6 0 -6 -7v-3zM1165 678v4q0 6 3 13q6 0 6 -15q0 -13 -6 -13q-3 3 -3 11zM1165 766v9q0 7 3 14q6 0 6 -17t-6 -17q-3 3 -3 11zM1184 260q10 -22 100 -49q82 -25 119 -25q18 0 20 7 q27 87 27 108v27q-40 15 -127 59l-12 6zM1188 740v5v6l1 -3q0 -5 -1 -8zM1192 852l4 -4q3 2 4 4q-2 3 -4 4q-3 -2 -4 -4zM1198 584q1 -2 2 -2q2 0 6 2q-2 4 -6 4q-2 0 -2 -3v-1zM1217 711q0 -37 12 -88q14 -64 35 -76q18 20 47 53q71 84 112 135v13q0 33 -38 91t-68 58 q-53 0 -80 -71q-20 -51 -20 -115zM1282 508q38 33 91 95q65 76 65 102v4q-7 -7 -39 -45q-117 -140 -117 -150v-6zM1343 440q21 -47 117 -47h4q6 25 6 45v117q0 23 -6 53q-8 -6 -121 -168zM1370 903q29 -42 80 -129q20 12 20 31q0 30 -32.5 64t-61.5 34h-6zM1491 340 q24 64 53 135q6 14 6 33l4 -2q17 0 17 59v23q-12 -39 -15 -60q-6 66 -26 166q-39 -41 -39 -47v-307zM1597 788q-1 -5 21 -147q178 346 360 576l-4 2q-23 0 -23 -16q0 -4 1 -7q-154 -67 -355 -408zM1774 1075q1 -4 4 -6q4 2 4 6q0 6 -4 8q-4 -3 -4 -8zM1831 1137q11 4 41 32 q-14 -10 -41 -32zM1925 1030q26 36 86 100h8l80 87q0 14 -41 14q-8 0 -12 -2q-86 -117 -121 -199zM1937 1243l82 27q18 20 54 59l-2 2q-44 0 -134 -88z" />
<glyph unicode="&#xc4;" horiz-adv-x="1692" d="M59 418q0 187 168 350q33 32 84 53q64 27 193 78q112 43 201 43q30 0 89 -13.5t89 -13.5h6q61 66 95 89q55 38 122 38q104 0 176 -59q39 14 66 14q79 0 182 -114h4v-2l2 2h2q45 52 139 153l154 154q70 70 140 117q27 17 61 43q61 34 67 34h17q0 -28 -37 -108q78 0 94 -27 q-36 -29 -94 -86q-67 -87 -79 -106q-44 -68 -48 -121l-414 -756q129 0 266 127h6l7 -4l2 -2q0 -4 -9 -14q-107 -119 -280 -140q-4 -3 -39 -108q-18 -5 -55 -15l-14 -4q-5 -1 -6 -2l-5 2q-29 -1 -29 13l-26 14l55 107q-77 16 -129 32q-6 7 -18 7q-32 13 -95 40q-17 0 -26 -6 q-43 -32 -131 -94q-189 -127 -416 -127q-224 0 -367 92q-170 108 -170 320zM106 354q0 -75 35 -124q10 -14 92 -97h7q-109 119 -134 221zM199 446q0 -156 112.5 -268t268.5 -112q122 0 260 77q123 68 215 170l-92 101q-3 1 -7 2q-2 0 -102 -54q-8 -4 -114 -31 q-32 -8 -154 -56q-75 -30 -170 -30q-35 0 -35 19v2l6 8q161 -7 242 54q-28 8 -82 26q-62 26 -100.5 82.5t-38.5 122.5q0 81 46 137q49 60 128 60q47 0 79.5 -27.5t32.5 -73.5q0 -40 -87 -94.5t-87 -85.5q0 -48 51 -80q44 -28 95 -28q42 0 72 80q24 65 24 118q0 217 -252 217 q-98 0 -152 -28q-72 -37 -117 -133q-42 -87 -42 -175zM242 127q1 -4 4 -6h2v-1v-2q0 -5 6 -5q4 2 4 6q0 6 -4 8h-2v1q0 5 -6 5q-4 -2 -4 -6zM248 121q1 5 4 6v-1q-1 -4 -4 -5zM434 862q55 0 121 41q-51 0 -121 -41zM494 868q294 -57 294 -299q0 -106 -67 -202q114 0 180 88 q14 19 14 26q0 13 -12.5 34.5t-13.5 31.5q-35 92 -35 188q0 18 4 53.5t4 53.5q0 24 -87 41q-67 12 -113 12q-140 0 -168 -27zM711 59q1 -4 4 -6q4 1 4 5v2q-1 5 -4 6q-4 -2 -4 -7zM735 66q219 0 387 194l-2 4q-14 12 -37 29q-190 -166 -348 -227zM750 345q0 -5 6 -5q4 2 4 6 q0 6 -4 8q-6 0 -6 -7v-2zM782 354q66 0 86 33zM874 74q47 0 140 67q79 57 123 107q-150 -119 -263 -174zM877 392q0 -5 6 -5q4 2 4 6q0 6 -4 8q-6 0 -6 -7v-2zM922 711q0 -138 26 -183q10 19 21 47v60q0 104 -41 153q-3 -9 -6 -20v-57zM963 862q106 -94 106 -207 q0 -85 -40 -151.5t-40 -59.5q0 -34 80 -104q14 0 18 2q43 51 130 152q0 26 -20.5 74t-20.5 73v14l20 -61q0 11 -3 31t-3 30v88q0 3 -1 5q1 12 1 88q-5 -11 -14 -33q0 92 67 160q-37 20 -94 20q-99 0 -180 -94q-6 -7 -6 -21v-6zM1102 319q0 -12 14.5 -22t26.5 -10q14 0 47 47 l-21 -15q68 99 68 136v12q-44 -50 -135 -148zM1157 271q0 -5 6 -5q4 1 4 5v2q0 6 -4 8q-6 0 -6 -7v-3zM1165 678v4q0 6 3 13q6 0 6 -15q0 -13 -6 -13q-3 3 -3 11zM1165 766v9q0 7 3 14q6 0 6 -17t-6 -17q-3 3 -3 11zM1184 260q10 -22 100 -49q82 -25 119 -25q18 0 20 7 q27 87 27 108v27q-40 15 -127 59l-12 6zM1188 740v5v6l1 -3q0 -5 -1 -8zM1192 852l4 -4q3 2 4 4q-2 3 -4 4q-3 -2 -4 -4zM1198 584q1 -2 2 -2q2 0 6 2q-2 4 -6 4q-2 0 -2 -3v-1zM1217 711q0 -37 12 -88q14 -64 35 -76q18 20 47 53q71 84 112 135v13q0 33 -38 91t-68 58 q-53 0 -80 -71q-20 -51 -20 -115zM1282 508q38 33 91 95q65 76 65 102v4q-7 -7 -39 -45q-117 -140 -117 -150v-6zM1343 440q21 -47 117 -47h4q6 25 6 45v117q0 23 -6 53q-8 -6 -121 -168zM1370 903q29 -42 80 -129q20 12 20 31q0 30 -32.5 64t-61.5 34h-6zM1491 340 q24 64 53 135q6 14 6 33l4 -2q17 0 17 59v23q-12 -39 -15 -60q-6 66 -26 166q-39 -41 -39 -47v-307zM1597 788q-1 -5 21 -147q178 346 360 576l-4 2q-23 0 -23 -16q0 -4 1 -7q-154 -67 -355 -408zM1774 1075q1 -4 4 -6q4 2 4 6q0 6 -4 8q-4 -3 -4 -8zM1831 1137q11 4 41 32 q-14 -10 -41 -32zM1925 1030q26 36 86 100h8l80 87q0 14 -41 14q-8 0 -12 -2q-86 -117 -121 -199zM1937 1243l82 27q18 20 54 59l-2 2q-44 0 -134 -88zM1962 1484q0 52 51 52q52 0 52 -52q0 -53 -52 -53q-51 0 -51 53zM2177 1484q0 52 51 52q52 0 52 -52q0 -53 -52 -53 q-51 0 -51 53z" />
<glyph unicode="&#xc5;" horiz-adv-x="1692" d="M59 418q0 187 168 350q33 32 84 53q64 27 193 78q112 43 201 43q30 0 89 -13.5t89 -13.5h6q61 66 95 89q55 38 122 38q104 0 176 -59q39 14 66 14q79 0 182 -114h4v-2l2 2h2q45 52 139 153l154 154q70 70 140 117q27 17 61 43q61 34 67 34h17q0 -28 -37 -108q78 0 94 -27 q-36 -29 -94 -86q-67 -87 -79 -106q-44 -68 -48 -121l-414 -756q129 0 266 127h6l7 -4l2 -2q0 -4 -9 -14q-107 -119 -280 -140q-4 -3 -39 -108q-18 -5 -55 -15l-14 -4q-5 -1 -6 -2l-5 2q-29 -1 -29 13l-26 14l55 107q-77 16 -129 32q-6 7 -18 7q-32 13 -95 40q-17 0 -26 -6 q-43 -32 -131 -94q-189 -127 -416 -127q-224 0 -367 92q-170 108 -170 320zM106 354q0 -75 35 -124q10 -14 92 -97h7q-109 119 -134 221zM199 446q0 -156 112.5 -268t268.5 -112q122 0 260 77q123 68 215 170l-92 101q-3 1 -7 2q-2 0 -102 -54q-8 -4 -114 -31 q-32 -8 -154 -56q-75 -30 -170 -30q-35 0 -35 19v2l6 8q161 -7 242 54q-28 8 -82 26q-62 26 -100.5 82.5t-38.5 122.5q0 81 46 137q49 60 128 60q47 0 79.5 -27.5t32.5 -73.5q0 -40 -87 -94.5t-87 -85.5q0 -48 51 -80q44 -28 95 -28q42 0 72 80q24 65 24 118q0 217 -252 217 q-98 0 -152 -28q-72 -37 -117 -133q-42 -87 -42 -175zM242 127q1 -4 4 -6h2v-1v-2q0 -5 6 -5q4 2 4 6q0 6 -4 8h-2v1q0 5 -6 5q-4 -2 -4 -6zM248 121q1 5 4 6v-1q-1 -4 -4 -5zM434 862q55 0 121 41q-51 0 -121 -41zM494 868q294 -57 294 -299q0 -106 -67 -202q114 0 180 88 q14 19 14 26q0 13 -12.5 34.5t-13.5 31.5q-35 92 -35 188q0 18 4 53.5t4 53.5q0 24 -87 41q-67 12 -113 12q-140 0 -168 -27zM711 59q1 -4 4 -6q4 1 4 5v2q-1 5 -4 6q-4 -2 -4 -7zM735 66q219 0 387 194l-2 4q-14 12 -37 29q-190 -166 -348 -227zM750 345q0 -5 6 -5q4 2 4 6 q0 6 -4 8q-6 0 -6 -7v-2zM782 354q66 0 86 33zM874 74q47 0 140 67q79 57 123 107q-150 -119 -263 -174zM877 392q0 -5 6 -5q4 2 4 6q0 6 -4 8q-6 0 -6 -7v-2zM922 711q0 -138 26 -183q10 19 21 47v60q0 104 -41 153q-3 -9 -6 -20v-57zM963 862q106 -94 106 -207 q0 -85 -40 -151.5t-40 -59.5q0 -34 80 -104q14 0 18 2q43 51 130 152q0 26 -20.5 74t-20.5 73v14l20 -61q0 11 -3 31t-3 30v88q0 3 -1 5q1 12 1 88q-5 -11 -14 -33q0 92 67 160q-37 20 -94 20q-99 0 -180 -94q-6 -7 -6 -21v-6zM1102 319q0 -12 14.5 -22t26.5 -10q14 0 47 47 l-21 -15q68 99 68 136v12q-44 -50 -135 -148zM1157 271q0 -5 6 -5q4 1 4 5v2q0 6 -4 8q-6 0 -6 -7v-3zM1165 678v4q0 6 3 13q6 0 6 -15q0 -13 -6 -13q-3 3 -3 11zM1165 766v9q0 7 3 14q6 0 6 -17t-6 -17q-3 3 -3 11zM1184 260q10 -22 100 -49q82 -25 119 -25q18 0 20 7 q27 87 27 108v27q-40 15 -127 59l-12 6zM1188 740v5v6l1 -3q0 -5 -1 -8zM1192 852l4 -4q3 2 4 4q-2 3 -4 4q-3 -2 -4 -4zM1198 584q1 -2 2 -2q2 0 6 2q-2 4 -6 4q-2 0 -2 -3v-1zM1217 711q0 -37 12 -88q14 -64 35 -76q18 20 47 53q71 84 112 135v13q0 33 -38 91t-68 58 q-53 0 -80 -71q-20 -51 -20 -115zM1282 508q38 33 91 95q65 76 65 102v4q-7 -7 -39 -45q-117 -140 -117 -150v-6zM1343 440q21 -47 117 -47h4q6 25 6 45v117q0 23 -6 53q-8 -6 -121 -168zM1370 903q29 -42 80 -129q20 12 20 31q0 30 -32.5 64t-61.5 34h-6zM1491 340 q24 64 53 135q6 14 6 33l4 -2q17 0 17 59v23q-12 -39 -15 -60q-6 66 -26 166q-39 -41 -39 -47v-307zM1597 788q-1 -5 21 -147q178 346 360 576l-4 2q-23 0 -23 -16q0 -4 1 -7q-154 -67 -355 -408zM1774 1075q1 -4 4 -6q4 2 4 6q0 6 -4 8q-4 -3 -4 -8zM1831 1137q11 4 41 32 q-14 -10 -41 -32zM1925 1030q26 36 86 100h8l80 87q0 14 -41 14q-8 0 -12 -2q-86 -117 -121 -199zM1937 1243l82 27q18 20 54 59l-2 2q-44 0 -134 -88zM2051 1554q1 10 9 21q114 139 231 139q64 0 64 -75q0 -62 -56 -132v-2q8 0 8 -7q0 -9 -26 -12q-77 -72 -137 -72 q-70 0 -70 97q0 9 2.5 27.5t2.5 27.5q-9 -6 -28 -12zM2125 1436l2 -3l2 3v1l-2 4l-2 -4v-1zM2130 1433l5 -3h17q52 0 65 23q-32 -20 -87 -20zM2142 1501q0 -48 44 -48q23 0 72 51q-17 -12 -48 -34q86 81 86 156q0 21 -15 35h-15q-47 0 -87 -58q-37 -54 -37 -102zM2188 1459 v1l3 3l3 -3v-1l-3 -3zM2198 1463v1v2l3 1l1 -2l-1 -2h-1h-2zM2226 1459l2 -3l2 3v1l-2 3zM2244 1683l2 -4l4 3v1l-4 4zM2319 1687l3 -3l2 3v1l-2 3l-3 -3v-1z" />
<glyph unicode="&#xc7;" horiz-adv-x="1282" d="M127 973q0 188 143 298q130 99 324 99q219 0 416 -170h14l147 64h-26q69 39 147 39h29q29 -9 57 -9q21 0 60.5 10.5t60.5 10.5h25q149 0 149 -123q0 -33 -14 -64q-12 -27 -25 -57q-8 -38 -8 -63q-12 -43 -88 -123l-18 -19h-9q-59 -65 -100 -80h-6l27 27 q-295 -141 -582 -195h-6q-72 0 -215 -20q-22 -11 -41 -70q-9 -26 -25 -82q-35 -118 -35 -172q0 -61 60 -119.5t121 -58.5h14q27 241 149 365q90 92 215 92q158 0 158 -166t-162 -299q-105 -86 -221 -119q4 -12 4 -28q0 -60 -82 -134q7 -26 7 -45h-15q-11 24 -20 68 q-14 65 -27 113q-169 26 -245 100q-83 82 -83 248v61q1 5 5 31l16 123q0 5 4 18l10 33q13 43 13 49v6q-7 6 -15 6q-173 33 -238 105q-69 77 -69 250zM160 985q0 -14 8 -24q49 45 74 73q-47 -55 -47 -90v-4q38 58 106 109q79 59 137 59h4q-100 -47 -145 -92q-64 -64 -64 -156 v-35q123 -133 238 -133h4l6 6q44 79 94 156q114 175 275 266l-14 -14q-31 -31 -80 -92q102 90 227 168v6l-12 14q-9 11 -21 19l-30 21q-13 9 -37 26q-27 12 -66 32q-55 19 -82 29q-49 12 -73 12h-76q-219 0 -342 -127q-84 -86 -84 -202v-27zM535 96q30 -121 190 -121 q0 56 -47 78q-4 2 -96 25q-6 1 -19 10q-14 4 -22 10h-2q-2 -2 -4 -2zM662 680q6 0 16 -2h14q206 0 401 65q209 69 353 197q86 76 86 117q0 85 -61 138t-146 46q-66 -5 -201 -94q-41 -19 -41 -27v-6q54 -74 107 -186q2 -2 2 -4q0 -4 -2 -4l-2 -2q-2 -4 -4 -5h-4 q-4 0 -56 94.5t-69 94.5q-4 0 -45 -29q-250 -176 -348 -393zM756 -14q20 12 61 12q19 0 31 -8q146 38 196 106h-8q-145 -55 -280 -59v-51zM760 -94q4 -21 10 -47q2 28 -10 47zM762 90q74 -6 180 -6q115 0 198 95q79 91 79 208v51q-21 80 -115 80q-120 0 -234 -151 q-108 -143 -108 -267v-10zM762 946q106 88 268 189v6l-26 26h-3q-28 0 -124 -92q-81 -77 -115 -129zM772 -145l2 -5q2 -12 6 -22q11 26 11 35v10zM862 1128q2 5 8 7q1 -3 1 -4q0 -4 -5 -4q-2 1 -4 1zM1030 1182l27 -27h2q0 -2 2 -2l176 88q-6 0 -18 2h-19q-70 0 -170 -55v-6 zM1458 1282q4 -10 23 -14l18 -6q103 -48 133 -134q15 35 15 66q0 94 -111 94q-43 0 -78 -6z" />
<glyph unicode="&#xc8;" horiz-adv-x="1094" d="M96 344q0 57 19 123q59 203 235 276l17 7q78 32 116 32l-37 -22q101 22 211 57q-42 39 -63 39q-19 0 -56.5 -3t-56.5 -3q-145 0 -246 63q-118 74 -118 211q0 141 122 226q108 75 255 75q187 0 337 -120q5 -3 15 -7q186 88 315 88q113 0 113 -98q0 -9 -3 -26.5t-3 -26.5 l26.5 -45t26.5 -76q0 -92 -81 -169t-173 -77q-47 0 -93 20q-54 24 -69 62q-54 -20 -112 -53v-80l-9 -8q-15 -3 -45 -6h140q32 0 32 -27q0 -8 -12 -20h-41q-20 0 -60.5 7t-60.5 7q-177 0 -316 -169q-132 -160 -132 -341q0 -96 36 -139.5t132 -67.5v13q-1 40 9.5 115t10.5 112 q0 13 -3 38t-3 38q0 73 27 100v-4q0 -10 -4.5 -29.5t-4.5 -29.5q0 -33 9 -52q4 8 6 27q15 122 141 201q43 23 127 71h-27q22 17 54 17q120 0 195 -44q93 -55 93 -165q0 -148 -119 -262q-99 -94 -257 -146q-126 -41 -219 -59l38 -174h-12q-16 42 -35 106q-2 23 -18 68 q-169 27 -238 96l-90 90q-41 42 -41 164zM170 1151q74 80 133 80q-45 -21 -65 -47q67 47 137 47q57 0 57 -49q0 -2 -1 -5.5t-1 -5.5q-22 -14 -43 -14q-31 0 -31 27q1 -6 9 -6q53 0 53 12q0 22 -37 22q-119 0 -119 -131q0 -106 87 -145q59 -27 181 -27q19 0 35 9 q4 128 70 215q51 66 176 145l2 4l-2 2q-17 20 -53 41q-130 74 -269 74q-114 0 -207 -53q-112 -63 -112 -168v-27zM291 582q198 159 420 209q-6 6 -37 6q-180 0 -383 -215zM317 1239q1 2 6 2h2q5 0 5 -2v-1q-2 -4 -6 -5q-7 0 -7 6zM489 76q0 -3 1.5 -10.5t1.5 -12.5l6 -6 l80 -4q19 -2 20 -2q9 0 24 6t23 6q316 148 316 383q0 133 -121 133q-105 0 -197 -114q-49 -61 -78 -119q-2 -4 -2 -10q0 -45 55 -45q13 0 36.5 33.5t35.5 33.5q82 0 82 -47q0 -40 -32.5 -67t-73.5 -27q-88 0 -136 47q-16 -6 -30 -81q-11 -63 -11 -97zM545 428 q119 176 286 176q15 0 44.5 -7t44.5 -7q-24 41 -117 41q-71 0 -162 -66q-96 -70 -96 -137zM678 944q16 27 33 80q33 103 141 168q-37 -47 -53 -82q37 30 106 94q-16 29 -33 29q-9 0 -32 -23q-19 -17 -56 -51q-106 -104 -106 -215zM725 68q182 66 254 200q33 61 33 74 q-37 -60 -103 -124v3q-1 5 -4 6q-4 -2 -4 -6q1 -5 4 -6q-52 -50 -121 -102q-21 -14 -59 -45zM811 969q39 0 68 35l-13 14q54 59 113 80v-21l33 15h8q12 0 12 -15q0 -3 -3 -11.5t-3 -14.5q111 65 174 133v4q0 24 -56 39q-42 12 -77 12q-24 0 -68 -10q-53 -12 -53 -25v-6 q18 -21 39 -53l-6 -8h-6l-47 47h-6l-19 -19q-51 -50 -69 -87q-21 -42 -21 -109zM885 983l4 -4q3 2 4 4l-4 4zM899 1251l33 -32q32 15 94 38h-41q19 15 84 15q28 0 82 -13.5t82 -13.5q14 0 14 49q0 64 -84 64q-57 0 -142 -33q-90 -34 -122 -74zM905 215l4 3q-1 -3 -4 -3z M920 242q73 57 73 180v41q-22 -144 -73 -221zM926 582q13 -17 41 -47v4q0 43 -41 43zM928 1592q1 45 28 45q20 0 43 -76q24 -82 70 -106h2l2 -5v-8q-2 -5 -4 -8q-43 0 -88 37q-54 45 -53 121zM969 524q1 -2 3 -2q1 0 5 2q-2 2 -6 4q-2 0 -2 -4zM975 506q0 -4 3 -4q4 1 5 6 q0 8 -5 8q-3 -1 -3 -6v-4zM981 477q0 -4 3 -9q4 0 5 12v4q-1 13 -5 13q-3 -3 -3 -12v-8zM1006 993q0 -69 57 -69q43 0 63 20l86 86q11 11 11 78v51q-14 0 -78 -61q-12 -11 -139 -94v-11zM1016 358l4 -4l4 4q-2 3 -4 4zM1022 375q1 -4 4 -6q4 2 4 6q0 5 -4 6q-4 -2 -4 -6z M1128 923q1 -5 4 -5h2q5 0 5 5v2q0 5 -5 5h-2q-4 0 -4 -5v-2zM1147 930q7 1 100 94v12q-69 -67 -100 -106zM1249 1051q1 -5 4 -7q4 1 4 6v2q-1 4 -4 5q-4 -2 -4 -6z" />
<glyph unicode="&#xc9;" horiz-adv-x="1094" d="M96 344q0 57 19 123q59 203 235 276l17 7q78 32 116 32l-37 -22q101 22 211 57q-42 39 -63 39q-19 0 -56.5 -3t-56.5 -3q-145 0 -246 63q-118 74 -118 211q0 141 122 226q108 75 255 75q187 0 337 -120q5 -3 15 -7q186 88 315 88q113 0 113 -98q0 -9 -3 -26.5t-3 -26.5 l26.5 -45t26.5 -76q0 -92 -81 -169t-173 -77q-47 0 -93 20q-54 24 -69 62q-54 -20 -112 -53v-80l-9 -8q-15 -3 -45 -6h140q32 0 32 -27q0 -8 -12 -20h-41q-20 0 -60.5 7t-60.5 7q-177 0 -316 -169q-132 -160 -132 -341q0 -96 36 -139.5t132 -67.5v13q-1 40 9.5 115t10.5 112 q0 13 -3 38t-3 38q0 73 27 100v-4q0 -10 -4.5 -29.5t-4.5 -29.5q0 -33 9 -52q4 8 6 27q15 122 141 201q43 23 127 71h-27q22 17 54 17q120 0 195 -44q93 -55 93 -165q0 -148 -119 -262q-99 -94 -257 -146q-126 -41 -219 -59l38 -174h-12q-16 42 -35 106q-2 23 -18 68 q-169 27 -238 96l-90 90q-41 42 -41 164zM170 1151q74 80 133 80q-45 -21 -65 -47q67 47 137 47q57 0 57 -49q0 -2 -1 -5.5t-1 -5.5q-22 -14 -43 -14q-31 0 -31 27q1 -6 9 -6q53 0 53 12q0 22 -37 22q-119 0 -119 -131q0 -106 87 -145q59 -27 181 -27q19 0 35 9 q4 128 70 215q51 66 176 145l2 4l-2 2q-17 20 -53 41q-130 74 -269 74q-114 0 -207 -53q-112 -63 -112 -168v-27zM291 582q198 159 420 209q-6 6 -37 6q-180 0 -383 -215zM317 1239q1 2 6 2h2q5 0 5 -2v-1q-2 -4 -6 -5q-7 0 -7 6zM489 76q0 -3 1.5 -10.5t1.5 -12.5l6 -6 l80 -4q19 -2 20 -2q9 0 24 6t23 6q316 148 316 383q0 133 -121 133q-105 0 -197 -114q-49 -61 -78 -119q-2 -4 -2 -10q0 -45 55 -45q13 0 36.5 33.5t35.5 33.5q82 0 82 -47q0 -40 -32.5 -67t-73.5 -27q-88 0 -136 47q-16 -6 -30 -81q-11 -63 -11 -97zM545 428 q119 176 286 176q15 0 44.5 -7t44.5 -7q-24 41 -117 41q-71 0 -162 -66q-96 -70 -96 -137zM678 944q16 27 33 80q33 103 141 168q-37 -47 -53 -82q37 30 106 94q-16 29 -33 29q-9 0 -32 -23q-19 -17 -56 -51q-106 -104 -106 -215zM725 68q182 66 254 200q33 61 33 74 q-37 -60 -103 -124v3q-1 5 -4 6q-4 -2 -4 -6q1 -5 4 -6q-52 -50 -121 -102q-21 -14 -59 -45zM811 969q39 0 68 35l-13 14q54 59 113 80v-21l33 15h8q12 0 12 -15q0 -3 -3 -11.5t-3 -14.5q111 65 174 133v4q0 24 -56 39q-42 12 -77 12q-24 0 -68 -10q-53 -12 -53 -25v-6 q18 -21 39 -53l-6 -8h-6l-47 47h-6l-19 -19q-51 -50 -69 -87q-21 -42 -21 -109zM885 983l4 -4q3 2 4 4l-4 4zM899 1251l33 -32q32 15 94 38h-41q19 15 84 15q28 0 82 -13.5t82 -13.5q14 0 14 49q0 64 -84 64q-57 0 -142 -33q-90 -34 -122 -74zM905 215l4 3q-1 -3 -4 -3z M920 242q73 57 73 180v41q-22 -144 -73 -221zM926 582q13 -17 41 -47v4q0 43 -41 43zM969 524q1 -2 3 -2q1 0 5 2q-2 2 -6 4q-2 0 -2 -4zM975 506q0 -4 3 -4q4 1 5 6q0 8 -5 8q-3 -1 -3 -6v-4zM981 477q0 -4 3 -9q4 0 5 12v4q-1 13 -5 13q-3 -3 -3 -12v-8zM993 1450v8l2 5h2 q46 24 70 106q23 76 43 76q27 0 28 -45q1 -76 -53 -121q-45 -37 -88 -37q-2 3 -4 8zM1006 993q0 -69 57 -69q43 0 63 20l86 86q11 11 11 78v51q-14 0 -78 -61q-12 -11 -139 -94v-11zM1016 358l4 -4l4 4q-2 3 -4 4zM1022 375q1 -4 4 -6q4 2 4 6q0 5 -4 6q-4 -2 -4 -6z M1128 923q1 -5 4 -5h2q5 0 5 5v2q0 5 -5 5h-2q-4 0 -4 -5v-2zM1147 930q7 1 100 94v12q-69 -67 -100 -106zM1249 1051q1 -5 4 -7q4 1 4 6v2q-1 4 -4 5q-4 -2 -4 -6z" />
<glyph unicode="&#xca;" horiz-adv-x="1094" d="M96 344q0 57 19 123q59 203 235 276l17 7q78 32 116 32l-37 -22q101 22 211 57q-42 39 -63 39q-19 0 -56.5 -3t-56.5 -3q-145 0 -246 63q-118 74 -118 211q0 141 122 226q108 75 255 75q187 0 337 -120q5 -3 15 -7q186 88 315 88q113 0 113 -98q0 -9 -3 -26.5t-3 -26.5 l26.5 -45t26.5 -76q0 -92 -81 -169t-173 -77q-47 0 -93 20q-54 24 -69 62q-54 -20 -112 -53v-80l-9 -8q-15 -3 -45 -6h140q32 0 32 -27q0 -8 -12 -20h-41q-20 0 -60.5 7t-60.5 7q-177 0 -316 -169q-132 -160 -132 -341q0 -96 36 -139.5t132 -67.5v13q-1 40 9.5 115t10.5 112 q0 13 -3 38t-3 38q0 73 27 100v-4q0 -10 -4.5 -29.5t-4.5 -29.5q0 -33 9 -52q4 8 6 27q15 122 141 201q43 23 127 71h-27q22 17 54 17q120 0 195 -44q93 -55 93 -165q0 -148 -119 -262q-99 -94 -257 -146q-126 -41 -219 -59l38 -174h-12q-16 42 -35 106q-2 23 -18 68 q-169 27 -238 96l-90 90q-41 42 -41 164zM170 1151q74 80 133 80q-45 -21 -65 -47q67 47 137 47q57 0 57 -49q0 -2 -1 -5.5t-1 -5.5q-22 -14 -43 -14q-31 0 -31 27q1 -6 9 -6q53 0 53 12q0 22 -37 22q-119 0 -119 -131q0 -106 87 -145q59 -27 181 -27q19 0 35 9 q4 128 70 215q51 66 176 145l2 4l-2 2q-17 20 -53 41q-130 74 -269 74q-114 0 -207 -53q-112 -63 -112 -168v-27zM291 582q198 159 420 209q-6 6 -37 6q-180 0 -383 -215zM317 1239q1 2 6 2h2q5 0 5 -2v-1q-2 -4 -6 -5q-7 0 -7 6zM489 76q0 -3 1.5 -10.5t1.5 -12.5l6 -6 l80 -4q19 -2 20 -2q9 0 24 6t23 6q316 148 316 383q0 133 -121 133q-105 0 -197 -114q-49 -61 -78 -119q-2 -4 -2 -10q0 -45 55 -45q13 0 36.5 33.5t35.5 33.5q82 0 82 -47q0 -40 -32.5 -67t-73.5 -27q-88 0 -136 47q-16 -6 -30 -81q-11 -63 -11 -97zM545 428 q119 176 286 176q15 0 44.5 -7t44.5 -7q-24 41 -117 41q-71 0 -162 -66q-96 -70 -96 -137zM678 944q16 27 33 80q33 103 141 168q-37 -47 -53 -82q37 30 106 94q-16 29 -33 29q-9 0 -32 -23q-19 -17 -56 -51q-106 -104 -106 -215zM725 68q182 66 254 200q33 61 33 74 q-37 -60 -103 -124v3q-1 5 -4 6q-4 -2 -4 -6q1 -5 4 -6q-52 -50 -121 -102q-21 -14 -59 -45zM811 969q39 0 68 35l-13 14q54 59 113 80v-21l33 15h8q12 0 12 -15q0 -3 -3 -11.5t-3 -14.5q111 65 174 133v4q0 24 -56 39q-42 12 -77 12q-24 0 -68 -10q-53 -12 -53 -25v-6 q18 -21 39 -53l-6 -8h-6l-47 47h-6l-19 -19q-51 -50 -69 -87q-21 -42 -21 -109zM884 1471q25 6 75 20q131 42 216 158q13 5 17 4l6 -10q-10 -41 -10 -64q0 -94 116 -94l6 -10q-14 -17 -67 -17q-64 0 -105 68q-36 -25 -112.5 -46.5t-124.5 -21.5q-10 0 -17 13zM885 983l4 -4 q3 2 4 4l-4 4zM899 1251l33 -32q32 15 94 38h-41q19 15 84 15q28 0 82 -13.5t82 -13.5q14 0 14 49q0 64 -84 64q-57 0 -142 -33q-90 -34 -122 -74zM905 215l4 3q-1 -3 -4 -3zM920 242q73 57 73 180v41q-22 -144 -73 -221zM926 582q13 -17 41 -47v4q0 43 -41 43zM969 524 q1 -2 3 -2q1 0 5 2q-2 2 -6 4q-2 0 -2 -4zM975 506q0 -4 3 -4q4 1 5 6q0 8 -5 8q-3 -1 -3 -6v-4zM981 477q0 -4 3 -9q4 0 5 12v4q-1 13 -5 13q-3 -3 -3 -12v-8zM1006 993q0 -69 57 -69q43 0 63 20l86 86q11 11 11 78v51q-14 0 -78 -61q-12 -11 -139 -94v-11zM1016 358l4 -4 l4 4q-2 3 -4 4zM1022 375q1 -4 4 -6q4 2 4 6q0 5 -4 6q-4 -2 -4 -6zM1128 923q1 -5 4 -5h2q5 0 5 5v2q0 5 -5 5h-2q-4 0 -4 -5v-2zM1147 930q7 1 100 94v12q-69 -67 -100 -106zM1249 1051q1 -5 4 -7q4 1 4 6v2q-1 4 -4 5q-4 -2 -4 -6z" />
<glyph unicode="&#xcb;" horiz-adv-x="1094" d="M96 344q0 57 19 123q59 203 235 276l17 7q78 32 116 32l-37 -22q101 22 211 57q-42 39 -63 39q-19 0 -56.5 -3t-56.5 -3q-145 0 -246 63q-118 74 -118 211q0 141 122 226q108 75 255 75q187 0 337 -120q5 -3 15 -7q186 88 315 88q113 0 113 -98q0 -9 -3 -26.5t-3 -26.5 l26.5 -45t26.5 -76q0 -92 -81 -169t-173 -77q-47 0 -93 20q-54 24 -69 62q-54 -20 -112 -53v-80l-9 -8q-15 -3 -45 -6h140q32 0 32 -27q0 -8 -12 -20h-41q-20 0 -60.5 7t-60.5 7q-177 0 -316 -169q-132 -160 -132 -341q0 -96 36 -139.5t132 -67.5v13q-1 40 9.5 115t10.5 112 q0 13 -3 38t-3 38q0 73 27 100v-4q0 -10 -4.5 -29.5t-4.5 -29.5q0 -33 9 -52q4 8 6 27q15 122 141 201q43 23 127 71h-27q22 17 54 17q120 0 195 -44q93 -55 93 -165q0 -148 -119 -262q-99 -94 -257 -146q-126 -41 -219 -59l38 -174h-12q-16 42 -35 106q-2 23 -18 68 q-169 27 -238 96l-90 90q-41 42 -41 164zM170 1151q74 80 133 80q-45 -21 -65 -47q67 47 137 47q57 0 57 -49q0 -2 -1 -5.5t-1 -5.5q-22 -14 -43 -14q-31 0 -31 27q1 -6 9 -6q53 0 53 12q0 22 -37 22q-119 0 -119 -131q0 -106 87 -145q59 -27 181 -27q19 0 35 9 q4 128 70 215q51 66 176 145l2 4l-2 2q-17 20 -53 41q-130 74 -269 74q-114 0 -207 -53q-112 -63 -112 -168v-27zM291 582q198 159 420 209q-6 6 -37 6q-180 0 -383 -215zM317 1239q1 2 6 2h2q5 0 5 -2v-1q-2 -4 -6 -5q-7 0 -7 6zM489 76q0 -3 1.5 -10.5t1.5 -12.5l6 -6 l80 -4q19 -2 20 -2q9 0 24 6t23 6q316 148 316 383q0 133 -121 133q-105 0 -197 -114q-49 -61 -78 -119q-2 -4 -2 -10q0 -45 55 -45q13 0 36.5 33.5t35.5 33.5q82 0 82 -47q0 -40 -32.5 -67t-73.5 -27q-88 0 -136 47q-16 -6 -30 -81q-11 -63 -11 -97zM545 428 q119 176 286 176q15 0 44.5 -7t44.5 -7q-24 41 -117 41q-71 0 -162 -66q-96 -70 -96 -137zM678 944q16 27 33 80q33 103 141 168q-37 -47 -53 -82q37 30 106 94q-16 29 -33 29q-9 0 -32 -23q-19 -17 -56 -51q-106 -104 -106 -215zM725 68q182 66 254 200q33 61 33 74 q-37 -60 -103 -124v3q-1 5 -4 6q-4 -2 -4 -6q1 -5 4 -6q-52 -50 -121 -102q-21 -14 -59 -45zM811 969q39 0 68 35l-13 14q54 59 113 80v-21l33 15h8q12 0 12 -15q0 -3 -3 -11.5t-3 -14.5q111 65 174 133v4q0 24 -56 39q-42 12 -77 12q-24 0 -68 -10q-53 -12 -53 -25v-6 q18 -21 39 -53l-6 -8h-6l-47 47h-6l-19 -19q-51 -50 -69 -87q-21 -42 -21 -109zM885 983l4 -4q3 2 4 4l-4 4zM899 1251l33 -32q32 15 94 38h-41q19 15 84 15q28 0 82 -13.5t82 -13.5q14 0 14 49q0 64 -84 64q-57 0 -142 -33q-90 -34 -122 -74zM905 215l4 3q-1 -3 -4 -3z M920 242q73 57 73 180v41q-22 -144 -73 -221zM926 582q13 -17 41 -47v4q0 43 -41 43zM948 1462q0 52 51 52q52 0 52 -52q0 -53 -52 -53q-51 0 -51 53zM969 524q1 -2 3 -2q1 0 5 2q-2 2 -6 4q-2 0 -2 -4zM975 506q0 -4 3 -4q4 1 5 6q0 8 -5 8q-3 -1 -3 -6v-4zM981 477 q0 -4 3 -9q4 0 5 12v4q-1 13 -5 13q-3 -3 -3 -12v-8zM1006 993q0 -69 57 -69q43 0 63 20l86 86q11 11 11 78v51q-14 0 -78 -61q-12 -11 -139 -94v-11zM1016 358l4 -4l4 4q-2 3 -4 4zM1022 375q1 -4 4 -6q4 2 4 6q0 5 -4 6q-4 -2 -4 -6zM1128 923q1 -5 4 -5h2q5 0 5 5v2 q0 5 -5 5h-2q-4 0 -4 -5v-2zM1147 930q7 1 100 94v12q-69 -67 -100 -106zM1163 1462q0 52 51 52q52 0 52 -52q0 -53 -52 -53q-51 0 -51 53zM1249 1051q1 -5 4 -7q4 1 4 6v2q-1 4 -4 5q-4 -2 -4 -6z" />
<glyph unicode="&#xcc;" horiz-adv-x="1563" d="M160 465q0 191 165 319q152 119 349 119q151 0 266 -75q131 -86 131 -230q0 -45 -12 -78q-14 -39 -62.5 -101t-81.5 -85q-29 -20 -92 -37.5t-102 -17.5q-68 0 -176 20q-137 26 -137 61l2 5l4 2h6q158 -59 182 -54q-67 56 -67 107q0 39 47 80v-2q0 -6 -4.5 -17.5 t-4.5 -17.5q0 -2 2 -8q19 20 38 39q30 28 44 28q0 -17 -18 -47.5t-18 -46.5q0 -39 28 -77t66 -38q90 0 184 58q105 65 105 149q-22 -32 -68 -92v6q35 78 35 144q0 135 -103 178q-62 26 -114 26q-158 0 -270 -101q-117 -105 -117 -261q0 -166 127 -281q45 -41 172 -41 q388 0 618 348l37 56q53 77 117 186q-37 15 -63 22q-8 1 -23.5 6t-42.5 24q-86 63 -92 190q-168 39 -168 151q0 62 47 103v-4q0 -10 -3 -29t-3 -29q16 47 88 95v-7q-41 -82 -41 -120q0 -39 20 -68q23 -33 60 -33q6 0 43 64q56 98 131 157v7q-56 25 -111 24l-76 -2 q-1 -2 -1.5 -1t1.5 1v4l33 25h-27q17 10 78 10q29 0 85 -10.5t85 -10.5q365 183 725 183q-1 -35 -63 -35q-121 -55 -181 -121h7q21 0 34 6l7 -6v-4l-68 -31q-4 -2 -23 -20q-70 -64 -137 -187q-9 -19 -28 -57q-50 -87 -140 -264q105 22 262 168l7 -6v-9q-20 -49 -123 -111 q-93 -55 -158 -69l-242 -381q-47 -74 -170 -153q-130 -84 -211 -84v10q187 74 261 160h-7q-116 -75 -122 -75q-1 0 -5 1q-204 -86 -374 -100q14 -2 43 -6l85 -6l7 -1q0 -1 -1 -1l7 -5q-57 -14 -162 -14q-188 0 -350 117q-178 128 -178 309zM213 410q0 -148 115 -217h6 q-62 88 -62 182q0 58 23 129q26 83 65 110q-41 -71 -41 -141q70 223 375 336h-45q60 14 195 14q-43 13 -119 13q-192 0 -345 -115q-167 -125 -167 -311zM336 186q1 -4 4 -6q4 1 4 5v2q-1 5 -4 6q-4 -2 -4 -7zM365 630l2 5l5 2l3 -2q0 -5 -4 -7l-4 1zM858 815q1 -4 4 -6 q4 2 4 6q0 5 -4 6q-4 -2 -4 -6zM868 66q21 8 47 8v-8q-24 -7 -25 -7h-16q-3 3 -6 7zM1296 899q0 -76 36 -124q40 -54 114 -54q8 0 12 8l119 217q64 117 141 203q-30 -6 -63 -6q-34 0 -97.5 23.5t-97.5 23.5q-41 0 -96 -80q-53 -76 -53 -121h20l-6 -6h8q44 0 87 21 q48 23 65 59l2 -4v-6q0 -30 -80 -74q-65 -37 -111 -49v-31zM1518 1237q71 -47 194 -41l-6 -6h23q45 0 63 14q20 18 60 53q121 104 208 148h-24q-119 0 -264.5 -46.5t-245.5 -115.5q-3 -2 -8 -6zM1720 1201v2q0 7 5 7h2q4 0 4 -7v-2q-1 -5 -5 -5q-6 0 -6 5zM1954 1665 q1 45 28 45q20 0 43 -76q24 -82 70 -106h2l2 -5v-8q-2 -5 -4 -8q-43 0 -88 37q-54 45 -53 121z" />
<glyph unicode="&#xcd;" horiz-adv-x="1563" d="M160 465q0 191 165 319q152 119 349 119q151 0 266 -75q131 -86 131 -230q0 -45 -12 -78q-14 -39 -62.5 -101t-81.5 -85q-29 -20 -92 -37.5t-102 -17.5q-68 0 -176 20q-137 26 -137 61l2 5l4 2h6q158 -59 182 -54q-67 56 -67 107q0 39 47 80v-2q0 -6 -4.5 -17.5 t-4.5 -17.5q0 -2 2 -8q19 20 38 39q30 28 44 28q0 -17 -18 -47.5t-18 -46.5q0 -39 28 -77t66 -38q90 0 184 58q105 65 105 149q-22 -32 -68 -92v6q35 78 35 144q0 135 -103 178q-62 26 -114 26q-158 0 -270 -101q-117 -105 -117 -261q0 -166 127 -281q45 -41 172 -41 q388 0 618 348l37 56q53 77 117 186q-37 15 -63 22q-8 1 -23.5 6t-42.5 24q-86 63 -92 190q-168 39 -168 151q0 62 47 103v-4q0 -10 -3 -29t-3 -29q16 47 88 95v-7q-41 -82 -41 -120q0 -39 20 -68q23 -33 60 -33q6 0 43 64q56 98 131 157v7q-56 25 -111 24l-76 -2 q-1 -2 -1.5 -1t1.5 1v4l33 25h-27q17 10 78 10q29 0 85 -10.5t85 -10.5q365 183 725 183q-1 -35 -63 -35q-121 -55 -181 -121h7q21 0 34 6l7 -6v-4l-68 -31q-4 -2 -23 -20q-70 -64 -137 -187q-9 -19 -28 -57q-50 -87 -140 -264q105 22 262 168l7 -6v-9q-20 -49 -123 -111 q-93 -55 -158 -69l-242 -381q-47 -74 -170 -153q-130 -84 -211 -84v10q187 74 261 160h-7q-116 -75 -122 -75q-1 0 -5 1q-204 -86 -374 -100q14 -2 43 -6l85 -6l7 -1q0 -1 -1 -1l7 -5q-57 -14 -162 -14q-188 0 -350 117q-178 128 -178 309zM213 410q0 -148 115 -217h6 q-62 88 -62 182q0 58 23 129q26 83 65 110q-41 -71 -41 -141q70 223 375 336h-45q60 14 195 14q-43 13 -119 13q-192 0 -345 -115q-167 -125 -167 -311zM336 186q1 -4 4 -6q4 1 4 5v2q-1 5 -4 6q-4 -2 -4 -7zM365 630l2 5l5 2l3 -2q0 -5 -4 -7l-4 1zM858 815q1 -4 4 -6 q4 2 4 6q0 5 -4 6q-4 -2 -4 -6zM868 66q21 8 47 8v-8q-24 -7 -25 -7h-16q-3 3 -6 7zM1296 899q0 -76 36 -124q40 -54 114 -54q8 0 12 8l119 217q64 117 141 203q-30 -6 -63 -6q-34 0 -97.5 23.5t-97.5 23.5q-41 0 -96 -80q-53 -76 -53 -121h20l-6 -6h8q44 0 87 21 q48 23 65 59l2 -4v-6q0 -30 -80 -74q-65 -37 -111 -49v-31zM1518 1237q71 -47 194 -41l-6 -6h23q45 0 63 14q20 18 60 53q121 104 208 148h-24q-119 0 -264.5 -46.5t-245.5 -115.5q-3 -2 -8 -6zM1720 1201v2q0 7 5 7h2q4 0 4 -7v-2q-1 -5 -5 -5q-6 0 -6 5zM2114 1491v8l2 5 h2q46 24 70 106q23 76 43 76q27 0 28 -45q1 -76 -53 -121q-45 -37 -88 -37q-2 3 -4 8z" />
<glyph unicode="&#xce;" horiz-adv-x="1563" d="M160 465q0 191 165 319q152 119 349 119q151 0 266 -75q131 -86 131 -230q0 -45 -12 -78q-14 -39 -62.5 -101t-81.5 -85q-29 -20 -92 -37.5t-102 -17.5q-68 0 -176 20q-137 26 -137 61l2 5l4 2h6q158 -59 182 -54q-67 56 -67 107q0 39 47 80v-2q0 -6 -4.5 -17.5 t-4.5 -17.5q0 -2 2 -8q19 20 38 39q30 28 44 28q0 -17 -18 -47.5t-18 -46.5q0 -39 28 -77t66 -38q90 0 184 58q105 65 105 149q-22 -32 -68 -92v6q35 78 35 144q0 135 -103 178q-62 26 -114 26q-158 0 -270 -101q-117 -105 -117 -261q0 -166 127 -281q45 -41 172 -41 q388 0 618 348l37 56q53 77 117 186q-37 15 -63 22q-8 1 -23.5 6t-42.5 24q-86 63 -92 190q-168 39 -168 151q0 62 47 103v-4q0 -10 -3 -29t-3 -29q16 47 88 95v-7q-41 -82 -41 -120q0 -39 20 -68q23 -33 60 -33q6 0 43 64q56 98 131 157v7q-56 25 -111 24l-76 -2 q-1 -2 -1.5 -1t1.5 1v4l33 25h-27q17 10 78 10q29 0 85 -10.5t85 -10.5q365 183 725 183q-1 -35 -63 -35q-121 -55 -181 -121h7q21 0 34 6l7 -6v-4l-68 -31q-4 -2 -23 -20q-70 -64 -137 -187q-9 -19 -28 -57q-50 -87 -140 -264q105 22 262 168l7 -6v-9q-20 -49 -123 -111 q-93 -55 -158 -69l-242 -381q-47 -74 -170 -153q-130 -84 -211 -84v10q187 74 261 160h-7q-116 -75 -122 -75q-1 0 -5 1q-204 -86 -374 -100q14 -2 43 -6l85 -6l7 -1q0 -1 -1 -1l7 -5q-57 -14 -162 -14q-188 0 -350 117q-178 128 -178 309zM213 410q0 -148 115 -217h6 q-62 88 -62 182q0 58 23 129q26 83 65 110q-41 -71 -41 -141q70 223 375 336h-45q60 14 195 14q-43 13 -119 13q-192 0 -345 -115q-167 -125 -167 -311zM336 186q1 -4 4 -6q4 1 4 5v2q-1 5 -4 6q-4 -2 -4 -7zM365 630l2 5l5 2l3 -2q0 -5 -4 -7l-4 1zM858 815q1 -4 4 -6 q4 2 4 6q0 5 -4 6q-4 -2 -4 -6zM868 66q21 8 47 8v-8q-24 -7 -25 -7h-16q-3 3 -6 7zM1296 899q0 -76 36 -124q40 -54 114 -54q8 0 12 8l119 217q64 117 141 203q-30 -6 -63 -6q-34 0 -97.5 23.5t-97.5 23.5q-41 0 -96 -80q-53 -76 -53 -121h20l-6 -6h8q44 0 87 21 q48 23 65 59l2 -4v-6q0 -30 -80 -74q-65 -37 -111 -49v-31zM1518 1237q71 -47 194 -41l-6 -6h23q45 0 63 14q20 18 60 53q121 104 208 148h-24q-119 0 -264.5 -46.5t-245.5 -115.5q-3 -2 -8 -6zM1720 1201v2q0 7 5 7h2q4 0 4 -7v-2q-1 -5 -5 -5q-6 0 -6 5zM1778 1495 q25 6 75 20q131 42 216 158q13 5 17 4l6 -10q-10 -41 -10 -64q0 -94 116 -94l6 -10q-14 -17 -67 -17q-64 0 -105 68q-36 -25 -112.5 -46.5t-124.5 -21.5q-10 0 -17 13z" />
<glyph unicode="&#xcf;" horiz-adv-x="1563" d="M160 465q0 191 165 319q152 119 349 119q151 0 266 -75q131 -86 131 -230q0 -45 -12 -78q-14 -39 -62.5 -101t-81.5 -85q-29 -20 -92 -37.5t-102 -17.5q-68 0 -176 20q-137 26 -137 61l2 5l4 2h6q158 -59 182 -54q-67 56 -67 107q0 39 47 80v-2q0 -6 -4.5 -17.5 t-4.5 -17.5q0 -2 2 -8q19 20 38 39q30 28 44 28q0 -17 -18 -47.5t-18 -46.5q0 -39 28 -77t66 -38q90 0 184 58q105 65 105 149q-22 -32 -68 -92v6q35 78 35 144q0 135 -103 178q-62 26 -114 26q-158 0 -270 -101q-117 -105 -117 -261q0 -166 127 -281q45 -41 172 -41 q388 0 618 348l37 56q53 77 117 186q-37 15 -63 22q-8 1 -23.5 6t-42.5 24q-86 63 -92 190q-168 39 -168 151q0 62 47 103v-4q0 -10 -3 -29t-3 -29q16 47 88 95v-7q-41 -82 -41 -120q0 -39 20 -68q23 -33 60 -33q6 0 43 64q56 98 131 157v7q-56 25 -111 24l-76 -2 q-1 -2 -1.5 -1t1.5 1v4l33 25h-27q17 10 78 10q29 0 85 -10.5t85 -10.5q365 183 725 183q-1 -35 -63 -35q-121 -55 -181 -121h7q21 0 34 6l7 -6v-4l-68 -31q-4 -2 -23 -20q-70 -64 -137 -187q-9 -19 -28 -57q-50 -87 -140 -264q105 22 262 168l7 -6v-9q-20 -49 -123 -111 q-93 -55 -158 -69l-242 -381q-47 -74 -170 -153q-130 -84 -211 -84v10q187 74 261 160h-7q-116 -75 -122 -75q-1 0 -5 1q-204 -86 -374 -100q14 -2 43 -6l85 -6l7 -1q0 -1 -1 -1l7 -5q-57 -14 -162 -14q-188 0 -350 117q-178 128 -178 309zM213 410q0 -148 115 -217h6 q-62 88 -62 182q0 58 23 129q26 83 65 110q-41 -71 -41 -141q70 223 375 336h-45q60 14 195 14q-43 13 -119 13q-192 0 -345 -115q-167 -125 -167 -311zM336 186q1 -4 4 -6q4 1 4 5v2q-1 5 -4 6q-4 -2 -4 -7zM365 630l2 5l5 2l3 -2q0 -5 -4 -7l-4 1zM858 815q1 -4 4 -6 q4 2 4 6q0 5 -4 6q-4 -2 -4 -6zM868 66q21 8 47 8v-8q-24 -7 -25 -7h-16q-3 3 -6 7zM1296 899q0 -76 36 -124q40 -54 114 -54q8 0 12 8l119 217q64 117 141 203q-30 -6 -63 -6q-34 0 -97.5 23.5t-97.5 23.5q-41 0 -96 -80q-53 -76 -53 -121h20l-6 -6h8q44 0 87 21 q48 23 65 59l2 -4v-6q0 -30 -80 -74q-65 -37 -111 -49v-31zM1518 1237q71 -47 194 -41l-6 -6h23q45 0 63 14q20 18 60 53q121 104 208 148h-24q-119 0 -264.5 -46.5t-245.5 -115.5q-3 -2 -8 -6zM1720 1201v2q0 7 5 7h2q4 0 4 -7v-2q-1 -5 -5 -5q-6 0 -6 5zM1917 1528 q0 52 51 52q52 0 52 -52q0 -53 -52 -53q-51 0 -51 53zM2132 1528q0 52 51 52q52 0 52 -52q0 -53 -52 -53q-51 0 -51 53z" />
<glyph unicode="&#xd1;" horiz-adv-x="2132" d="M84 395q0 198 169 328q156 121 359 121q10 0 148 -15q175 -19 228 -38q114 -41 159 -156q8 -21 8 -53q0 -85 -63 -166t-146 -101q-21 -5 -45 -10q-50 -10 -82 -26q-10 -7 -33 -17q-103 -53 -247 -41q133 -147 288 -147q37 0 93 26q241 111 469 389q39 48 59 80l221 361 q0 8 1 26t1 27q0 124 -35 181q-45 73 -161 73q-111 0 -193 -92.5t-82 -204.5q0 -58 31 -97q34 -42 90 -42q74 0 80 102q6 -6 14 -6q3 0 10.5 3t10.5 3q32 0 32 -51q0 -54 -42.5 -88.5t-98.5 -34.5q-75 0 -130.5 60t-55.5 135q0 53 12 86q0 -89 8 -113q21 248 266 360h-32 q30 15 86 15q207 0 282 -180q15 9 101 155q82 139 98 139q14 0 14 -14q0 2 -43 -135q-25 -79 -30 -135h1v-5v-25l1 -329q0 -143 -41 -462q-2 -14 -12 -50q-9 -31 -9 -51l322 570q73 129 254 360q210 268 360 268q36 0 65 -24.5t29 -59.5q0 -71 -73 -71q-31 0 -62 41t-43 41 q-55 0 -123 -68l-80 -80q-129 -129 -315 -434q-52 -80 -147 -242q-73 -146 -227 -432q-14 -24 -23 -35q-17 -22 -33 -22q12 41 35 123q8 28 8 157q0 71 -14.5 213t-14.5 213q0 35 7.5 105.5t7.5 105.5l-195 -420q-54 -116 -233 -241q-202 -141 -322 -180q-18 -6 -192 -27 l-222 -27q-341 0 -479 205q-49 73 -49 176zM131 354q0 -169 158 -250q122 -63 309 -63h59q27 0 62 6q0 4 -6 6q-162 51 -234 121q-29 32 -88 94l4 6q-9 20 -26 81q-19 65 -19 83q0 217 182 326h-4q-57 0 -176 -68q-221 -126 -221 -342zM451 446q0 -43 16 -106q19 -77 45 -86 q17 -6 76 -6q137 0 211 47q-104 60 -105 60q-55 42 -55 100q0 120 80 120q88 0 88 -47q-82 -34 -82 -79q0 -48 35.5 -84.5t83.5 -36.5q60 0 123 141q8 18 8 74q0 104 -88 168q-79 59 -187 59q-97 0 -176 -116q-73 -106 -73 -208zM854 797q154 -84 154 -238q0 -123 -115 -237 q74 8 132 59q62 55 62 127q-17 -29 -53 -72q27 56 27 72v57q0 97 -54 162q-58 70 -153 70zM920 68h16q69 0 162 50q89 47 137 103q-65 -43 -115 -67l6 8q258 190 416 446q113 183 113 248l-207 -328q-1 -1 -59 -75q-218 -276 -469 -385zM1042 114v2q1 5 4 5h2q5 0 5 -5v-2 q0 -5 -5 -5h-2q-4 0 -4 5zM1057 121q1 4 4 6q4 -1 4 -5v-2q-1 -3 -4 -5q-4 2 -4 6zM1069 127q0 5 4 8q6 0 6 -7v-2q0 -5 -6 -5q-4 2 -4 6zM1087 135q7 10 21 12q-10 -10 -21 -12zM1157 1026q0 4 2 6q3 -1 6 -6l-3 -3l-3 -1zM1243 226q1 -3 4 -5q4 1 4 5v3q-1 6 -4 7 q-4 -3 -4 -8v-2zM1411 836q1 -5 4 -7q4 1 4 6v2q0 6 -4 7q-4 -3 -4 -8zM1417 887l4 -4q4 1 6 4q-2 3 -6 4zM1776 1004l16 6v-27l78 221q-16 -12 -94 -153v-7l14 7q-4 -17 -14 -47zM2054 1409q61 117 160 117q36 0 107.5 -16.5t107.5 -16.5q35 0 80 39h2q12 0 12 -8 q-62 -127 -176 -127q-34 0 -99.5 19.5t-99.5 19.5q-51 0 -78 -39h-6q-6 0 -10 12z" />
<glyph unicode="&#xd2;" horiz-adv-x="1401" d="M236 764q0 222 172 388.5t395 166.5h41q26 0 94 -14q13 -7 43 -15l4 4q61 50 187 94t206 44q166 0 217 -115q10 -19 21 -60q40 -42 81 -85q40 -47 40 -109q0 -53 -15 -75t-63 -46q-12 -1 -21 6t-8 19h-28q24 43 34 69v70q0 18 -14 31q-19 -35 -33 -35v82q0 7 -26 26 q-86 62 -254 62q-103 0 -215 -35q26 -33 47 -33q24 0 68.5 16.5t68.5 16.5q120 0 183 -92q55 -80 55 -205q0 -142 -54 -266q-122 -279 -325 -451q-231 -196 -510 -196q-132 0 -219 95q-84 92 -84 226q0 100 67 260q110 263 408 543q12 11 155 121q-59 20 -157 20 q-274 0 -442 -248q-67 -99 -81 -196q-1 -17 -4 -51q-6 -54 -26 -68l-6 6q-2 24 -2 29zM504 332v5q1 -37 2 -89q2 -75 46 -119q37 -37 120 -37q88 0 211 66l-2 -4q-18 -11 -88 -54h6q7 2 24 9q95 35 156 86q108 89 242 301q-29 -25 -77 -87t-77 -87q9 9 20 26q74 113 147 226 q75 134 75 255q0 97 -27 142v-8q0 -21 3 -62.5t3 -62.5q0 -161 -97 -293q-106 -144 -261 -144q-185 0 -185 201q0 175 106 336q97 144 257 246v6q-17 15 -47 35q-14 0 -31 -8q-237 -110 -385 -368q-141 -246 -141 -517zM774 91q0 -5 6 -5q4 2 4 6q0 6 -4 8q-6 0 -6 -7v-2z M786 608q52 269 334 428h-20l-74 -32q27 42 168 67q-25 51 -59 92h-5q-69 0 -203 -165.5t-134 -245.5v-2q3 1 6 6q8 16 26 47q71 121 148 168q-187 -171 -187 -332v-31zM831 604q0 -108 56 -108q26 0 39 12l8 -12q44 6 35 6q12 0 12 -17q0 -16 -27 -43q3 -2 7 -2q34 0 79 35 q112 87 156 216q35 103 35 267q0 35 -17 58q-5 2 -32 2q-129 0 -243 -144q-108 -137 -108 -270zM854 86h6q256 100 438 339q191 250 191 515q0 270 -207 270q-102 0 -121 -32q51 -60 80 -115q168 -18 168 -209q0 -222 -207 -457q-87 -98 -107 -120q-70 -74 -118 -107z M899 168q2 4 8 6l1 -4l-1 -2l-4 -1zM913 1178l121 59q-27 0 -35 14q-31 -23 -86 -73zM926 186q2 7 8 9q1 -1 1 -4q0 -5 -8 -5h-1zM936 433q1 -3 4 -5q4 2 4 6q0 6 -4 8q-4 -2 -4 -7v-2zM946 201v1q0 7 12 12l3 -1q0 -12 -15 -12zM981 227q29 35 59 60q-20 -39 -59 -60z M987 977q10 14 27 20q-17 -14 -27 -20zM989 1237q0 5 4 8q4 -2 4 -7v-2q-1 -4 -4 -5q-4 2 -4 6zM1026 1272q24 -15 41 -21l160 39h-60q109 23 162 23q121 0 254 -49v8q0 65 -76 103q-60 30 -133 30q-157 0 -340 -127q-3 -2 -8 -6zM1063 1264q0 5 4 8q4 -1 4 -7v-2 q-1 -5 -4 -6q-4 2 -4 7zM1083 1270q0 5 4 8q5 0 5 -7v-2q0 -5 -5 -5q-4 2 -4 6zM1110 1278q1 4 4 6q4 -2 4 -6q0 -5 -4 -6q-4 2 -4 6zM1141 1284l4 4q2 -1 2 -3q-1 -4 -4 -5zM1166 1635q1 45 28 45q20 0 43 -76q24 -82 70 -106h2l2 -5v-8q-2 -5 -4 -8q-43 0 -88 37 q-54 45 -53 121zM1225 511q1 -2 2 -3q6 2 8 6l-3 2q-7 -2 -7 -5zM1270 983q1 -4 4 -6q6 0 6 5v2q0 5 -6 5q-4 -2 -4 -6z" />
<glyph unicode="&#xd3;" horiz-adv-x="1401" d="M236 764q0 222 172 388.5t395 166.5h41q26 0 94 -14q13 -7 43 -15l4 4q61 50 187 94t206 44q166 0 217 -115q10 -19 21 -60q40 -42 81 -85q40 -47 40 -109q0 -53 -15 -75t-63 -46q-12 -1 -21 6t-8 19h-28q24 43 34 69v70q0 18 -14 31q-19 -35 -33 -35v82q0 7 -26 26 q-86 62 -254 62q-103 0 -215 -35q26 -33 47 -33q24 0 68.5 16.5t68.5 16.5q120 0 183 -92q55 -80 55 -205q0 -142 -54 -266q-122 -279 -325 -451q-231 -196 -510 -196q-132 0 -219 95q-84 92 -84 226q0 100 67 260q110 263 408 543q12 11 155 121q-59 20 -157 20 q-274 0 -442 -248q-67 -99 -81 -196q-1 -17 -4 -51q-6 -54 -26 -68l-6 6q-2 24 -2 29zM504 332v5q1 -37 2 -89q2 -75 46 -119q37 -37 120 -37q88 0 211 66l-2 -4q-18 -11 -88 -54h6q7 2 24 9q95 35 156 86q108 89 242 301q-29 -25 -77 -87t-77 -87q9 9 20 26q74 113 147 226 q75 134 75 255q0 97 -27 142v-8q0 -21 3 -62.5t3 -62.5q0 -161 -97 -293q-106 -144 -261 -144q-185 0 -185 201q0 175 106 336q97 144 257 246v6q-17 15 -47 35q-14 0 -31 -8q-237 -110 -385 -368q-141 -246 -141 -517zM774 91q0 -5 6 -5q4 2 4 6q0 6 -4 8q-6 0 -6 -7v-2z M786 608q52 269 334 428h-20l-74 -32q27 42 168 67q-25 51 -59 92h-5q-69 0 -203 -165.5t-134 -245.5v-2q3 1 6 6q8 16 26 47q71 121 148 168q-187 -171 -187 -332v-31zM831 604q0 -108 56 -108q26 0 39 12l8 -12q44 6 35 6q12 0 12 -17q0 -16 -27 -43q3 -2 7 -2q34 0 79 35 q112 87 156 216q35 103 35 267q0 35 -17 58q-5 2 -32 2q-129 0 -243 -144q-108 -137 -108 -270zM854 86h6q256 100 438 339q191 250 191 515q0 270 -207 270q-102 0 -121 -32q51 -60 80 -115q168 -18 168 -209q0 -222 -207 -457q-87 -98 -107 -120q-70 -74 -118 -107z M899 168q2 4 8 6l1 -4l-1 -2l-4 -1zM913 1178l121 59q-27 0 -35 14q-31 -23 -86 -73zM926 186q2 7 8 9q1 -1 1 -4q0 -5 -8 -5h-1zM936 433q1 -3 4 -5q4 2 4 6q0 6 -4 8q-4 -2 -4 -7v-2zM946 201v1q0 7 12 12l3 -1q0 -12 -15 -12zM981 227q29 35 59 60q-20 -39 -59 -60z M987 977q10 14 27 20q-17 -14 -27 -20zM989 1237q0 5 4 8q4 -2 4 -7v-2q-1 -4 -4 -5q-4 2 -4 6zM1026 1272q24 -15 41 -21l160 39h-60q109 23 162 23q121 0 254 -49v8q0 65 -76 103q-60 30 -133 30q-157 0 -340 -127q-3 -2 -8 -6zM1063 1264q0 5 4 8q4 -1 4 -7v-2 q-1 -5 -4 -6q-4 2 -4 7zM1083 1270q0 5 4 8q5 0 5 -7v-2q0 -5 -5 -5q-4 2 -4 6zM1110 1278q1 4 4 6q4 -2 4 -6q0 -5 -4 -6q-4 2 -4 6zM1141 1284l4 4q2 -1 2 -3q-1 -4 -4 -5zM1225 511q1 -2 2 -3q6 2 8 6l-3 2q-7 -2 -7 -5zM1270 983q1 -4 4 -6q6 0 6 5v2q0 5 -6 5 q-4 -2 -4 -6zM1419 1476v8l2 5h2q46 24 70 106q23 76 43 76q27 0 28 -45q1 -76 -53 -121q-45 -37 -88 -37q-2 3 -4 8z" />
<glyph unicode="&#xd4;" horiz-adv-x="1401" d="M236 764q0 222 172 388.5t395 166.5h41q26 0 94 -14q13 -7 43 -15l4 4q61 50 187 94t206 44q166 0 217 -115q10 -19 21 -60q40 -42 81 -85q40 -47 40 -109q0 -53 -15 -75t-63 -46q-12 -1 -21 6t-8 19h-28q24 43 34 69v70q0 18 -14 31q-19 -35 -33 -35v82q0 7 -26 26 q-86 62 -254 62q-103 0 -215 -35q26 -33 47 -33q24 0 68.5 16.5t68.5 16.5q120 0 183 -92q55 -80 55 -205q0 -142 -54 -266q-122 -279 -325 -451q-231 -196 -510 -196q-132 0 -219 95q-84 92 -84 226q0 100 67 260q110 263 408 543q12 11 155 121q-59 20 -157 20 q-274 0 -442 -248q-67 -99 -81 -196q-1 -17 -4 -51q-6 -54 -26 -68l-6 6q-2 24 -2 29zM504 332v5q1 -37 2 -89q2 -75 46 -119q37 -37 120 -37q88 0 211 66l-2 -4q-18 -11 -88 -54h6q7 2 24 9q95 35 156 86q108 89 242 301q-29 -25 -77 -87t-77 -87q9 9 20 26q74 113 147 226 q75 134 75 255q0 97 -27 142v-8q0 -21 3 -62.5t3 -62.5q0 -161 -97 -293q-106 -144 -261 -144q-185 0 -185 201q0 175 106 336q97 144 257 246v6q-17 15 -47 35q-14 0 -31 -8q-237 -110 -385 -368q-141 -246 -141 -517zM774 91q0 -5 6 -5q4 2 4 6q0 6 -4 8q-6 0 -6 -7v-2z M786 608q52 269 334 428h-20l-74 -32q27 42 168 67q-25 51 -59 92h-5q-69 0 -203 -165.5t-134 -245.5v-2q3 1 6 6q8 16 26 47q71 121 148 168q-187 -171 -187 -332v-31zM831 604q0 -108 56 -108q26 0 39 12l8 -12q44 6 35 6q12 0 12 -17q0 -16 -27 -43q3 -2 7 -2q34 0 79 35 q112 87 156 216q35 103 35 267q0 35 -17 58q-5 2 -32 2q-129 0 -243 -144q-108 -137 -108 -270zM854 86h6q256 100 438 339q191 250 191 515q0 270 -207 270q-102 0 -121 -32q51 -60 80 -115q168 -18 168 -209q0 -222 -207 -457q-87 -98 -107 -120q-70 -74 -118 -107z M899 168q2 4 8 6l1 -4l-1 -2l-4 -1zM913 1178l121 59q-27 0 -35 14q-31 -23 -86 -73zM926 186q2 7 8 9q1 -1 1 -4q0 -5 -8 -5h-1zM936 433q1 -3 4 -5q4 2 4 6q0 6 -4 8q-4 -2 -4 -7v-2zM946 201v1q0 7 12 12l3 -1q0 -12 -15 -12zM981 227q29 35 59 60q-20 -39 -59 -60z M987 977q10 14 27 20q-17 -14 -27 -20zM989 1237q0 5 4 8q4 -2 4 -7v-2q-1 -4 -4 -5q-4 2 -4 6zM1026 1272q24 -15 41 -21l160 39h-60q109 23 162 23q121 0 254 -49v8q0 65 -76 103q-60 30 -133 30q-157 0 -340 -127q-3 -2 -8 -6zM1063 1264q0 5 4 8q4 -1 4 -7v-2 q-1 -5 -4 -6q-4 2 -4 7zM1083 1270q0 5 4 8q5 0 5 -7v-2q0 -5 -5 -5q-4 2 -4 6zM1103 1482q25 6 75 20q131 42 216 158q13 5 17 4l6 -10q-10 -41 -10 -64q0 -94 116 -94l6 -10q-14 -17 -67 -17q-64 0 -105 68q-36 -25 -112.5 -46.5t-124.5 -21.5q-10 0 -17 13zM1110 1278 q1 4 4 6q4 -2 4 -6q0 -5 -4 -6q-4 2 -4 6zM1141 1284l4 4q2 -1 2 -3q-1 -4 -4 -5zM1225 511q1 -2 2 -3q6 2 8 6l-3 2q-7 -2 -7 -5zM1270 983q1 -4 4 -6q6 0 6 5v2q0 5 -6 5q-4 -2 -4 -6z" />
<glyph unicode="&#xd5;" horiz-adv-x="1401" d="M236 764q0 222 172 388.5t395 166.5h41q26 0 94 -14q13 -7 43 -15l4 4q61 50 187 94t206 44q166 0 217 -115q10 -19 21 -60q40 -42 81 -85q40 -47 40 -109q0 -53 -15 -75t-63 -46q-12 -1 -21 6t-8 19h-28q24 43 34 69v70q0 18 -14 31q-19 -35 -33 -35v82q0 7 -26 26 q-86 62 -254 62q-103 0 -215 -35q26 -33 47 -33q24 0 68.5 16.5t68.5 16.5q120 0 183 -92q55 -80 55 -205q0 -142 -54 -266q-122 -279 -325 -451q-231 -196 -510 -196q-132 0 -219 95q-84 92 -84 226q0 100 67 260q110 263 408 543q12 11 155 121q-59 20 -157 20 q-274 0 -442 -248q-67 -99 -81 -196q-1 -17 -4 -51q-6 -54 -26 -68l-6 6q-2 24 -2 29zM504 332v5q1 -37 2 -89q2 -75 46 -119q37 -37 120 -37q88 0 211 66l-2 -4q-18 -11 -88 -54h6q7 2 24 9q95 35 156 86q108 89 242 301q-29 -25 -77 -87t-77 -87q9 9 20 26q74 113 147 226 q75 134 75 255q0 97 -27 142v-8q0 -21 3 -62.5t3 -62.5q0 -161 -97 -293q-106 -144 -261 -144q-185 0 -185 201q0 175 106 336q97 144 257 246v6q-17 15 -47 35q-14 0 -31 -8q-237 -110 -385 -368q-141 -246 -141 -517zM774 91q0 -5 6 -5q4 2 4 6q0 6 -4 8q-6 0 -6 -7v-2z M786 608q52 269 334 428h-20l-74 -32q27 42 168 67q-25 51 -59 92h-5q-69 0 -203 -165.5t-134 -245.5v-2q3 1 6 6q8 16 26 47q71 121 148 168q-187 -171 -187 -332v-31zM831 604q0 -108 56 -108q26 0 39 12l8 -12q44 6 35 6q12 0 12 -17q0 -16 -27 -43q3 -2 7 -2q34 0 79 35 q112 87 156 216q35 103 35 267q0 35 -17 58q-5 2 -32 2q-129 0 -243 -144q-108 -137 -108 -270zM854 86h6q256 100 438 339q191 250 191 515q0 270 -207 270q-102 0 -121 -32q51 -60 80 -115q168 -18 168 -209q0 -222 -207 -457q-87 -98 -107 -120q-70 -74 -118 -107z M899 168q2 4 8 6l1 -4l-1 -2l-4 -1zM913 1178l121 59q-27 0 -35 14q-31 -23 -86 -73zM926 186q2 7 8 9q1 -1 1 -4q0 -5 -8 -5h-1zM936 433q1 -3 4 -5q4 2 4 6q0 6 -4 8q-4 -2 -4 -7v-2zM946 201v1q0 7 12 12l3 -1q0 -12 -15 -12zM981 227q29 35 59 60q-20 -39 -59 -60z M987 977q10 14 27 20q-17 -14 -27 -20zM989 1237q0 5 4 8q4 -2 4 -7v-2q-1 -4 -4 -5q-4 2 -4 6zM1026 1272q24 -15 41 -21l160 39h-60q109 23 162 23q121 0 254 -49v8q0 65 -76 103q-60 30 -133 30q-157 0 -340 -127q-3 -2 -8 -6zM1063 1264q0 5 4 8q4 -1 4 -7v-2 q-1 -5 -4 -6q-4 2 -4 7zM1083 1270q0 5 4 8q5 0 5 -7v-2q0 -5 -5 -5q-4 2 -4 6zM1110 1278q1 4 4 6q4 -2 4 -6q0 -5 -4 -6q-4 2 -4 6zM1137 1487q61 117 160 117q36 0 107.5 -16.5t107.5 -16.5q35 0 80 39h2q12 0 12 -8q-62 -127 -176 -127q-34 0 -99.5 19.5t-99.5 19.5 q-51 0 -78 -39h-6q-6 0 -10 12zM1141 1284l4 4q2 -1 2 -3q-1 -4 -4 -5zM1225 511q1 -2 2 -3q6 2 8 6l-3 2q-7 -2 -7 -5zM1270 983q1 -4 4 -6q6 0 6 5v2q0 5 -6 5q-4 -2 -4 -6z" />
<glyph unicode="&#xd6;" horiz-adv-x="1401" d="M236 764q0 222 172 388.5t395 166.5h41q26 0 94 -14q13 -7 43 -15l4 4q61 50 187 94t206 44q166 0 217 -115q10 -19 21 -60q40 -42 81 -85q40 -47 40 -109q0 -53 -15 -75t-63 -46q-12 -1 -21 6t-8 19h-28q24 43 34 69v70q0 18 -14 31q-19 -35 -33 -35v82q0 7 -26 26 q-86 62 -254 62q-103 0 -215 -35q26 -33 47 -33q24 0 68.5 16.5t68.5 16.5q120 0 183 -92q55 -80 55 -205q0 -142 -54 -266q-122 -279 -325 -451q-231 -196 -510 -196q-132 0 -219 95q-84 92 -84 226q0 100 67 260q110 263 408 543q12 11 155 121q-59 20 -157 20 q-274 0 -442 -248q-67 -99 -81 -196q-1 -17 -4 -51q-6 -54 -26 -68l-6 6q-2 24 -2 29zM504 332v5q1 -37 2 -89q2 -75 46 -119q37 -37 120 -37q88 0 211 66l-2 -4q-18 -11 -88 -54h6q7 2 24 9q95 35 156 86q108 89 242 301q-29 -25 -77 -87t-77 -87q9 9 20 26q74 113 147 226 q75 134 75 255q0 97 -27 142v-8q0 -21 3 -62.5t3 -62.5q0 -161 -97 -293q-106 -144 -261 -144q-185 0 -185 201q0 175 106 336q97 144 257 246v6q-17 15 -47 35q-14 0 -31 -8q-237 -110 -385 -368q-141 -246 -141 -517zM774 91q0 -5 6 -5q4 2 4 6q0 6 -4 8q-6 0 -6 -7v-2z M786 608q52 269 334 428h-20l-74 -32q27 42 168 67q-25 51 -59 92h-5q-69 0 -203 -165.5t-134 -245.5v-2q3 1 6 6q8 16 26 47q71 121 148 168q-187 -171 -187 -332v-31zM831 604q0 -108 56 -108q26 0 39 12l8 -12q44 6 35 6q12 0 12 -17q0 -16 -27 -43q3 -2 7 -2q34 0 79 35 q112 87 156 216q35 103 35 267q0 35 -17 58q-5 2 -32 2q-129 0 -243 -144q-108 -137 -108 -270zM854 86h6q256 100 438 339q191 250 191 515q0 270 -207 270q-102 0 -121 -32q51 -60 80 -115q168 -18 168 -209q0 -222 -207 -457q-87 -98 -107 -120q-70 -74 -118 -107z M899 168q2 4 8 6l1 -4l-1 -2l-4 -1zM913 1178l121 59q-27 0 -35 14q-31 -23 -86 -73zM926 186q2 7 8 9q1 -1 1 -4q0 -5 -8 -5h-1zM936 433q1 -3 4 -5q4 2 4 6q0 6 -4 8q-4 -2 -4 -7v-2zM946 201v1q0 7 12 12l3 -1q0 -12 -15 -12zM981 227q29 35 59 60q-20 -39 -59 -60z M987 977q10 14 27 20q-17 -14 -27 -20zM989 1237q0 5 4 8q4 -2 4 -7v-2q-1 -4 -4 -5q-4 2 -4 6zM1026 1272q24 -15 41 -21l160 39h-60q109 23 162 23q121 0 254 -49v8q0 65 -76 103q-60 30 -133 30q-157 0 -340 -127q-3 -2 -8 -6zM1063 1264q0 5 4 8q4 -1 4 -7v-2 q-1 -5 -4 -6q-4 2 -4 7zM1083 1270q0 5 4 8q5 0 5 -7v-2q0 -5 -5 -5q-4 2 -4 6zM1110 1278q1 4 4 6q4 -2 4 -6q0 -5 -4 -6q-4 2 -4 6zM1141 1284l4 4q2 -1 2 -3q-1 -4 -4 -5zM1210 1519q0 52 51 52q52 0 52 -52q0 -53 -52 -53q-51 0 -51 53zM1225 511q1 -2 2 -3q6 2 8 6 l-3 2q-7 -2 -7 -5zM1270 983q1 -4 4 -6q6 0 6 5v2q0 5 -6 5q-4 -2 -4 -6zM1425 1519q0 52 51 52q52 0 52 -52q0 -53 -52 -53q-51 0 -51 53z" />
<glyph unicode="&#xd9;" horiz-adv-x="1729" d="M127 625q0 262 191 486q199 235 456 235q42 0 117 -16q82 -17 117 -19q61 -2 176 -19q151 -44 151 -291q0 -122 -100 -284l-274 -443q-62 -100 -62 -151q0 -49 121 -49q-51 -21 -166 -21q-18 17 -47 27q-14 -4 -14 -57q0 -50 51 -50t115 34q61 32 96 73l-8 8 q116 71 215 180q2 2 16 27q21 38 91 123q10 10 26 31l489 808q0 4 21 7q167 24 180 24l-696 -1100q-41 -65 -41 -100q22 -8 51 -8q36 0 63 14q73 39 174 121v-8q0 -9 -14 -19l-108 -74q-62 -39 -117 -56q-21 -3 -62 -11q-8 -2 -8 -24q0 -50 41 -50q58 0 189 121 q73 74 147 148h14l-2 -4v-5q-127 -146 -157 -175q-114 -111 -191 -111q-86 0 -86 127q-47 22 -47 67q0 25 27 74q-101 -82 -202 -163q-141 -105 -224 -105q-49 0 -77 38q-26 35 -26 85q0 151 133 352l328 496q13 19 27 53q2 4 2 41q0 95 -49 166q-55 79 -146 79h-14 q53 -75 53 -170q0 -200 -145 -357q-149 -161 -347 -161q-125 0 -163 98q-21 54 -21 205q0 84 62 172v-8q0 -8 -10.5 -31.5t-10.5 -33.5v-35q18 50 75 129q65 92 99 92q-53 -57 -94 -121q193 178 348 236h-6q-17 0 -49 -10.5t-49 -10.5l90 43h-19l33 17q-33 8 -86 8 q-248 0 -430 -219q-134 -161 -177 -360q-5 -32 -15 -97q-3 -19 -25 -18zM391 1219q44 29 47 32l2 -4v-6q0 -22 -42 -22h-7zM426 723q0 -50 41.5 -85.5t91.5 -35.5q53 0 100 21q-149 22 -233 106v-6zM479 913q0 -148 68 -188q46 -27 207 -27v-12q30 0 105 86.5t75 118.5v18 q-13 -35 -41 -80v5q0 12 4 34.5t4 34.5q0 78 -35 101q-5 0 -15.5 1t-16.5 1q-39 0 -134 -62q7 34 80 80h-14q-16 0 -33 -6q26 39 86 39q133 0 162 -94h6q35 79 35 182q0 37 -19 75q-22 46 -55 46q-105 0 -282 -127q-187 -134 -187 -226zM618 1171q1 3 5 5q3 -2 4 -5l-4 -4z M711 1005q2 5 7 7l2 -2v-4l-1 -2l-3 -2q-3 1 -5 3zM762 702q0 5 4 7q6 0 6 -6v-2q0 -5 -6 -5q-4 2 -4 6zM1364 74q1 -4 4 -6q6 0 6 5v2q0 5 -6 5q-4 -2 -4 -6zM1514 1479q1 45 28 45q20 0 43 -76q24 -82 70 -106h2l2 -5v-8q-2 -5 -4 -8q-43 0 -88 37q-54 45 -53 121z" />
<glyph unicode="&#xda;" horiz-adv-x="1729" d="M127 625q0 262 191 486q199 235 456 235q42 0 117 -16q82 -17 117 -19q61 -2 176 -19q151 -44 151 -291q0 -122 -100 -284l-274 -443q-62 -100 -62 -151q0 -49 121 -49q-51 -21 -166 -21q-18 17 -47 27q-14 -4 -14 -57q0 -50 51 -50t115 34q61 32 96 73l-8 8 q116 71 215 180q2 2 16 27q21 38 91 123q10 10 26 31l489 808q0 4 21 7q167 24 180 24l-696 -1100q-41 -65 -41 -100q22 -8 51 -8q36 0 63 14q73 39 174 121v-8q0 -9 -14 -19l-108 -74q-62 -39 -117 -56q-21 -3 -62 -11q-8 -2 -8 -24q0 -50 41 -50q58 0 189 121 q73 74 147 148h14l-2 -4v-5q-127 -146 -157 -175q-114 -111 -191 -111q-86 0 -86 127q-47 22 -47 67q0 25 27 74q-101 -82 -202 -163q-141 -105 -224 -105q-49 0 -77 38q-26 35 -26 85q0 151 133 352l328 496q13 19 27 53q2 4 2 41q0 95 -49 166q-55 79 -146 79h-14 q53 -75 53 -170q0 -200 -145 -357q-149 -161 -347 -161q-125 0 -163 98q-21 54 -21 205q0 84 62 172v-8q0 -8 -10.5 -31.5t-10.5 -33.5v-35q18 50 75 129q65 92 99 92q-53 -57 -94 -121q193 178 348 236h-6q-17 0 -49 -10.5t-49 -10.5l90 43h-19l33 17q-33 8 -86 8 q-248 0 -430 -219q-134 -161 -177 -360q-5 -32 -15 -97q-3 -19 -25 -18zM391 1219q44 29 47 32l2 -4v-6q0 -22 -42 -22h-7zM426 723q0 -50 41.5 -85.5t91.5 -35.5q53 0 100 21q-149 22 -233 106v-6zM479 913q0 -148 68 -188q46 -27 207 -27v-12q30 0 105 86.5t75 118.5v18 q-13 -35 -41 -80v5q0 12 4 34.5t4 34.5q0 78 -35 101q-5 0 -15.5 1t-16.5 1q-39 0 -134 -62q7 34 80 80h-14q-16 0 -33 -6q26 39 86 39q133 0 162 -94h6q35 79 35 182q0 37 -19 75q-22 46 -55 46q-105 0 -282 -127q-187 -134 -187 -226zM618 1171q1 3 5 5q3 -2 4 -5l-4 -4z M711 1005q2 5 7 7l2 -2v-4l-1 -2l-3 -2q-3 1 -5 3zM762 702q0 5 4 7q6 0 6 -6v-2q0 -5 -6 -5q-4 2 -4 6zM1364 74q1 -4 4 -6q6 0 6 5v2q0 5 -6 5q-4 -2 -4 -6zM1684 1382v8l2 5h2q46 24 70 106q23 76 43 76q27 0 28 -45q1 -76 -53 -121q-45 -37 -88 -37q-2 3 -4 8z" />
<glyph unicode="&#xdb;" horiz-adv-x="1729" d="M127 625q0 262 191 486q199 235 456 235q42 0 117 -16q82 -17 117 -19q61 -2 176 -19q151 -44 151 -291q0 -122 -100 -284l-274 -443q-62 -100 -62 -151q0 -49 121 -49q-51 -21 -166 -21q-18 17 -47 27q-14 -4 -14 -57q0 -50 51 -50t115 34q61 32 96 73l-8 8 q116 71 215 180q2 2 16 27q21 38 91 123q10 10 26 31l489 808q0 4 21 7q167 24 180 24l-696 -1100q-41 -65 -41 -100q22 -8 51 -8q36 0 63 14q73 39 174 121v-8q0 -9 -14 -19l-108 -74q-62 -39 -117 -56q-21 -3 -62 -11q-8 -2 -8 -24q0 -50 41 -50q58 0 189 121 q73 74 147 148h14l-2 -4v-5q-127 -146 -157 -175q-114 -111 -191 -111q-86 0 -86 127q-47 22 -47 67q0 25 27 74q-101 -82 -202 -163q-141 -105 -224 -105q-49 0 -77 38q-26 35 -26 85q0 151 133 352l328 496q13 19 27 53q2 4 2 41q0 95 -49 166q-55 79 -146 79h-14 q53 -75 53 -170q0 -200 -145 -357q-149 -161 -347 -161q-125 0 -163 98q-21 54 -21 205q0 84 62 172v-8q0 -8 -10.5 -31.5t-10.5 -33.5v-35q18 50 75 129q65 92 99 92q-53 -57 -94 -121q193 178 348 236h-6q-17 0 -49 -10.5t-49 -10.5l90 43h-19l33 17q-33 8 -86 8 q-248 0 -430 -219q-134 -161 -177 -360q-5 -32 -15 -97q-3 -19 -25 -18zM391 1219q44 29 47 32l2 -4v-6q0 -22 -42 -22h-7zM426 723q0 -50 41.5 -85.5t91.5 -35.5q53 0 100 21q-149 22 -233 106v-6zM479 913q0 -148 68 -188q46 -27 207 -27v-12q30 0 105 86.5t75 118.5v18 q-13 -35 -41 -80v5q0 12 4 34.5t4 34.5q0 78 -35 101q-5 0 -15.5 1t-16.5 1q-39 0 -134 -62q7 34 80 80h-14q-16 0 -33 -6q26 39 86 39q133 0 162 -94h6q35 79 35 182q0 37 -19 75q-22 46 -55 46q-105 0 -282 -127q-187 -134 -187 -226zM618 1171q1 3 5 5q3 -2 4 -5l-4 -4z M711 1005q2 5 7 7l2 -2v-4l-1 -2l-3 -2q-3 1 -5 3zM762 702q0 5 4 7q6 0 6 -6v-2q0 -5 -6 -5q-4 2 -4 6zM1364 74q1 -4 4 -6q6 0 6 5v2q0 5 -6 5q-4 -2 -4 -6zM1429 1351q25 6 75 20q131 42 216 158q13 5 17 4l6 -10q-10 -41 -10 -64q0 -94 116 -94l6 -10q-14 -17 -67 -17 q-64 0 -105 68q-36 -25 -112.5 -46.5t-124.5 -21.5q-10 0 -17 13z" />
<glyph unicode="&#xdc;" horiz-adv-x="1729" d="M127 625q0 262 191 486q199 235 456 235q42 0 117 -16q82 -17 117 -19q61 -2 176 -19q151 -44 151 -291q0 -122 -100 -284l-274 -443q-62 -100 -62 -151q0 -49 121 -49q-51 -21 -166 -21q-18 17 -47 27q-14 -4 -14 -57q0 -50 51 -50t115 34q61 32 96 73l-8 8 q116 71 215 180q2 2 16 27q21 38 91 123q10 10 26 31l489 808q0 4 21 7q167 24 180 24l-696 -1100q-41 -65 -41 -100q22 -8 51 -8q36 0 63 14q73 39 174 121v-8q0 -9 -14 -19l-108 -74q-62 -39 -117 -56q-21 -3 -62 -11q-8 -2 -8 -24q0 -50 41 -50q58 0 189 121 q73 74 147 148h14l-2 -4v-5q-127 -146 -157 -175q-114 -111 -191 -111q-86 0 -86 127q-47 22 -47 67q0 25 27 74q-101 -82 -202 -163q-141 -105 -224 -105q-49 0 -77 38q-26 35 -26 85q0 151 133 352l328 496q13 19 27 53q2 4 2 41q0 95 -49 166q-55 79 -146 79h-14 q53 -75 53 -170q0 -200 -145 -357q-149 -161 -347 -161q-125 0 -163 98q-21 54 -21 205q0 84 62 172v-8q0 -8 -10.5 -31.5t-10.5 -33.5v-35q18 50 75 129q65 92 99 92q-53 -57 -94 -121q193 178 348 236h-6q-17 0 -49 -10.5t-49 -10.5l90 43h-19l33 17q-33 8 -86 8 q-248 0 -430 -219q-134 -161 -177 -360q-5 -32 -15 -97q-3 -19 -25 -18zM391 1219q44 29 47 32l2 -4v-6q0 -22 -42 -22h-7zM426 723q0 -50 41.5 -85.5t91.5 -35.5q53 0 100 21q-149 22 -233 106v-6zM479 913q0 -148 68 -188q46 -27 207 -27v-12q30 0 105 86.5t75 118.5v18 q-13 -35 -41 -80v5q0 12 4 34.5t4 34.5q0 78 -35 101q-5 0 -15.5 1t-16.5 1q-39 0 -134 -62q7 34 80 80h-14q-16 0 -33 -6q26 39 86 39q133 0 162 -94h6q35 79 35 182q0 37 -19 75q-22 46 -55 46q-105 0 -282 -127q-187 -134 -187 -226zM618 1171q1 3 5 5q3 -2 4 -5l-4 -4z M711 1005q2 5 7 7l2 -2v-4l-1 -2l-3 -2q-3 1 -5 3zM762 702q0 5 4 7q6 0 6 -6v-2q0 -5 -6 -5q-4 2 -4 6zM1364 74q1 -4 4 -6q6 0 6 5v2q0 5 -6 5q-4 -2 -4 -6zM1487 1351q0 52 51 52q52 0 52 -52q0 -53 -52 -53q-51 0 -51 53zM1702 1351q0 52 51 52q52 0 52 -52 q0 -53 -52 -53q-51 0 -51 53z" />
<glyph unicode="&#xdd;" horiz-adv-x="1808" d="M127 -53q0 191 167 321q154 121 351 121q224 0 332 -147q12 -17 33 -56l4 -2l2 -4h8q20 17 59 53q14 62 23 119q3 22 10 62q23 83 111 211q61 89 123 177q75 123 75 206q0 149 -211 149q-210 0 -428 -162q-19 -13 -53 -43l-4 -2v-24q0 -95 63 -160.5t158 -65.5 q126 0 201 136q47 86 47 118q0 36 -43 64q-38 26 -76 26q-42 0 -116 -69l-7 2q13 41 80 90h-26q22 16 80 16q68 0 115 -23q6 -3 20 -9l2 -2l4 2l6 12h4q37 -68 37 -127q0 -67 -49 -125q-160 -190 -249.5 -243.5t-203.5 -53.5q-209 0 -209 170q0 99 47 166q10 12 23 47 q1 22 4 66q10 81 88 147v-6q-41 -85 -41 -100q111 190 316 266h-11q-9 0 -25.5 -3t-25.5 -3q68 41 193 41q181 0 300 -92q130 -101 130 -277t-140 -372q-79 -109 -274 -304v-27q145 -20 156 -20q28 0 121 70q89 67 110 98l369 561q111 169 393 363q5 4 14 6l2 -8v-9 q0 -34 -90 -98q0 -27 -6 -33q-15 -8 -41 -26q-40 -36 -86 -113v-8l121 94h10q0 -24 -18 -41q-97 -92 -133 -132q-61 -70 -107 -155l-369 -682q-72 -132 -163 -221q-28 -26 -217 -180q-35 -32 -107 -94q-74 -58 -224 -98q-135 -35 -245 -35q-165 0 -276 110q-12 13 -37 37 q-14 9 -41 27q-160 121 -160 301zM180 -111q0 -168 142 -237q8 74 86 74q28 0 41 -21q-70 -10 -70 -55q0 -4 1 -12t1 -13q34 -53 260 -53q233 0 383 82t272 278q76 122 127 222q-69 -56 -106 -60q-6 32 -33 27l-20 39q-17 -6 -60 -6q-37 0 -100 41q-55 0 -80 -41v-22 q4 -173 -113 -273q-110 -95 -288 -95q-140 0 -162 41l8 9h2q27 0 81 -11.5t81 -11.5q133 0 240 78.5t116 214.5q2 30 2 22q0 21 -14 21l-62 -41l62 61v9q0 80 -109 124q-84 35 -178 35q-202 0 -349 -110q-161 -120 -161 -316zM393 -418q1 -4 8 -10q86 -74 326 -74 q75 0 188 37q126 41 162 90h-8q-58 -39 -86 -39v6h-6l-107 -26q-110 -21 -227 -21q-102 0 -248 41v-4h-2zM594 692q0 -66 40.5 -105.5t106.5 -39.5q164 0 254 108q-182 6 -275 77q-25 20 -32 30q-12 34 -47 88q-47 -72 -47 -158zM678 989q1 -4 4 -6q4 2 4 6q0 5 -4 6 q-4 -2 -4 -6zM735 989q266 195 471 195q99 0 185 -47v6q-7 13 -13 20q-91 94 -241 94q-136 0 -249 -65q-129 -73 -153 -197v-6zM965 -420q1 4 4 6q6 0 6 -5v-2q0 -7 -6 -7q-4 3 -4 8zM1016 207l20 20q1 -2 2 -6q0 -14 -18 -14h-4zM1016 696l4 -4q3 2 4 4l-4 2zM1016 1278 q2 -3 4 -4q3 2 4 4q-2 3 -4 4zM1036 702h6q4 2 9 7zM1088 209q2 -3 4 -3q3 1 5 5v3l-2 1l-4 -2zM1145 218q0 -5 6 -5q4 2 4 6q0 6 -4 8q-6 0 -6 -7v-2zM1155 203q0 -25 53 -25h31q0 25 -60 25h-24zM1178 322q90 78 212 278l-1 -2l-5 -2q-14 -18 -41 -55q-11 -16 -90 -104 q-55 -62 -75 -115zM1184 788q55 41 55 105v16q0 2 -1 7t-1 8zM1286 502q1 -4 4 -6q4 2 4 6q0 5 -4 6q-4 -2 -4 -6zM1331 186l21 -18l100 100h-8q-52 -33 -113 -82zM1364 160l6 -6h8l80 79h-20zM1393 614q1 -4 4 -6q6 0 6 5v3q0 7 -6 7q-4 -3 -4 -9zM1393 1130q1 -4 4 -6 q6 0 6 5v2q0 6 -6 6q-4 -2 -4 -7zM1815 762q1 -4 4 -6q4 2 4 6q0 5 -4 6q-4 -2 -4 -6zM1820 1228v8l2 5h2q46 24 70 106q23 76 43 76q27 0 28 -45q1 -76 -53 -121q-45 -37 -88 -37q-2 3 -4 8zM1825 776q17 11 26 39q-14 -8 -26 -39zM1866 850q129 174 248 293 q-170 -117 -248 -293z" />
<glyph unicode="&#xe0;" horiz-adv-x="737" d="M37 272v9q9 14 20 26q215 234 402 234q5 -5 25 -30q11 -4 14 -13h-5q29 -39 56 -39q28 0 52 33.5t36 33.5h100l-213 -333q-12 -18 -61 -123l2 -15q91 0 187 80q37 32 145 152h8v-21q0 -8 -195 -200q-61 -60 -123 -60q-37 0 -90 30q-57 31 -67 64q-39 -31 -77 -63 q-48 -33 -91 -33q-89 0 -111 93q-8 32 -8 163q0 -3 -6 12zM176 133q0 -51 27 -74h24q26 0 58 23q89 64 182 240q45 85 45 102q-1 3 -2 10q-35 39 -59 39q-79 0 -179 -131q-96 -126 -96 -209zM317 440l93 47l8 11h75l-9 13q-10 3 -25 3q-94 0 -142 -74zM352 473q1 4 4 6 q6 0 6 -5v-2q0 -5 -6 -5q-4 2 -4 6zM363 756q1 45 28 45q20 0 43 -76q24 -82 70 -106h2l2 -5v-8q-2 -5 -4 -8q-43 0 -88 37q-54 45 -53 121zM477 33q19 -2 21 -2q55 0 100 55q-80 -37 -121 -53z" />
<glyph unicode="&#xe1;" horiz-adv-x="737" d="M37 272v9q9 14 20 26q215 234 402 234q5 -5 25 -30q11 -4 14 -13h-5q29 -39 56 -39q28 0 52 33.5t36 33.5h100l-213 -333q-12 -18 -61 -123l2 -15q91 0 187 80q37 32 145 152h8v-21q0 -8 -195 -200q-61 -60 -123 -60q-37 0 -90 30q-57 31 -67 64q-39 -31 -77 -63 q-48 -33 -91 -33q-89 0 -111 93q-8 32 -8 163q0 -3 -6 12zM176 133q0 -51 27 -74h24q26 0 58 23q89 64 182 240q45 85 45 102q-1 3 -2 10q-35 39 -59 39q-79 0 -179 -131q-96 -126 -96 -209zM317 440l93 47l8 11h75l-9 13q-10 3 -25 3q-94 0 -142 -74zM352 473q1 4 4 6 q6 0 6 -5v-2q0 -5 -6 -5q-4 2 -4 6zM477 33q19 -2 21 -2q55 0 100 55q-80 -37 -121 -53zM483 612v8l2 5h2q46 24 70 106q23 76 43 76q27 0 28 -45q1 -76 -53 -121q-45 -37 -88 -37q-2 3 -4 8z" />
<glyph unicode="&#xe2;" horiz-adv-x="737" d="M37 272v9q9 14 20 26q215 234 402 234q5 -5 25 -30q11 -4 14 -13h-5q29 -39 56 -39q28 0 52 33.5t36 33.5h100l-213 -333q-12 -18 -61 -123l2 -15q91 0 187 80q37 32 145 152h8v-21q0 -8 -195 -200q-61 -60 -123 -60q-37 0 -90 30q-57 31 -67 64q-39 -31 -77 -63 q-48 -33 -91 -33q-89 0 -111 93q-8 32 -8 163q0 -3 -6 12zM176 133q0 -51 27 -74h24q26 0 58 23q89 64 182 240q45 85 45 102q-1 3 -2 10q-35 39 -59 39q-79 0 -179 -131q-96 -126 -96 -209zM215 596q25 6 75 20q131 42 216 158q13 5 17 4l6 -10q-10 -41 -10 -64 q0 -94 116 -94l6 -10q-14 -17 -67 -17q-64 0 -105 68q-36 -25 -112.5 -46.5t-124.5 -21.5q-10 0 -17 13zM317 440l93 47l8 11h75l-9 13q-10 3 -25 3q-94 0 -142 -74zM352 473q1 4 4 6q6 0 6 -5v-2q0 -5 -6 -5q-4 2 -4 6zM477 33q19 -2 21 -2q55 0 100 55q-80 -37 -121 -53z " />
<glyph unicode="&#xe3;" horiz-adv-x="737" d="M37 272v9q9 14 20 26q215 234 402 234q5 -5 25 -30q11 -4 14 -13h-5q29 -39 56 -39q28 0 52 33.5t36 33.5h100l-213 -333q-12 -18 -61 -123l2 -15q91 0 187 80q37 32 145 152h8v-21q0 -8 -195 -200q-61 -60 -123 -60q-37 0 -90 30q-57 31 -67 64q-39 -31 -77 -63 q-48 -33 -91 -33q-89 0 -111 93q-8 32 -8 163q0 -3 -6 12zM176 133q0 -51 27 -74h24q26 0 58 23q89 64 182 240q45 85 45 102q-1 3 -2 10q-35 39 -59 39q-79 0 -179 -131q-96 -126 -96 -209zM270 641q61 117 160 117q36 0 107.5 -16.5t107.5 -16.5q35 0 80 39h2q12 0 12 -8 q-62 -127 -176 -127q-34 0 -99.5 19.5t-99.5 19.5q-51 0 -78 -39h-6q-6 0 -10 12zM317 440l93 47l8 11h75l-9 13q-10 3 -25 3q-94 0 -142 -74zM352 473q1 4 4 6q6 0 6 -5v-2q0 -5 -6 -5q-4 2 -4 6zM477 33q19 -2 21 -2q55 0 100 55q-80 -37 -121 -53z" />
<glyph unicode="&#xe4;" horiz-adv-x="737" d="M37 272v9q9 14 20 26q215 234 402 234q5 -5 25 -30q11 -4 14 -13h-5q29 -39 56 -39q28 0 52 33.5t36 33.5h100l-213 -333q-12 -18 -61 -123l2 -15q91 0 187 80q37 32 145 152h8v-21q0 -8 -195 -200q-61 -60 -123 -60q-37 0 -90 30q-57 31 -67 64q-39 -31 -77 -63 q-48 -33 -91 -33q-89 0 -111 93q-8 32 -8 163q0 -3 -6 12zM176 133q0 -51 27 -74h24q26 0 58 23q89 64 182 240q45 85 45 102q-1 3 -2 10q-35 39 -59 39q-79 0 -179 -131q-96 -126 -96 -209zM317 440l93 47l8 11h75l-9 13q-10 3 -25 3q-94 0 -142 -74zM338 635q0 52 51 52 q52 0 52 -52q0 -53 -52 -53q-51 0 -51 53zM352 473q1 4 4 6q6 0 6 -5v-2q0 -5 -6 -5q-4 2 -4 6zM477 33q19 -2 21 -2q55 0 100 55q-80 -37 -121 -53zM553 635q0 52 51 52q52 0 52 -52q0 -53 -52 -53q-51 0 -51 53z" />
<glyph unicode="&#xe5;" horiz-adv-x="737" d="M37 272v9q9 14 20 26q215 234 402 234q5 -5 25 -30q11 -4 14 -13h-5q29 -39 56 -39q28 0 52 33.5t36 33.5h100l-213 -333q-12 -18 -61 -123l2 -15q91 0 187 80q37 32 145 152h8v-21q0 -8 -195 -200q-61 -60 -123 -60q-37 0 -90 30q-57 31 -67 64q-39 -31 -77 -63 q-48 -33 -91 -33q-89 0 -111 93q-8 32 -8 163q0 -3 -6 12zM176 133q0 -51 27 -74h24q26 0 58 23q89 64 182 240q45 85 45 102q-1 3 -2 10q-35 39 -59 39q-79 0 -179 -131q-96 -126 -96 -209zM317 440l93 47l8 11h75l-9 13q-10 3 -25 3q-94 0 -142 -74zM352 473q1 4 4 6 q6 0 6 -5v-2q0 -5 -6 -5q-4 2 -4 6zM413 734q1 10 9 21q114 139 231 139q64 0 64 -75q0 -62 -56 -132v-2q8 0 8 -7q0 -9 -26 -12q-77 -72 -137 -72q-70 0 -70 97q0 9 2.5 27.5t2.5 27.5q-9 -6 -28 -12zM477 33q19 -2 21 -2q55 0 100 55q-80 -37 -121 -53zM487 616l2 -3l2 3 v1l-2 4l-2 -4v-1zM492 613l5 -3h17q52 0 65 23q-32 -20 -87 -20zM504 681q0 -48 44 -48q23 0 72 51q-17 -12 -48 -34q86 81 86 156q0 21 -15 35h-15q-47 0 -87 -58q-37 -54 -37 -102zM550 639v1l3 3l3 -3v-1l-3 -3zM560 643v1v2l3 1l1 -2l-1 -2h-1h-2zM588 639l2 -3l2 3v1 l-2 3zM606 863l2 -4l4 3v1l-4 4zM681 867l3 -3l2 3v1l-2 3l-3 -3v-1z" />
<glyph unicode="&#xe7;" horiz-adv-x="528" d="M8 270v4q28 43 76 97q146 164 319 164q121 0 121 -97q0 -78 -73 -78q-68 0 -68 33h-21q28 19 36 26q20 17 24 36q1 -3 4 -4l2 -2q8 0 14 6q-14 20 -49 20q-106 0 -192 -125q-80 -117 -80 -227q0 -70 82 -70q61 0 153 60q15 14 27 20h6q-65 -80 -227 -106h37 q148 0 243 141l50 74q28 41 73 41q0 -19 -22 -43q-106 -116 -156 -156q-89 -70 -185 -83l-24 -59l-11 -4l5 61q-92 0 -125 85q-16 41 -16 178h-15q-8 -2 -8 8zM322 475q36 12 69 12q12 0 34 -7t34 -7q0 35 -43 35q-74 0 -94 -33zM432 184q1 4 4 2q4 0 4 -2q-1 -2 -4 -4 q-4 1 -4 4z" />
<glyph unicode="&#xe8;" horiz-adv-x="500" d="M20 287q0 9 15 26q215 240 383 240q98 0 98 -90q0 -95 -123 -163q-44 -24 -205 -81q-28 -10 -28 -61q0 -101 84 -101q59 0 124 51q61 47 87 105v-27q65 62 106 113h17q0 -12 -17 -33q-194 -248 -385 -248q-162 0 -149 254q-7 2 -7 15zM221 283q0 -11 21 -11q18 0 53 21 h-21q95 57 95 141q-40 0 -94 -55.5t-54 -95.5zM254 768q1 45 28 45q20 0 43 -76q24 -82 70 -106h2l2 -5v-8q-2 -5 -4 -8q-43 0 -88 37q-54 45 -53 121zM256 285q0 5 4 8q6 0 6 -7v-2q0 -5 -6 -5q-4 2 -4 6zM287 453q53 26 82 26h57q12 0 29 -6v21q0 32 -33 32 q-68 0 -135 -73zM303 299q1 -4 4 -6q6 0 6 5v2q0 5 -6 5q-4 -2 -4 -6z" />
<glyph unicode="&#xe9;" horiz-adv-x="500" d="M20 287q0 9 15 26q215 240 383 240q98 0 98 -90q0 -95 -123 -163q-44 -24 -205 -81q-28 -10 -28 -61q0 -101 84 -101q59 0 124 51q61 47 87 105v-27q65 62 106 113h17q0 -12 -17 -33q-194 -248 -385 -248q-162 0 -149 254q-7 2 -7 15zM221 283q0 -11 21 -11q18 0 53 21 h-21q95 57 95 141q-40 0 -94 -55.5t-54 -95.5zM256 285q0 5 4 8q6 0 6 -7v-2q0 -5 -6 -5q-4 2 -4 6zM287 453q53 26 82 26h57q12 0 29 -6v21q0 32 -33 32q-68 0 -135 -73zM303 299q1 -4 4 -6q6 0 6 5v2q0 5 -6 5q-4 -2 -4 -6zM356 600v8l2 5h2q46 24 70 106q23 76 43 76 q27 0 28 -45q1 -76 -53 -121q-45 -37 -88 -37q-2 3 -4 8z" />
<glyph unicode="&#xea;" horiz-adv-x="500" d="M20 287q0 9 15 26q215 240 383 240q98 0 98 -90q0 -95 -123 -163q-44 -24 -205 -81q-28 -10 -28 -61q0 -101 84 -101q59 0 124 51q61 47 87 105v-27q65 62 106 113h17q0 -12 -17 -33q-194 -248 -385 -248q-162 0 -149 254q-7 2 -7 15zM112 611q25 6 75 20q131 42 216 158 q13 5 17 4l6 -10q-10 -41 -10 -64q0 -94 116 -94l6 -10q-14 -17 -67 -17q-64 0 -105 68q-36 -25 -112.5 -46.5t-124.5 -21.5q-10 0 -17 13zM221 283q0 -11 21 -11q18 0 53 21h-21q95 57 95 141q-40 0 -94 -55.5t-54 -95.5zM256 285q0 5 4 8q6 0 6 -7v-2q0 -5 -6 -5 q-4 2 -4 6zM287 453q53 26 82 26h57q12 0 29 -6v21q0 32 -33 32q-68 0 -135 -73zM303 299q1 -4 4 -6q6 0 6 5v2q0 5 -6 5q-4 -2 -4 -6z" />
<glyph unicode="&#xeb;" horiz-adv-x="500" d="M20 287q0 9 15 26q215 240 383 240q98 0 98 -90q0 -95 -123 -163q-44 -24 -205 -81q-28 -10 -28 -61q0 -101 84 -101q59 0 124 51q61 47 87 105v-27q65 62 106 113h17q0 -12 -17 -33q-194 -248 -385 -248q-162 0 -149 254q-7 2 -7 15zM198 633q0 52 51 52q52 0 52 -52 q0 -53 -52 -53q-51 0 -51 53zM221 283q0 -11 21 -11q18 0 53 21h-21q95 57 95 141q-40 0 -94 -55.5t-54 -95.5zM256 285q0 5 4 8q6 0 6 -7v-2q0 -5 -6 -5q-4 2 -4 6zM287 453q53 26 82 26h57q12 0 29 -6v21q0 32 -33 32q-68 0 -135 -73zM303 299q1 -4 4 -6q6 0 6 5v2 q0 5 -6 5q-4 -2 -4 -6zM413 633q0 52 51 52q52 0 52 -52q0 -53 -52 -53q-51 0 -51 53z" />
<glyph unicode="&#xec;" horiz-adv-x="395" d="M45 254q0 40 229 268q18 0 56 3t57 3v-6q-69 -119 -203 -358q-24 -45 -24 -76q0 -20 14 -22q-13 2 33 2l-6 -7h2l2 -2q20 6 49 21l133 115h8l-47 -62l146 148h8q0 -12 -60 -78q-99 -109 -125 -132q-85 -75 -159 -75t-111 92v12q0 28 68 154q19 30 57 88l55 86q3 3 6 12 l-180 -186h-8zM133 27l8 -7q4 0 10 -1t9 -1q41 0 67 23h-6q-40 -6 -88 -14zM236 46q0 -5 6 -5q4 1 4 5v2q-1 3 -4 5q-6 0 -6 -5v-2zM236 736q1 45 28 45q20 0 43 -76q24 -82 70 -106h2l2 -5v-8q-2 -5 -4 -8q-43 0 -88 37q-54 45 -53 121z" />
<glyph unicode="&#xed;" horiz-adv-x="395" d="M45 254q0 40 229 268q18 0 56 3t57 3v-6q-69 -119 -203 -358q-24 -45 -24 -76q0 -20 14 -22q-13 2 33 2l-6 -7h2l2 -2q20 6 49 21l133 115h8l-47 -62l146 148h8q0 -12 -60 -78q-99 -109 -125 -132q-85 -75 -159 -75t-111 92v12q0 28 68 154q19 30 57 88l55 86q3 3 6 12 l-180 -186h-8zM133 27l8 -7q4 0 10 -1t9 -1q41 0 67 23h-6q-40 -6 -88 -14zM236 46q0 -5 6 -5q4 1 4 5v2q-1 3 -4 5q-6 0 -6 -5v-2zM318 586v8l2 5h2q46 24 70 106q23 76 43 76q27 0 28 -45q1 -76 -53 -121q-45 -37 -88 -37q-2 3 -4 8z" />
<glyph unicode="&#xee;" horiz-adv-x="395" d="M45 254q0 40 229 268q18 0 56 3t57 3v-6q-69 -119 -203 -358q-24 -45 -24 -76q0 -20 14 -22q-13 2 33 2l-6 -7h2l2 -2q20 6 49 21l133 115h8l-47 -62l146 148h8q0 -12 -60 -78q-99 -109 -125 -132q-85 -75 -159 -75t-111 92v12q0 28 68 154q19 30 57 88l55 86q3 3 6 12 l-180 -186h-8zM133 27l8 -7q4 0 10 -1t9 -1q41 0 67 23h-6q-40 -6 -88 -14zM135 609q25 6 75 20q131 42 216 158q13 5 17 4l6 -10q-10 -41 -10 -64q0 -94 116 -94l6 -10q-14 -17 -67 -17q-64 0 -105 68q-36 -25 -112.5 -46.5t-124.5 -21.5q-10 0 -17 13zM236 46q0 -5 6 -5 q4 1 4 5v2q-1 3 -4 5q-6 0 -6 -5v-2z" />
<glyph unicode="&#xef;" horiz-adv-x="395" d="M45 254q0 40 229 268q18 0 56 3t57 3v-6q-69 -119 -203 -358q-24 -45 -24 -76q0 -20 14 -22q-13 2 33 2l-6 -7h2l2 -2q20 6 49 21l133 115h8l-47 -62l146 148h8q0 -12 -60 -78q-99 -109 -125 -132q-85 -75 -159 -75t-111 92v12q0 28 68 154q19 30 57 88l55 86q3 3 6 12 l-180 -186h-8zM133 27l8 -7q4 0 10 -1t9 -1q41 0 67 23h-6q-40 -6 -88 -14zM172 600q0 52 51 52q52 0 52 -52q0 -53 -52 -53q-51 0 -51 53zM236 46q0 -5 6 -5q4 1 4 5v2q-1 3 -4 5q-6 0 -6 -5v-2zM387 600q0 52 51 52q52 0 52 -52q0 -53 -52 -53q-51 0 -51 53z" />
<glyph unicode="&#xf1;" horiz-adv-x="854" d="M47 233v15q33 42 186 201q57 59 127 59q43 0 56 -34t65 -34q7 -7 21 -18h2l4 -2q30 0 104.5 44t100.5 44q69 0 69 -86q0 -73 -80 -189q-100 -144 -114 -180q2 -6 4 -18q133 0 244 145h6l73 74h7q2 0 6 -2l2 -4q-15 -29 -27 -41l-174 -174q-60 -60 -125 -60q-29 0 -80 25 q-57 27 -57 51q3 10 6 21l176 299q2 3 2 18q0 35 -28 47q-23 0 -299 -303q-29 -47 -70 -111q-29 -8 -53 -40q-58 -9 -121 -9l268 410q12 25 35 72v4q0 24 -27 24q-55 0 -108 -53l-195 -195h-6zM356 594q61 117 160 117q36 0 107.5 -16.5t107.5 -16.5q35 0 80 39h2 q12 0 12 -8q-62 -127 -176 -127q-34 0 -99.5 19.5t-99.5 19.5q-51 0 -78 -39h-6q-6 0 -10 12zM395 254l160 160q-84 -35 -160 -160zM602 0h16q56 0 91 47zM635 449q58 -9 74 -9q20 0 20 25q0 16 -22 16q-19 0 -72 -32z" />
<glyph unicode="&#xf2;" horiz-adv-x="627" d="M43 250q0 19 16 37q220 248 412 248q115 0 115 -134q0 -110 -101 -235v-4q101 0 220 119l8 -7v-4l-4 -2q-19 -28 -79 -72.5t-92 -54.5q-10 -3 -85 -14q-138 -127 -244 -127q-125 0 -125 172q0 17 4 49.5t4 48.5q-15 -10 -49 -20zM174 38q1 -3 4 -5q4 1 4 5v2q-1 5 -4 7 q-4 -2 -4 -7v-2zM184 33l9 -6h22q100 0 123 41q-56 -35 -154 -35zM205 154q0 -86 78 -86q40 0 129 92q-29 -21 -86 -60q153 144 153 277q0 39 -26 63h-27q-83 0 -155 -103q-66 -96 -66 -183zM287 79v2q0 5 6 5q4 -1 4 -5v-2q-1 -3 -4 -5q-6 0 -6 5zM304 89l1 3q3 2 6 2l1 -4 l-1 -2l-3 -1l-3 1zM354 80q1 -4 4 -6q4 1 4 5v2q-1 3 -4 5q-4 -2 -4 -6zM369 744q1 45 28 45q20 0 43 -76q24 -82 70 -106h2l2 -5v-8q-2 -5 -4 -8q-43 0 -88 37q-54 45 -53 121zM387 479q1 -4 4 -6q6 0 6 5v2q0 7 -6 7q-4 -3 -4 -8zM520 486q0 -5 6 -5q4 1 4 5v2q-1 6 -4 6 q-6 0 -6 -6v-2zM522 127q0 4 57 24z" />
<glyph unicode="&#xf3;" horiz-adv-x="627" d="M43 250q0 19 16 37q220 248 412 248q115 0 115 -134q0 -110 -101 -235v-4q101 0 220 119l8 -7v-4l-4 -2q-19 -28 -79 -72.5t-92 -54.5q-10 -3 -85 -14q-138 -127 -244 -127q-125 0 -125 172q0 17 4 49.5t4 48.5q-15 -10 -49 -20zM174 38q1 -3 4 -5q4 1 4 5v2q-1 5 -4 7 q-4 -2 -4 -7v-2zM184 33l9 -6h22q100 0 123 41q-56 -35 -154 -35zM205 154q0 -86 78 -86q40 0 129 92q-29 -21 -86 -60q153 144 153 277q0 39 -26 63h-27q-83 0 -155 -103q-66 -96 -66 -183zM287 79v2q0 5 6 5q4 -1 4 -5v-2q-1 -3 -4 -5q-6 0 -6 5zM304 89l1 3q3 2 6 2l1 -4 l-1 -2l-3 -1l-3 1zM354 80q1 -4 4 -6q4 1 4 5v2q-1 3 -4 5q-4 -2 -4 -6zM387 479q1 -4 4 -6q6 0 6 5v2q0 7 -6 7q-4 -3 -4 -8zM459 579v8l2 5h2q46 24 70 106q23 76 43 76q27 0 28 -45q1 -76 -53 -121q-45 -37 -88 -37q-2 3 -4 8zM520 486q0 -5 6 -5q4 1 4 5v2q-1 6 -4 6 q-6 0 -6 -6v-2zM522 127q0 4 57 24z" />
<glyph unicode="&#xf4;" horiz-adv-x="627" d="M43 250q0 19 16 37q220 248 412 248q115 0 115 -134q0 -110 -101 -235v-4q101 0 220 119l8 -7v-4l-4 -2q-19 -28 -79 -72.5t-92 -54.5q-10 -3 -85 -14q-138 -127 -244 -127q-125 0 -125 172q0 17 4 49.5t4 48.5q-15 -10 -49 -20zM174 38q1 -3 4 -5q4 1 4 5v2q-1 5 -4 7 q-4 -2 -4 -7v-2zM184 33l9 -6h22q100 0 123 41q-56 -35 -154 -35zM190 580q25 6 75 20q131 42 216 158q13 5 17 4l6 -10q-10 -41 -10 -64q0 -94 116 -94l6 -10q-14 -17 -67 -17q-64 0 -105 68q-36 -25 -112.5 -46.5t-124.5 -21.5q-10 0 -17 13zM205 154q0 -86 78 -86 q40 0 129 92q-29 -21 -86 -60q153 144 153 277q0 39 -26 63h-27q-83 0 -155 -103q-66 -96 -66 -183zM287 79v2q0 5 6 5q4 -1 4 -5v-2q-1 -3 -4 -5q-6 0 -6 5zM304 89l1 3q3 2 6 2l1 -4l-1 -2l-3 -1l-3 1zM354 80q1 -4 4 -6q4 1 4 5v2q-1 3 -4 5q-4 -2 -4 -6zM387 479 q1 -4 4 -6q6 0 6 5v2q0 7 -6 7q-4 -3 -4 -8zM520 486q0 -5 6 -5q4 1 4 5v2q-1 6 -4 6q-6 0 -6 -6v-2zM522 127q0 4 57 24z" />
<glyph unicode="&#xf5;" horiz-adv-x="627" d="M43 250q0 19 16 37q220 248 412 248q115 0 115 -134q0 -110 -101 -235v-4q101 0 220 119l8 -7v-4l-4 -2q-19 -28 -79 -72.5t-92 -54.5q-10 -3 -85 -14q-138 -127 -244 -127q-125 0 -125 172q0 17 4 49.5t4 48.5q-15 -10 -49 -20zM174 38q1 -3 4 -5q4 1 4 5v2q-1 5 -4 7 q-4 -2 -4 -7v-2zM184 33l9 -6h22q100 0 123 41q-56 -35 -154 -35zM188 614q61 117 160 117q36 0 107.5 -16.5t107.5 -16.5q35 0 80 39h2q12 0 12 -8q-62 -127 -176 -127q-34 0 -99.5 19.5t-99.5 19.5q-51 0 -78 -39h-6q-6 0 -10 12zM205 154q0 -86 78 -86q40 0 129 92 q-29 -21 -86 -60q153 144 153 277q0 39 -26 63h-27q-83 0 -155 -103q-66 -96 -66 -183zM287 79v2q0 5 6 5q4 -1 4 -5v-2q-1 -3 -4 -5q-6 0 -6 5zM304 89l1 3q3 2 6 2l1 -4l-1 -2l-3 -1l-3 1zM354 80q1 -4 4 -6q4 1 4 5v2q-1 3 -4 5q-4 -2 -4 -6zM387 479q1 -4 4 -6q6 0 6 5 v2q0 7 -6 7q-4 -3 -4 -8zM520 486q0 -5 6 -5q4 1 4 5v2q-1 6 -4 6q-6 0 -6 -6v-2zM522 127q0 4 57 24z" />
<glyph unicode="&#xf6;" horiz-adv-x="627" d="M43 250q0 19 16 37q220 248 412 248q115 0 115 -134q0 -110 -101 -235v-4q101 0 220 119l8 -7v-4l-4 -2q-19 -28 -79 -72.5t-92 -54.5q-10 -3 -85 -14q-138 -127 -244 -127q-125 0 -125 172q0 17 4 49.5t4 48.5q-15 -10 -49 -20zM174 38q1 -3 4 -5q4 1 4 5v2q-1 5 -4 7 q-4 -2 -4 -7v-2zM184 33l9 -6h22q100 0 123 41q-56 -35 -154 -35zM205 154q0 -86 78 -86q40 0 129 92q-29 -21 -86 -60q153 144 153 277q0 39 -26 63h-27q-83 0 -155 -103q-66 -96 -66 -183zM280 602q0 52 51 52q52 0 52 -52q0 -53 -52 -53q-51 0 -51 53zM287 79v2q0 5 6 5 q4 -1 4 -5v-2q-1 -3 -4 -5q-6 0 -6 5zM304 89l1 3q3 2 6 2l1 -4l-1 -2l-3 -1l-3 1zM354 80q1 -4 4 -6q4 1 4 5v2q-1 3 -4 5q-4 -2 -4 -6zM387 479q1 -4 4 -6q6 0 6 5v2q0 7 -6 7q-4 -3 -4 -8zM495 602q0 52 51 52q52 0 52 -52q0 -53 -52 -53q-51 0 -51 53zM520 486 q0 -5 6 -5q4 1 4 5v2q-1 6 -4 6q-6 0 -6 -6v-2zM522 127q0 4 57 24z" />
<glyph unicode="&#xf9;" horiz-adv-x="750" d="M41 223q1 4 6 15q9 11 27 32l180 181q41 41 143 41q0 -10 -11 -29t-11 -29q0 -5 3 -15t3 -16q-55 -88 -110 -175q-84 -140 -84 -176q0 -7 3 -32h25l-14 -10h10q27 0 70 41q175 165 318 375q10 16 30 45l12 12q35 9 115 9v-9l-242 -360l-39 -80v-16q12 0 37 2t37 2 l-41 -21h6q21 0 53 21q24 12 66 41l168 166h8v-21q0 -6 -41 -47l-139 -139q-74 -74 -135 -74q-43 0 -69 31t-50 63q-170 -94 -225 -94q-82 0 -82 102q0 93 61 191q28 45 125 162v6q-16 -13 -47 -41l-160 -160q-6 0 -6 6zM227 25q1 3 4 4q4 -2 5 -4q-1 -3 -5 -5q-3 2 -4 5z M322 51q29 4 61.5 33.5t32.5 56.5l-2 2zM412 721q1 45 28 45q20 0 43 -76q24 -82 70 -106h2l2 -5v-8q-2 -5 -4 -8q-43 0 -88 37q-54 45 -53 121z" />
<glyph unicode="&#xfa;" horiz-adv-x="750" d="M41 223q1 4 6 15q9 11 27 32l180 181q41 41 143 41q0 -10 -11 -29t-11 -29q0 -5 3 -15t3 -16q-55 -88 -110 -175q-84 -140 -84 -176q0 -7 3 -32h25l-14 -10h10q27 0 70 41q175 165 318 375q10 16 30 45l12 12q35 9 115 9v-9l-242 -360l-39 -80v-16q12 0 37 2t37 2 l-41 -21h6q21 0 53 21q24 12 66 41l168 166h8v-21q0 -6 -41 -47l-139 -139q-74 -74 -135 -74q-43 0 -69 31t-50 63q-170 -94 -225 -94q-82 0 -82 102q0 93 61 191q28 45 125 162v6q-16 -13 -47 -41l-160 -160q-6 0 -6 6zM227 25q1 3 4 4q4 -2 5 -4q-1 -3 -5 -5q-3 2 -4 5z M322 51q29 4 61.5 33.5t32.5 56.5l-2 2zM522 565v8l2 5h2q46 24 70 106q23 76 43 76q27 0 28 -45q1 -76 -53 -121q-45 -37 -88 -37q-2 3 -4 8z" />
<glyph unicode="&#xfb;" horiz-adv-x="750" d="M41 223q1 4 6 15q9 11 27 32l180 181q41 41 143 41q0 -10 -11 -29t-11 -29q0 -5 3 -15t3 -16q-55 -88 -110 -175q-84 -140 -84 -176q0 -7 3 -32h25l-14 -10h10q27 0 70 41q175 165 318 375q10 16 30 45l12 12q35 9 115 9v-9l-242 -360l-39 -80v-16q12 0 37 2t37 2 l-41 -21h6q21 0 53 21q24 12 66 41l168 166h8v-21q0 -6 -41 -47l-139 -139q-74 -74 -135 -74q-43 0 -69 31t-50 63q-170 -94 -225 -94q-82 0 -82 102q0 93 61 191q28 45 125 162v6q-16 -13 -47 -41l-160 -160q-6 0 -6 6zM227 25q1 3 4 4q4 -2 5 -4q-1 -3 -5 -5q-3 2 -4 5z M317 580q25 6 75 20q131 42 216 158q13 5 17 4l6 -10q-10 -41 -10 -64q0 -94 116 -94l6 -10q-14 -17 -67 -17q-64 0 -105 68q-36 -25 -112.5 -46.5t-124.5 -21.5q-10 0 -17 13zM322 51q29 4 61.5 33.5t32.5 56.5l-2 2z" />
<glyph unicode="&#xfc;" horiz-adv-x="750" d="M41 223q1 4 6 15q9 11 27 32l180 181q41 41 143 41q0 -10 -11 -29t-11 -29q0 -5 3 -15t3 -16q-55 -88 -110 -175q-84 -140 -84 -176q0 -7 3 -32h25l-14 -10h10q27 0 70 41q175 165 318 375q10 16 30 45l12 12q35 9 115 9v-9l-242 -360l-39 -80v-16q12 0 37 2t37 2 l-41 -21h6q21 0 53 21q24 12 66 41l168 166h8v-21q0 -6 -41 -47l-139 -139q-74 -74 -135 -74q-43 0 -69 31t-50 63q-170 -94 -225 -94q-82 0 -82 102q0 93 61 191q28 45 125 162v6q-16 -13 -47 -41l-160 -160q-6 0 -6 6zM227 25q1 3 4 4q4 -2 5 -4q-1 -3 -5 -5q-3 2 -4 5z M322 51q29 4 61.5 33.5t32.5 56.5l-2 2zM362 604q0 52 51 52q52 0 52 -52q0 -53 -52 -53q-51 0 -51 53zM577 604q0 52 51 52q52 0 52 -52q0 -53 -52 -53q-51 0 -51 53z" />
<glyph unicode="&#xfd;" horiz-adv-x="891" d="M-43 -502q0 17 13.5 48t13.5 48q0 5 -3.5 14.5t-3.5 14.5q0 60 54 98v-6q0 -4 -3 -12.5t-3 -13.5q94 107 181 168q69 49 210 118h6q-7 -4 -27 -20q-5 -4 -119 -72q-11 -7 -26 -14q-48 -24 -109 -82q-67 -63 -80 -106q16 14 48 40l327 220q4 3 33 47h-23q0 11 17 18l-14 6 q45 17 53 47h-2q-35 0 -98.5 -29.5t-98.5 -29.5q-82 0 -82 115q0 80 74 184q41 58 108 174v10q0 25 -26 25q-56 0 -125 -65q-51 -53 -102 -107q-25 -25 -74 -76h-10q8 20 100 127q127 148 209 148q69 0 88 -74q26 26 74 26q24 0 47 -6q-29 -57 -205 -360q-4 -7 -4 -19 q0 -28 28 -28q32 12 146 133q100 106 135 153l82 126q42 49 143 49v-15l-266 -434v-20h21l-9 -7h4q23 0 25 21q0 -6 12 -6q86 35 121 80v6l119 121h10q0 -16 -16 -38t-12 -50l-27 -27q-7 -6 -65 -50q-92 -70 -183 -129q-30 -16 -86 -53l-8 -6q-58 -97 -154 -239 q-14 -22 -43 -64q-23 -32 -149 -157q-74 -74 -154 -74q-92 0 -92 104zM4 -512q0 -68 53 -68q125 0 273 254q-167 -113 -232 -113q-9 0 -27 3.5t-28 3.5q-39 0 -39 -80zM74 -369q0 -24 41 -24q151 0 233 135l-45 -41h-8q66 90 115 186h-7q-13 -8 -280 -206q-25 -19 -47 -48z M281 47q0 -20 22 -20h5q11 0 22 6l-47 26v-6q-1 -2 -2 -6zM442 66h7q3 0 7 4t7 4h-6q-3 0 -7.5 -4t-7.5 -4zM463 86q112 64 186 195q-61 -67 -186 -195zM471 80q1 -4 4 -6q6 0 6 5v2q0 5 -6 5q-4 -2 -4 -6zM582 -18q19 0 55.5 20.5t46.5 36.5l-82 -27q-20 -20 -20 -30z M639 53q1 -4 4 -6q4 1 4 5v2q-1 3 -4 5q-4 -2 -4 -6zM666 584v8l2 5h2q46 24 70 106q23 76 43 76q27 0 28 -45q1 -76 -53 -121q-45 -37 -88 -37q-2 3 -4 8z" />
<glyph unicode="&#xff;" horiz-adv-x="891" d="M-43 -502q0 17 13.5 48t13.5 48q0 5 -3.5 14.5t-3.5 14.5q0 60 54 98v-6q0 -4 -3 -12.5t-3 -13.5q94 107 181 168q69 49 210 118h6q-7 -4 -27 -20q-5 -4 -119 -72q-11 -7 -26 -14q-48 -24 -109 -82q-67 -63 -80 -106q16 14 48 40l327 220q4 3 33 47h-23q0 11 17 18l-14 6 q45 17 53 47h-2q-35 0 -98.5 -29.5t-98.5 -29.5q-82 0 -82 115q0 80 74 184q41 58 108 174v10q0 25 -26 25q-56 0 -125 -65q-51 -53 -102 -107q-25 -25 -74 -76h-10q8 20 100 127q127 148 209 148q69 0 88 -74q26 26 74 26q24 0 47 -6q-29 -57 -205 -360q-4 -7 -4 -19 q0 -28 28 -28q32 12 146 133q100 106 135 153l82 126q42 49 143 49v-15l-266 -434v-20h21l-9 -7h4q23 0 25 21q0 -6 12 -6q86 35 121 80v6l119 121h10q0 -16 -16 -38t-12 -50l-27 -27q-7 -6 -65 -50q-92 -70 -183 -129q-30 -16 -86 -53l-8 -6q-58 -97 -154 -239 q-14 -22 -43 -64q-23 -32 -149 -157q-74 -74 -154 -74q-92 0 -92 104zM4 -512q0 -68 53 -68q125 0 273 254q-167 -113 -232 -113q-9 0 -27 3.5t-28 3.5q-39 0 -39 -80zM74 -369q0 -24 41 -24q151 0 233 135l-45 -41h-8q66 90 115 186h-7q-13 -8 -280 -206q-25 -19 -47 -48z M281 47q0 -20 22 -20h5q11 0 22 6l-47 26v-6q-1 -2 -2 -6zM442 66h7q3 0 7 4t7 4h-6q-3 0 -7.5 -4t-7.5 -4zM463 86q112 64 186 195q-61 -67 -186 -195zM471 80q1 -4 4 -6q6 0 6 5v2q0 5 -6 5q-4 -2 -4 -6zM512 592q0 52 51 52q52 0 52 -52q0 -53 -52 -53q-51 0 -51 53z M582 -18q19 0 55.5 20.5t46.5 36.5l-82 -27q-20 -20 -20 -30zM639 53q1 -4 4 -6q4 1 4 5v2q-1 3 -4 5q-4 -2 -4 -6zM727 592q0 52 51 52q52 0 52 -52q0 -53 -52 -53q-51 0 -51 53z" />
<glyph unicode="&#x178;" horiz-adv-x="1808" d="M127 -53q0 191 167 321q154 121 351 121q224 0 332 -147q12 -17 33 -56l4 -2l2 -4h8q20 17 59 53q14 62 23 119q3 22 10 62q23 83 111 211q61 89 123 177q75 123 75 206q0 149 -211 149q-210 0 -428 -162q-19 -13 -53 -43l-4 -2v-24q0 -95 63 -160.5t158 -65.5 q126 0 201 136q47 86 47 118q0 36 -43 64q-38 26 -76 26q-42 0 -116 -69l-7 2q13 41 80 90h-26q22 16 80 16q68 0 115 -23q6 -3 20 -9l2 -2l4 2l6 12h4q37 -68 37 -127q0 -67 -49 -125q-160 -190 -249.5 -243.5t-203.5 -53.5q-209 0 -209 170q0 99 47 166q10 12 23 47 q1 22 4 66q10 81 88 147v-6q-41 -85 -41 -100q111 190 316 266h-11q-9 0 -25.5 -3t-25.5 -3q68 41 193 41q181 0 300 -92q130 -101 130 -277t-140 -372q-79 -109 -274 -304v-27q145 -20 156 -20q28 0 121 70q89 67 110 98l369 561q111 169 393 363q5 4 14 6l2 -8v-9 q0 -34 -90 -98q0 -27 -6 -33q-15 -8 -41 -26q-40 -36 -86 -113v-8l121 94h10q0 -24 -18 -41q-97 -92 -133 -132q-61 -70 -107 -155l-369 -682q-72 -132 -163 -221q-28 -26 -217 -180q-35 -32 -107 -94q-74 -58 -224 -98q-135 -35 -245 -35q-165 0 -276 110q-12 13 -37 37 q-14 9 -41 27q-160 121 -160 301zM180 -111q0 -168 142 -237q8 74 86 74q28 0 41 -21q-70 -10 -70 -55q0 -4 1 -12t1 -13q34 -53 260 -53q233 0 383 82t272 278q76 122 127 222q-69 -56 -106 -60q-6 32 -33 27l-20 39q-17 -6 -60 -6q-37 0 -100 41q-55 0 -80 -41v-22 q4 -173 -113 -273q-110 -95 -288 -95q-140 0 -162 41l8 9h2q27 0 81 -11.5t81 -11.5q133 0 240 78.5t116 214.5q2 30 2 22q0 21 -14 21l-62 -41l62 61v9q0 80 -109 124q-84 35 -178 35q-202 0 -349 -110q-161 -120 -161 -316zM393 -418q1 -4 8 -10q86 -74 326 -74 q75 0 188 37q126 41 162 90h-8q-58 -39 -86 -39v6h-6l-107 -26q-110 -21 -227 -21q-102 0 -248 41v-4h-2zM594 692q0 -66 40.5 -105.5t106.5 -39.5q164 0 254 108q-182 6 -275 77q-25 20 -32 30q-12 34 -47 88q-47 -72 -47 -158zM678 989q1 -4 4 -6q4 2 4 6q0 5 -4 6 q-4 -2 -4 -6zM735 989q266 195 471 195q99 0 185 -47v6q-7 13 -13 20q-91 94 -241 94q-136 0 -249 -65q-129 -73 -153 -197v-6zM965 -420q1 4 4 6q6 0 6 -5v-2q0 -7 -6 -7q-4 3 -4 8zM1016 207l20 20q1 -2 2 -6q0 -14 -18 -14h-4zM1016 696l4 -4q3 2 4 4l-4 2zM1016 1278 q2 -3 4 -4q3 2 4 4q-2 3 -4 4zM1036 702h6q4 2 9 7zM1088 209q2 -3 4 -3q3 1 5 5v3l-2 1l-4 -2zM1145 218q0 -5 6 -5q4 2 4 6q0 6 -4 8q-6 0 -6 -7v-2zM1155 203q0 -25 53 -25h31q0 25 -60 25h-24zM1178 322q90 78 212 278l-1 -2l-5 -2q-14 -18 -41 -55q-11 -16 -90 -104 q-55 -62 -75 -115zM1184 788q55 41 55 105v16q0 2 -1 7t-1 8zM1286 502q1 -4 4 -6q4 2 4 6q0 5 -4 6q-4 -2 -4 -6zM1331 186l21 -18l100 100h-8q-52 -33 -113 -82zM1364 160l6 -6h8l80 79h-20zM1393 614q1 -4 4 -6q6 0 6 5v3q0 7 -6 7q-4 -3 -4 -9zM1393 1130q1 -4 4 -6 q6 0 6 5v2q0 6 -6 6q-4 -2 -4 -7zM1747 1345q0 52 51 52q52 0 52 -52q0 -53 -52 -53q-51 0 -51 53zM1815 762q1 -4 4 -6q4 2 4 6q0 5 -4 6q-4 -2 -4 -6zM1825 776q17 11 26 39q-14 -8 -26 -39zM1866 850q129 174 248 293q-170 -117 -248 -293zM1962 1345q0 52 51 52 q52 0 52 -52q0 -53 -52 -53q-51 0 -51 53z" />
<glyph unicode="&#x2c6;" horiz-adv-x="811" d="M233 1520q25 6 75 20q131 42 216 158q13 5 17 4l6 -10q-10 -41 -10 -64q0 -94 116 -94l6 -10q-14 -17 -67 -17q-64 0 -105 68q-36 -25 -112.5 -46.5t-124.5 -21.5q-10 0 -17 13z" />
<glyph unicode="&#x2dc;" horiz-adv-x="1087" d="M297 1499q61 117 160 117q36 0 107.5 -16.5t107.5 -16.5q35 0 80 39h2q12 0 12 -8q-62 -127 -176 -127q-34 0 -99.5 19.5t-99.5 19.5q-51 0 -78 -39h-6q-6 0 -10 12z" />
<glyph unicode="&#x2000;" horiz-adv-x="882" />
<glyph unicode="&#x2001;" horiz-adv-x="1765" />
<glyph unicode="&#x2002;" horiz-adv-x="882" />
<glyph unicode="&#x2003;" horiz-adv-x="1765" />
<glyph unicode="&#x2004;" horiz-adv-x="588" />
<glyph unicode="&#x2005;" horiz-adv-x="441" />
<glyph unicode="&#x2006;" horiz-adv-x="294" />
<glyph unicode="&#x2007;" horiz-adv-x="294" />
<glyph unicode="&#x2008;" horiz-adv-x="220" />
<glyph unicode="&#x2009;" horiz-adv-x="353" />
<glyph unicode="&#x200a;" horiz-adv-x="98" />
<glyph unicode="&#x2010;" d="M145 393q3 9 7 26h227q-4 -13 -14 -41q0 -6 -7 -6h-192q-23 15 -21 21z" />
<glyph unicode="&#x2011;" d="M145 393q3 9 7 26h227q-4 -13 -14 -41q0 -6 -7 -6h-192q-23 15 -21 21z" />
<glyph unicode="&#x2012;" d="M145 393q3 9 7 26h227q-4 -13 -14 -41q0 -6 -7 -6h-192q-23 15 -21 21z" />
<glyph unicode="&#x2013;" horiz-adv-x="1218" d="M145 393q13 9 30 26h993q-17 -13 -61 -41q0 -6 -31 -6h-839q-101 15 -92 21z" />
<glyph unicode="&#x2014;" horiz-adv-x="2243" d="M145 393q27 9 62 26h1985q-35 -13 -122 -41q0 -6 -62 -6h-1679q-201 15 -184 21z" />
<glyph unicode="&#x2018;" horiz-adv-x="266" d="M115 992q0 63 96 147v-4q0 -10 -10 -34.5t-10 -41.5l20 21q-1 -4 -1 -11q0 -38 34 -67q0 -3 1 -8.5t1 -7.5q0 -52 -82 -52q-49 0 -49 58z" />
<glyph unicode="&#x2019;" horiz-adv-x="266" d="M115 1087q0 52 82 52q49 0 49 -58q0 -63 -96 -147v4q0 10 10 34.5t10 41.5l-20 -21q1 4 1 11q0 38 -34 67q0 3 -1 8.5t-1 7.5z" />
<glyph unicode="&#x201a;" horiz-adv-x="266" d="M115 63q0 52 82 52q49 0 49 -58q0 -63 -96 -147v4q0 10 10 34.5t10 41.5l-20 -21q1 4 1 11q0 38 -34 67q0 3 -1 8.5t-1 7.5z" />
<glyph unicode="&#x201c;" horiz-adv-x="434" d="M115 992q0 63 96 147v-4q0 -10 -10 -34.5t-10 -41.5l20 21q-1 -4 -1 -11q0 -38 34 -67q0 -3 1 -8.5t1 -7.5q0 -52 -82 -52q-49 0 -49 58zM279 992q0 63 96 147v-4q0 -10 -10 -34.5t-10 -41.5l20 21q-1 -4 -1 -11q0 -38 34 -67q0 -3 1 -8.5t1 -7.5q0 -52 -82 -52 q-49 0 -49 58z" />
<glyph unicode="&#x201d;" horiz-adv-x="434" d="M115 1087q0 52 82 52q49 0 49 -58q0 -63 -96 -147v4q0 10 10 34.5t10 41.5l-20 -21q1 4 1 11q0 38 -34 67q0 3 -1 8.5t-1 7.5zM279 1087q0 52 82 52q49 0 49 -58q0 -63 -96 -147v4q0 10 10 34.5t10 41.5l-20 -21q1 4 1 11q0 38 -34 67q0 3 -1 8.5t-1 7.5z" />
<glyph unicode="&#x201e;" horiz-adv-x="434" d="M115 63q0 52 82 52q49 0 49 -58q0 -63 -96 -147v4q0 10 10 34.5t10 41.5l-20 -21q1 4 1 11q0 38 -34 67q0 3 -1 8.5t-1 7.5zM279 63q0 52 82 52q49 0 49 -58q0 -63 -96 -147v4q0 10 10 34.5t10 41.5l-20 -21q1 4 1 11q0 38 -34 67q0 3 -1 8.5t-1 7.5z" />
<glyph unicode="&#x2022;" horiz-adv-x="541" d="M254 379q0 89 79 89q80 0 80 -89q0 -90 -80 -90q-79 0 -79 90z" />
<glyph unicode="&#x2026;" horiz-adv-x="780" d="M68 72q0 71 63 71q64 0 64 -71q0 -72 -64 -72q-63 0 -63 72zM334 72q0 71 63 71q64 0 64 -71q0 -72 -64 -72q-63 0 -63 72zM600 72q0 71 63 71q64 0 64 -71q0 -72 -64 -72q-63 0 -63 72z" />
<glyph unicode="&#x202f;" horiz-adv-x="353" />
<glyph unicode="&#x205f;" horiz-adv-x="441" />
<glyph unicode="&#x25fc;" horiz-adv-x="535" d="M0 0v535h535v-535h-535z" />
</font>
</defs>
</svg>
